<?xml version="1.0" encoding="UTF-8"?>
<svg id="Layer_2" data-name="Layer 2" xmlns="http://www.w3.org/2000/svg" xmlns:xlink="http://www.w3.org/1999/xlink" viewBox="0 0 286.46 309.66">
  <defs>
    <style>
      .cls-1 {
        fill: url(#linear-gradient);
      }

      .cls-1, .cls-2, .cls-3, .cls-4, .cls-5, .cls-6, .cls-7, .cls-8, .cls-9, .cls-10, .cls-11, .cls-12, .cls-13, .cls-14, .cls-15, .cls-16, .cls-17, .cls-18, .cls-19, .cls-20, .cls-21, .cls-22, .cls-23, .cls-24, .cls-25, .cls-26, .cls-27, .cls-28, .cls-29, .cls-30, .cls-31, .cls-32, .cls-33, .cls-34, .cls-35, .cls-36, .cls-37, .cls-38, .cls-39, .cls-40, .cls-41, .cls-42 {
        stroke-width: 0px;
      }

      .cls-2 {
        fill: url(#linear-gradient-4);
      }

      .cls-3 {
        fill: url(#linear-gradient-2);
      }

      .cls-4 {
        fill: url(#linear-gradient-3);
      }

      .cls-5 {
        fill: #46803c;
      }

      .cls-6 {
        fill: #76864b;
      }

      .cls-7 {
        fill: #609d43;
      }

      .cls-8 {
        fill: #79ceea;
      }

      .cls-9 {
        fill: #4d5223;
      }

      .cls-10 {
        fill: #5b6632;
      }

      .cls-11 {
        fill: #85c451;
      }

      .cls-12 {
        fill: #322524;
      }

      .cls-13 {
        fill: #385331;
      }

      .cls-14 {
        fill: #3e4d4a;
      }

      .cls-15 {
        fill: #08888c;
      }

      .cls-16 {
        fill: #183027;
      }

      .cls-17 {
        fill: #0f1d14;
      }

      .cls-18 {
        fill: #135833;
      }

      .cls-19 {
        fill: #226a3d;
      }

      .cls-20 {
        fill: #243433;
      }

      .cls-21 {
        fill: #1cb5d2;
      }

      .cls-22 {
        fill: #0e9eb3;
      }

      .cls-23 {
        fill: #dee0cb;
      }

      .cls-24 {
        fill: #ccc6bb;
      }

      .cls-25 {
        fill: #afbca1;
      }

      .cls-26 {
        fill: #c7e5f8;
      }

      .cls-27 {
        fill: #d5d6d8;
      }

      .cls-28 {
        fill: #a69e8f;
      }

      .cls-29 {
        fill: #b1e1f3;
      }

      .cls-30 {
        fill: #cdd2b3;
      }

      .cls-31 {
        fill: #9daf7c;
      }

      .cls-32 {
        fill: #b9b0a2;
      }

      .cls-33 {
        fill: #978f7f;
      }

      .cls-34 {
        fill: #8b9d62;
      }

      .cls-35 {
        fill: #9fb6c4;
      }

      .cls-36 {
        fill: #848a62;
      }

      .cls-37 {
        fill: #7f7c6e;
      }

      .cls-38 {
        fill: #e3dfd9;
      }

      .cls-39 {
        fill: #eef7ec;
      }

      .cls-40 {
        fill: #f5f6f6;
      }

      .cls-41 {
        fill: #034223;
      }

      .cls-42 {
        fill: #69733b;
      }
    </style>
    <linearGradient id="linear-gradient" x1="240.6" y1="161.66" x2="240.81" y2="182.15" gradientUnits="userSpaceOnUse">
      <stop offset="0" stop-color="#e9e9eb"/>
      <stop offset="1" stop-color="#d0cac3"/>
    </linearGradient>
    <linearGradient id="linear-gradient-2" x1="204.29" y1="174.03" x2="191.69" y2="215.12" gradientUnits="userSpaceOnUse">
      <stop offset="0" stop-color="#dcdbd9"/>
      <stop offset="1" stop-color="#999585"/>
    </linearGradient>
    <linearGradient id="linear-gradient-3" x1="236.96" y1="184.57" x2="238.21" y2="211.03" gradientUnits="userSpaceOnUse">
      <stop offset="0" stop-color="#b9b2a5"/>
      <stop offset="1" stop-color="#8d8976"/>
    </linearGradient>
    <linearGradient id="linear-gradient-4" x1="102.55" y1="210.09" x2="72.59" y2="250.71" gradientUnits="userSpaceOnUse">
      <stop offset="0" stop-color="#014b2f"/>
      <stop offset="1" stop-color="#66aa85"/>
    </linearGradient>
  </defs>
  <g id="Layer_1-2" data-name="Layer 1">
    <g>
      <g>
        <g>
          <path class="cls-29" d="m248.91,39.75c-5.26-2.36-17.94,1.87-23.74-.5-3.99-1.63-1.51-9.6-1-4.5.26-1.85,1.45-3.77,3.25-4.75-1.45-3.29,1.1-8.25-1-9.75,8-7.77,29.1,6.39,22.49,19.49Z"/>
          <path class="cls-22" d="m248.91,39.75c-.09.19-.06,1.78-2.25,3.5-5.18-.96-23.52,2.38-25.74-2.75-1.6-3.7,3.76-18.56,5.5-20.24,2.1,1.49-.45,6.46,1,9.75-1.8.98-2.99,2.89-3.25,4.75-.51-5.11-2.99,2.87,1,4.5,5.8,2.37,18.48-1.86,23.74.5Z"/>
        </g>
        <g>
          <path class="cls-8" d="m285.89,22.76c-3.57-1.89-9.72-1.91-11.49-5,.38-.8,1.72-3.82,2.25-4,4.23,2.34,11.99,2.47,9.25,9Z"/>
          <path class="cls-15" d="m285.89,22.76c-.21.51-.82,1.89-1.25,2-8.41-1.54-14.22,1.36-10.25-7,1.78,3.09,7.93,3.1,11.49,5Z"/>
        </g>
        <g>
          <path class="cls-8" d="m212.42,40.75c-3.96-1.38-7.1-2.9-11-5,.34-.82,1.53-3.89,2.25-4,3.44,3.3,12.55,4.58,8.75,9Z"/>
          <path class="cls-15" d="m212.42,40.75c-.46.54-10.48-.37-12.24,0-.73-.42.95-4.26,1.25-5,3.9,2.1,7.04,3.62,11,5Z"/>
        </g>
        <path class="cls-21" d="m213.17.27c4.45-1.79,3.93,5.84,2,6.5-4.1,1.39-4.29-5.57-2-6.5Z"/>
        <g>
          <path class="cls-21" d="m275.15,42.25c3.48-1.58,4.3,5.66,2.5,6.5-4.29,1.99-3.82-5.9-2.5-6.5Z"/>
          <path class="cls-21" d="m280.64,98.73c3.57-.74,3.79,5.42,1,6-3.57.74-3.79-5.42-1-6Z"/>
        </g>
      </g>
      <g>
        <path class="cls-27" d="m43,63.74c-.31,1.38-3.4,5.68-.25,8.5,4.43-.63,7.01,1.44,7.5,1.5,7.9,1.03,20.67-1.64,27.74,0-7.05,3.95-19.01,15.02-9.5,19.99l-.25,1c-6.44-5.96-4.06,2.19,1,3.5,3.25.84,11.24-.72,13.99-.5,2.69.22,2.82,1.99,3,2,3.79.23,31.4.46,32.99,0,1.13-.33,3.53-3.66,2.75-5,.76-.13,2.26-1.38,3-1.5,1.63-.26,1.94-1.45,2.25-1.5.89-.14,4.87,1.06,8,.5.41-.07.08-.88.5-1,.68-.19,2.06.2,2.5,0,1.71-.8,7.33-8.71,6.75-6-.27.28-.73,1.23-1,1.5-3.68,3.76-7.66,7.39-11.49,11-11.67,10.98-23.82,21.68-36.48,31.49l-.25-1c-2.13,6.2-11.36-3.38-23.49-9-13.48-6.24-26.45-7.82-41.23-18.99,6.64,2.31,19.99,5.04,22.49-4,.74-2.68-6.95-16.11-12.74-16.99-2.07-.32-8.52.85-10.25,2l-1-.5c1-1.42,13.47-20.56,13.99-19.24-.41.71-.33,1.51-.5,2.25Z"/>
        <path class="cls-27" d="m214.92,58.75c-13.39,7.8-26.73,15.65-38.73,25.49-1.48.15-22.77-12.85-25.24-15.49.06-.11-.04-.6,0-1,9.97-.08,27.05,1.92,33.48-6,2.35-.83,3.61-2.55,5-4.5.07-.1.8-.08,1.5-2,1.62-4.44.7-11.25-3-14.49l1-4c10.55,4.49,18.28,13.83,25.99,21.99Z"/>
        <path class="cls-40" d="m136.46,23.76c-1.69.5-3.49.8-5.25,1-9.88,14.89-8.22,15.23-27.49,15.99-1.86,3.02-4,5.93-4.75,9.5-.35,1.66-.69,2.69-.5,4.5-.57-.15-1.95,3.3-2,3.5-8.53-7.17-16.93-15.51-27.99-18.49-3.06-.06,5.75-3.83,8.75-5,14.98-5.82,42.93-11.21,59.22-11Z"/>
        <path class="cls-35" d="m48.5,68.74c4.05.61,36.67-1.09,36.98.75.09.51-2.33.96-1,1.25-2.07.67-4.56,1.91-6.5,3-7.07-1.64-19.84,1.03-27.74,0-.49-.06-3.07-2.13-7.5-1.5-3.15-2.81-.06-7.11.25-8.5,2.19-.42,2.02,5.51,5.5,5Z"/>
        <path class="cls-40" d="m188.93,36.76l-1,4c-3.93-3.45-13.33-2.29-15.24-3-1.11-.41-3.72-6.85-20.74-10.5-.08-.76-.09-1.02.75-1,1.89.05,33.09,9.16,36.23,10.5Z"/>
        <path class="cls-8" d="m234.41,68.24c-1.96-2.19-8.5-2.19-11.99-5,1.18-5.43,10.71-3.04,13.99-.25.5,1.15-1.22,4.3-2,5.25Z"/>
        <path class="cls-15" d="m234.41,68.24c-2.64,3.21-3.97,2.3-11,.5-.02-1.17-1-1.86-1-3,0-.79-.13-1.91,0-2.5,3.49,2.81,10.03,2.81,11.99,5Z"/>
        <path class="cls-12" d="m274.4,173.69c1.12,4.72-2.46,33.69-4,39.98-1.34,5.48-3.41,10.03-6,14.99-2.04,3.92-4.54,7.35-7,11-2.31,3.42-5.43,7.81-8,11-2.55,3.17-5.25,6.5-8,9.5-13.51,14.71-39.58,34.79-57.97,41.98.13-1.17.75-2.39,1-3.5,2.23-9.83-1.28-20.84-1.5-30.74-1.46-3.28-22.41,6.32-20.99-15.49-4.64-3.76-16.9-9.43-17.99-15.49-1.81-10.09,4.98-6.98-9.75-13.74q-9.75-2.25-19.49-4.5c-3.9-3.7-12.46-8.88-8.25-10,11.47,2.18,23.2,3.95,34.48,7,1.37.37,5.18.42,6,1.75.12,2.11.51,4.2,1,6.25.25,1.06.23,2.96.5,4,.91,3.55,1.67,7.15,3.25,10.5,7.02,3.35,21.42,5.97,25.74,7.5,1.48.52,2.9,1.46,4.5,1.75-.31,3.92.48,3.56.5,3.75,1.14,8.61-2.82,13.36,4.5,4.5.18.24.57-1.43,1.5,1.25.36,1.05.68,5.99,1.5,9.25.17.69-.38,2.01.75,3.5.66.54,3.52.31,4.25.5l-.75,16.99c5.14-7.11,2.53-8.41,3.75-16.49.86.18,2.85.92,3.5,1,2.91.35,5.81.84,8.75,1,.91-1.12,6.12-6.37,6.25-7,3.28-1.39,2.47,1.79,3.75,2,.93.15,13.86-9.16,15.74-10.5.15-.11,2.43-.78,3.5-1.25l.5-15.49c-.42-.66-1.44-1.18-1.5-1.25l.5-7.5c4.33-1.97,8.53-4.3,12.74-6.5l4,7c1.33-.06,1.17-9.39,1.25-10.5.61-8.93.54-33.07,1-35.98.15-.97-.4-1.7.75-2.5l11.49-2c2.2-1.48-1.52-9.37,4.25-7.5Z"/>
        <path class="cls-27" d="m98.48,54.75c.18,1.74.48,2.59,1.5,4-1.62,2.61,6.19,7.67,7.75,8,2.16.46,37.26,1.05,43.23,1-.04.4.06.89,0,1-.06.1-1.21.61-1.5,1.75-1.72,6.84,1.97,6.88,2.5,7.25-1.92,2.9-4.62,5.04-7,7.5.59-2.71-5.04,5.2-6.75,6-.44.2-1.82-.19-2.5,0-.42.11-.09.93-.5,1-3.13.56-7.1-.64-8-.5-.31.05-.61,1.24-2.25,1.5.08-.26.46-.96.5-1,1.12-1.15,2.46-1.64,3-3.5.08-.26.51-2.13.5-2.25-.25-1.9-13.7-20.12-23.24-6.25l-13.99-7c-.11-.17.64-3.66.75-4,.05-.14.95-.89,1.5-2.5,1.2-3.49,1.6-5.23,2.5-8.5.05-.19,1.43-3.65,2-3.5Z"/>
        <path class="cls-35" d="m68.49,93.73c3.09,1.61,4.75.82,8,1,4.88.27,43.24.39,45.48,0,.78,1.33-1.62,4.67-2.75,5-1.58.46-29.2.23-32.99,0-.18-.01-.31-1.78-3-2-2.76-.22-10.74,1.34-13.99.5-5.06-1.31-7.44-9.46-1-3.5l.25-1Z"/>
        <g>
          <path class="cls-29" d="m53.5,96.23c-1.59.82-2.9.73-4.5,1-3.61-2.68-11.14-11.65-13.24-12.99-.33-.21-2.41-.35-2.75-.5-1.22-.53-1.45-1.99-3.5-1.5,0-.62.62-.74,1-1,1.73-1.15,8.18-2.32,10.25-2,5.79.89,13.49,14.31,12.74,16.99Z"/>
          <path class="cls-22" d="m49,97.23c1.6-.27,2.91-.18,4.5-1-2.5,9.04-15.85,6.31-22.49,4-1.42-.49-8.21-3.93-8.5-5.25-.27-1.52.83-2.3,1.5-3.75,2.42,1.46-.48,2.08-.5,2.25-.38,2.93,10.47,2.47,11.24,4.75,4.4-2.68,4.68.45,5,.5.62.1,7.24-1.17,9.25-1.5Z"/>
          <path class="cls-21" d="m49,97.23c-2,.33-8.63,1.6-9.25,1.5-.32-.05-.6-3.18-5-.5-.78-2.28-11.62-1.81-11.24-4.75.02-.17,2.92-.79.5-2.25.83-1.79,2.75-4.34,4-6,1.42-.01,4.91.3,5-1.5.34.15,2.42.29,2.75.5,2.1,1.34,9.63,10.31,13.24,12.99Z"/>
          <path class="cls-22" d="m33.01,83.73c-.09,1.8-3.58,1.49-5,1.5.6-.79.92-2.11,1.5-3,2.05-.5,2.28.97,3.5,1.5Z"/>
        </g>
        <path class="cls-35" d="m184.44,61.74c-6.43,7.91-23.51,5.92-33.48,6-5.98.05-41.07-.54-43.23-1-1.56-.33-9.37-5.38-7.75-8,2.11,2.92,5.45,3.16,8.75,3.5,3.56.36,67.91.8,71.47.5.64-.05,3.35-.68,4.25-1Z"/>
        <path class="cls-12" d="m197.93,270.65c-1.22,8.08,1.39,9.38-3.75,16.49l.75-16.99c1.39.36,2.12.31,3,.5Z"/>
        <path class="cls-16" d="m179.94,303.14c-8.61,5.44-29.68,6.72-40.23,6.5-9.08-.19-17.8-1.59-2.25-1.5,4.35.26,12.83.54,12.49-1,11.71.08,17.78-.5,28.99-4,.26-.08.75.08,1,0Z"/>
        <path class="cls-16" d="m120.97,306.13l-3-.5c.95.19,2.02.33,3,.5Z"/>
        <path class="cls-20" d="m96.48,299.14c-.73-.32-1.35-.71-2-1l2,1Z"/>
        <g>
          <path class="cls-40" d="m222.42,65.74c0,1.14.97,1.83,1,3,0,.47.1,1.16,0,1.5-.68,2.42-3.62,2.4-5.5,3-2.61-4.19-.87-5.14-2.25-10-2.11,3.05-4.21,6.1-5.75,9.5-.65,1.43-2.89,4.88-2.5,6.25l10,9.25c1.8,4.6-10.63-6.01-11.99-3-1.01-.48-1.43-.47-1.5-.5-.33-.15-1.36.09-2,0-.98-.84-5.76-7.5-6.25-7.5-.18,0-2.72,2.07-2.75,2.25-.25,1.3,11.03,21.14,14.49,21.74.3.14,1.45.92,1.5,1,1.72,2.64,2.76,19.33,11.99,26.99-1.66,18.91,7.28,20.48,11,28.49.58,1.24,1.16,1.9.25,3-1.6-.77-4.09-.65-5.25-1-.97-.29-1.36-.78-2-1.5,2.62-2.86-4.86-11.52-5.5-15.24-.66-3.84,1.19-8.77,0-11.99-.55-1.48-7.91-8.94-9.5-11.24-4.3-11.57-3.66-13.77-11-26.99-1.76-3.17-4.34-11.85-9.25-10-.42.16-.68,1.89-.75,2-1.13,1.79-1.85,4.3-2,4.5-4.44,5.95-5.37-.64-13.49,1.25,1.02,7.92,3.34,19.97,4.5,12.74l2.5,1c-.19.24.53.72.5.75-.58.52-1.11-.14-2,.75-.17.17-.33.32-.5.5-6.29,6.47-.29,10.8-7,27.99-.08.2-1.66,1.38-2.5,3.5h-.5l5.5-14.74c-.4-3.88,1.53-16.37,1.5-17.24-.09-2.64-3.15-17.83-4.75-18.99-5.02-3.64-8,2-8.5,2-3.21,0-9.54-19.48-6.75,4,.97,8.13,3.19,16.16,4.5,24.24.71,7.43-.03,10.21,0,10.75.15,2.79-.84,5.44-.5,8.25,1.02,10.16,3.97,15.3-2.5,23.49,3.45,2.59,9.15,3.4,10,3.75.94.38,10.39,5.37,11,4.25,0-9.77.45-16.88,3-26.24.23-.84,1.27-1.16,1.5-2,1.71-6.23,3.09-12.56,5-18.74l-4.5-25.99h1c1.67,17.1,8.98,25.41.5,42.98.16,5.14-.84,9.02-1.5,13.74-.39,2.81-3.15,16.42-2.5,17.74,3.06,1.46,6.25,2.32,9.5,3.25.03,0-.2.32.5.5,2.15.54,4.31,1.15,6.5,1.5-.21,5.73-12.44-.57-18.24-1.5,1.12-2.38-3.51-1.76-5.5-2.5-10.13-3.77-22.7-9.14-32.74-13.49-7.99-3.46-16.44-6.7-24.24-10.5-5.67-2.76-11.03-7.86-17.24-9.5-1.15-.3-1.91-.26-3-.5-24.83-15.63-41.16-18.04-69.97-34.48-2.96-1.69-23.65-13.33-23.99-14.74-1.79-7.41,9.02,2.21,17.74,6.25,1.4.36,1.57-.85,2.25-1.5,2.79-2.64,5.22-7.75,7.5-11l1,.5c-.38.26-.99.38-1,1-.58.89-.9,2.21-1.5,3-1.25,1.66-3.17,4.21-4,6-.67,1.45-1.77,2.23-1.5,3.75.28,1.32,7.08,4.75,8.5,5.25,14.78,11.17,27.75,12.75,41.23,18.99,12.13,5.62,21.36,15.2,23.49,9l.25,1c-3.69,2.17,2.88,3.54,10,7,1.31.63,7.95,5.2,8.75,5,8.8-13.26,11.03-12.62.75.25,1.01.83,7.79,4.32,8.25,4.25,2.05-.3,9.36-18.25,13.24-19.74.24-5.13,1.11-10.12,1.5-15.24,0-.07,1.09.09,0-1.5,4.69-6.36,6.81-6.53,5.5-14.74,3.35-10.41,4.23,1.64,3.5,5.5-.32,1.69-2.54,3.65-3,5.25-2.1,7.3-3.32,15.23-4.5,22.74-1.58,1.73-2.65,3.88-4,5.75-1.64,2.26-8.31,8.54-11,12.24l12.24,5.25c3.41-8.92.28-14.35,1-14.49,3.28,4.64.24,10.06.25,15.24,3.14.92,16.44,8.73,18.49,6.5.29-.32,3.45-7.56,3.5-8,.24-2.09-3.06-16.81-1-26.99l-4-17.24c-.01-.17.01-.33,0-.5-.36-5.86-2.2-23.52-2-25.24.06-.48,1.34,0,1.5-.5-2.78-3.84-2.78-2.1-3-2.25-.53-.37-4.22-.4-2.5-7.25.29-1.14,1.44-1.65,1.5-1.75,2.47,2.65,23.76,15.64,25.24,15.49,12.01-9.83,25.35-17.69,38.73-25.49,2.87,3.04,7.15,7.81,7.5,7Z"/>
          <path class="cls-9" d="m149.95,94.73c1.88,8.78,1.69,17.78,2,26.74.82,1.45,1.33-4.56,3-1.5,1,1.84,4.11,23.18.5-2-.31-3.48.19-8.73,0-11.74l4,17.24c-2.07,10.18,1.24,24.9,1,26.99-.05.43-3.2,7.67-3.5,8-2.05,2.23-15.35-5.58-18.49-6.5,0-5.18,3.03-10.6-.25-15.24-.72.14,2.41,5.58-1,14.49l-12.24-5.25c2.69-3.71,9.36-9.99,11-12.24,6.51,3.59,7.03-14.86,8-16.74.51-.99,3.78-1.67,4-2.5.26-1.02-1.93-2.74-2-3-.7-2.81.09-6.02-1.5-6.25.46-1.59,2.68-3.56,3-5.25.73-3.86-.15-15.91-3.5-5.5,1.31,8.21-.8,8.38-5.5,14.74-4.88,6.61-11.07,12.43-14.99,19.74l4-3.75c-2.25,8.33,5.57,3.44,7.5-.75,1.01-2.2.39-7.96,1.5-11.74.57-.74,1.05-1.64,2-2-.39,5.12-1.26,10.12-1.5,15.24-3.88,1.49-11.2,19.44-13.24,19.74-.46.07-7.23-3.42-8.25-4.25,10.28-12.87,8.05-13.51-.75-.25-.79.2-7.44-4.36-8.75-5l27.99-33.23c.64-4.21-1.24-3.47-1.5-5.25,3.83-3.61,7.82-7.24,11.49-11,3.66,3.61,3.21-.08,5,1.75-.07,2.13.56,4.2,1,6.25Z"/>
          <path class="cls-9" d="m105.97,136.21c-7.11-3.46-13.69-4.82-10-7,12.66-9.81,24.81-20.5,36.48-31.49.26,1.78,2.14,1.04,1.5,5.25l-27.99,33.23Z"/>
          <path class="cls-10" d="m155.45,105.72c-4.95-6.11-.89-15.83-5.5-11-.44-2.05-1.06-4.12-1-6.25-1.78-1.83-1.33,1.86-5-1.75.27-.27.73-1.22,1-1.5,2.38-2.46,5.08-4.59,7-7.5.22.15.22-1.59,3,2.25-.16.5-1.44.02-1.5.5-.21,1.72,1.64,19.38,2,25.24Z"/>
          <path class="cls-9" d="m175.44,105.72c.03.87-1.9,13.36-1.5,17.24l-5.5,14.74c.56,6.9-1.83,17.74-1.5,23.49-8.24,2.44-3.06-3.76-3-4.25.35-2.68.81-16.86-2-16.99-.64-3.8,4.89-22.95,1.75-24.74-5.56-3.16-.79,11.91-3.75,12.49-.03-.54.71-3.32,0-10.75-1.31-8.08-3.53-16.11-4.5-24.24,5.5-.51,17.06,14.6,18.24,14.49.65-.06.57-1.9,1.75-1.5Z"/>
          <path class="cls-9" d="m180.94,136.21c-1.08.31-.06,2.13-.75,2.5-.13.07-.95-2.67-2.25-1.75-.48,3.91-5.71,25.63-5.5,26.99.17,1.05,4.44,4.37,5,0,.32-2.47-.76-21.25,3.5-22.74-2.55,9.35-3,16.47-3,26.24-.6,1.12-10.05-3.87-11-4.25.81-1.92.8-4.88,1-7,5.54,4.58,3.56-13.29,5.5-21.49.94-3.98,6.37-10.25,5-28.49.17-.18.33-.33.5-.5,3-1.33,3.41,8.52,3.5,11.24.24,7.54-1.95,12.75-1.5,19.24Z"/>
          <path class="cls-10" d="m175.44,105.72c-1.18-.4-1.1,1.44-1.75,1.5-1.18.1-12.75-15.01-18.24-14.49-2.79-23.48,3.54-4,6.75-4,.5,0,3.47-5.64,8.5-2,1.6,1.16,4.66,16.36,4.75,18.99Z"/>
          <path class="cls-9" d="m166.94,161.2c.04.66-.02,1.33,0,2-.85-.34-6.54-1.16-10-3.75,6.46-8.19,3.52-13.33,2.5-23.49-.34-2.81.65-5.46.5-8.25,2.96-.58-1.81-15.66,3.75-12.49,3.14,1.79-2.39,20.94-1.75,24.74,2.81.13,2.35,14.31,2,16.99-.06.49-5.24,6.69,3,4.25Z"/>
          <path class="cls-9" d="m182.44,139.21c-.23.84-1.27,1.16-1.5,2-4.26,1.49-3.18,20.27-3.5,22.74-.56,4.37-4.83,1.05-5,0-.22-1.36,5.02-23.08,5.5-26.99,1.3-.92,2.12,1.82,2.25,1.75.68-.36-.33-2.19.75-2.5.13,1.82-.62,2.53,1.5,3Z"/>
          <path class="cls-10" d="m155.45,105.72c.01.17-.01.33,0,.5.19,3.02-.31,8.27,0,11.74,3.61,25.18.5,3.84-.5,2-1.67-3.06-2.17,2.95-3,1.5-.31-8.96-.12-17.96-2-26.74,4.61-4.83.54,4.89,5.5,11Z"/>
          <path class="cls-10" d="m135.96,133.71c1.35-1.86,2.41-4.02,4-5.75,1.18-7.51,2.4-15.44,4.5-22.74,1.59.23.8,3.43,1.5,6.25.06.26,2.26,1.98,2,3-.22.83-3.49,1.51-4,2.5-.97,1.88-1.49,20.33-8,16.74Z"/>
          <path class="cls-9" d="m173.44,134.71c-1.94,8.2.04,26.07-5.5,21.49.59-6.15,1.2-12.3,1-18.49.83-2.12,2.42-3.3,2.5-3.5l2,.5Z"/>
          <path class="cls-10" d="m173.44,134.71l-2-.5c6.7-17.19.71-21.52,7-27.99,1.38,18.24-4.06,24.51-5,28.49Z"/>
          <path class="cls-42" d="m180.44,104.23l-2.5-1c.1-.61-2.21-9.86-2-12.24,5.93-.95,3.73,8.36,6,12.49.21,1.24-1.35.57-1.5.75Z"/>
          <path class="cls-23" d="m138.46,110.72c-.95.35-1.43,1.26-2,2-1.79,2.31-8.52,10.74-9,12.49l-4,3.75c3.92-7.31,10.11-13.13,14.99-19.74,1.09,1.59,0,1.42,0,1.5Z"/>
          <path class="cls-36" d="m167.94,156.2c-.2,2.11-.19,5.07-1,7-.02-.66.04-1.34,0-2-.33-5.75,2.06-16.59,1.5-23.49h.5c.2,6.19-.41,12.34-1,18.49Z"/>
          <g>
            <path class="cls-34" d="m270.4,142.71c-4.15,4.16-1.66-.67-6.5-7,.67.05.64-1.35.5-1.75-.65-1.86-19.49-29.53-21.99-32.74l2-5.5c12.3,16.78,20.08,25.88,25.99,46.98Z"/>
            <path class="cls-6" d="m249.41,120.22c.48.9,6.07,9.34,6.5,9.75.71.67,4.3.92,8,5.75,4.84,6.32,2.34,11.16,6.5,7,.52,1.86,1.16,3.57,1.5,5.5.18,1.04,1.34,3.28,1,4.25-.36,1.02-1.76.62-2,.75-2.79-4.03-7.44-14.79-9-16.74-4.23-5.31-8.11-3.25-11.99-8-7.57-11.02-16.53-20.96-22.99-32.74l1.5-2.5c.21.26,3.9,1.31,2.5,5.25,2.67,2.48,16.32,22.47,17.74,22.74.32.06.08-1.13.75-1Z"/>
            <path class="cls-31" d="m232.92,80.74c3.9,4.99,7.75,9.88,11.49,14.99l-2,5.5c-.63-.8-1.02-1.78-1.75-2.5l-.25,1c-1.07-1.81-8.22-11.36-10-13.49,2.51-1.06-.99-5.04,2.5-5.5Z"/>
            <path class="cls-25" d="m232.92,80.74c-3.49.45,0,4.44-2.5,5.5-3.24-3.9-10.29-9.45-12.49-12.99,1.88-.6,4.81-.58,5.5-3,2.71-.22,6.39,6.53,9.5,10.5Z"/>
            <path class="cls-34" d="m217.92,73.24c2.2,3.54,9.25,9.1,12.49,12.99,1.78,2.14,8.92,11.68,10,13.49,4.81,8.13,5.91,14.69,9,20.49-.67-.13-.43,1.06-.75,1-1.42-.27-15.07-20.26-17.74-22.74,1.4-3.94-2.28-4.99-2.5-5.25-5.87-7.09-12.89-13.16-18.49-20.49,1.53-3.39,3.64-6.45,5.75-9.5,1.38,4.86-.36,5.8,2.25,10Z"/>
            <path class="cls-42" d="m228.42,93.23l-1.5,2.5-1.25-2c-3.52-1.08-5.62-3.11-8.25-5.5l-10-9.25c-.39-1.37,1.85-4.82,2.5-6.25,5.61,7.33,12.62,13.4,18.49,20.49Z"/>
            <path class="cls-34" d="m242.41,101.23c2.5,3.21,21.34,30.87,21.99,32.74.14.4.17,1.8-.5,1.75-3.7-4.83-7.29-5.08-8-5.75-.43-.4-6.02-8.84-6.5-9.75-3.09-5.8-4.18-12.36-9-20.49l.25-1c.73.72,1.12,1.7,1.75,2.5Z"/>
          </g>
          <g>
            <path class="cls-6" d="m267.4,150.2c.87,1.29,2.17,2.66,3,4,5.4,8.78,3.4,8.98,3.5,9.5-5.47-.69-7.17-6.04-12.49-4-9.08-10.23-18.66-20.31-27.49-30.74-2.36-2.79-4.14-6.41-6.5-9.25,3.49-1.51,5.21,3,8-3.5,3.82,4.67,12.03,15.7,15.24,18.49,2.97,2.58,9.82,5.92,10.5,6.5,1.23,1.05,4.66,6.65,6.25,9Z"/>
            <path class="cls-39" d="m217.42,88.23c2.62,2.38,4.72,4.42,8.25,5.5l1.25,2c6.46,11.78,15.42,21.71,22.99,32.74,3.89,4.74,7.77,2.69,11.99,8,1.55,1.95,6.2,12.71,9,16.74-.06.04.26,1.07-.5,1-.82-1.34-2.13-2.71-3-4-6.53-19.01-12.13-15.47-15.74-17.99-5.77-4.03-23.18-35.41-31.99-40.48-4.57-2.52-9.55-4.29-14.24-6.5,1.37-3.02,13.8,7.6,11.99,3Z"/>
            <path class="cls-9" d="m220.92,119.22c4.05,7.04,10.64,14.49,11,22.74,7.38,3.91,13.67,9.08,19.99,14.24-10.07-8.1-14.41,8.89-19.99,1.5-3.72-8-12.65-9.58-11-28.49,6.18-.27-5.97-6.71,0-10Z"/>
            <path class="cls-34" d="m203.93,84.73c4.51,4.82,10.86,7.65,15.74,11.99,8.24,7.33,10.56,13.16,15.74,19.49-2.79,6.5-4.51,1.99-8,3.5-3.18-3.83-12.23-14.6-13.49-12.99-3.09-6.15-3.77-8.87-5-4.5-.05-.08-1.2-.86-1.5-1-.27-7.89-8.21-14.44-5.5-16.49.64.09,1.67-.15,2,0Z"/>
            <path class="cls-42" d="m205.43,85.23c4.69,2.2,9.68,3.98,14.24,6.5,8.81,5.07,26.21,36.45,31.99,40.48,3.61,2.52,9.21-1.02,15.74,17.99-1.59-2.35-5.01-7.94-6.25-9-.67-.57-7.53-3.92-10.5-6.5-3.22-2.79-11.42-13.82-15.24-18.49-5.18-6.33-7.51-12.16-15.74-19.49-4.88-4.34-11.23-7.17-15.74-11.99.07.03.49.02,1.5.5Z"/>
            <path class="cls-9" d="m213.92,106.72c3.06,6.07,4.01,7.3,7,12.49-5.97,3.29,6.18,9.73,0,10-9.23-7.66-10.28-24.35-11.99-26.99,1.23-4.37,1.9-1.65,5,4.5Z"/>
            <path class="cls-6" d="m201.93,84.73c-2.72,2.05,5.23,8.6,5.5,16.49-3.46-.6-14.74-20.44-14.49-21.74.03-.17,2.57-2.25,2.75-2.25.49,0,5.27,6.66,6.25,7.5Z"/>
            <path class="cls-42" d="m227.42,119.72c2.36,2.84,4.13,6.46,6.5,9.25,8.83,10.43,18.41,20.51,27.49,30.74-.92.35-2.6,1.05-3,2-2.68-.73-4.75-4.07-6.5-5.5-6.32-5.17-12.61-10.34-19.99-14.24-.36-8.25-6.94-15.7-11-22.74-2.99-5.2-3.94-6.42-7-12.49,1.26-1.61,10.32,9.17,13.49,12.99Z"/>
          </g>
          <path class="cls-9" d="m127.46,125.22c.47-1.76,7.2-10.18,9-12.49-1.1,3.78-.49,9.54-1.5,11.74-1.92,4.19-9.75,9.08-7.5.75Z"/>
          <g>
            <path class="cls-9" d="m196.93,143.71c-.16,1.35-.68,2.6-.5,4-2.26,8.62-4.73,15.95-6.5,24.49-3.24-.92-6.44-1.79-9.5-3.25-.65-1.32,2.11-14.93,2.5-17.74,3.17,1.9,1.99-7.51,3-11.74,1.17-4.91,4.13-9.06,5-15.74,8.01.93-4.31,26.52,6,19.99Z"/>
            <path class="cls-10" d="m190.93,123.72c-.87,6.69-3.83,10.83-5,15.74-1.01,4.24.17,13.64-3,11.74.66-4.73,1.66-8.6,1.5-13.74,8.48-17.57,1.17-25.88-.5-42.98h-1l4.5,25.99c-1.91,6.18-3.29,12.51-5,18.74-2.11-.46-1.37-1.18-1.5-3-.45-6.49,1.74-11.7,1.5-19.24-.09-2.73-.49-12.58-3.5-11.24.89-.89,1.42-.23,2-.75.03-.03-.69-.51-.5-.75.15-.18,1.71.49,1.5-.75-2.27-4.13-.06-13.44-6-12.49-.21,2.39,2.1,11.63,2,12.24-1.16,7.22-3.48-4.82-4.5-12.74,8.13-1.89,9.06,4.7,13.49-1.25,1.98,11.1,5.47,23.16,4,34.48Z"/>
            <path class="cls-6" d="m198.93,92.73c-3.44.31,1.51,5.59.5,7.25,4.57,6.15,6.46,13.87,10.5,19.74.14.37-.77.69-.5,1.25l9.5,12.99c-3.53,10.8,3.73,13.97,3.25,21.24-5.91-.29-9.03-26.01-11.99-25.99-.64,0-.55,1.65-1.25,1.25-.86-.5-3.17-9.69-3.5-11.49l-.75-.75c-.44.13-1.16,1.47-1.25,1.5-.36.1-1.9.49-2,.5-.93.06-1.68-.71-2.5-1-.46-10.16-3.72-20.62-7.5-29.99-.57-1.42-.79-4.39-2.5-4.5.07-.11.33-1.84.75-2,4.91-1.86,7.48,6.82,9.25,10Z"/>
            <path class="cls-6" d="m209.93,119.72c1.58,2.3,8.95,9.76,9.5,11.24,1.19,3.23-.66,8.15,0,11.99.64,3.72,8.12,12.39,5.5,15.24-.23.25-5.03,2.49-6,3-1.02-3.53-10.02-18.49-12.49-18.99-.14-.03-.35,0-.5,0-1.25-7.31-.22-15.6-2.5-22.49.09-.03.81-1.37,1.25-1.5l.75.75c.33,1.81,2.64,11,3.5,11.49.7.4.61-1.24,1.25-1.25,2.97-.02,6.09,25.7,11.99,25.99.48-7.27-6.78-10.44-3.25-21.24l-9.5-12.99c-.27-.56.64-.87.5-1.25Z"/>
            <path class="cls-9" d="m191.43,89.23c-.57,7.89,3.17,20.27,5,30.24.04.21,1.41.43,1.5,1,.34,2.15-.25,16.05-.5,19.74-.03.39-.34,2.21-.5,3.5-10.31,6.53,2.01-19.06-6-19.99,1.47-11.32-2.02-23.39-4-34.48.15-.2.87-2.71,2-4.5,1.71.11,1.92,3.08,2.5,4.5Z"/>
            <path class="cls-9" d="m203.43,119.72c2.28,6.89,1.25,15.18,2.5,22.49-4.88.32-8.8,28.74-10,30.24-1.71,2.14-6.53-2.77-5.5.25-.7-.18-.47-.49-.5-.5,1.77-8.54,4.24-15.87,6.5-24.49.38-.12.77-.7,1-1,.21-.27,3.82-3.22,5-4.75q-.5-10.87-1-21.74c.1,0,1.64-.4,2-.5Z"/>
            <path class="cls-9" d="m205.93,142.21c.15,0,.36-.03.5,0-.09,10.9-9.22,28.02-4,28.49-1.85,1.13-3.53,2.56-5.5,3.5-2.19-.35-4.35-.96-6.5-1.5-1.03-3.02,3.78,1.89,5.5-.25,1.2-1.5,5.12-29.92,10-30.24Z"/>
            <path class="cls-42" d="m198.93,92.73c7.33,13.21,6.7,15.41,11,26.99-4.04-5.87-5.92-13.59-10.5-19.74,1.01-1.66-3.94-6.94-.5-7.25Z"/>
            <path class="cls-9" d="m218.92,161.2c-2.16,1.13-4.73,1.68-7,3-3.53,2.06-4.73,3.34-5,3.5-1.61.94-2.96,2.06-4.5,3-5.23-.47,3.91-17.59,4-28.49,2.48.5,11.47,15.46,12.49,18.99Z"/>
            <path class="cls-30" d="m197.43,146.71c-.23.3-.62.88-1,1-.18-1.39.34-2.65.5-4,.16-1.29.47-3.11.5-3.5h.5c-.18,2.17-.52,4.32-.5,6.5Z"/>
            <path class="cls-10" d="m198.93,119.22c.18,4.01-.61,16.23-1,20.99h-.5c.25-3.69.84-17.59.5-19.74-.09-.57-1.46-.79-1.5-1-1.83-9.97-5.57-22.35-5-30.24,3.78,9.37,7.04,19.83,7.5,29.99Z"/>
            <path class="cls-10" d="m201.43,120.22q.5,10.87,1,21.74c-1.18,1.53-4.79,4.47-5,4.75-.02-2.18.32-4.33.5-6.5.39-4.76,1.18-16.98,1-20.99.82.29,1.57,1.06,2.5,1Z"/>
          </g>
        </g>
        <g>
          <g>
            <path class="cls-29" d="m151.95,27.26c17.02,3.65,19.63,10.08,20.74,10.5,1.91.71,11.31-.46,15.24,3,3.7,3.25,4.62,10.05,3,14.49h-1.5c-6.05-3.35-12.97-6.27-18.74-10-15.71-10.14-13.52-18.06-35.48-7.5.83-3.38,7.7-9.6,7.75-10.25.02-.32-1.45-1.17-1.5-1.25-.6-1.03-1.39-1.97-2-3,1.32-.21,4.33-1.57,4.75-1.5l7.75,5.5Z"/>
            <path class="cls-21" d="m139.46,23.26c.61,1.03,1.4,1.97,2,3-1.4,2.57-7.25,1.62-8.25,2-.41.15-3.98,4.02-6.25,6-.64.56-.92,1.51-1.5,2-10.95,9.41-12.71,2.63-18.74,5-2.47,4.52-6.31,9.51.5,11.99,11.47,4.19,65.55.94,82.21,2h1.5c-.7,1.92-1.43,1.9-1.5,2-.66-.79-2.56.37-3.75,1.5-16.63-2.22-72.49,1.19-80.46,0-5.95-.89-6.28-3.01-6.25-8.5.75-3.57,2.89-6.48,4.75-9.5,19.27-.76,17.6-1.1,27.49-15.99,1.75-.2,3.55-.5,5.25-1,.76-.22,2.14-.36,3-.5Z"/>
            <path class="cls-21" d="m189.43,57.25c-1.39,1.95-2.65,3.67-5,4.5-.9.32-3.61.95-4.25,1-3.56.3-67.91-.14-71.47-.5-3.29-.33-6.63-.58-8.75-3.5-1.02-1.41-1.32-2.26-1.5-4-.19-1.81.15-2.84.5-4.5-.03,5.48.3,7.61,6.25,8.5,7.97,1.19,63.83-2.22,80.46,0,1.19-1.13,3.09-2.29,3.75-1.5Z"/>
            <path class="cls-8" d="m189.43,55.25c-16.66-1.06-70.74,2.19-82.21-2-6.81-2.49-2.97-7.48-.5-11.99,6.03-2.37,7.79,4.41,18.74-5,1.92,4.04,4.42-.19,4-.75-.56-.73-2.87.52-2.5-1.25,2.27-1.98,5.84-5.84,6.25-6,.99-.37,6.84.57,8.25-2,.05.08,1.52.93,1.5,1.25-.05.64-6.91,6.86-7.75,10.25,21.97-10.57,19.77-2.64,35.48,7.5,5.77,3.72,12.7,6.64,18.74,10Z"/>
            <path class="cls-26" d="m125.46,36.26c.57-.49.86-1.44,1.5-2-.37,1.77,1.94.52,2.5,1.25.42.56-2.08,4.79-4,.75Z"/>
          </g>
          <g>
            <path class="cls-21" d="m128.46,88.73c-.54,1.86-1.87,2.35-3,3.5-4-2.11-15.16-1.78-20.74-1.5-.46.02-.04,1.47-.5,1.5-8.85.52-25.3-.61-15.99.5-2.26,2.62-11.12-.63-11.74,2-3.25-.18-4.91.61-8-1-9.52-4.97,2.44-16.04,9.5-19.99,3.7.86.72,5.31-4.75,8-.78.38-6.54-1.08-4,4.5h50.48c1.94,2.27,6.05,3.24,8.75,2.5Z"/>
            <path class="cls-22" d="m125.46,92.23s-.42.74-.5,1c-.73.11-2.24,1.37-3,1.5-2.24.39-40.6.27-45.48,0,.62-2.62,9.49.62,11.74-2-9.31-1.1,7.14.02,15.99-.5.46-.03.04-1.48.5-1.5,5.58-.28,16.74-.61,20.74,1.5Z"/>
            <path class="cls-8" d="m92.48,69.24c-.11.34-.86,3.83-.75,4l13.99,7c9.54-13.88,22.99,4.35,23.24,6.25.02.11-.42,1.98-.5,2.25-2.69.74-6.81-.23-8.75-2.5h-50.48c-2.54-5.57,3.22-4.11,4-4.5,5.47-2.69,8.45-7.14,4.75-8,1.94-1.09,4.42-2.33,6.5-3,2.54-.82,5.27-1.75,8-1.5Z"/>
          </g>
          <g>
            <path class="cls-8" d="m66.99,41.25c2.7,4.44,9.32,11.64,13.24,14.99,5.88,5.03,15.44,7.93,4.25,7-5.37-2.31-13.88-8.96-14.74-9-.27-.01-4.72,2.48-4.75,2.75-.03.29,3.41,3.62,4,4.25-2.53-.88-4.87-1.78-7.25-3-1.33.56-8.01,5.06-8.5,5-.7-.08-4.2-5.01-4.25-5.5-.16-1.68,1.36-2.68,2-4,.33-.29.6-.66,1-1,2.94-2.5,6.6-4.35,9-7.5.64-.4,5.69-3.77,6-4Z"/>
            <path class="cls-29" d="m96.48,58.25c-.9,3.27-1.3,5.01-2.5,8.5.2-1.5-.75-.82-1.5-1-2.71-.66-5.43-1.39-8-2.5,11.19.93,1.63-1.97-4.25-7-3.92-3.36-10.55-10.55-13.24-14.99.08-.06.55-1.45,1.5-1.5,11.06,2.98,19.46,11.32,27.99,18.49Z"/>
            <path class="cls-21" d="m51,53.75c-.64,1.31-2.16,2.31-2,4-3.49-1.91-.83,6.61,2.75,7.5,2.64.66,24.37-.11,25.49.5.42.23-.87,1.49,0,2,.53.31,1.67-.81,3.5-.5.4.07.1.95.5,1,2.24.27,13.2.9,11.24-2.5.75.18,1.7-.5,1.5,1-.55,1.61-1.45,2.36-1.5,2.5-2.73-.25-5.46.68-8,1.5-1.33-.29,1.09-.74,1-1.25-.31-1.84-32.93-.14-36.98-.75-7.32-8.93-3.39-9.82,2.5-14.99Z"/>
            <path class="cls-22" d="m60.99,45.25c-2.39,3.15-6.06,4.99-9,7.5,1.08-7.09,2.82-3.71,9-7.5Z"/>
            <path class="cls-21" d="m84.48,63.24c2.57,1.11,5.29,1.84,8,2.5,1.95,3.4-9.01,2.77-11.24,2.5-.4-.05-.1-.93-.5-1-1.82-.31-2.97.81-3.5.5-.87-.51.42-1.77,0-2-1.12-.61-22.85.16-25.49-.5-3.58-.89-6.24-9.41-2.75-7.5.05.49,3.55,5.41,4.25,5.5.49.06,7.17-4.44,8.5-5,2.38,1.21,4.72,2.11,7.25,3,.08.03.57,1.62,1.5.75-.68-1.01-1.44-.69-1.5-.75-.59-.63-4.03-3.96-4-4.25.03-.27,4.47-2.76,4.75-2.75.86.03,9.37,6.69,14.74,9Z"/>
            <path class="cls-8" d="m68.99,61.24c.06.06.82-.27,1.5.75-.93.87-1.42-.72-1.5-.75Z"/>
          </g>
        </g>
        <g>
          <path class="cls-32" d="m27.01,106.22c2.93.67,21.14,26.7,21.99,24.74-.67-2.11-6.76-16.05-5.25-16.24,6.45,5.1,12.44,10.71,18.74,15.99,3.1,2.6,5.68,6.22,9.5,8,1.61.75,3.38.02,3,1.5-.39,1.45-1.27.89-1,2.5-2.3-.8-4.65-1.73-6.75-3-3.56,2.52-2.12,2.81-2.25,3-.98,1.46-2.8,2.89-2.25,5,1.13,1.79,34.59,12.86,39.48,14.99,12.33,5.37,23.71,13.06,35.48,19.49,3.04,1.66,14.71,5.74,16.99,7.5,2.26,1.74,1.97,5.22,6.5,5.5,4.89,7.66,14.57,11.55,22.49,16.49l16.99,15.99c1.02-1.43,6.51,2.61,9.25,4.5-.58,0-1.04,1-1.25,1-.71.01-12.85-4.21-13.49-4.5-5.58-2.5-14.19-8.3-17.99-12.99-9.17-.48-12.21-6.99-23.49-11.99-10.41.59-17.85-11.78-28.49-12.99-7.98-7.12-22.5-14.46-32.99-16.99-4.17-2.76-8.26-5.86-12.49-8.5-8.69-5.41-8.5-1.8-19.24-15.24-.2-.25.2-1.74,0-2-6.35-8.15-21.08-10.2-30.99-11.24-1.12-9.05-1.49-7.94-8-3.5-.87-1.19-5.64-3.23-6.5-2.5-.42-2.12-.66-7.07-1.75-7.5l-11.24,5.5c.56-12.02.42-23.97.75-35.98,7.72,4.94,16.01,9.24,24.24,13.49Z"/>
          <path class="cls-27" d="m95.98,136.21l11.49,18.24c-.73,1.32-15.62-5.07-17.49-5.75-4.38-3.71-15.94-22.04-19.24-23.99-10.55-6.21,5.4,11.26,4.25,15.49.38-1.47-1.39-.75-3-1.5,3.02-1.23-.43-2.69-4.25-7.5-.18,2.1-5.38-2.55-5.25-.5-6.3-5.28-12.29-10.89-18.74-15.99-1.51.2,4.57,14.13,5.25,16.24-.85,1.96-19.06-24.07-21.99-24.74.14-2.59-2.75-.9-1-4.5,28.81,16.44,45.13,18.85,69.97,34.48Z"/>
          <path class="cls-1" d="m251.91,156.2c1.74,1.43,3.82,4.77,6.5,5.5l1.25,1.5,14.74,4c-.33,5.99-.58,2.16-1.5,3.75-1.18,2.04,1.23,1.59,1.5,2.75-5.77-1.88-2.05,6.02-4.25,7.5l-11.49,2c-1.15.8-.6,1.52-.75,2.5-1.96-.38-2.06,3.74-2.75,4-1.48.56-26.62-8.58-29.99-10-1.86-.78-11.27-7.65-9.25-3-.04-.09-.53.53-1.5-1.25-.1-.18.02-2.59-1-4-1.42-1.95-2.82-1.18-4-2-.19-.14,3.07-1.45-2.5-1.75.26-.15,1.47-1.44,5-3.5.89,3.82,12.94-1.18,14.99-4.5,1.15.35,3.65.23,5.25,1,.91-1.1.33-1.75-.25-3,5.58,7.39,9.93-9.6,19.99-1.5Z"/>
          <path class="cls-40" d="m273.9,163.7c.22,1.19.7-.18.5,3.5l-14.74-4-1.25-1.5c.4-.95,2.08-1.65,3-2,5.33-2.04,7.02,3.31,12.49,4Z"/>
          <path class="cls-3" d="m140.46,156.7c10.04,4.35,22.61,9.72,32.74,13.49,1.99.74,6.62.12,5.5,2.5,5.8.93,18.03,7.23,18.24,1.5,1.97-.94,3.65-2.37,5.5-3.5,1.53-.94,2.89-2.06,4.5-3,5.57.3,2.3,1.61,2.5,1.75,1.18.82,2.58.05,4,2,1.02,1.41.9,3.82,1,4,.97,1.78,1.46,1.16,1.5,1.25,2.42,4.88,4.85,12.08,6.5,17.24l3,4.25c-4-.29,14.87,15.1,16.74,16.49,1.69,1.26,15.2,10.89,12.74,6,.09.07.78-.1,2,1-.07,1.1.08,10.44-1.25,10.5l-4-7c-4.22,2.19-8.42,4.53-12.74,6.5-2.3,1.05-4.76,1.83-7,3-12.8-9.3-30.5-17.02-36.23-27.49-15.06-6.81-29.08-16.22-39.73-28.99-.76-4.58-13.18-20.26-12.49-14.74.11.86,8.95,11.82,9,14.74-1.29-.22-5-1.8-6.5-2.5.46-1.1,3.41,1.03,3.75,1,1.43-.15-3.44-6.22-4.25-7.5-2.05-3.22-7.83-10.31-5-12.49Z"/>
          <path class="cls-27" d="m98.98,136.71q5.87,9.5,11.74,18.99c7.47,1.83,8.85.33,14.74,5,6.42,5.08,12.89,11.47,20.49,14.99,1.5.69,5.21,2.28,6.5,2.5,1.04.18,2.39-.12,3.5,0,10.66,12.77,24.68,22.17,39.73,28.99,5.73,10.47,23.43,18.19,36.23,27.49,1.76,1.28,5.57,3.41,6.5,4.5.06.07,1.07.59,1.5,1.25l-.5,15.49c-1.07.47-3.35,1.14-3.5,1.25v-.5c5.25-1.36,1.73-4.63,3-14.24-.9-3.22-38.36-23.87-45.23-32.74-13.47-8.37-27.43-16.43-37.98-28.49-13.95-3.12-24.37-13.56-36.48-20.49-16.08-4.69-32.42-9.21-47.98-15.49-.32-.13-.78-2.27-6.25-2.5.12-.18-1.31-.48,2.25-3,2.1,1.27,4.45,2.2,6.75,3,5.37,1.88,10.64,4.05,15.99,6,1.87.68,16.76,7.07,17.49,5.75l-11.49-18.24c1.09.24,1.85.2,3,.5Z"/>
          <path class="cls-24" d="m140.46,156.7c-2.83,2.19,2.95,9.27,5,12.49-1.98-.45-2.6,1.01-2.75,1-1.03-.09-5.55-9.91-17.24-9.5-5.9-4.67-7.27-3.17-14.74-5q-5.87-9.5-11.74-18.99c6.21,1.63,11.57,6.74,17.24,9.5,7.8,3.79,16.25,7.03,24.24,10.5Z"/>
          <path class="cls-40" d="m224.92,158.2c.63.72,1.02,1.21,2,1.5-2.05,3.31-14.1,8.32-14.99,4.5,2.27-1.32,4.83-1.87,7-3,.97-.51,5.77-2.75,6-3Z"/>
          <path class="cls-28" d="m209.93,232.17c10.29,7.12,17.67,15.26,25.99,24.49v.5c-1.88,1.33-14.81,10.65-15.74,10.5-1.28-.21-.47-3.39-3.75-2,.92-4.55-7.89-4.37-10.75-5.5-16.15-6.35-19.09-12.03-31.49-22.99-4-1.25-23.61-14.71-25.49-14.49-.39.04-.03,1.08-.75,1-.49-2.05-.88-4.14-1-6.25-.81-1.32-4.63-1.38-6-1.75-24.2-15.37-47.44-32.11-70.97-48.48-2.23-7.78-.33-6.1-8-8-.11-.38.53-.65.5-.75-.26-1.05-13.43-13.02-14.49-15.99l-1.5-.25-16.49,9c-.62-3.29-.08-11.07-.5-14.49,9.9,1.04,24.64,3.1,30.99,11.24.2.26-.2,1.75,0,2,10.74,13.45,10.55,9.83,19.24,15.24,4.24,2.64,8.33,5.73,12.49,8.5,10.48,2.53,25,9.87,32.99,16.99,10.64,1.21,18.07,13.58,28.49,12.99,11.28,5,14.32,11.52,23.49,11.99,3.8,4.69,12.41,10.49,17.99,12.99.65.29,12.78,4.51,13.49,4.5.21,0,.67-.99,1.25-1Z"/>
          <path class="cls-4" d="m257.9,185.69c-.46,2.91-.39,27.06-1,35.98-1.22-1.1-1.91-.93-2-1-9.91-7.37-19.49-15.23-29.49-22.49l-3-4.25c-1.64-5.17-4.08-12.36-6.5-17.24-2.02-4.65,7.39,2.22,9.25,3,3.36,1.42,28.51,10.56,29.99,10,.68-.26.79-4.38,2.75-4Z"/>
          <path class="cls-33" d="m216.42,265.65c-.13.63-5.34,5.88-6.25,7-2.93-.16-5.84-.65-8.75-1-1.09-2.46-7.99-4.11-11.49-5.5-.81-3.26-1.14-8.2-1.5-9.25-.93-2.68-1.32-1.01-1.5-1.25-1.37-1.83-2.59-3.23-4.5-4.5-.02-.19-.81.18-.5-3.75-1.59-.29-3.02-1.23-4.5-1.75-5.35-4.44-11.35-8.35-17.24-11.99-2.96-1.83-9.83-6.04-11.74-6-.27-1.04-.25-2.94-.5-4,.72.09.36-.96.75-1,1.88-.21,21.49,13.25,25.49,14.49,12.4,10.96,15.34,16.63,31.49,22.99,2.86,1.12,11.67.95,10.75,5.5Z"/>
          <path class="cls-27" d="m177.44,245.66c-4.32-1.53-18.72-4.15-25.74-7.5-1.57-3.34-2.34-6.95-3.25-10.5,1.91-.05,8.78,4.16,11.74,6,5.89,3.65,11.89,7.55,17.24,11.99Z"/>
          <path class="cls-37" d="m238.41,239.16c-.92-1.09-4.73-3.22-6.5-4.5,2.24-1.17,4.7-1.95,7-3l-.5,7.5Z"/>
          <path class="cls-24" d="m201.43,271.65c-.65-.08-2.64-.82-3.5-1-.88-.19-1.61-.14-3-.5-.73-.19-3.59.04-4.25-.5-1.13-1.49-.58-2.81-.75-3.5,3.51,1.39,10.41,3.04,11.49,5.5Z"/>
          <path class="cls-24" d="m186.94,255.66c-7.32,8.86-3.36,4.12-4.5-4.5,1.9,1.27,3.13,2.67,4.5,4.5Z"/>
          <path class="cls-24" d="m235.91,256.66c-8.32-9.23-15.69-17.37-25.99-24.49-2.73-1.89-8.23-5.93-9.25-4.5l-16.99-15.99c-7.92-4.94-17.6-8.83-22.49-16.49-4.53-.28-4.24-3.76-6.5-5.5-2.28-1.76-13.95-5.84-16.99-7.5-11.77-6.43-23.16-14.12-35.48-19.49-4.89-2.13-38.35-13.21-39.48-14.99-.55-2.11,1.26-3.54,2.25-5,5.46.23,5.92,2.37,6.25,2.5,15.56,6.29,31.9,10.8,47.98,15.49,12.11,6.93,22.53,17.37,36.48,20.49,10.56,12.06,24.52,20.12,37.98,28.49,6.87,8.86,44.33,29.51,45.23,32.74-1.27,9.62,2.25,12.88-3,14.24Z"/>
          <path class="cls-32" d="m89.98,148.7c-5.35-1.95-10.62-4.12-15.99-6-.27-1.61.61-1.05,1-2.5,1.15-4.24-14.8-21.71-4.25-15.49,3.3,1.94,14.86,20.28,19.24,23.99Z"/>
          <path class="cls-24" d="m71.99,138.71c-3.81-1.78-6.4-5.4-9.5-8-.13-2.05,5.06,2.6,5.25.5,3.81,4.8,7.27,6.27,4.25,7.5Z"/>
          <path class="cls-32" d="m145.45,169.2c.81,1.27,5.67,7.35,4.25,7.5-.34.03-3.29-2.1-3.75-1-7.6-3.52-14.07-9.91-20.49-14.99,11.69-.41,16.21,9.4,17.24,9.5.15.01.77-1.45,2.75-1Z"/>
          <path class="cls-27" d="m254.91,220.67c2.46,4.89-11.05-4.74-12.74-6-1.87-1.39-20.74-16.78-16.74-16.49,10,7.26,19.58,15.12,29.49,22.49Z"/>
          <path class="cls-32" d="m155.95,178.19c-1.11-.12-2.45.18-3.5,0-.05-2.92-8.89-13.89-9-14.74-.69-5.52,11.74,10.17,12.49,14.74Z"/>
          <g>
            <path class="cls-24" d="m56.99,158.2c-7.05-1.36-18.73-2-24.99-5-.32-.15-1.33.37-2-.75-.05-.4.07-.85,0-1.25l16.49-9c1.51,5.6,14.23,12.8,10.5,15.99Z"/>
            <path class="cls-38" d="m61.99,159.2c-1.69-.42-3.3-.67-5-1,3.74-3.19-8.99-10.39-10.5-15.99l1.5.25c1.06,2.97,14.23,14.95,14.49,15.99.03.1-.61.37-.5.75Z"/>
          </g>
          <g>
            <path class="cls-27" d="m140.96,215.67c-11.29-3.04-23.01-4.82-34.48-7-.69-.05-1.27-.42-3-.5-.03-.6-.58-.76-1-1,10.03,1.39,20.01,3.37,29.74,6l.75-1.25c-14.53-8.49-28.59-17.8-42.23-27.74l-.75,1.5c-.33-1.22-.93-2.45-1-3.75-20.65-10.47-14.28,1.66-18.99-14.74,23.53,16.37,46.77,33.1,70.97,48.48Z"/>
            <path class="cls-24" d="m102.47,207.18c-14.5-8.28-9.76-11.41-12.49-21.49l.75-1.5c13.64,9.93,27.7,19.25,42.23,27.74l-.75,1.25c-9.72-2.63-19.7-4.61-29.74-6Z"/>
          </g>
        </g>
        <g>
          <path class="cls-17" d="m30.01,157.2c3.12,7.4,11.23,2.21,17.74,3.5,1.12.42,3.08,8.08,5.25,11.24.46.67,10.59,11.26,11.24,11.74,6.39,4.67,11.98,1.07,13.74,3.25,5.07,27.79,18.9,20.95,25.49,21.24,1.73.08,2.31.44,3,.5-4.21,1.12,4.35,6.29,8.25,10q9.75,2.25,19.49,4.5c14.73,6.76,7.93,3.65,9.75,13.74,1.09,6.06,13.35,11.73,17.99,15.49-1.42,21.81,19.53,12.21,20.99,15.49.22,9.89,3.73,20.91,1.5,30.74,1.01-11.35-1.77-17.27-6-27.24-2.48-2.26-17.96,1.82-17.99-15.49-3.58-2.73-15.8-11.22-17.49-14.49-2.25-4.36-.08-8.04-1.75-9.75-9.37-3.38-18.4-8.49-28.49-9.5l-11-9c-13.74,4.58-24.49-8.32-25.24-21.24-1.11-1.8-8.02-1.21-11.74-3.25-4.03-2.2-17.53-19.34-19.99-24.49-13.9.23-18.68,1.63-19.99-13.99-11.86,9.33-10.33-1.03-11-1.5-.41-.29-8.67.07-10-.5-1.54-.67-.29-3.77-3.25-1.5.01-.33-.01-.67,0-1,.11-2.7.91-5.79,1-8.5,4.16.34,2.3-.35,3.5-2.75,2.35,10.91,1.1,17.75,11.24,6.75l2.5,10.5,10-7c.82,3.62-.07,11.11.25,12.24.13.44.98.19,1,.25Z"/>
          <g>
            <path class="cls-12" d="m15.01,130.71c.36,1.83.38,6.75,1.25,7,1.67-1.21,3.76-3.48,5.25-4.5,6.5-4.44,6.88-5.55,8,3.5.42,3.43-.12,11.21.5,14.49.07.39-.05.85,0,1.25.67,1.12,1.68.6,2,.75-2.54.86-3.35.38-2,4-.02-.06-.87.19-1-.25-.32-1.14.57-8.63-.25-12.24l-10,7-2.5-10.5c-10.15,11-8.9,4.17-11.24-6.75-1.2,2.4.66,3.09-3.5,2.75.09-2.7.37-5.33.5-8,0-.17,0-.33,0-.5l11.24-5.5c1.09.43,1.33,5.38,1.75,7.5Z"/>
            <path class="cls-28" d="m21.51,133.21c-1.49,1.02-3.58,3.29-5.25,4.5-.87-.25-.89-5.17-1.25-7,.85-.73,5.63,1.31,6.5,2.5Z"/>
          </g>
          <path class="cls-12" d="m56.99,158.2c1.69.33,3.31.58,5,1,7.67,1.9,5.76.21,8,8,4.71,16.4-1.66,4.27,18.99,14.74.07,1.3.67,2.53,1,3.75,2.74,10.08-2.01,13.21,12.49,21.49.42.24.97.4,1,1-6.58-.29-20.42,6.55-25.49-21.24-1.76-2.18-7.36,1.42-13.74-3.25-.66-.48-10.79-11.07-11.24-11.74-2.17-3.17-4.12-10.83-5.25-11.24-6.52-1.29-14.62,3.9-17.74-3.5-1.35-3.62-.54-3.14,2-4,6.26,3,17.94,3.64,24.99,5Z"/>
          <path class="cls-20" d="m66.99,282.64c.04.59-2.12,1.53-2.25,1.5-1.29-.28-19.8-15.13-20.74-16.24-.07-.08,1.54-.41,1-1-12.78-13.8-27.67-27.11-31.99-46.23,11.95,26.14,29.52,46.66,53.98,61.97Z"/>
          <path class="cls-13" d="m5.52,191.19c-.57,2.7.41,8.44,2,10.5-.68.95-.52,1.93-.5,3-2.45-7.37-4.24-15.75-5.5-22.99.13.5,3.17,7.38,4,9.5Z"/>
          <path class="cls-14" d="m10.02,210.68c1.13,2.91,1.82,6.43,2.5,9.5-1.84-4.14-5.37-9.97-5.5-15.49.75,1.65,2.58,4.91,3,6Z"/>
          <path class="cls-20" d="m104.97,301.64c-1,1.49-2.41-.2-3-.5.88.11,2.19.27,3,.5Z"/>
          <g>
            <path class="cls-2" d="m184.44,298.64c-.25,1.11-.87,2.33-1,3.5-2.2.86-3.32.94-3.5,1-.25.08-.74-.08-1,0,.65-3.99-.65-6.94-2-10.5-5.83-15.4-11.28-5.66-22.74-14.99h-14.49c-15.29,12.92-7.38,6.41-13.49-7h-10.5c-1.85,3.69-6.4-1.36-14.99,4.5-12.83-12.99-15.31-29.65-18.24-35.48-.46-.92.54-.97-1.75-2.5-12.33,1.68-10.75-3.82-18.99-11.49-.53.26-1.17,1.45-1.25,1.5-.2.13-.97-.25-1.5.25-.7.65-9.18,13.81-10,16.24-6.03-4.17-9.45-10.73-14.49-15.99-9.38-9.77-8.25-9.75-14.99-5-2.45-3.8-4.2-17.09-5.5-19.24-.88-1.45-5.68-3.67-6.5-5-.95-1.54-.81-4.22-2-7.25-.83-2.12-3.87-9-4-9.5C.27,176.83-.1,160.22.02,154.2c.55-2.5.4-4.98.5-7.5,2.96-2.27,1.71.83,3.25,1.5,1.32.57,9.59.21,10,.5.66.47-.86,10.83,11,1.5,1.31,15.62,6.09,14.22,19.99,13.99,2.46,5.15,15.96,22.29,19.99,24.49,3.73,2.04,10.63,1.45,11.74,3.25.75,12.92,11.5,25.82,25.24,21.24l11,9c10.09,1.01,19.11,6.11,28.49,9.5,1.67,1.71-.51,5.38,1.75,9.75,1.69,3.27,13.91,11.76,17.49,14.49.03,17.32,15.51,13.23,17.99,15.49,4.23,9.97,7.01,15.88,6,27.24Z"/>
            <g>
              <path class="cls-7" d="m19.51,222.67c-.29.21-1.59,2.74-2.5,1.75-2.12-5.92-3.19-14.64-6-14.24,4.66-5.37-2.6-7.33-3.5-8.5-1.59-2.05-2.57-7.8-2-10.5,1.19,3.03,1.05,5.71,2,7.25.82,1.33,5.62,3.54,6.5,5,1.3,2.15,3.05,15.44,5.5,19.24Z"/>
              <g>
                <g>
                  <path class="cls-41" d="m114.97,244.16c-2.79-1.28-4.99-4.93-6.5-2.5-1.79-12.13-2.54-13.69,6.5-4.75-.76,1.08.08,3.88,0,7.25Z"/>
                  <path class="cls-18" d="m114.97,244.16c0,.15,1.5,1.34-.25,3-8.36-1.16-5.44-.02-6.25-5.5,1.51-2.43,3.71,1.22,6.5,2.5Z"/>
                </g>
                <path class="cls-19" d="m120.72,249.16c2.47-.21,4.31,4.18,4,4.5-5.77-.76-23.2-2.46-8.5-2,.83-.43,4.24-2.48,4.5-2.5Z"/>
                <path class="cls-19" d="m114.97,266.15c1.2-1.35,3.01-2.46,4.5-3.5.31.6,2.34,4.18,1.75,4.5-6.31-.05-10.5,3.79-6.25-1Z"/>
                <path class="cls-19" d="m51.25,218.67c2.34,4.32,4.75.64.5,9-.43-3.44-3.81-7.12-.5-9Z"/>
                <path class="cls-7" d="m119.47,262.65c-1.48,1.04-3.29,2.14-4.5,3.5-2.52.14,3.66-6.29,4.5-5.25.08.63-.12,1.52,0,1.75Z"/>
              </g>
            </g>
          </g>
          <g>
            <path class="cls-5" d="m11.02,210.18c2.8-.4,3.88,8.32,6,14.24.9.99,2.21-1.54,2.5-1.75,6.74-4.75,5.62-4.77,14.99,5,1.87,7.08,5.03,14,8.5,20.49,3.27,6.13,7.39,11.74,11.24,17.49l15.49-9,7,12.99,9-6.5c5.19,17.22,15.66,21.63,28.49,31.99l2-22.99c14.94,1.2,9.27,4.37,12.99,15.99l11-9c18.59-1.06,19.19,5.11,20.49,5.5,4.21,1.24,9.02-5.65,16.24,8,1.35,3.56,2.65,6.5,2,10.5-11.21,3.5-17.28,4.08-28.99,4-24.96-.17-51.67-7.59-73.97-18.99-3.08-1.57-6.06-3.66-9-5.5-24.45-15.31-42.03-35.83-53.98-61.97-.01-.03-.19.19-.5-.5-.68-3.07-1.37-6.59-2.5-9.5-.07-.78.91-.4,1-.5Z"/>
            <path class="cls-18" d="m149.95,307.13c.33,1.54-8.14,1.26-12.49,1-4.35-.26-12.17-1.23-16.49-2-.98-.17-2.05-.31-3-.5-4.36-.88-8.72-2.8-12.99-4-.81-.23-2.12-.38-3-.5-3.73-1.9-5.23-1.88-5.5-2l-2-1c-5.48-2.43-16.17-6.92-18.49-10,22.3,11.41,49,18.82,73.97,18.99Z"/>
            <path class="cls-7" d="m82.48,239.66c2.93,5.84,5.41,22.49,18.24,35.48,8.59-5.86,13.14-.81,14.99-4.5h10.5c6.12,13.41-1.8,19.92,13.49,7h14.49c11.46,9.33,16.91-.41,22.74,14.99-7.23-13.65-12.03-6.75-16.24-8-1.3-.38-1.9-6.56-20.49-5.5l-11,9c-3.72-11.62,1.95-14.79-12.99-15.99l-2,22.99c-12.83-10.35-23.3-14.77-28.49-31.99l-9,6.5-7-12.99-15.49,9c-3.86-5.75-7.98-11.37-11.24-17.49,2.21-.65,4.29-2.91,6-4.5.13-.12.99.26,1.5-.25,1.73-1.73,7.05-10.79,10-13.74,5.04,3.63,6.16,4.26,10.25,10,5.28-.61,11.13,2.04,11.74,0Z"/>
            <path class="cls-11" d="m49,243.66c-1.71,1.59-3.78,3.85-6,4.5-3.46-6.49-6.63-13.41-8.5-20.49,5.05,5.26,8.47,11.82,14.49,15.99Z"/>
            <path class="cls-11" d="m82.48,239.66c-.61,2.04-6.47-.61-11.74,0-4.09-5.74-5.21-6.36-10.25-10-.68-.49-2.56.33,0-2.5.08-.05.72-1.24,1.25-1.5,8.25,7.67,6.66,13.17,18.99,11.49,2.29,1.53,1.29,1.58,1.75,2.5Z"/>
            <path class="cls-11" d="m60.49,227.17c-2.56,2.83-.68,2.01,0,2.5-2.94,2.95-8.27,12.02-10,13.74-.51.51-1.37.13-1.5.25.82-2.43,9.3-15.59,10-16.24.53-.5,1.3-.12,1.5-.25Z"/>
            <path class="cls-19" d="m11.02,210.18c-.09.1-1.07-.28-1,.5-.42-1.09-2.24-4.35-3-6-.02-1.07-.18-2.05.5-3,.9,1.16,8.16,3.13,3.5,8.5Z"/>
          </g>
        </g>
      </g>
    </g>
  </g>
</svg>