<?xml version="1.0" encoding="UTF-8"?>
<svg id="Layer_2" data-name="Layer 2" xmlns="http://www.w3.org/2000/svg" xmlns:xlink="http://www.w3.org/1999/xlink" viewBox="0 0 197.38 239.49">
  <defs>
    <style>
      .cls-1 {
        fill: url(#linear-gradient);
      }

      .cls-1, .cls-2, .cls-3, .cls-4, .cls-5, .cls-6, .cls-7, .cls-8, .cls-9, .cls-10, .cls-11, .cls-12, .cls-13, .cls-14, .cls-15, .cls-16, .cls-17, .cls-18, .cls-19, .cls-20, .cls-21, .cls-22, .cls-23, .cls-24, .cls-25, .cls-26, .cls-27, .cls-28, .cls-29, .cls-30, .cls-31, .cls-32, .cls-33, .cls-34, .cls-35, .cls-36, .cls-37, .cls-38, .cls-39, .cls-40, .cls-41, .cls-42, .cls-43, .cls-44, .cls-45, .cls-46, .cls-47, .cls-48, .cls-49, .cls-50, .cls-51, .cls-52, .cls-53, .cls-54, .cls-55, .cls-56, .cls-57, .cls-58, .cls-59, .cls-60, .cls-61, .cls-62, .cls-63, .cls-64, .cls-65, .cls-66, .cls-67, .cls-68, .cls-69, .cls-70, .cls-71, .cls-72, .cls-73, .cls-74, .cls-75, .cls-76 {
        stroke-width: 0px;
      }

      .cls-2 {
        fill: #5e3b28;
      }

      .cls-3 {
        fill: #765339;
      }

      .cls-4 {
        fill: #5e5b46;
      }

      .cls-5 {
        fill: #525d3f;
      }

      .cls-6 {
        fill: #785c4f;
      }

      .cls-7 {
        fill: #4e3f37;
      }

      .cls-8 {
        fill: #52382e;
      }

      .cls-9 {
        fill: #76c5dd;
      }

      .cls-10 {
        fill: #7a8fa2;
      }

      .cls-11 {
        fill: #493921;
      }

      .cls-12 {
        fill: #296796;
      }

      .cls-13 {
        fill: #2d140c;
      }

      .cls-14 {
        fill: #5c572b;
      }

      .cls-15 {
        fill: #8a725d;
      }

      .cls-16 {
        fill: #9a764c;
      }

      .cls-17 {
        fill: #45585a;
      }

      .cls-18 {
        fill: #a27f68;
      }

      .cls-19 {
        fill: #95836e;
      }

      .cls-20 {
        fill: #714f43;
      }

      .cls-21 {
        fill: #391f12;
      }

      .cls-22 {
        fill: #81c9ef;
      }

      .cls-23 {
        fill: #3c3d47;
      }

      .cls-24 {
        fill: #1893ca;
      }

      .cls-25 {
        fill: #382a17;
      }

      .cls-26 {
        fill: #36261f;
      }

      .cls-27 {
        fill: #0d579d;
      }

      .cls-28 {
        fill: #161310;
      }

      .cls-29 {
        fill: #0d1213;
      }

      .cls-30 {
        fill: #20160f;
      }

      .cls-31 {
        fill: #111f25;
      }

      .cls-32 {
        fill: #174863;
      }

      .cls-33 {
        fill: #17467d;
      }

      .cls-34 {
        fill: #18384c;
      }

      .cls-35 {
        fill: #15594f;
      }

      .cls-36 {
        fill: #25201f;
      }

      .cls-37 {
        fill: #d1d4e2;
      }

      .cls-38 {
        fill: #dddee0;
      }

      .cls-39 {
        fill: #cfc3b3;
      }

      .cls-40 {
        fill: #d0c9c9;
      }

      .cls-41 {
        fill: #c9ae9d;
      }

      .cls-42 {
        fill: #af8e66;
      }

      .cls-43 {
        fill: #e1c9ba;
      }

      .cls-44 {
        fill: #dcb5a6;
      }

      .cls-45 {
        fill: #daddd2;
      }

      .cls-46 {
        fill: #d4e3c8;
      }

      .cls-47 {
        fill: #dab896;
      }

      .cls-48 {
        fill: #a69763;
      }

      .cls-49 {
        fill: #a7aea9;
      }

      .cls-50 {
        fill: #a9978a;
      }

      .cls-51 {
        fill: #be8b6e;
      }

      .cls-52 {
        fill: #acdbeb;
      }

      .cls-53 {
        fill: #b2a490;
      }

      .cls-54 {
        fill: #a6c5e8;
      }

      .cls-55 {
        fill: #b0d4f0;
      }

      .cls-56 {
        fill: #cfa28b;
      }

      .cls-57 {
        fill: #b4b2b2;
      }

      .cls-58 {
        fill: #8aa0ae;
      }

      .cls-59 {
        fill: #a1894a;
      }

      .cls-60 {
        fill: #b69860;
      }

      .cls-61 {
        fill: #b69880;
      }

      .cls-62 {
        fill: #6c4f25;
      }

      .cls-63 {
        fill: #9a6a3b;
      }

      .cls-64 {
        fill: #987566;
      }

      .cls-65 {
        fill: #7d5e30;
      }

      .cls-66 {
        fill: #928c74;
      }

      .cls-67 {
        fill: #87695e;
      }

      .cls-68 {
        fill: #87624a;
      }

      .cls-69 {
        fill: #fdfeff;
      }

      .cls-70 {
        fill: #6b5d46;
      }

      .cls-71 {
        fill: #7d7f61;
      }

      .cls-72 {
        fill: #e3cca3;
      }

      .cls-73 {
        fill: #e3dbd1;
      }

      .cls-74 {
        fill: #eee3cd;
      }

      .cls-75 {
        fill: #0495bc;
      }

      .cls-76 {
        fill: #674f38;
      }
    </style>
    <linearGradient id="linear-gradient" x1="114.95" y1="28.59" x2="126.83" y2="50.85" gradientUnits="userSpaceOnUse">
      <stop offset="0" stop-color="#cab4a8"/>
      <stop offset="1" stop-color="#7a573c"/>
    </linearGradient>
  </defs>
  <g id="Layer_1-2" data-name="Layer 1">
    <g>
      <g>
        <path class="cls-52" d="m21.05,214.13c0,.22,0,.43,0,.65,0,.11-.61.98-.32,2.26-1.04-.92-1.34,1.97,1.46,3.88,7.42,5.06,29.62,2.59,38.66,2.26,3.06-.11,6.13-.59,9.22-.32,15.72,5.62,35.54,13.55,51.92,7.12,2.36-.93,3.75.25,3.56-3.23,0-.11.01-.22,0-.32,8.44.59,16.94,1.43,25.39,1.62.26,0,.13-.65.16-.65,9.39.18,19.71,2.24,28.47-2.1.19-1.47.35-2.87.32-4.37,0-.52.08-1.16,0-1.62,32.28,1.82,14.4,14.35-9.54,15.85-13.14.82-19.72-2.46-36.39-.65-16.85,1.83-28.51,5.75-46.74,4.85-10.2-.5-20.28-3.16-30.41-4.21-5.21-.54-10.47-.73-15.69-1.29-10.49-1.14-21.08-1.72-31.54-3.23l-2.1-1.46c-1.22-5.35-7.92-2.33-7.44-6.79.5-4.66,14.86-7.13,18.44-8.57.81.17,1.77-.11,2.59.32Z"/>
        <path class="cls-75" d="m70.54,212.19c.9.23,4.37,2.22,7.44,2.59.64,2.07.7,2.91.97,3.88.98,3.57.15,5.49,4.04,7.44,2.9,1.46,20.32,4.74,23.94,4.85,1.99.06,12.54-.52,12.94-2.26.26.26,1.99,1.34,2.1,1.29-16.38,6.43-36.2-1.5-51.92-7.12-3.08-.26-6.16.21-9.22.32-.88-1.48-6.06,1.44-7.12-.97,6.13-.49,12.37-1.53,17.95-4.21.51-.52-3.44-5.29-3.72-5.5,1.02-.96,1.41-.62,2.59-.32Z"/>
        <path class="cls-75" d="m146.24,218.98c.49,1.54-.33,2.65,0,3.72,1.16,3.8,19.07,5.12,22.16,2.75,6.58,2.33,5.81-1.74,6.15-1.94.34-.2,1.04,4.44,5.34-2.59.02,1.5-.14,2.89-.32,4.37-8.76,4.34-19.07,2.28-28.47,2.1-4.36-1.35-8.82-2.85-13.26-3.88-.99-.93,2.91-2.02,5.5-3.23.95-.45,1.86-1.08,2.91-1.29Z"/>
        <path class="cls-9" d="m135.24,221.24c-4.79,2.46,1.4,1.99,2.59,2.26,4.44,1.03,8.91,2.53,13.26,3.88-.03,0,.1.65-.16.65-8.46-.18-16.95-1.03-25.39-1.62-.14-1.15-.28-1.93-.97-2.91,1.89-1.6,10.42-5.02,10.68-2.26Z"/>
        <path class="cls-9" d="m20.73,217.04c1.26,5.74,27.91,5.58,33,5.18,1.06,2.41,6.23-.51,7.12.97-9.03.32-31.24,2.8-38.66-2.26-2.8-1.91-2.49-4.8-1.46-3.88Z"/>
        <path class="cls-52" d="m144.62,216.39c.21.7,1.26,1.46,1.62,2.59-1.05.21-1.96.85-2.91,1.29,6.81-4.07-6.47.14-8.09.97-.25-2.76-8.79.67-10.68,2.26-.15-.22-.9-1.25-.97-1.29,5.93-3.17,14.37-4.93,21.03-5.82Z"/>
        <path class="cls-9" d="m143.33,220.27c-2.59,1.21-6.49,2.3-5.5,3.23-1.19-.28-7.38.19-2.59-2.26,1.61-.83,14.89-5.04,8.09-.97Z"/>
      </g>
      <g>
        <path class="cls-69" d="m101.92,20.04c-2.22,2.44-7.36,2.99-12.62,5.5-3.44-.39-6.9-.38-10.35-.32-19.42.34-35.01,9.74-48.2,23.61.37-2.61,10.65-11,13.75-13.26,8.5-6.19,15.55-9.62,25.88-11.65,7.71.64,15.19-1.59,22.64-2.91.14-.03,2.49.4,2.91.32.19-.03.78-.93.97-.97.18-.04,1.78.88,3.23-.97.69,1.89,1.02.31.81-.65.2.32.91,1.25.97,1.29Z"/>
        <path class="cls-69" d="m151.09,14.86c-2.08-.69-6.46-1.52-8.73-1.29-.45.04-.95.96-1.13.97-1.04.05-.96-1.21-1.78-1.29-4.42-.44-8.6.64-12.94.65-.4-3.43-3.67-2.51-6.31-3.88-1.92-1-3.84-3.56-5.34-4.85,5.33,1.62,10.54,4.36,16.01,5.5,5.43,1.13,12.85.5,14.88,2.59,2.36-1.19,6.03.92,5.34,1.62Z"/>
        <path class="cls-68" d="m59.55,66.94c-2.29,6.99-2.82,12.47-3.23,19.73-1.6.46-1.37,3.23-3.23,2.91.32-3.86,1.77-14.54,3.88-14.4.3-1.43.4-2.93.65-4.37,1.02-1.06.65-3.88,1.94-3.88Z"/>
        <path class="cls-29" d="m77.98,214.77c-3.07-.37-6.54-2.36-7.44-2.59.12-2.92.44-5.8.32-8.73,3.79,1.53,5.94,7.52,7.12,11.32Z"/>
        <path class="cls-29" d="m99.01,77.94c.15,1.32-.44,2.69.49,3.88.31.4,9.76,6.32,6.95,2.91,3.71,3.51,2.97,2.51,5.18,3.88,6.77,4.23,14.29,7.09,20.7,11.97.21,2.04.93,4.98,1.94,6.79,1.83,3.28,1.71.36,7.93-3.88,3.8-2.59,7.98-4.58,11.81-7.12.8-.22.64.69.81.65.7-.33,1.99-1.25,2.1-1.29,7.2-2.68,4.66-2.91,4.85-1.13.22,2.08,10.63-8.46,5.5-1.29.4.68,2.23-.65,2.59-.81,1.11-.48,1.93-.91,2.91-1.62.67,1.95-5.47,5.67-7.76,7.12-7.07,4.47-23.39,11.06-27.01,13.91-3.24,2.55-4.04,5.77-5.34,9.54l-2.91,4.69c-.1-2.62-.48.28-.97-2.43-.18-1.01.27-3.83-.16-4.04-1.87,2.97-3.53,6.06-4.69,9.38-.29-3.8,1.2-7.9,1.62-11.81.17-1.62.74-11.53.65-12.13-.06-.42.17-1.38-.16-1.62-10.24.01-13.11-6.88-20.54-12.29-3.44-3.37-6.2-7.14-9.06-11l.97-.32c1.92,2.33.46-1.66,1.62-1.94Z"/>
        <g>
          <path class="cls-8" d="m26.23,119.02c-.33.03-.76-.06-.81,0-1.06,1.17-3.66,20.66-3.72,23.78-.16,8.59,2.24,17.04,2.91,25.56.49,6.16,1.49,38.44,0,42.38-.72,1.89-1.6,2.36-3.56,1.78.14-3.1.76-5.75.65-9.06-.02-.69-.31-.72-.32-.97,1.68.93,1.42-5.48,1.29-6.31-.04-.25-.88,1.06-1.62-4.21-.03-.22,1.48.18-.32-1.62,2.14-7.54-.1-18.27,0-26.53-3.54-18.31-1.84-35.05,2.26-53.05,1.22,2.69,2.21,5.48,3.23,8.25Z"/>
          <path class="cls-26" d="m57.93,111.58c.12.77-.48,1.21-.32,2.1.23,1.36,2.93,12.04,3.23,12.62,1.18,2.21.51-1.27,1.62-1.78-.19,1.1-.28,2.43-.32,3.56l-5.5,15.2c-.4,0-.58-.85-1.46-.65-1.36,1.92-4.07,2.73-5.34,4.69-7.05,10.95-.69,50.03-3.56,64.21-.6.33-5.77,2.44-6.31,2.59-5.87,1.56-17.24.8-8.9,2.26l-.65.65c-.91-.13-5.51.75-9.38-2.26,0-.22,0-.43,0-.65.02-.54-.02-1.08,0-1.62,1.96.58,2.84.11,3.56-1.78,1.49-3.94.49-36.22,0-42.38-.68-8.51-3.07-16.97-2.91-25.56.06-3.11,2.66-22.61,3.72-23.78.05-.06.48.03.81,0,.12.32.21.66.32.97.42,1.16,1.02,1.92.81,3.23,1.78-3.1,7.13-15.22,11.48-11.65.01.43-.02.86,0,1.29.15,3.22.44,6.36.97,9.54,6.48-1.45,8.72-8.66,10.03-10.35,2.49-3.21,5.75-3.74,6.79-8.9.26,2.84.84,5.61,1.29,8.41Z"/>
          <path class="cls-51" d="m88.01,26.18c-18.33,9.43-17.7,20.68-22.97,27.5-.15.19-2.21,1.64-3.56,3.23.23-.48.42-1.69.97-2.75.82-1.58,8.89-12.59,6.95-13.42-8.61,3.87-14.12,12.02-21.03,18.12-.88.38.67-4.08,1.46-6.31,1.02-2.9,2.39-5.72,3.88-8.41-3.34-.14-8.11,4-10.84,6.31-8.9,7.55-29.08,34.04-32.83,44.8-1.72,4.92-2.09,12.13-3.88,11.81.77-8.64,3.58-19.25,6.47-27.5,4.48-6.1,8.43-13.05,13.59-18.92,4.94-5.63,27.16-26.23,33.8-26.36,2.74-.05-1.19,2.66,1.62,2.59.46-.01,6.69-3.65,8.09-4.21,5.44-2.16,6.15-1.49,6.47-1.62,3.84-1.54,7.41-4.9,11.81-4.85Z"/>
          <path class="cls-56" d="m89.31,25.54c-.4.19-.89.44-1.29.65-4.4-.05-7.97,3.31-11.81,4.85-.32.13-1.03-.54-6.47,1.62-1.4.55-7.63,4.19-8.09,4.21-2.81.07,1.12-2.64-1.62-2.59-6.65.13-28.86,20.73-33.8,26.36-5.15,5.87-9.11,12.82-13.59,18.92,3.42-9.75,7.99-18.51,14.56-26.53.83.05,1.88-.8,2.43-1.29,8.15-7.25,16.53-13.92,25.56-20.06,2.59.05,4.31-1.82,6.79-2.59.54-.17,7.18-1.76,8.09-1.94,4.38-.86,10.19-.4,8.9-1.94,3.45-.06,6.91-.07,10.35.32Z"/>
          <path class="cls-44" d="m78.95,25.21c1.3,1.54-4.52,1.08-8.9,1.94-.91.18-7.55,1.77-8.09,1.94-2.49.77-4.2,2.64-6.79,2.59-9.02,6.14-17.41,12.8-25.56,20.06-.55.49-1.59,1.34-2.43,1.29,1.03-1.26,2.5-3.09,3.56-4.21,13.19-13.87,28.78-23.27,48.2-23.61Z"/>
          <path class="cls-8" d="m53.4,90.56c-.49,7.97-1.82,14.5,2.26,8.25-1.46-.19-1.37-1.32,0-1.13.03.68.4-.17.65.16-.18,1.81.16,3.55.32,5.34-1.05,5.16-4.31,5.69-6.79,8.9-1.31,1.69-3.55,8.9-10.03,10.35-.53-3.18-.82-6.32-.97-9.54,11.03-1.4,8.74-15.61,14.56-22.32Z"/>
          <path class="cls-8" d="m38.84,111.58c-4.35-3.58-9.71,8.55-11.48,11.65.21-1.31-.39-2.08-.81-3.23,2.95.77-.27-6.7,2.59-14.4.77-2.08,8.03-14.19,11-13.59-1.13,6.47-1.49,13.02-1.29,19.57Z"/>
          <path class="cls-20" d="m56.31,86.67c-.17,2.93-.76,8.77-.65,11-1.37-.19-1.46.94,0,1.13-4.08,6.25-2.76-.28-2.26-8.25.02-.27-.38-.31-.32-.97,1.86.32,1.64-2.45,3.23-2.91Z"/>
          <path class="cls-51" d="m65.69,53.68c-2.01,2.92-5.01,9.79-6.15,13.26-1.3,0-.92,2.82-1.94,3.88.4-2.31.4-4.94.97-7.28.08-.33,2.09-6.07,2.26-6.47.13-.3.63-.12.65-.16,1.35-1.6,3.41-3.04,3.56-3.23h.65Z"/>
          <g>
            <path class="cls-68" d="m61.49,56.91s-.51-.13-.65.16c-.18.4-2.18,6.14-2.26,6.47-.58,2.34-.57,4.97-.97,7.28-.25,1.43-.35,2.93-.65,4.37-2.11-.14-3.56,10.53-3.88,14.4-.06.66.34.7.32.97-5.82,6.71-3.52,20.93-14.56,22.32-.02-.43.01-.86,0-1.29-.2-6.55.16-13.1,1.29-19.57-2.97-.61-10.23,11.51-11,13.59-2.86,7.7.37,15.17-2.59,14.4-.11-.31-.2-.65-.32-.97-1.03-2.77-2.02-5.56-3.23-8.25-4.11,18-5.81,34.74-2.26,53.05-.1,8.26,2.14,18.99,0,26.53,1.81,1.8.29,1.4.32,1.62.74,5.27,1.58,3.96,1.62,4.21.13.82.39,7.24-1.29,6.31-.18-3.09-.43-5.35-.97-8.41-.25-1.39-.68-2.81-.97-4.21-5.66-27.36-15.84-54.05-13.26-82.81,1.79.32,2.17-6.89,3.88-11.81,3.75-10.76,23.93-37.25,32.83-44.8,2.72-2.31,7.49-6.45,10.84-6.31-1.49,2.69-2.86,5.51-3.88,8.41-.78,2.23-2.34,6.69-1.46,6.31,6.91-6.09,12.42-14.24,21.03-18.12,1.94.84-6.14,11.85-6.95,13.42-.55,1.06-.75,2.27-.97,2.75Z"/>
            <path class="cls-26" d="m21.21,96.38c-2.11,6.32-2.16,13.2-6.15,18.76-.74-.83.45-2.6.49-2.75,1.25-5.56,3.05-10.89,5.66-16.01Z"/>
            <path class="cls-8" d="m12.8,125.82c.51,2.29,1.98.55,2.43,1.13,1.49,1.93-3.28,3.94-2.43-1.13Z"/>
          </g>
          <path class="cls-29" d="m58.58,142.96c-.5,2.32-.96,4.67-1.62,6.95,3.05-.36.69,2.89,1.29,5.18.49,1.85,3.8.44,1.29,8.41,4.5,6.46,1.69,16.91,4.53,12.45,1.16-.04.26.35.32.65-2.32,4.2,2.46,8.44,1.29,12.45,1.44,2.37,3.47,3.41,2.91,6.31-.1.5-.88,2.18-.97,2.26-.04.04-.5.2-.81.65-5.71-6.53-3.58-8.09-4.04-10.19-.23-1.03-4.68-6.35-5.66-7.93-.95,5.09-.87,10.2-.81,15.37-3.28-3.83-1.4,10.97-.97,12.78.15.64-.33,1.44.49,1.94,1.93.63,4.77.38,6.31.65,0,.32-2.04,1.62-2.59,1.94-7.75,4.49-19.79,5.08-28.47,3.56-8.35-1.46,3.03-.7,8.9-2.26.54-.14,5.71-2.26,6.31-2.59,2.47-1.35,3.13-1.3,3.56-5.01.57-4.91-4.2-45.62,1.29-56.93,3.07-6.32,7.91-3.89,6.79-6.63.03,0-.13-.56.65,0Z"/>
          <path class="cls-36" d="m56.63,143.28c.39,0,.89-.2,1.29-.32,1.12,2.74-3.72.32-6.79,6.63-5.5,11.32-.73,52.02-1.29,56.93-.43,3.72-1.09,3.66-3.56,5.01,2.87-14.18-3.49-53.26,3.56-64.21,1.27-1.97,3.98-2.77,5.34-4.69.87-.2,1.06.65,1.46.65Z"/>
          <g>
            <path class="cls-29" d="m67.96,212.51c.28.21,4.23,4.98,3.72,5.5-5.59,2.67-11.83,3.72-17.95,4.21-5.08.41-31.73.56-33-5.18-.28-1.28.32-2.15.32-2.26,3.87,3.01,8.47,2.14,9.38,2.26,2.54.36,5.06.91,7.6,1.29,3.19.14,9.9-.11,12.94-.65,7.52-1.33,18.61-7.8,8.57-4.85.55-.32,2.59-1.62,2.59-1.94,1.16.21,2.19.52,3.4.32.88.41,1.63.69,2.43,1.29Z"/>
            <path class="cls-34" d="m30.43,217.04l.65-.65c8.68,1.52,20.71.93,28.47-3.56,10.04-2.94-1.05,3.52-8.57,4.85-3.04.54-9.75.79-12.94.65-2.54-.39-5.06-.94-7.6-1.29Z"/>
          </g>
          <path class="cls-44" d="m102.89,20.68c-.04.42.06.88,0,1.29-.45-.31-.67-.24-1.13,0-3.14,1.64-23.78,20-27.98,23.94-2.67,2.5-5.24,3.64-8.09,7.76h-.65c5.27-6.81,4.64-18.07,22.97-27.5.4-.21.89-.45,1.29-.65,5.25-2.51,10.39-3.06,12.62-5.5.24.18.75.62.97.65Z"/>
        </g>
        <path class="cls-73" d="m68.93,195.69c-.22.68-.51,1.77-.97,2.26-.04-.12.06-.36-.32-.32.09-.09.87-1.76.97-2.26h.32c-.03.1.03.23,0,.32Z"/>
        <g>
          <path class="cls-29" d="m165,98c-14.93,17.28-38.97,6.7-29.11,42.54,1.29,2.05,10.36-2.05,12.45-2.75-2.61,5.89-1.92,4.21-3.4,3.56.1-2.47-5.57,6.77-5.5,3.72,0-.2,1.6-1.6,2.26-3.23-7.81-1.07-3.13,5.99-3.56,11.32.15.3.62.11.65.16.05.08,1.05.43,1.29,1.29-.03.33.06.74,0,.81-.84.88-3.67.21-2.75,10.51.58.43,9.72-9.03,10.51-10.03.12-.16-.34-.46-.32-.49,1.26-1.63,2.51-4.57,4.37-3.72.79-2.09,4.82-7.01,4.04-3.72-.05.2-1.91,3.53-2.59,2.59.98,1.53-1.94,3.9-1.94,4.53,0,4.52,7.72-13.09,8.41-8.57-1.27,3.5-3.49,6.74.49,3.23,1.22-1.08,2.87-3.43,3.88-4.85.52.26-.06,5.19-.16,6.15-2.09.23-11.42,7.43-12.13,7.44-.63.01-.48-1.38-2.26-.97-1.67,2.39-11.29,8.56-11.48,10.51,1.78,5.26-1.4,9.44,1.46,8.9.28-.05,1.54-2.3,3.07-1.46-.63,3.33-5.12,3.72-3.07,5.98,5.69-2.6,6.22-.07.16,2.43,1.83,14.01,4.72,3.21,6.31,3.4,1.26,1.7-.43,2.01-.16,3.72l4.85,9.06c1.68,7.26,1.38.96,1.78.81,2.24-.86-.58,6.2-.81,7.28-.52.42-1.25-2.44-2.59-1.62,3.25,5.43-2.53,8.51,4.85,9.22-1.03,3.22,2.57,4.15,5.18,4.53v.32c-3.62-.53-5.65.89-9.22-4.85l-5.34-.32c2.67-7.76-.67-6.3-.97-6.95-.47-1,.95-3.73-.16-4.04-.18-.05-2.36,2.44-3.07,1.46,1.33-4.56-.87-7.12-1.29-11.65-3.26-.37-2.01-8.44-3.07-5.34-1.51-.13,2.32-9.89-1.94-5.5-1.61-6.69,3.36-8.22-4.04-9.54-.16-1.12,2.47-6.5,2.26-6.79-.31-.44-1.96.04-2.43-.16-1.75-.76,3.46-8.4,3.4-8.9-.12-.91-2.13.2-2.75-.16-1.2-.7,6.22-12.87,0-7.44-1.98.12,2.71-9.39,1.94-11-4.97,6.78-1.22.67-.81-5.66.41-6.38-1.89,2-2.59,0,.07-2.51.74-5.09.65-7.6l2.91-4.69c1.29-3.77,2.1-6.99,5.34-9.54,3.62-2.85,19.94-9.44,27.01-13.91Z"/>
          <g>
            <path class="cls-29" d="m159.18,220.6c1.37.2,2.63.51,4.04.32.92.68.65,1.61.81,2.26.55,2.34.63,3.81.97,0,2.59.79,7.33-2.07,9.22-.65l.16-3.56c.2-.09,2.54-1.93,3.56-2.59.26.17.93.6.97.65.71.89.79,1.17.97,2.26.08.46,0,1.1,0,1.62-4.3,7.03-5,2.39-5.34,2.59-.33.2.44,4.27-6.15,1.94-3.09,2.37-21,1.05-22.16-2.75-.33-1.07.49-2.18,0-3.72-.35-1.12-1.41-1.88-1.62-2.59-.15-.49-.46-.32,0-.97l5.34.32c3.57,5.74,5.6,4.32,9.22,4.85Z"/>
            <g>
              <path class="cls-29" d="m176.65,215.75c-1.02,2.31-9.97,4.71-11.97,4.85-.27.02-5.06-.26-5.5-.32-2.6-.38-6.2-1.31-5.18-4.53,2.72.26,16.37.21,18.76-.97,1.28.42,2.63.48,3.88.97Z"/>
              <path class="cls-12" d="m177.94,216.39c-1.02.66-3.36,2.49-3.56,2.59-2.83,1.34-6.64,1.75-9.7,2.26-.05-.16.02-.44,0-.65,2-.14,10.95-2.54,11.97-4.85.62.24.71.26,1.29.65Z"/>
            </g>
            <path class="cls-31" d="m174.38,218.98l-.16,3.56c-1.89-1.42-6.63,1.44-9.22.65.03-.39.04-.9,0-1.29-.03-.27-.23-.33-.32-.65,3.07-.51,6.87-.93,9.7-2.26Z"/>
            <path class="cls-58" d="m164.68,220.6c.02.21-.05.49,0,.65.09.31.29.37.32.65l-.97,1.29c-.15-.65.11-1.59-.81-2.26-1.41.19-2.68-.12-4.04-.32v-.32c.44.06,5.22.34,5.5.32Z"/>
            <path class="cls-17" d="m165,221.89c.04.39.03.9,0,1.29-.34,3.81-.42,2.34-.97,0l.97-1.29Z"/>
          </g>
          <path class="cls-26" d="m170.5,157.19c.67,5.59,2.06,11.17,1.62,16.82-3.83-4.65-5.4-11.97-6.63-17.79-.77-.62-5.4,8.82-5.34,10.84h-.65c.31-3.74,3.97-11.54,4.21-12.62.04-.17.25-2.68.32-3.4.1-.95.68-5.89.16-6.15-1.01,1.42-2.66,3.78-3.88,4.85-3.98,3.51-1.76.27-.49-3.23.62-1.72,1.43-3.4,1.94-5.18,1.83-6.4.51-8.47,2.43-.65.64-6.82,2.93.16,2.75,3.07-.15,2.51-4.18,9.95-.81,12.13,3.28-7.11,1.87-2.91,4.37,1.29Z"/>
          <path class="cls-26" d="m175.68,163.66c.14,1.59-.27,3.83,1.29,4.21-.64,3.49-1.41,6.9-2.26,10.35-1-.51-2.59-3.12-2.59-4.21.44-5.65-.95-11.23-1.62-16.82-.07-11.93,2.23-5.7,3.88,2.1.44,2.06-.21,4.89,1.29,4.37Z"/>
          <path class="cls-8" d="m183.12,144.58c-.11,1.66-.38,3.37-.65,5.01l-1.29-1.29c.26,9.74-2.35,19.29-4.85,28.63-.86,3.2-2.36,6.57-3.23,9.7l-1.13,2.26c-.68-.33,2.41-9.3,2.75-10.68.85-3.45,1.63-6.86,2.26-10.35.45-2.47,1.59-5.37,1.62-5.66.37-4.12-2.68-9.61-.65-9.22,3.7,6.79,1.93,2.2.32-6.63,2.43-3.16,2.25,2.35,3.56.49.07.18-.04.55,0,.81h.65c-.28-1.04.24-2.14.32-3.07h.32Z"/>
          <g>
            <path class="cls-26" d="m172.12,174.02c0,1.08,1.59,3.69,2.59,4.21-.34,1.38-3.43,10.34-2.75,10.68l1.13-2.26c-.58,2.08-.59,3.69-.65,3.88-.91,3.23-2.75,6.51-3.56,9.87-.34,1.41-1.56,7.36-1.62,8.25-.38,5.56,1.12,4.72,5.5,6.15-2.39,1.18-16.04,1.23-18.76.97-7.38-.71-1.6-3.79-4.85-9.22,1.34-.82,2.06,2.04,2.59,1.62.23-1.08,3.05-8.14.81-7.28-.4.15-.1,6.45-1.78-.81l-4.85-9.06c-.27-1.71,1.42-2.02.16-3.72-1.58-.18-4.48,10.61-6.31-3.4,6.05-2.5,5.53-5.03-.16-2.43-2.05-2.26,2.44-2.65,3.07-5.98-1.54-.85-2.8,1.4-3.07,1.46-2.86.54.33-3.63-1.46-8.9.19-1.95,9.82-8.12,11.48-10.51,1.78-.41,1.64.98,2.26.97.71-.01,10.05-7.21,12.13-7.44-.08.71-.29,3.23-.32,3.4-.24,1.08-3.89,8.88-4.21,12.62h.65c-.07-2.02,4.56-11.46,5.34-10.84,1.23,5.82,2.8,13.14,6.63,17.79Z"/>
            <path class="cls-29" d="m166.46,198.92c.12.02,1.74,1.66,1.78,1.78.16.52-1.3,10.24-1.62,10.68-.15.21-2.48.27-2.75.16-1.94-.78-.24-13.12,2.59-12.62Z"/>
            <path class="cls-36" d="m164.19,179.84c.13,3.8-2.14,7.01,3.4,6.95-3.72,1.8-3.58,6.66-5.18,10.03-.38.8-3.04,4.8-3.72,5.66.18-2.35,4.06-12.72,4.04-13.42-.05-1.95-1.72-.91-2.26-2.26,4.99-.53.96-4.85,3.72-6.95Z"/>
            <path class="cls-36" d="m164.52,178.22c.53.23-.03,1.54-.49.81-.17-.26.44-.83.49-.81Z"/>
          </g>
          <path class="cls-36" d="m143.33,156.55c-.1,1.69,1.98.55,2.91,0,.55-.32.85-.84,1.62-.65-.79,1-9.93,10.46-10.51,10.03-.92-10.3,1.9-9.64,2.75-10.51.06-.06-.03-.48,0-.81,5.77.12.37,2.98,3.23,1.94Z"/>
          <path class="cls-26" d="m144.95,141.34l-6.15,11.97s-.5.14-.65-.16c.42-5.33-4.25-12.39,3.56-11.32-.66,1.63-2.26,3.04-2.26,3.23-.07,3.05,5.6-6.19,5.5-3.72Z"/>
          <path class="cls-26" d="m177.94,152.99c-2.03-.39,1.02,5.1.65,9.22-.03.29-1.17,3.19-1.62,5.66-1.57-.37-1.15-2.62-1.29-4.21-.45-5-.4-10.05-.97-15.04.69-1.18,2.49,3,3.23,4.37Z"/>
          <path class="cls-64" d="m183.12,140.05c0,1.49.1,3.04,0,4.53h-.32c.16-1.72.24-7.93-1.62-7.76-.09-.25-.23-.4-.32-.65,1.05.05.87-.68.97-.97.28-.82.4-3.77.32-4.69-.02-.25-.62-.07-.65-.32-.28-3.18-.21-6.42-1.29-9.38.85-3.48-.63-4.29-.65-4.53-.46-5.54-.13-14.41-.65-21.51-.23-3.12-.34-5.65-1.29-8.41.39-.5.9-1.62,1.29-2.26.44-.71.71-1.54,1.13-2.26,1.06,10,.61,20.19,1.13,30.25.49,9.35,1.99,18.58,1.94,27.98Z"/>
          <path class="cls-20" d="m182.79,144.58c-.09.94-.6,2.03-.32,3.07h-.65c-.04-.26.07-.63,0-.81-.61-1.67-.25-3.46-.32-5.18,0-.19.64-2.25.32-3.72-1.81-.29-.61-1.04-.65-1.13,1.85-.17,1.78,6.05,1.62,7.76Z"/>
          <path class="cls-20" d="m181.82,135.2l-3.56-7.76c.43.04.44-1.47.32-2.1-1.91-10.59-1.37-14.52-.97-24.91l1.29-5.66c.52,7.1.19,15.97.65,21.51.02.24,1.5,1.05.65,4.53,1.08,2.96,1.02,6.2,1.29,9.38.02.25.63.07.65.32.07.92-.05,3.88-.32,4.69Z"/>
          <g>
            <path class="cls-26" d="m178.91,94.76l-1.29,5.66c-.4,10.39-.94,14.32.97,24.91.11.63.1,2.14-.32,2.1-3.06-.26,2.14,7.61,2.59,8.73.1.24.23.4.32.65.03.09-1.16.84.65,1.13.31,1.47-.33,3.53-.32,3.72-5.18,1.5-4.45,3.39-5.5-4.69,2.73.82-2-6.73-3.72-10.51-1.66,4.4-3.5,8.89-3.88,13.59l-1.29-6.47c-.33,0,.26,6.73-1.94-.32v1.94l-2.91-2.91c-.9-.18.2.93-.16,1.46-.22.32-2.56,2.75-2.75,2.75-2.44-.01.83-8.85-5.34,6.63l7.6-5.98c1,1.3-1.17,2.67.16,4.21-.51,1.77-1.32,3.46-1.94,5.18-.69-4.51-8.41,13.09-8.41,8.57,0-.63,2.92-3,1.94-4.53.68.94,2.54-2.39,2.59-2.59.77-3.29-3.26,1.63-4.04,3.72-1.86-.85-3.1,2.09-4.37,3.72-.02.02.45.33.32.49-.76-.19-1.07.33-1.62.65.13-3.09-.49-.88-2.91,0-2.87,1.04,2.53-1.82-3.23-1.94-.25-.86-1.24-1.21-1.29-1.29l6.15-11.97c1.47.66.79,2.33,3.4-3.56-2.09.7-11.16,4.8-12.45,2.75-9.85-35.84,14.18-25.26,29.11-42.54,2.29-1.45,8.43-5.17,7.76-7.12,1.2-.86,4.05-3.5,4.85-4.53.95,2.76,1.06,5.29,1.29,8.41Z"/>
            <path class="cls-28" d="m153.19,137.46c1.13-.35-1.73,5.61-2.1,6.31-.45.84-6.34,9.57-6.95,9.22-.53-.69.19-1.08.16-1.13-.5-.8-2.43-1.49,1.46-5.66-4.06,9.76,4.15-2.26,7.44-8.73Z"/>
            <path class="cls-26" d="m178.27,127.43l3.56,7.76c-.1.29.08,1.02-.97.97-.45-1.13-5.64-9-2.59-8.73Z"/>
            <path class="cls-29" d="m146.24,156.55c-.93.55-3.01,1.69-2.91,0,2.42-.88,3.04-3.09,2.91,0Z"/>
          </g>
          <g>
            <path class="cls-30" d="m181.5,141.67c.07,1.72-.29,3.51.32,5.18-1.31,1.86-1.12-3.65-3.56-.49,1.6,8.83,3.38,13.42-.32,6.63-.75-1.37-2.54-5.55-3.23-4.37.57,4.99.52,10.05.97,15.04-1.5.52-.86-2.3-1.29-4.37-1.65-7.81-3.95-14.03-3.88-2.1-2.5-4.2-1.08-8.4-4.37-1.29-3.37-2.18.65-9.62.81-12.13.18-2.92-2.11-9.89-2.75-3.07-1.92-7.82-.59-5.75-2.43.65-1.33-1.53.84-2.9-.16-4.21l-7.6,5.98c6.17-15.49,2.9-6.64,5.34-6.63.19,0,2.53-2.43,2.75-2.75.36-.52-.74-1.64.16-1.46l2.91,2.91v-1.94c2.2,7.05,1.61.33,1.94.32l1.29,6.47c.38-4.7,2.22-9.19,3.88-13.59,1.72,3.79,6.45,11.34,3.72,10.51,1.05,8.08.32,6.19,5.5,4.69Z"/>
            <path class="cls-26" d="m171.96,132.93c1.19,4.43,1.32,9.59,2.1,1.46,3.05,8.52.83,13.79-1.78,8.25-.72.34,1.81,3.1-4.21,3.88-1.13-.92,2.88-11.93,3.88-13.59Z"/>
          </g>
        </g>
        <path class="cls-43" d="m97.07,32.65l-2.75,4.21-4.04.32c2.75-3.85,6.67-6.75,9.7-10.35-1,1.9-1.93,3.89-2.91,5.82Z"/>
        <g>
          <path class="cls-38" d="m73.78,45.91c.46.57-.58,1.69-.97,2.59-7.16,9.37-11.51,20.19-13.59,31.7-1.3,7.19-1.58,10.77-1.29,18.12.16,4.25.58,8.43,1.29,12.62-1.48-.49-.56-.03-1.29.65-.45-2.81-1.03-5.57-1.29-8.41-.16-1.78-.5-3.53-.32-5.34-.24-.33-.61.52-.65-.16-.11-2.23.48-8.07.65-11,.41-7.26.95-12.74,3.23-19.73,1.14-3.47,4.13-10.35,6.15-13.26,2.84-4.12,5.42-5.26,8.09-7.76Z"/>
          <path class="cls-43" d="m67.96,107.38c-1.71,6.45-2.87,12.98-4.53,19.41l-1.29,1.29c.04-1.13.13-2.46.32-3.56.12-.68-.1-1.57,0-2.26.38-2.51,1.19-5.08,1.62-7.6v-5.01c1.57.67,2.79-1.17,3.88-2.26Z"/>
          <path class="cls-50" d="m59.22,110.94c.46,2.73.77,6.18,2.59,8.41.03.87.06,2.26.65,2.91-.1.7.12,1.59,0,2.26-1.11.51-.44,3.99-1.62,1.78-.31-.57-3.01-11.26-3.23-12.62-.15-.9.45-1.33.32-2.1.74-.67-.18-1.13,1.29-.65Z"/>
          <path class="cls-51" d="m67.31,64.68c-2.64,3.56-3.3,10.07-4.21,14.56-.66,3.28-.21,4.87-1.29,4.85-.62,0-.95-.48-1.62-.32.03-1.31.49-4.04-.97-3.56,2.08-11.51,6.43-22.33,13.59-31.7-2.04,4.63-4.13,11.24-5.5,16.17Z"/>
          <path class="cls-68" d="m59.87,98c.08.58-.83.29,1.29,1.62,0,.43,0,.86,0,1.29.06,6.14.43,12.3.65,18.44-1.81-2.23-2.12-5.68-2.59-8.41-.71-4.19-1.13-8.37-1.29-12.62l1.94-.32Z"/>
          <path class="cls-18" d="m60.19,83.76c-.09,4.48-.94,9.83-.32,14.23l-1.94.32c-.28-7.34,0-10.92,1.29-18.12,1.46-.48,1,2.25.97,3.56Z"/>
          <path class="cls-8" d="m67.31,64.68c-2.8,10.08-2.87,9.69-3.23,20.38-.28,8.17.28,16.4,0,24.58v5.01c-.43,2.52-1.24,5.09-1.62,7.6-.59-.66-.62-2.05-.65-2.91-.22-6.14-.59-12.29-.65-18.44,2.38-2.21.78-9.93,1.29-10.84.21-.37,1.03.05,1.29-.32.3-.43-1.27-8.86-.65-10.51.91-4.49,1.56-11,4.21-14.56Z"/>
          <path class="cls-20" d="m61.16,100.91c0-.43,0-.86,0-1.29-.02-5.17.24-10.37.65-15.53,1.08.01.63-1.57,1.29-4.85-.62,1.66.95,10.08.65,10.51-.26.37-1.08-.05-1.29.32-.52.91,1.09,8.63-1.29,10.84Z"/>
          <path class="cls-64" d="m61.81,84.09c-.4,5.15-.67,10.36-.65,15.53-2.12-1.33-1.21-1.04-1.29-1.62-.62-4.4.23-9.75.32-14.23.67-.16,1,.32,1.62.32Z"/>
          <g>
            <path class="cls-38" d="m102.89,21.98c-.16,1.06-.48,2.18-.65,3.23-.97-2.36-1.76.66-2.26,1.62-3.04,3.6-6.95,6.5-9.7,10.35-3.29,4.6-4.6,9.02-6.47,14.23-.24.66-.42,1.29-.65,1.94-3.96-.46-11.18,21.67-11.32,22.97-1.47-.48-6.12,6.11-6.15,7.44-.2.15-.89,1.02-1.62,1.29.37-10.69.43-10.3,3.23-20.38,1.37-4.93,3.46-11.54,5.5-16.17.4-.9,1.43-2.02.97-2.59,4.2-3.94,24.84-22.3,27.98-23.94.46-.24.69-.31,1.13,0Z"/>
            <path class="cls-40" d="m74.75,76.65c-.08.58.48.8.32,1.46-.1.44-1.97,2.06-1.62,8.73-.69.75-1.69,2.13-1.94,3.07-6.2,4.65-6.52,8.79-.97,2.26-1.19,4.37-2.28,9.53-2.26,13.91-.45.57-.24.98-.32,1.29-1.09,1.09-2.31,2.93-3.88,2.26.28-8.18-.28-16.41,0-24.58.72-.27,1.42-1.14,1.62-1.29,2.39-1.81,4.51-3.57,6.79-5.5.71-.6,1.56-1.07,2.26-1.62Z"/>
            <path class="cls-38" d="m83.16,53.36c-2.49,7.25-4.36,14.64-6.47,22-1.03-.13-1.37.86-1.94,1.29-.71.55-1.55,1.01-2.26,1.62-.99-.41-.74-1.14-.65-1.94.15-1.3,7.36-23.42,11.32-22.97Z"/>
            <path class="cls-38" d="m71.84,76.32c-.09.8-.34,1.54.65,1.94-2.28,1.93-4.41,3.69-6.79,5.5.02-1.33,4.68-7.92,6.15-7.44Z"/>
            <path class="cls-38" d="m76.69,75.35c-2.93,10.19-4.97,20.67-8.41,30.73-.02-4.38,1.08-9.54,2.26-13.91.16-.61.7-1.28.97-2.26.26-.95,1.25-2.32,1.94-3.07-.35-6.68,1.51-8.29,1.62-8.73.15-.65-.41-.87-.32-1.46.57-.44.91-1.42,1.94-1.29Z"/>
            <path class="cls-57" d="m71.51,89.91c-.27.98-.81,1.66-.97,2.26-5.55,6.52-5.23,2.38.97-2.26Z"/>
          </g>
        </g>
        <g>
          <path class="cls-51" d="m63.43,126.79c-.26,1.03-.28,1.77-.32,1.94-1.1,4.06-2.51,8.01-4.53,11.81-.33,1.16.08,2.06,0,2.43-.78-.56-.62,0-.65,0-.41.12-.91.32-1.29.32l5.5-15.2,1.29-1.29Z"/>
          <path class="cls-26" d="m78.63,208.95c.19.37,2.72,7.09,2.91,7.76.44,1.55,1.5,3.5-1.29,2.59-.07-.02-.53-.72-1.29-.65-.27-.97-.33-1.81-.97-3.88-1.18-3.8-3.33-9.79-7.12-11.32-.03-.69-.31-.72-.32-.97-.1-1.47.43-4.08-1.62-6.79.03-.1-.03-.22,0-.32.02-.06.49.17.32-1.29.11.21.52-.94,2.91,3.4.74,1.03,4.72,11.61,5.34,11.48.29-.06,0-2.15,1.13,0Z"/>
          <path class="cls-26" d="m97.39,130.99c.35-.67-1.14-4.96-1.62-5.98-3.67,3.35.31-1.42-1.46-3.07-3.26,4.75-1.7,4.42-1.78,4.69-.09.29-3.48,6.41.81,1.46l.32,3.56,1.94-3.56-.81,4.37c.16.27,2.52-1.32,2.59-1.46-.78,1.73-1.73,2.94-1.62,3.07,2.01,2.41,4.38-4.48,4.85-5.18,2.93-4.31-1.86,5.19-1.62,5.5.56.71,4.24-.53.32,1.29,6.45,4.02-2.33-1.4-2.26,1.29.08,3.45,1.01-.39,1.13-.49.43-.32,4.4,7.33,5.66,9.06,2,2.75,4.5,5.11,6.79,7.6l.32,1.78c-1.78,6.12.25,17.41-2.43,13.59-.31.25-.15,1.21-.16,1.62l-.65.16c.07-1.51-.46-2.25.32-3.56-.45-.96-1.25-1.06-1.29-1.13-.1-.19.34-.46.32-.49-.47-.71-2.01-1.74-2.26-2.1-4.94-6.99-1.71-4.69-1.29-5.66-8.5-10.89,3.44.94,5.34.81,2.62-.19-6.78-6.73-6.63-7.28.06-.22,1.04-.32,1.29-.81.11-.22.99-2.3.97-2.43-.06-.33-3.91-5.02-4.21-5.18-1.69-.9-1.58,3.38-.49,5.01l.32-1.62c.46.91,1.01,1.59,1.78,2.59-1.42,2.01-2.08,1.04-3.23.97-.39-2.63,1.36-1.65-1.13-3.88-.54.85.19,1.44.16,1.62-.31.05-.75-.08-.97,0,.49-1-1.06-3.65-1.94-4.21l.32-1.62c4.43,5.31-.3-1.83,1.94-3.4-5.83-3.11-1.93-.67-3.23,1.46-.1-.13.46-.5-1.29-.97-.06-3.14-2.41-4.53-.32-6.31-5.55-3.03,1.88,11.64-3.72,1.13-1.93,2.66-3.4,4.41-3.07,7.76-1.18-.24-1.58-.37-1.94.97-.25.91-.13,1.69,0,2.59-.85-.1-1.19-1.52-1.78,0-.44-.13.8-1.53-2.43-.97l2.26-2.43c-.63-.37-1.39.5-1.94.81l-.97-.65c.43-.27,1.98-1.7,2.59-2.26.07-.07.76.22.65-.49-.35-.38-.61.47-.65.49-7.13,2.93,7.26-5.81,3.72-5.82-4.64,4.07.86-2.15-.97-2.26-5.18,6.47-1.26,1.09-1.13-1.62,0-.11,0-.22,0-.32-1.7-4.34,1.65,1.76.81-3.23l2.43,3.07-.16-12.45c-3.41,3.04-4.87,7.65-8.57,10.35-7.3,5.34-.53-2.27,2.26-8.25l.16,3.4c2.77-4.61,6.48-7.27,6.15-13.26-.69,1.17-.61,1.38-1.78,2.26.07-.35.24-1.14.32-1.29.5-.99,1.55-1.35,2.26-2.1l.49,5.66c.62-2.32.84-5.66,1.78-7.76,1.01-2.27.87-1.15,1.29-1.29-.81,4.3-1.6,8.61-2.26,12.94-.25,1.61-.34,2.76-1.29,4.37.35,6.23,1.63,10.33,2.26,4.53l.49,2.75c2.67-3.68.92-6.57-.16-10.35,4.09,4.49-.78-1.49,2.26.81-.01-1.43-1.55-3.72-.49-3.4,3.07,4.5,1.8,3.14,1.62-1.29l1.78,3.72c.24-2.95-1.55-9.94-2.59-12.78,5.26,12.07.9,2.2.32-3.56.75,1.97,3.33,7.21,3.56,8.57.68,4.11-1.4,9.11,1.46,5.34l-.81,2.43c5.64-2.94-2.77,2.81,4.21,1.29l-2.26,1.62c5.07.63-1.2.21,2.59,2.91-6.72-2.31,1.58,4.03-3.56,1.62,2.31,5.7.13,5.06,0,5.34Z"/>
          <path class="cls-28" d="m107.1,216.07c0,.22.08.59-.16.65-6.27,1.49-13.21-2.47,3.23,3.23.56-.15-1.02-2.79-1.13-2.91-.32-.99,1.53.11,1.29-1.13-.22-1.15-2.21,1.88-2.59-4.21l5.34,1.46c-.51-2.07,1.42-1.75,1.46-2.1.04-.42-1.42-.33-.65-1.13,4.17,3.12.24,1.68,0,2.1-1.06,1.9,2.47,3.87-3.88,2.59,1.02,1.08,3.26,4.5,4.04,5.01,1.1.72,2.8.9,4.04,1.29-1.84,1.97-7.54,4.19-10.03,3.88-.63-1.2-3.85-.97-6.79-1.62-.93-1.25-6.76-2.35-7.93-3.56-1.57-1.63,8.29-1.67.97-2.91-2.45-.42-9.31.31-12.78,0-.19-.68-2.72-7.4-2.91-7.76,4.16-5.59-1.05-12.63,5.66-18.12-1.12,7.62-.11,3.69,3.88,6.79,1.69,1.31,6.25,8.45,9.22,11.48,2.48,2.53,5.94,3.99,6.63,6.31,1.05.39,2.87.57,3.07.65Z"/>
          <path class="cls-26" d="m108.39,170.13c0,.21-.01.43,0,.65-.82,2.31-.81,3.94-1.94,5.98.29,5.63-2.76,13.57-2.91,18.76-.1,3.3,2.58,15.85.32,12.62-1.19-1.7-1.34-6.39-1.94-8.41-.1-.32-.88,0-.97-.32-.35-1.19-.28-3.39-.32-3.56-2.67-9.93-6.16-10.65,1.94-20.7-.76-4.83,2.04-5.55,4.21-9.54.04.08.85.17,1.29,1.13-.78,1.31-.25,2.05-.32,3.56l.65-.16Z"/>
          <path class="cls-26" d="m115.51,148.78c-.3,1.07-.36,2.53-.49,2.59-2.28-4.63-1.79-1.04-2.1,5.66l-1.94-2.1-.32-1.78c-2.3-2.49-4.79-4.86-6.79-7.6l.49-11.97c4.81,4.2,8.01,9.76,11.16,15.2Z"/>
          <path class="cls-68" d="m75.72,101.55c-.52,2.17-.73,4.33-1.29,6.47,0,.03-.57-.12-.65.16-.11.41.34.6.32.65-.07.26-2.38,3.45-1.13,5.01,1.68-2.16,2.67-4.64,5.01-6.15-.12.77.32.61.32.65.07.87-3.11,5.76-3.88,6.95.67.32,1.73-.88,2.26-1.13,4.79-.69-6,8.26-6.79,12.62-3.6,4.01-4.19,4.92-2.26,6.47-.55,2.38-3.14,2.37-4.53,4.04-.11.13.48.71,0,1.29-.48.59-3.15,3.02-3.23,3.23-.61,1.59.17,9.3,0,11.97,2.45,6.23,2.5,13.27,3.88,19.89.05.23.52.76.32,2.26-2.84,4.45-.03-5.99-4.53-12.45,2.5-7.97-.8-6.56-1.29-8.41-.61-2.28,1.76-5.53-1.29-5.18.66-2.29,1.12-4.63,1.62-6.95.08-.37-.33-1.26,0-2.43,2.02-3.8,3.43-7.74,4.53-11.81,3.45-1.24,1.51-5.73,4.21-8.25,1.65-7.33,2.88-15.02,8.41-18.92Z"/>
          <path class="cls-26" d="m73.13,136.17c1.23,1.19-1.72,3.11.32,2.91-2.73,3.15-2.02,5.03-8.09,5.66l5.82.32-2.59.65c.23,10.07-1.62,20.36-1.29,30.41.17,5.16,1.99,10.56,1.29,15.69-1.93-4.94-3.09-10.02-4.21-15.2-.06-.29.83-.69-.32-.65.2-1.5-.28-2.04-.32-2.26.77.15.72-.34.65-1.13-.5-5.81-1.96-30.37-.65-34.29.51.14.6-.09.97-.16.07-.01.37.6,1.46.32,2.35-.6,4.6-1.69,6.95-2.26Z"/>
          <path class="cls-20" d="m68.6,191.81c0,.61.38,1.75.65,2.26.16,1.47-.31,1.23-.32,1.29h-.32c.56-2.9-1.47-3.93-2.91-6.31,1.17-4.02-3.61-8.25-1.29-12.45,1.12,5.18,2.27,10.26,4.21,15.2Z"/>
          <path class="cls-51" d="m90.28,46.24c-1.27,2.91-6.71,17.55-7.12,19.57-1.06,5.24.92,2.29.97,4.04-.49.1-1.58-.22-1.94.16-.6.65-2.74,15.03-3.23,17.31-1.03,4.74-2.11,9.51-3.23,14.23-5.53,3.91-6.76,11.59-8.41,18.92-2.69,2.52-.76,7.01-4.21,8.25.05-.17.06-.92.32-1.94,1.66-6.43,2.82-12.96,4.53-19.41.08-.32-.13-.73.32-1.29,3.45-10.06,5.48-20.54,8.41-30.73,2.11-7.36,3.98-14.75,6.47-22,.22-.65.41-1.28.65-1.94,5.83-1,2.3-5.33,6.47-5.18Z"/>
          <path class="cls-30" d="m70.54,202.48l-1.29-1.29c-.4-1.11-.89-2.13-1.29-3.23.46-.5.75-1.59.97-2.26,2.05,2.72,1.52,5.32,1.62,6.79Z"/>
          <path class="cls-8" d="m82.84,129.37c-.13,2.71-4.05,8.09,1.13,1.62,1.83.12-3.67,6.33.97,2.26,3.54.02-10.85,8.75-3.72,5.82-.61.56-2.16,1.99-2.59,2.26-.1.07-1.32.37-2.1,1.29.74-1.73,4.61-12.52,5.01-13.1.23-.33.94-.1,1.29-.16Z"/>
          <g>
            <path class="cls-29" d="m80.25,219.3c5.21,4.87,19.54,7.51,26.36,7.44,1.79-.02-.13-.59.49-1.29.21,0,.43,0,.65,0,5.49.09,6.85-.81,11.65-3.88,1.13.36,2.44-.45,4.21.65.07.04.82,1.08.97,1.29.69.98.83,1.76.97,2.91.01.11,0,.22,0,.32-1.64,2.16-1.95-.22-2.43,0-.2.09-.84,3.11-1.13,3.23-.11.05-1.84-1.03-2.1-1.29-.4,1.75-10.95,2.33-12.94,2.26-3.62-.12-21.04-3.4-23.94-4.85-3.9-1.95-3.06-3.87-4.04-7.44.77-.08,1.23.62,1.29.65Z"/>
            <path class="cls-24" d="m125.54,226.74c.19,3.48-1.19,2.31-3.56,3.23.29-.12.93-3.14,1.13-3.23.47-.22.79,2.16,2.43,0Z"/>
            <path class="cls-36" d="m101.28,223.19c-4.54-1-9.21-3.24-13.75-3.88-5.97-.85-4.23-.07,0,1.62,5.54,2.2,13.66,4.26,19.57,4.53-.61.7,1.31,1.27-.49,1.29-6.82.07-21.16-2.57-26.36-7.44,2.79.91,1.73-1.04,1.29-2.59,3.47.31,10.33-.42,12.78,0,7.32,1.24-2.54,1.28-.97,2.91,1.17,1.21,6.99,2.3,7.93,3.56Z"/>
            <path class="cls-23" d="m101.28,223.19c2.94.65,6.17.41,6.79,1.62l-.32.65c-.22,0-.43,0-.65,0-5.91-.27-14.03-2.33-19.57-4.53-4.23-1.68-5.97-2.46,0-1.62,4.54.64,9.21,2.88,13.75,3.88Z"/>
            <path class="cls-32" d="m119.39,221.57c-4.79,3.08-6.15,3.97-11.65,3.88l.32-.65c2.49.3,8.19-1.91,10.03-3.88,1.22.39,1.23.62,1.29.65Z"/>
            <path class="cls-36" d="m109.04,217.04c.11.12,1.69,2.76,1.13,2.91-16.44-5.7-9.51-1.74-3.23-3.23.24-.06.16-.43.16-.65.52.2.92.68,1.46,0,.26.12-.03.43.49.97Z"/>
          </g>
          <path class="cls-26" d="m78.63,153.31c-2.79,1.8-.75,1.7-1.94-2.43.61-.42,1.82-2.03,1.94-2.1,2.96-1.77-2.09,3.51,2.75,1.29,1.17.61-2.23,2.9-2.75,3.23Z"/>
          <path class="cls-26" d="m79.28,143.61s.12.54-.16.65c-.17.06-2.31-1.8.49,1.78.13.94-.31.77-.32.81-2.99-2.4-3.84-2.53.32-4.85.55-.31,1.31-1.18,1.94-.81l-2.26,2.43Z"/>
          <g>
            <path class="cls-36" d="m82.84,129.05c0,.11,0,.22,0,.32-.35.06-1.06-.17-1.29.16-.4.58-4.28,11.37-5.01,13.1.78-.93,2-1.23,2.1-1.29l.97.65c-4.16,2.32-3.32,2.45-.32,4.85-.04.11-1.61,1.16-.65,1.94-.12.07-1.33,1.69-1.94,2.1,1.19,4.13-.85,4.23,1.94,2.43.27.72,2.02-.08,2.43-.65,1.4.02-3.06,4.85-.65,5.18,1.57-3.85.22,4.56,2.43,2.75.39-.32-1.22-12.27.32-4.21.45.67.94.44.97.49.76,1.32.61,2.44,1.62,2.26-1,.91.11,1.07.16,3.56,5.65-3.63,1.51-1.4,1.78.16.11.65,2.74,1.62,2.75-.81.1,4.73,2.4.91,2.91.97.39.04,3.46,5.82,3.56.65,4.35,3.92.94-6.98,6.15,2.26,1.69-1.29-.22-4.02,1.78-2.91.25.36,1.79,1.39,2.26,2.1.02.03-.43.3-.32.49-2.17,4-4.97,4.72-4.21,9.54-8.1,10.05-4.61,10.78-1.94,20.7.05.17-.03,2.36.32,3.56.1.32.87,0,.97.32.6,2.02.75,6.71,1.94,8.41,2.25,3.23-.42-9.32-.32-12.62.15-5.19,3.2-13.13,2.91-18.76,1.13-2.05,1.13-3.67,1.94-5.98.08,1.13,1.43,5.4,1.29,5.66-.15.29-2.54-1.73-.65,5.18-.07.32-2.4-.38-.32,5.82-2.7,2.06,1.42,11.19-.97,14.56,1.37,6.64,2.52,5.21,6.15,7.93-.77.8.69.71.65,1.13-.04.35-1.97.04-1.46,2.1l-5.34-1.46c.38,6.09,2.37,3.06,2.59,4.21.23,1.25-1.62.14-1.29,1.13-.52-.54-.23-.85-.49-.97-.53.68-.93.2-1.46,0-.2-.08-2.02-.26-3.07-.65-.69-2.32-4.15-3.78-6.63-6.31-2.97-3.03-7.53-10.17-9.22-11.48-3.99-3.1-5,.82-3.88-6.79-6.71,5.49-1.5,12.53-5.66,18.12-1.13-2.15-.84-.06-1.13,0-.62.13-4.6-10.45-5.34-11.48-2.39-4.34-2.8-3.18-2.91-3.4-.26-.51-.64-1.65-.65-2.26.69-5.13-1.13-10.53-1.29-15.69-.33-10.05,1.52-20.34,1.29-30.41l2.59-.65-5.82-.32c6.07-.63,5.36-2.51,8.09-5.66,2.26-2.6,4.59-5.12,6.15-8.25-.04-1.66-4.82,4.03-4.53,2.59.09-.45,5.86-6.74,6.31-6.63.59.15.49,2.04,1.46,2.26Z"/>
            <path class="cls-26" d="m75.88,147.81l1.78.49c-1,.45-2.12.04-1.78-.49Z"/>
          </g>
          <path class="cls-20" d="m92.54,60.15c.03,2.18-.2,5.34,0,7.12-.42-.07-.42,1.12-.32,1.94-.96.57-1.38-.81-1.62.16-1.22,4.93.99,19.75-.32,27.98-.46,2.85-2.31,6.1-1.29,8.09-.93,2.11-1.16,5.44-1.78,7.76l-.49-5.66c-.72.76-1.76,1.12-2.26,2.1-7.01,4.34-3.55.52-3.56.16,0-.19-2.58-2.98-2.59-1.46,0-.04-.44.12-.32-.65l.97-.81c10.35-20.5,5.38-31.1,12.62-49.82.17-2.42.29-4.87.65-7.28.03-.21-.04-.44,0-.65.63,3.62.27,7.35.32,11Z"/>
          <path class="cls-29" d="m126.18,105.11c-9.79-.24-17.87-4.78-20.7-13.91,7.44,5.41,10.3,12.31,20.54,12.29.34.24.1,1.19.16,1.62Z"/>
          <path class="cls-8" d="m92.22,101.88c.58,5.76,4.93,15.63-.32,3.56-.04-.12-.41.17-.81-1.94-.5-.22-.76.63-.81.65-.42.14-.29-.98-1.29,1.29-1.02-1.98.84-5.24,1.29-8.09.87-.23,1.11,2.35,1.94,4.53Z"/>
          <g>
            <path class="cls-26" d="m92.22,69.21c.3,2.63,1.31,5.21.97,7.93.68.69,2.91,2.64,3.23,3.07,2.85,3.85,5.62,7.63,9.06,11,2.83,9.13,10.92,13.67,20.7,13.91.09.6-.47,10.52-.65,12.13-.42,3.91-1.91,8-1.62,11.81-1.5,4.3-2.01,8.8-3.56,13.1l-1.94-1.62c-.91,2.79-2.13,5.41-2.91,8.25-3.15-5.44-6.35-11.01-11.16-15.2l-.49,11.97c-1.26-1.73-5.23-9.38-5.66-9.06-.12.09-1.05,3.93-1.13.49-.06-2.7,8.72,2.73,2.26-1.29,3.92-1.82.23-.59-.32-1.29-.24-.31,4.55-9.81,1.62-5.5-.47.69-2.84,7.59-4.85,5.18-.11-.13.83-1.34,1.62-3.07.13-.28,2.31.36,0-5.34,5.14,2.41-3.17-3.93,3.56-1.62-3.79-2.7,2.49-2.28-2.59-2.91l2.26-1.62c-6.97,1.52,1.44-4.23-4.21-1.29l.81-2.43c-2.85,3.77-.77-1.23-1.46-5.34-.23-1.36-2.8-6.6-3.56-8.57-.83-2.18-1.07-4.76-1.94-4.53,1.32-8.23-.9-23.06.32-27.98.24-.97.66.41,1.62-.16Z"/>
            <path class="cls-26" d="m104.02,125.17c.51-.18,6.34,6.79,6.47,8.09-.9-.89-10.16-6.76-6.47-8.09Z"/>
          </g>
          <path class="cls-20" d="m77.34,126.79c1.89,1.54-4.39,3.26-5.34,6.47l-.49-7.93c-.69.3-1.14.92-1.62,1.46.79-4.35,11.58-13.31,6.79-12.62,2.52-1.16,5.15-1.5,7.44-3.23,1.17-.89,1.09-1.09,1.78-2.26.33,5.99-3.38,8.65-6.15,13.26l-.16-3.4c-2.8,5.97-9.56,13.59-2.26,8.25Z"/>
          <path class="cls-8" d="m91.89,105.44c1.04,2.84,2.83,9.83,2.59,12.78l-1.78-3.72c.19,4.44,1.45,5.79-1.62,1.29-1.07-.32.47,1.97.49,3.4-3.04-2.3,1.82,3.68-2.26-.81-.42-.46-.84-.88-1.29-1.29.67-4.33,1.45-8.64,2.26-12.94.05-.02.31-.86.81-.65.39,2.11.77,1.83.81,1.94Z"/>
          <path class="cls-26" d="m92.54,138.43l-1.46,4.85-2.59-7.44c-2.14,3.89-2.8,7.99-3.07,5.18-.33-3.35,1.15-5.1,3.07-7.76,5.6,10.5-1.83-4.16,3.72-1.13-2.09,1.78.26,3.17.32,6.31Z"/>
          <path class="cls-8" d="m89.31,118.38c1.08,3.78,2.83,6.67.16,10.35l-.49-2.75c-.64,5.81-1.92,1.7-2.26-4.53.95-1.61,1.05-2.76,1.29-4.37.46.42.88.84,1.29,1.29Z"/>
          <path class="cls-8" d="m97.39,130.99c-.07.13-2.43,1.72-2.59,1.46l.81-4.37-1.94,3.56-.32-3.56c-4.29,4.96-.89-1.17-.81-1.46.08-.27-1.48.06,1.78-4.69,1.77,1.66-2.21,6.42,1.46,3.07.47,1.02,1.96,5.32,1.62,5.98Z"/>
          <path class="cls-8" d="m84.45,109.64c-.08.16-.25.94-.32,1.29-2.29,1.74-4.92,2.07-7.44,3.23-.54.25-1.6,1.45-2.26,1.13.77-1.19,3.95-6.08,3.88-6.95,0-1.52,2.58,1.27,2.59,1.46,0,.36-3.45,4.18,3.56-.16Z"/>
          <path class="cls-26" d="m103.54,150.08c-.69-.35-1.17-1.03-1.62-1.62-.77-1-1.32-1.68-1.78-2.59l-.32,1.62c-1.09-1.63-1.2-5.91.49-5.01.29.16,4.15,4.85,4.21,5.18.02.13-.86,2.21-.97,2.43Z"/>
          <path class="cls-26" d="m95.13,141.34c-1.38-1.66-1.22-1.85-1.29-1.94,1.3-2.12-2.6-4.57,3.23-1.46-2.24,1.56,2.49,8.71-1.94,3.4Z"/>
          <path class="cls-8" d="m81.22,139.08s.29-.86.65-.49c.12.71-.58.42-.65.49Z"/>
          <path class="cls-73" d="m102.25,25.21c-.39,2.47-.64,4.96-.97,7.44-2.76.96-6.45,12.14-5.18,15.53-1.14-.84-.96-1.17-1.29-1.62-1.48-1.96-.59-.2-1.13,0-.61.22-.58-2.31-1.46,2.59-.04.2.03.44,0,.65-.83.05-2.93,5.02-3.56,6.63-1.8,4.63-3.04,9.57-4.21,14.4-.47.02-.31-.46-.32-.97-.05-1.75-2.03,1.2-.97-4.04.41-2.02,5.85-16.66,7.12-19.57,1.58-3.61,4.8-9.68,6.79-13.59.98-1.93,1.91-3.92,2.91-5.82.51-.96,1.3-3.97,2.26-1.62Z"/>
          <path class="cls-51" d="m92.22,49.8c-.36,2.4-.48,4.86-.65,7.28-7.24,18.72-2.27,29.32-12.62,49.82l-.97.81c-2.35,1.51-3.33,3.98-5.01,6.15-1.25-1.56,1.06-4.75,1.13-5.01.01-.04-.43-.23-.32-.65.07-.28.64-.13.65-.16.3-.02.47.51.81.32.95-.52,5.8-18.27,5.98-20.7,1.16-5.57,1.9-11.3,3.23-16.82,1.17-4.82,2.4-9.76,4.21-14.4.63-1.61,2.73-6.59,3.56-6.63Z"/>
          <path class="cls-8" d="m69.9,134.55c-.28.14-3.29,2.93-5.18,3.56-.37.07-.46.3-.97.16-1.31,3.92.14,28.48.65,34.29.07.8.12,1.28-.65,1.13-1.38-6.63-1.43-13.66-3.88-19.89.17-2.66-.61-10.37,0-11.97.08-.21,2.75-2.64,3.23-3.23.48-.59-.11-1.16,0-1.29,1.39-1.68,3.98-1.66,4.53-4.04.1.08,1.9.37,2.26,1.29Z"/>
          <path class="cls-56" d="m81.22,87.64c-.18,2.43-5.04,20.18-5.98,20.7-.34.19-.51-.34-.81-.32.56-2.14.77-4.3,1.29-6.47,1.13-4.72,2.21-9.49,3.23-14.23,1.46-.21,1.55-1.41,2.26.32Z"/>
          <path class="cls-26" d="m73.13,136.17c-2.36.58-4.61,1.67-6.95,2.26-1.09.28-1.38-.34-1.46-.32,1.88-.63,4.89-3.42,5.18-3.56.19-.1,1.39-.69,1.46-.65,1.53.92-6.32,4.97,1.29,1.62.71-.12.42.59.49.65Z"/>
          <path class="cls-56" d="m90.28,46.24c-4.17-.15-.64,4.17-6.47,5.18,1.87-5.21,3.18-9.64,6.47-14.23l4.04-.32,2.75-4.21c-1.99,3.91-5.22,9.98-6.79,13.59Z"/>
          <path class="cls-44" d="m84.13,69.85c.01.51-.14.99.32.97-1.34,5.53-2.08,11.25-3.23,16.82-.71-1.74-.8-.53-2.26-.32.49-2.28,2.64-16.66,3.23-17.31.36-.38,1.45-.06,1.94-.16Z"/>
          <g>
            <path class="cls-28" d="m92.54,138.43c1.75.47,1.19.84,1.29.97.07.09-.09.28,1.29,1.94l-.32,1.62c-.06-.04-1.24-.54-1.29-.49-.27,1.66-2.03,5.04-.32,5.82,1.78-9.2,1.77,6.79,2.26-2.59l.97.32c.09,2.86.1,1.21.32,1.13.22-.08.66.05.97,0-.13.89-.17,1.5-.97,2.1.86,1.08,1.73.15,1.94.16,1.15.07,1.81,1.04,3.23-.97.45.59.93,1.27,1.62,1.62-.25.49-1.24.59-1.29.81-.14.55,9.25,7.09,6.63,7.28-1.89.13-13.84-11.7-5.34-.81-.41.97-3.65-1.33,1.29,5.66-2-1.11-.09,1.62-1.78,2.91-5.21-9.25-1.8,1.66-6.15-2.26-.1,5.17-3.17-.6-3.56-.65-.51-.06-2.81,3.76-2.91-.97-.01,2.43-2.64,1.46-2.75.81-.27-1.56,3.87-3.79-1.78-.16-.05-2.49-1.16-2.65-.16-3.56.56-1.44,3.02-4.23,2.59-5.34-1.91-4.87-2.82,5.75-3.72-2.43l-.49,5.5s-.52.18-.97-.49c-1.55-8.06.07,3.88-.32,4.21-2.2,1.81-.86-6.6-2.43-2.75-2.42-.33,2.04-5.16.65-5.18-.41.57-2.16,1.37-2.43.65.52-.34,3.92-2.63,2.75-3.23-4.84,2.21.21-3.06-2.75-1.29-.96-.78.6-1.83.65-1.94.02-.04.46.13.32-.81-2.79-3.58-.65-1.71-.49-1.78.29-.11.13-.64.16-.65,3.23-.56,1.98.84,2.43.97.59-1.52.93-.1,1.78,0,.57,3.91.94.78,0-2.59.36-1.34.76-1.21,1.94-.97.27,2.81.93-1.29,3.07-5.18l2.59,7.44,1.46-4.85Z"/>
            <g>
              <path class="cls-26" d="m85.75,159.14c-1.01.18-.86-.94-1.62-2.26l.49-5.5c.9,8.18,1.81-2.44,3.72,2.43.43,1.11-2.03,3.89-2.59,5.34Z"/>
              <path class="cls-26" d="m94.81,142.96c.88.55,2.43,3.21,1.94,4.21-.22.08-.24,1.73-.32-1.13l-.97-.32c-.49,9.38-.48-6.62-2.26,2.59-1.71-.78.06-4.16.32-5.82.06-.05,1.24.45,1.29.49Z"/>
              <path class="cls-26" d="m98.69,149.43c-.21-.01-1.08.92-1.94-.16.8-.6.84-1.21.97-2.1.03-.18-.7-.77-.16-1.62,2.49,2.23.74,1.26,1.13,3.88Z"/>
              <path class="cls-7" d="m83.48,144.58c-.13-.9-.25-1.68,0-2.59.94,3.37.57,6.5,0,2.59Z"/>
              <path class="cls-26" d="m97.23,154.28c1.13.12-.24,2.62-.16,2.75.47.8,1.84-1.75-.16,5.66-3.78-4.24-2.42-7.73-.81-4.37.43-.68.34-4.13,1.13-4.04Z"/>
              <path class="cls-26" d="m91.41,154.28c2.99,5.94-1.7,4.79-.81,1.13.05-.19.68.11.81-1.13Z"/>
              <path class="cls-26" d="m87.85,143.28c.61-.27.63,1.56.49,2.43-.64,3.77-1.43.25-.49-2.43Z"/>
              <path class="cls-26" d="m88.5,148.78c.11.03.88,2.13.65,2.26-1.54.91-1.4-2.45-.65-2.26Z"/>
              <path class="cls-26" d="m90.12,146.84c.33.43,1.31,2.61.65,2.91-.14.07-1.3-1.9-.65-2.91Z"/>
              <path class="cls-26" d="m94,154.28c.17,0,.28,1.83.16,2.1-.34.77-.51-2.1-.16-2.1Z"/>
            </g>
          </g>
          <g>
            <path class="cls-8" d="m82.84,129.05c-.96-.22-.86-2.12-1.46-2.26-.45-.11-6.22,6.18-6.31,6.63-.29,1.44,4.49-4.24,4.53-2.59-1.55,3.13-3.89,5.65-6.15,8.25-2.05.2.91-1.72-.32-2.91-.06-.06.22-.76-.49-.65-7.62,3.35.23-.69-1.29-1.62-.07-.04-1.26.55-1.46.65-.36-.92-2.16-1.21-2.26-1.29-1.93-1.55-1.33-2.46,2.26-6.47.48-.54.93-1.15,1.62-1.46l.49,7.93c.94-3.21,7.23-4.93,5.34-6.47,3.7-2.71,5.16-7.31,8.57-10.35l.16,12.45-2.43-3.07c.84,5-2.51-1.1-.81,3.23Z"/>
            <path class="cls-30" d="m81.38,124.2c.15-.06.88,1.94.32,2.26-.39.22-.79-2.06-.32-2.26Z"/>
          </g>
        </g>
        <g>
          <path class="cls-61" d="m151.09,14.86c2.76.73,8.11,3.21,8.57,3.23.21,0,.18-.39.16-.65,1.38.8,2.9,1.67,4.21,2.59,1.1.77,2.55,1.74,3.56,2.59,10.32,8.73,13.42,18.76,10.68,32.03-.75,3.61-1.45,4.52-2.26,6.79-.04-6.08,2.81-7.51,0-13.1.02-.27.65-.13.65-.16.19-4.17.34-5.21-.97-9.38,2.12-2.38-1.94-8.04-4.21-9.87.45-2.33-.33-.66-.97-1.13-2.05-1.52-4.54-5.4-5.98-3.88-1.08-.95-3.26-3.88-4.37-2.59-.84-.61-4.23-3.45-4.69-3.56-1.06-.24-2.27.89-1.78,1.78.44.79,4.73-.16,13.59,11.48l-.97.32c-1.26-2.44-8.33-7.98-11-9.38-3.47-1.82-5.57-2.42-9.38-3.23,1.89-4.15,8.27-2.19-1.94-4.53-.52-.12-1.25-.18-1.62-.65,2.28-.23,6.65.6,8.73,1.29Z"/>
          <path class="cls-26" d="m176.65,21.65c-.47.88-.83,1.86-1.29,2.75.73,4.8,3.08,8.31,4.53,12.45.96,2.73,2.77,7.12,3.23,8.73-3.25-.75-.35,3.23,0,6.63-4.63-2.6,2.29,4.2-2.26,1.29.53,2.16,1.78,4.14,2.26,6.31.06.28.5.6.32,1.62-1.22-1.85-1.63-5.02-3.56-6.47-.05-.04.14-.52-.16-.65-.58-.25-.13.94-1.46.32,2.74-13.27-.36-23.3-10.68-32.03l9.06-2.26c.09,1.04-.6,1.27,0,1.29Z"/>
          <path class="cls-64" d="m181.5,38.47c4.44,9.29,6.71,14.61,5.18,25.56-.45,3.2-1.64,6.12-2.91,9.06-.31-.02-.34-2.15-.32-2.26.47-3.05.44-6.19,0-9.38.17-1.02-.26-1.34-.32-1.62,1.29.12.18-1.02.65-2.1.24-.56,1.27-.89,1.29-.97.59-2.42-1.17-8.52-1.94-11.16-.47-1.61-2.28-6-3.23-8.73l.32-.49,1.29,2.1Z"/>
          <path class="cls-51" d="m139.45,13.24c-.02,1.96-6.52.09-10.68,5.18-10.8,2.77-18.75,11.76-21.35,22.48-.24.99.68.81.65.97-.54,2.47-1.71,5.28-1.94,7.76-.3,3.26,1.17,7.63.97,11,2.69,1.4,3.48,5.18,3.88,5.82,1.21,1.96,4.2,5.2,3.56,5.98-3-4.6-6.82-8.81-9.06-13.91-3.45-7.87-4.43-15.81-1.29-23.94,1.08-2.8,2.8-5.15,4.21-7.76.2-.21.44-.44.65-.65,1.32-1.33,3.33-3.83,4.53-4.85.6-.51,1.34-1.14,1.94-1.62,2.88-2.26,7.6-4.2,7.93-4.53.67-.68-1.01-.63-.32-1.29.03-.03.38.56.81.32l2.59-.32c4.34,0,8.52-1.09,12.94-.65Z"/>
          <path class="cls-2" d="m109.04,26.18c-.21.21-.45.44-.65.65-1.31,1.36-6.7,6.65-7.12,7.44-.54.03-.14-.54,0-1.62.33-2.48.58-4.97.97-7.44.17-1.05.49-2.17.65-3.23.06-.41-.04-.87,0-1.29.1.01.31-.2.97-.32.75-.14,2.52-1.23,3.56-1.29-1.89,1.84-6.06,1.75-1.62,2.43-2.28,1.38-5.13,8.93-.81,4.69h4.04Z"/>
          <path class="cls-51" d="m166.3,31.36l.97-.32c2.75,3.61,5.14,7.23,7.12,11.32.9,1.86,1.9,3.75,2.26,5.82,0,.03-.63-.11-.65.16,2.81,5.59-.04,7.02,0,13.1-.48,1.35-1.05,2.59-1.94,3.72,1.01,2.2,0,4.38-.16.49-2.1,3.52-4.65,6.55-7.6,9.38.6-2.5,2.92-4.57,3.88-7.6-.54-8.49-2.06-23.66-9.87-28.63-1.04-.66-10.15-4.2-10.19-3.07.67.16.66.43.97.81l-5.5-.97c.08-.07.47-.77.65-.97,4.79-5.51,2.73-10.88,9.54-6.47,6.03-2.03,9.53,6.34,11.16,4.37.19-.23-.43-.71-.65-1.13Z"/>
          <path class="cls-28" d="m179.88,54.97l.32,14.56c-1.41.4-3.31-1.89-3.56-1.13,1.76,1.34,5.13,3.54,3.23,5.66-.32-.78-.81-2.18-1.46-2.59-4.1-2.58.13,1.25.16,1.46.27,1.74-4.39-.74-4.53-.32,6.12,4.62,4.75,4.86-1.62,1.62.58,2.69-.1,5.59-.65,8.25-.12.59,1.07,1.7-.65,1.13.67-.63-.05-3.46-.32-4.21-2.4-6.61-1.78,1.24-3.56,4.69-3.35-6.2-2.8-3-.32,2.26-7.41-5.08-2.89-3.17-2.26,2.59.03.32.7.77-.16.65-.12-.02.05-.58-2.26-.97-.33-.06-1.98,1.75-3.88-2.91l.81,3.72c-.26.49-1.36-.94-2.75.49-2.87-7.07-.28.37-.49.81-.09.19-1.28.29-1.46.49-.59.67.54.72.49.81-.9,1.44-2.31-5.58-2.59-6.31,1.88-1.73,5.59-5.62,7.93-5.18.49-1.4,2.93-2.58,5.98-5.5,2.95-2.83,5.5-5.86,7.6-9.38.16,3.89,1.17,1.72.16-.49.89-1.13,1.46-2.37,1.94-3.72.81-2.27,1.52-3.18,2.26-6.79,1.33.61.87-.58,1.46-.32.3.13.11.61.16.65Z"/>
          <g>
            <path class="cls-68" d="m182.15,10.65c.02.43.02.87,0,1.29-.23,5.45-2.76,7.77-4.21,10.35-1.42,2.53-2.74,2.15.65,9.06.71,2.43,1.82,4.84,2.91,7.12l-1.29-2.1-.32.49c-1.45-4.14-3.8-7.66-4.53-12.45.47-.89.82-1.87,1.29-2.75.82-1.54,3.07-1.84,3.88-9.22-.84-.59-.56-.95-.65-1.46,2.52,2.23-.39-7.28-2.75-8.09-.26-.09-5.23-.05-5.5,0-1.99.37-1.99,1.24-2.1,1.29-1.41.7-1.23.93-1.29.97-2.69,1.66-5.46,3.86-7.76,6.15-.2.2.87.7.49.97-2.81,1.76-5.71,2.84-3.07,3.4l-.65.49c-1.36-.69-2.76-1.29-4.21-1.78,8.66-4.12,12.75-10.26,14.4-11.48,7.29-5.45,14.32-.72,14.72,7.76Z"/>
            <path class="cls-26" d="m179.88,10.98c.08.5-.19.87.65,1.46-.82,7.38-3.06,7.68-3.88,9.22-.6-.02.09-.26,0-1.29-2.15-24.14-3.77-11.77-12.62-.32-1.3-.92-2.82-1.79-4.21-2.59-.83-.48-1.73-.86-2.59-1.29l.65-.49c-2.64-.56.26-1.64,3.07-3.4.39-.27-.68-.77-.49-.97,2.04,1.34,7.92-3.37,7.76-6.15.07-.04-.11-.27,1.29-.97,2.82.73,4.44-.73,6.63.32.36.18-.32,1.63,1.62.97.96,2.79,1.56,2.21,2.1,5.5Z"/>
            <path class="cls-8" d="m179.88,10.98c-.54-3.29-1.14-2.71-2.1-5.5-1.94.66-1.25-.79-1.62-.97-2.19-1.06-3.81.41-6.63-.32.11-.06.11-.92,2.1-1.29.27-.05,5.24-.09,5.5,0,2.36.8,5.27,10.32,2.75,8.09Z"/>
            <path class="cls-8" d="m160.47,11.3c2.3-2.28,5.07-4.49,7.76-6.15.16,2.78-5.73,7.49-7.76,6.15Z"/>
            <path class="cls-29" d="m176.65,20.36l-9.06,2.26c-1-.85-2.46-1.81-3.56-2.59,8.85-11.44,10.46-23.82,12.62.32Z"/>
          </g>
          <path class="cls-43" d="m144.62,18.42c.8.14,1.06.27,1.29.32,3.81.82,5.92,1.41,9.38,3.23-.52.67-.17,1.39-.49,1.62-.68.48-6.38-5.18-8.57,11-.17.2-.57.9-.65.97-1.17.99-2.67,2.77-2.59.65.67-3.35,1-7.26,1.29-10.68,0-.11,0-.22,0-.32.09-1.13.84-2.03.65-3.4-.27-1.9-2.42-3.03-.97-3.72.3.04.34.27.65.32Z"/>
          <path class="cls-41" d="m166.3,31.36c.22.42.84.9.65,1.13-1.63,1.97-5.13-6.39-11.16-4.37-6.81-4.41-4.75.96-9.54,6.47,2.19-16.18,7.89-10.52,8.57-11,.32-.22-.04-.95.49-1.62,2.67,1.4,9.74,6.94,11,9.38Z"/>
          <path class="cls-20" d="m142.36,13.57c.37.47,1.09.53,1.62.65l-.65.49c1.61.33,1.4.73.97,2.1-.2-.54-.37-1.31-.81-1.62-.26-.19-6.19-.48-6.47-.32-.1.05-.1,2.21,0,2.26,1.05.52,3.93-.71,4.04.65-.45.02-1.68-.16-1.94.16.36,5.2,1.36,4.51,5.18,7.28,0,.11,0,.22,0,.32-1.19-.51-2.45-.52-2.91-.65-.5-.14-.76-.24-1.29-.32-.58-.1-2.04-1.91-3.88.97l-3.23-.65c.72-3.49,4.78.89,3.56-7.28l-.65-.16c-.65-.02-1.3.02-1.94,0-2.46-.09-3.54.55-5.18.97,4.15-5.09,10.66-3.22,10.68-5.18.82.08.74,1.34,1.78,1.29.18,0,.68-.93,1.13-.97Z"/>
          <path class="cls-68" d="m160.15,21.33c2.09,1.51,3.98,3.27,6.15,4.69,1.87,3.51,8.98,12.27,8.73,15.85,0,.07-.45.51-.65.49-1.98-4.09-4.37-7.71-7.12-11.32-8.86-11.65-13.15-10.69-13.59-11.48-.49-.89.72-2.02,1.78-1.78.46.1,3.85,2.95,4.69,3.56Z"/>
          <path class="cls-68" d="m170.5,27.8c-2.02,1.87,2.81,3.46,5.18,11,1.31,4.17,1.16,5.21.97,9.38-.36-2.07-1.36-3.96-2.26-5.82.2.03.64-.41.65-.49.25-3.58-6.87-12.34-8.73-15.85-2.16-1.42-4.05-3.18-6.15-4.69,1.1-1.29,3.29,1.64,4.37,2.59,1.44-1.52,3.94,2.36,5.98,3.88Z"/>
          <path class="cls-18" d="m175.68,38.8c-2.37-7.54-7.2-9.13-5.18-11,.64.48,1.42-1.2.97,1.13,2.27,1.83,6.33,7.49,4.21,9.87Z"/>
          <path class="cls-68" d="m145.92,18.74c-.23-.05-.49-.19-1.29-.32.17-1.79-.29-1.54-.32-1.62.43-1.37.64-1.77-.97-2.1l.65-.49c10.21,2.34,3.83.38,1.94,4.53Z"/>
          <path class="cls-67" d="m183.12,45.59c.77,2.64,2.53,8.74,1.94,11.16-.02.08-1.05.41-1.29.97-.47,1.08.64,2.23-.65,2.1-.48-2.17-1.74-4.14-2.26-6.31,4.55,2.9-2.36-3.89,2.26-1.29-.35-3.4-3.25-7.38,0-6.63Z"/>
          <path class="cls-61" d="m183.44,70.82c-.02.11,0,2.24.32,2.26-.66,1.53-1.44,3.08-2.26,4.53-3.84,2.57-.65-2.15-.65-2.43,0-.1-.74-.59-.97-1.13,1.9-2.12-1.48-4.32-3.23-5.66.25-.75,2.15,1.53,3.56,1.13,2.12-.59,1.2-2.78,1.78-4.53.64,2.01-.04,4.28,1.46,5.82Z"/>
          <path class="cls-30" d="m92.54,67.59c.26,2,1.32,3.69,1.62,5.66h.65c.13-.83.31-1.65.65-2.43.09,3.05-.13,6.54,1.94,9.06l-.97.32c-.32-.44-2.55-2.39-3.23-3.07.34-2.72-.67-5.3-.97-7.93-.09-.82-.1-2.01.32-1.94.01.11-.01.22,0,.32Z"/>
          <path class="cls-71" d="m164.68,88.94c.77-.26.62.66.81.65.17,0,.53-.87,1.13-.65-1.71,2-7.36,4.69-9.7,6.79-.12.04-1.41.96-2.1,1.29-.17.04,0-.87-.81-.65-.39.11-1.12.22-1.62.32,1.5-3.08.36-4.51.32-5.18-.1-1.62.34-3.76-.97-5.18.22-.21.4-.42.65-.65.28.73,1.69,7.74,2.59,6.31.06-.09-1.08-.14-.49-.81.17-.2,1.36-.29,1.46-.49.21-.44-2.39-7.88.49-.81,1.39-1.42,2.49,0,2.75-.49l-.81-3.72c1.9,4.66,3.55,2.85,3.88,2.91,2.31.4,2.14.95,2.26.97.86.12.2-.33.16-.65Z"/>
          <path class="cls-5" d="m114.21,85.7c1,.73,3.66,2.47,4.85,3.23.54.69-.14.69.16.97.6.55,12.7,8.69,13.42,9.06-.3.43-.37,1.16-.32,1.62-6.41-4.88-13.93-7.74-20.7-11.97.01-.87.13-1.46-.32-2.26,1.71-1.01,1.96.8,2.91-.65Z"/>
          <path class="cls-66" d="m167.27,84.09c.24.44-.35.77-.32.81.44.74,1.88.87,1.94.97.13.22-2.01,1.86,1.78.16,0,1.5,1.51.41,1.13,2.26-1.05-.22-.7,2.22-1.94,4.21-.36.15-2.19,1.49-2.59.81,5.13-7.16-5.28,3.37-5.5,1.29-.19-1.78,2.35-1.54-4.85,1.13,2.34-2.1,7.99-4.8,9.7-6.79.2-.23,1.25-.84,1.29-1.13.02-.84-.93-1.38-.97-1.46-2.47-5.26-3.03-8.46.32-2.26Z"/>
          <path class="cls-71" d="m154,96.38c-3.82,2.54-8.01,4.53-11.81,7.12-6.22,4.24-6.09,7.17-7.93,3.88.38.77,1.59-.85,1.62-.97-.11,2.6,3.68-3.32,5.5-6.15,8.06-.85,7.83-2.41,8.25-2.59.96-.4,1.69-.75,2.75-.97.49-.1,1.22-.21,1.62-.32Z"/>
          <path class="cls-4" d="m106.45,81.17s-.63.13-.32.49c2.51,2.93,5,4.38,5.18,4.69.45.81.34,1.4.32,2.26-2.2-1.38-1.47-.37-5.18-3.88-1.6-1.52-3.14-3.45-4.53-5.18l.65-2.26c.24.32,2.44,2.18,3.88,3.88Z"/>
          <path class="cls-73" d="m178.59,82.47l.32,1.62c-.4.65-.9,1.76-1.29,2.26-.8,1.03-3.65,3.67-4.85,4.53-.98.7-1.8,1.14-2.91,1.62,1.24-1.99.89-4.42,1.94-4.21-1.02,3.32,3.03.55,3.23-5.5.03-.8.12-1.73-.65-2.26.74-1.9.09-.23.81,0,.67.22,1.05-.64,1.46-.16-2.05,4.63-1.86,6.96,1.94,2.1Z"/>
          <path class="cls-14" d="m134.59,99.29c.39.04.57.64.65,0,.03.08.74-.31.97,1.46.04.28-.25,5.39-.32,5.66-.03.12-1.24,1.74-1.62.97-1.01-1.81-1.73-4.76-1.94-6.79-.05-.45.02-1.19.32-1.62,1.9.98,1.84.31,1.94.32Z"/>
          <path class="cls-66" d="m101.92,79.56c1.39,1.72,2.93,3.66,4.53,5.18,2.8,3.41-6.65-2.51-6.95-2.91-.92-1.19-.33-2.56-.49-3.88.26-.06.66.16.65-.32.28.39,1.9,1.49,2.26,1.94Z"/>
          <path class="cls-53" d="m99.66,77.62c.02.48-.39.26-.65.32-1.16.28.3,4.27-1.62,1.94-2.07-2.51-1.85-6.01-1.94-9.06.17-.4.52-.57.65-.97,1.12,2.53,1.95,5.49,3.56,7.76Z"/>
          <path class="cls-1" d="m133.95,17.45c-1.39,3.17-7.32,4.09-1.29,7.44h.32c-.16.77.79,6.71.97,9.06.12,1.63.32,3.22,0,4.85-.37.05-.76-.03-1.13,0l-.49.97c-1.26-.79-2.63.66-3.88.97-.1.03-.22-.02-.32,0-.38-2.01-3.45-2.65-4.85-1.29.03-.06-.7.22.32-1.29,3.59-2.19,10.45-1.54,4.37-2.91-6.26-1.42-4.54,2.56-8.41,1.94-.35,1.84-2.93,2.6-2.1,4.37-1.47,1.12-3.57,1.76-4.21,3.72-.58,1.79-.28,2.8,0,4.53.15.91.56.89.65,1.29-1.04,1.52-.03,2.64-.32,4.04,2.86,7.32,6.65,16.14,9.38,24.26l.97.49c.42,2.27.75,2.02,1.62,3.56.22.39-1.4-.16,1.62,2.59-.25,1.36,1.79,3.45,2.91,4.53l-.97.32c-3.94-3.78-8.24-7.21-11.32-11.81-.22-.32,1.55.71-3.23-6.63.64-.79-2.34-4.02-3.56-5.98-.4-.64-1.19-4.42-3.88-5.82.2-3.36-1.27-7.74-.97-11,.23-2.48,1.4-5.29,1.94-7.76.03-.16-.89.02-.65-.97,2.6-10.72,10.55-19.71,21.35-22.48,1.63-.42,2.72-1.06,5.18-.97Z"/>
          <path class="cls-28" d="m105.48,58.53c2.24,5.1,6.06,9.31,9.06,13.91,4.79,7.34,3.02,6.31,3.23,6.63,3.08,4.6,7.39,8.03,11.32,11.81,3.69,3.55,4.37,2.48,6.15,8.41-.08.64-.26.04-.65,0-4.17-4.65-10.73-7.26-15.53-10.35-1.2-.77-3.85-2.51-4.85-3.23-4.23-3.09-1.85-1.97-1.62-2.75.9-3-3.17-.51-3.72-.49-.75.03-.45-.64-.49-.65.12-.23.6-.93.65-.97,1.09-.88,2.14-.92,2.26-.97.45-.17,1.22.29,1.62-.49-.69-.86-1.41-1.79-1.94-2.75-.42-.76-3.07-5.75-3.4-5.82-.49-.11-1.49,2.15-2.43,1.94h-.32c.11-1.82.17-1.3.65-2.26.58-1.17,1.76-.96,1.13-1.62l-1.78.97c-.14-1.32.85-1.72,1.29-2.59l-1.62-7.93c.56-.51-.56-.92.97-.81Z"/>
          <path class="cls-26" d="m104.19,34.59c-3.14,8.13-2.16,16.06,1.29,23.94-1.53-.11-.41.3-.97.81l1.62,7.93c-1.82-1.1-2.87.35-3.07.32-4.98-5.23-5.33-18.02-3.72-23.94.62-2.3,1.69-4.3,2.59-6.47.11-.08.61-.29.65-.32.84-.89.53-2.18,1.62-2.26Z"/>
          <g>
            <path class="cls-26" d="m123.92,14.21c-.43.24-.78-.35-.81-.32-.69.66.99.62.32,1.29-.32.32-5.04,2.27-7.93,4.53-3.94-3.85-5.12-14.18-8.57-13.59-2.05.35-1.06,8.86-1.13,10.84-.44,2.28-2.32,1.61-1.94,3.4-.66.13-.87.34-.97.32-.22-.03-.73-.47-.97-.65-.06-.05-.77-.98-.97-1.29-.02-.1.03-.23,0-.32l.49.32c-1.77-4.91-3.84-15.97,3.88-17.14,6.9-1.05,8.71,6.39,13.91,9.38,3.58,2.06,7.87,1.47,4.69,3.23Z"/>
            <path class="cls-68" d="m114.86,5.16c1.49,1.29,3.41,3.85,5.34,4.85,2.64,1.37,5.91.45,6.31,3.88l-2.59.32c3.18-1.76-1.11-1.18-4.69-3.23-5.2-2.99-7.01-10.43-13.91-9.38-7.72,1.17-5.66,12.23-3.88,17.14l-.49-.32c-.07-.25-1.83-2.27-2.26-4.69-1.27-7.16,3.15-16.2,11.16-13.1,2,.78,3.5,3.21,5.01,4.53Z"/>
            <path class="cls-29" d="m115.51,19.71c-.6.47-1.35,1.11-1.94,1.62-2.45.65-1.96-2.52-6.15-2.26-1.04.06-2.81,1.15-3.56,1.29-.38-1.79,1.5-1.12,1.94-3.4.07-1.98-.92-10.48,1.13-10.84,3.46-.6,4.63,9.73,8.57,13.59Z"/>
            <path class="cls-28" d="m113.57,21.33c-1.2,1.02-3.21,3.52-4.53,4.85h-4.04c-4.33,4.24-1.47-3.31.81-4.69-4.44-.68-.27-.59,1.62-2.43,4.18-.26,3.7,2.92,6.15,2.26Z"/>
          </g>
          <path class="cls-21" d="m104.19,34.59c-1.09.09-.77,1.38-1.62,2.26-.57-.95-.51,0-.65.32-2.54,1.73-1.6-1.1-.65-2.91.42-.79,5.81-6.08,7.12-7.44-1.41,2.62-3.12,4.96-4.21,7.76Z"/>
          <path class="cls-18" d="m101.28,32.65c-.14,1.08-.54,1.65,0,1.62-.96,1.81-1.89,4.64.65,2.91-.9,2.17-1.96,4.17-2.59,6.47v-3.4c-1.92,2.51-.89,5.55-1.94,8.41-.76.24-.83-.14-1.29-.49-1.28-3.38,2.42-14.57,5.18-15.53Z"/>
          <path class="cls-47" d="m151.09,36.53c1.24,1.49,4.91,3.9,3.23,6.15-1.17-4.68-6.05-2.84-6.47-2.91-1.61-.26-2.84-.88-4.53-.97-.31-.02-.34-.31-.65-.32-.23-.83.18-1.53.32-2.26-.09,2.12,1.42.34,2.59-.65l5.5.97Z"/>
          <path class="cls-70" d="m171.8,82.47l1.29.97c-.1.31-1.01,2.72-.16,2.26l2.1-2.91c-.2,6.05-4.25,8.82-3.23,5.5.38-1.86-1.13-.76-1.13-2.26-3.79,1.7-1.64.05-1.78-.16-.07-.11-1.5-.23-1.94-.97-.02-.04.56-.37.32-.81,1.78-3.45,1.15-11.3,3.56-4.69.27.74.99,3.58.32,4.21,1.72.57.53-.55.65-1.13Z"/>
          <path class="cls-4" d="m166.94,86.35c.04.08.99.62.97,1.46-.05.29-1.1.9-1.29,1.13-.6-.22-.96.64-1.13.65-.19,0-.04-.9-.81-.65-.63-5.76-5.15-7.67,2.26-2.59Z"/>
          <path class="cls-56" d="m144.3,25.54c-.29,3.42-.62,7.33-1.29,10.68-.15.73-.56,1.43-.32,2.26-.64-.03-8.3.27-8.73.32.32-1.63.12-3.22,0-4.85,1.36.23,2.61-.44,3.88-.65.4-.07.95.09,1.29,0,5.02-1.39,2.15-4.22,2.26-8.41.46.13,1.72.14,2.91.65Z"/>
          <path class="cls-51" d="m141.06,17.77c.97-.04,1.96.19,2.91.32-1.45.69.7,1.82.97,3.72.2,1.36-.56,2.27-.65,3.4-3.82-2.77-4.81-2.08-5.18-7.28.26-.32,1.49-.14,1.94-.16Z"/>
          <path class="cls-2" d="m144.3,16.8c.03.08.49-.17.32,1.62-.31-.05-.35-.28-.65-.32-.95-.13-1.95-.36-2.91-.32-.11-1.36-3-.13-4.04-.65-.1-.05-.1-2.21,0-2.26.28-.16,6.2.14,6.47.32.44.31.6,1.08.81,1.62Z"/>
          <path class="cls-51" d="m136.21,25.54l1.62,7.76c-1.27.21-2.52.87-3.88.65-.18-2.35-1.13-8.29-.97-9.06l3.23.65Z"/>
          <path class="cls-68" d="m140.09,24.56l-.97,8.73c-.34.09-.89-.07-1.29,0l-1.62-7.76c1.84-2.88,3.3-1.07,3.88-.97Z"/>
          <path class="cls-51" d="m141.39,24.89c-.11,4.19,2.75,7.02-2.26,8.41l.97-8.73c.54.09.8.18,1.29.32Z"/>
          <path class="cls-51" d="m135.89,17.45c-1.63,1.48-.33,1.63-1.29,3.4-.28.49-2.71.8-1.94,4.04-6.03-3.35-.09-4.27,1.29-7.44.65.02,1.29-.02,1.94,0Z"/>
          <path class="cls-18" d="m132.98,24.89h-.32c-.77-3.24,1.66-3.55,1.94-4.04.97-1.76-.34-1.92,1.29-3.4l.65.16c1.22,8.17-2.84,3.79-3.56,7.28Z"/>
          <g>
            <path class="cls-6" d="m183.44,61.44c.44,3.19.47,6.33,0,9.38-1.49-1.54-.82-3.81-1.46-5.82-.58,1.75.34,3.94-1.78,4.53l-.32-14.56c1.93,1.44,2.34,4.62,3.56,6.47Z"/>
            <path class="cls-26" d="m181.99,60.47c.08,0,.32,1.17.32,1.29,0,2.14-.99-1.29-.32-1.29Z"/>
          </g>
          <path class="cls-43" d="m94.81,46.56c-.4.11-.06,1.5,0,1.94.25,1.79.43,3.36.32,5.18-.03.57-.22,1.66-.32,2.26-.23,1.33.13,3.54-2.26,4.21-.05-3.65.31-7.38-.32-11,.87-4.9.85-2.37,1.46-2.59.54-.2-.35-1.96,1.13,0Z"/>
          <path class="cls-64" d="m95.78,60.15c-.83,1.61.11,4.91.65,6.79-.68.32.06,1.36-.97.65-2.21-3.51-.98,2.46-2.91,0-.01-.11.01-.22,0-.32-.2-1.78.03-4.94,0-7.12,2.4-.66,2.04-2.88,2.26-4.21,1-.29.53,2.16.97,4.21Z"/>
          <path class="cls-39" d="m95.45,67.59c.17.28.4,1.71.65,2.26-.12.4-.47.57-.65.97-.34.77-.51,1.6-.65,2.43h-.65c-.3-1.97-1.36-3.66-1.62-5.66,1.93,2.46.7-3.51,2.91,0Z"/>
          <path class="cls-5" d="m152.71,91.53c.04.66,1.17,2.09-.32,5.18-1.06.22-1.79.57-2.75.97-.42.18-.19,1.74-8.25,2.59.9-1.39,1.29-2.76,4.21-6.79l7.12-1.94Z"/>
          <path class="cls-28" d="m152.71,91.53l-7.12,1.94c.75-1.04,1.44-2.25,2.26-3.23.81-.96,2.84-2.89,3.88-3.88,1.31,1.42.87,3.56.97,5.18Z"/>
          <path class="cls-11" d="m134.59,99.29c-.1-.01-.04.65-1.94-.32-.72-.37-12.83-8.51-13.42-9.06-.3-.28.38-.28-.16-.97,4.8,3.09,11.36,5.7,15.53,10.35Z"/>
          <path class="cls-4" d="m107.75,81.5c.23.11.41.29.65.32.04,0-.26.68.49.65.55-.02,4.62-2.52,3.72.49-.23.78-2.62-.34,1.62,2.75-.96,1.45-1.2-.36-2.91.65-.17-.31-2.67-1.76-5.18-4.69-.31-.36.34-.46.32-.49,1.04,1.05,1.23.29,1.29.32Z"/>
          <path class="cls-60" d="m147.86,90.23c-.83.99-1.51,2.2-2.26,3.23-2.92,4.03-3.31,5.4-4.21,6.79-1.82,2.83-5.61,8.75-5.5,6.15.07-.27.36-5.38.32-5.66-.23-1.77-.95-1.37-.97-1.46-1.78-5.94-2.45-4.86-6.15-8.41l.97-.32c1.19,1.14,2.08,2.23,3.72,2.26.66,1.39,1.78,2.41,2.75,3.56.33.39,1.59,2.59,1.78,2.59.77-.75.72-1.63,1.46-2.59.92-1.19,2.75-3.3,3.88-4.21.05-.04.76-.51.97-.65.85-.56,2.65-1.64,3.23-1.29Z"/>
          <path class="cls-30" d="m99.98,69.53s-.07.36.32.32c.36,3.2,6.26,7.94,7.44,11.65-.06-.03-.25.72-1.29-.32-1.44-1.7-3.64-3.56-3.88-3.88-2.66-3.48-4.92-6.09-6.15-10.35-.54-1.88-1.48-5.18-.65-6.79.47,2.19,2.6,7.9,4.21,9.38Z"/>
          <path class="cls-76" d="m102.57,77.29l-.65,2.26c-.36-.45-1.99-1.55-2.26-1.94-1.6-2.27-2.44-5.23-3.56-7.76-.25-.56-.47-1.99-.65-2.26,1.03.71.29-.32.97-.65,1.23,4.26,3.49,6.87,6.15,10.35Z"/>
          <path class="cls-26" d="m175.03,82.79l-2.1,2.91c-.85.46.06-1.95.16-2.26.32-.96.91-1.93,1.29-2.91.77.53.67,1.47.65,2.26Z"/>
          <path class="cls-3" d="m121.65,44.62c.24,1.62.94,2.39,1.94,3.56-4.08,1.79-9.11.41-4.85,6.47,1.96,2.78,4.8,2.96,7.76,4.21-.85,4.3-1.42,8.59-1.94,12.94-.23,1.94-.96,2.76-.97,2.91-3.47-7.81-7.82-15.23-9.7-23.61-.09-.41-.5-.39-.65-1.29.85.13.43-1.55.97-2.43,1.66-2.68,4.52-2.93,7.44-2.75Z"/>
          <path class="cls-30" d="m131.04,86.03c.44.13,2.48.28,3.23.32,4.52.27,5.46-.07,9.38-1.62,1.08-.43,2.25-.71,3.07-1.62l.16.49c-1,.92-4.03,4.35-4.21,4.69l-.16-.65c-1.56,2.45-3.11,4.97-4.69,7.44-2.23-4.07-8.38-6.96-10.68-9.06-3.02-2.75-1.4-2.2-1.62-2.59l2.26-2.59c2.15-1.56-1.15,3.88,3.23,5.18Z"/>
          <path class="cls-51" d="m142.68,38.47c.31.01.34.31.65.32-1.23,2.42-.04,3.97-1.29,4.21-2.9-1.34-4.84-.73-7.44.32-1.12.46-1.31.57-2.26,1.29.04-.74-.03-4,0-4.21.03-.21-.01-.43,0-.65l.49-.97c.37-.03.76.05,1.13,0,.43-.05,8.1-.35,8.73-.32Z"/>
          <path class="cls-21" d="m123.6,74.71c-.05.53.02,1.08,0,1.62-.06,1.31.09,2.28.32,3.56l-.97-.49c-2.74-8.12-6.52-16.94-9.38-24.26.29-1.41-.72-2.52.32-4.04,1.89,8.39,6.23,15.81,9.7,23.61Z"/>
          <path class="cls-2" d="m123.6,38.15c-1.87,1.14-2.43,2.16-3.23,4.21-5.91.58-5.77,5.21-7.12,2.91.64-1.96,2.74-2.6,4.21-3.72-.82-1.77,1.75-2.52,2.1-4.37,3.87.62,2.15-3.36,8.41-1.94,6.08,1.38-.77.72-4.37,2.91Z"/>
          <path class="cls-62" d="m137.83,95.08c-.46.72.25,1.53-1.29,1.29-.96-1.15-2.09-2.17-2.75-3.56-1.64-.03-2.53-1.12-3.72-2.26-1.12-1.08-3.16-3.17-2.91-4.53,2.29,2.09,8.44,4.99,10.68,9.06Z"/>
          <path class="cls-21" d="m121.65,42.68c-.05.3,0,.66,0,.97,0,.32-.04.66,0,.97-2.92-.18-5.78.07-7.44,2.75-.54.88-.12,2.55-.97,2.43-.28-1.73-.58-2.74,0-4.53,1.35,2.3,1.2-2.34,7.12-2.91.57-.06.83.03,1.29.32Z"/>
          <path class="cls-70" d="m99.33,43.65c-1.61,5.92-1.26,18.71,3.72,23.94.21.02,1.25-1.42,3.07-.32-.45.86-1.43,1.27-1.29,2.59.03.29.35.62.65.65-.48.96-.54.45-.65,2.26-.06.91.11,1.43.32,2.26-3.91-2.94-5.41-10.17-4.85-5.18-.39.04-.31-.31-.32-.32-.31-4.47-1.75-6.5-2.26-8.09,1.34-1.63,0-2.6,0-2.75-.02-1.17.24-7.14,0-7.76-.07-.18-2.55-1.74-2.91-2.43-.06-.44-.4-1.83,0-1.94.33.44.16.78,1.29,1.62.47.34.53.72,1.29.49,1.05-2.86.02-5.9,1.94-8.41v3.4Z"/>
          <path class="cls-53" d="m105.16,75.03c.03.1-.03.23,0,.32.23.74,2.86,5.2,3.88,5.5-.05.04-.53.74-.65.97-.24-.04-.42-.21-.65-.32-1.18-3.7-7.08-8.44-7.44-11.65-.56-4.99.94,2.23,4.85,5.18Z"/>
          <path class="cls-11" d="m110.98,76.65c.53.96,1.25,1.89,1.94,2.75-.4.78-1.17.31-1.62.49-1.16-1.08-5.32-4.76-6.15-4.53-.03-.1.03-.22,0-.32-.21-.83-.38-1.36-.32-2.26h.32c.46,1.44,3.15,2.27,4.04,2.91.57.41-.78,1.72,1.78.97Z"/>
          <path class="cls-25" d="m110.98,76.65c-2.56.75-1.21-.56-1.78-.97-.9-.64-3.58-1.47-4.04-2.91.94.21,1.93-2.05,2.43-1.94.33.07,2.97,5.06,3.4,5.82Z"/>
          <path class="cls-4" d="m111.3,79.88c-.13.05-1.18.09-2.26.97-1.02-.3-3.65-4.76-3.88-5.5.82-.23,4.98,3.45,6.15,4.53Z"/>
          <path class="cls-19" d="m105.48,70.5c-.3-.03-.62-.36-.65-.65l1.78-.97c.63.66-.55.45-1.13,1.62Z"/>
          <path class="cls-18" d="m102.57,36.86s-.53.25-.65.32c.14-.33.07-1.27.65-.32Z"/>
          <path class="cls-2" d="m153.03,78.59c2.32-2.35,8.36-11.2,8.09-14.07-.33-3.42-4.1,2.67-4.85,3.72-.2-13.55,9.54-12.25,6.15-6.95,3.29,4.12-5.63,16.57-8.25,17.63-.44.18-.77-.19-1.13-.32Z"/>
          <path class="cls-25" d="m153.03,78.59c-.82.83-2.32,2.31-3.23,2.91.47-1.28.3-2.56.32-3.88,1.36-1.89,2.59-3.89,3.88-5.82.76-1.14,1.49-2.47,2.26-3.56.75-1.05,4.52-7.14,4.85-3.72.28,2.87-5.76,11.72-8.09,14.07Z"/>
          <path class="cls-26" d="m147.86,57.24c-.22-1.29-.39-2.6-.65-3.88,2.42,3.49,4.91-.29,7.44-.49l2.26-3.4c1.47,7.43-1.83,10.78-9.06,7.76Z"/>
          <path class="cls-8" d="m156.91,49.47l-2.26,3.4c-2.53.19-5.02,3.97-7.44.49-.21-1.08-.35-2.17-.65-3.23,2.68.83,3.32.96,5.82-.32,3.09-1.58,3.28-6.66,4.53-.32Z"/>
          <path class="cls-63" d="m142.68,88.29c-.05.1-.08.92-.65,1.46,2.04.29,1.06,2.36,2.59,1.78-.21.14-.92.61-.97.65-2.28,0-4.24,1.73-3.88,4.21-.73.95-.69,1.84-1.46,2.59-.19,0-1.45-2.2-1.78-2.59,1.54.24.83-.58,1.29-1.29,1.58-2.47,3.13-4.99,4.69-7.44l.16.65Z"/>
          <g>
            <path class="cls-3" d="m166.3,75.03c-3.05,2.92-5.5,4.1-5.98,5.5-2.34-.45-6.05,3.45-7.93,5.18-.24.22-.43.44-.65.65-1.04.99-3.08,2.92-3.88,3.88-.59-.35-2.39.74-3.23,1.29-1.53.58-.55-1.49-2.59-1.78.57-.53.6-1.36.65-1.46.17-.34,3.2-3.77,4.21-4.69l-.16-.49c-.82.91-1.99,1.19-3.07,1.62.69-1,1.82-1.48,2.59-2.43,1.18-1.46,1.02-4.69,1.46.49.1.08,1.87-1.14,2.1-1.29.92-.61,2.41-2.08,3.23-2.91.36.14.69.5,1.13.32,2.61-1.06,11.54-13.51,8.25-17.63,3.4-5.3-6.34-6.6-6.15,6.95-.77,1.09-1.5,2.42-2.26,3.56-.82.41-3.14.49-3.88.32-.52-.12-.12-.48-.65-.65-.49-4.71-.82-9.57-1.62-14.23,7.22,3.02,10.53-.33,9.06-7.76-1.25-6.34-1.44-1.26-4.53.32,1.83-1.63,2.51-4.83,1.94-7.12,1.67-2.25-1.99-4.66-3.23-6.15-.31-.38-.3-.65-.97-.81.04-1.13,9.15,2.41,10.19,3.07,7.81,4.97,9.33,20.13,9.87,28.63-.96,3.03-3.28,5.1-3.88,7.6Z"/>
            <path class="cls-21" d="m155.14,43.33c.9-.59,8.61,4.81,9.87,5.66-.18.5-9.22-2.96-9.7-3.88-.04-.08-.24-1.73-.16-1.78Z"/>
          </g>
          <path class="cls-16" d="m150.12,77.62c.03-1.83-.02-3.67,0-5.5.74.17,3.06.08,3.88-.32-1.29,1.94-2.52,3.93-3.88,5.82Z"/>
          <path class="cls-65" d="m147.86,39.77c-2.07,2.14-2.89,3.3-2.59,6.47-.29-.47-2.87-3.06-3.23-3.23,1.26-.24.07-1.78,1.29-4.21,1.69.09,2.91.72,4.53.97Z"/>
          <g>
            <path class="cls-15" d="m179.88,74.06c.23.54.97,1.03.97,1.13,0,.28-3.19,5,.65,2.43-.52.92-2.64,4.5-2.91,4.85-3.8,4.86-3.99,2.53-1.94-2.1-.41-.48-.78.38-1.46.16-.71-.23-.07-1.9-.81,0-.38.99-.97,1.95-1.29,2.91l-1.29-.97c.55-2.66,1.23-5.55.65-8.25,6.37,3.24,7.74,3.01,1.62-1.62.14-.41,4.8,2.07,4.53.32-.03-.21-4.26-4.04-.16-1.46.65.41,1.13,1.81,1.46,2.59Z"/>
            <path class="cls-30" d="m173.25,75.35c.49-.22,1.43,1.65,1.46,1.78.4,2.47-1.28-.18-1.46-1.78Z"/>
            <path class="cls-26" d="m177.13,77.29c.79-.02,1.09,1.01.65,1.29-.45.29-1.62-1.27-.65-1.29Z"/>
          </g>
          <path class="cls-18" d="m97.72,61.44c-.85-2.6-1.54-5.23-2.59-7.76.11-1.82-.08-3.39-.32-5.18.36.69,2.84,2.25,2.91,2.43.24.63-.02,6.6,0,7.76,0,.15,1.34,1.12,0,2.75Z"/>
          <path class="cls-61" d="m97.72,61.44c.52,1.59,1.95,3.62,2.26,8.09-1.6-1.48-3.74-7.19-4.21-9.38-.44-2.05.03-4.49-.97-4.21.1-.61.29-1.69.32-2.26,1.05,2.53,1.74,5.17,2.59,7.76Z"/>
          <path class="cls-63" d="m143.65,92.17c-1.13.9-2.96,3.01-3.88,4.21-.36-2.47,1.6-4.21,3.88-4.21Z"/>
          <path class="cls-2" d="m128.12,48.18c-.03.08.05,1.59.32,1.62-.72,1.93-1.16,4.72-1.62,6.79-2.66-.34-5.24-2.78-8.09-1.94-4.26-6.05.77-4.68,4.85-6.47h4.53Z"/>
          <path class="cls-21" d="m126.83,56.59c-.14.66-.18,1.56-.32,2.26-2.97-1.24-5.8-1.42-7.76-4.21,2.85-.83,5.43,1.6,8.09,1.94Z"/>
          <path class="cls-68" d="m132.33,44.62c-.72.55-2.11,1.87-2.59,2.59-.63.95-.9,1.53-1.29,2.59-.27-.03-.35-1.54-.32-1.62.21-.66,1.28-1.61,1.62-2.26.6-1.17,1.43-2.73,1.94-3.88.13-.3.84-1.43.65-1.62-.03.21.04,3.46,0,4.21Z"/>
          <g>
            <path class="cls-28" d="m154.33,42.68c.57,2.28-.11,5.49-1.94,7.12-2.51,1.28-3.14,1.16-5.82.32-.38-1.35-.53-2.64-1.29-3.88-.3-3.17.51-4.33,2.59-6.47.42.07,5.3-1.77,6.47,2.91Z"/>
            <path class="cls-27" d="m149.64,39.77c3.72-.5,4.7,3.97,3.56,4.21-1.89-3.67-2.94-1.4-5.66-2.75-.08-.46,1.77-1.41,2.1-1.46Z"/>
            <path class="cls-10" d="m153.19,44.94c1.9-.11-.23,5.29-3.23,4.85,3.6-1.4,1.11-4.73,3.23-4.85Z"/>
            <path class="cls-54" d="m147.05,44.3c1.12-.45,1.63,1.54.65,1.94-1.12.45-1.63-1.54-.65-1.94Z"/>
          </g>
          <g>
            <path class="cls-28" d="m128.12,40.74c.1-.02.22.03.32,0,.92,1.72,1.34.55,2.26.32l.97.97c-.51,1.15-1.34,2.71-1.94,3.88-1.54.25-.73-.77-.97-1.29-.09-.2-.2-.47-.32-.65-1.21-1.83-.17,4.52-4.85,1.62-.04-.37.06-.86,0-.97-.19-.35-.45-.27-.97-.97.67-.21.48-.68-.32-.65-.51.02-.15.66-.65.65,0-.31-.05-.67,0-.97.16-1.04.93-1.84.97-1.94,2.43-.18,4.58,1.26,5.5,0Z"/>
            <path class="cls-27" d="m128.12,40.74c-.92,1.26-3.07-.18-5.5,0,.27-.7.48-.89.65-1.29,1.4-1.36,4.47-.72,4.85,1.29Z"/>
            <path class="cls-42" d="m123.6,38.15c-1.03,1.51-.3,1.23-.32,1.29-.17.41-.38.6-.65,1.29-.04.1-.81.9-.97,1.94-.47-.29-.72-.38-1.29-.32.81-2.04,1.36-3.06,3.23-4.21Z"/>
            <path class="cls-63" d="m132.33,39.77c-.01.21.03.44,0,.65-.22-.22-1.3.57-1.62.65-.92.23-1.35,1.4-2.26-.32,1.25-.31,2.62-1.76,3.88-.97Z"/>
            <path class="cls-13" d="m132.33,40.42c.19.19-.51,1.32-.65,1.62l-.97-.97c.32-.08,1.4-.87,1.62-.65Z"/>
            <g>
              <path class="cls-31" d="m122.63,43.65c.52.7.78.63.97.97-2.74.58-.11.9,0,.97,4.68,2.91,3.64-3.45,4.85-1.62-.94.24-.6,1.26.32.65.24.52-.57,1.54.97,1.29-.34.66-1.41,1.61-1.62,2.26h-4.53c-1-1.17-1.7-1.93-1.94-3.56-.04-.31,0-.66,0-.97.5.01.14-.63.65-.65-.12.75.3.62.32.65Z"/>
              <path class="cls-55" d="m123.6,44.62c.06.11-.04.6,0,.97-.11-.07-2.74-.39,0-.97Z"/>
              <path class="cls-37" d="m128.77,44.62c-.93.62-1.26-.4-.32-.65.12.18.23.44.32.65Z"/>
              <path class="cls-68" d="m122.63,43.65s-.44.1-.32-.65c.8-.03.99.44.32.65Z"/>
              <path class="cls-52" d="m127.64,45.59c1.22-.26.99,1.33.32,1.62-1.3.56-1.13-1.44-.32-1.62Z"/>
            </g>
          </g>
          <g>
            <path class="cls-45" d="m127.8,80.85l-2.26,2.59c-.87-1.54-1.2-1.28-1.62-3.56-.23-1.28-.38-2.25-.32-3.56l2.26,4.04c1.08,1.3,1.5-1.16,1.94.49Z"/>
            <path class="cls-47" d="m142.03,43c.37.17,2.95,2.76,3.23,3.23.76,1.24.92,2.53,1.29,3.88.3,1.07.43,2.15.65,3.23.25,1.28.43,2.59.65,3.88.79,4.66,1.13,9.52,1.62,14.23-3.61-1.16-5.75-3.91-7.12-3.56.02-.43,0-.87,0-1.29,0-.31.35-.35.32-.65.24-1.13-.56-1.78-.65-2.26.75-.08,1.61-9.36,1.62-10.51.13-13.16-3.7-6.53-9.06-9.87,2.6-1.05,4.54-1.67,7.44-.32Z"/>
            <path class="cls-45" d="m149.47,71.47c.53.17.13.53.65.65-.02,1.83.03,3.67,0,5.5-.02,1.32.15,2.6-.32,3.88-.24.16-2.01,1.37-2.1,1.29-.43-5.17-.28-1.95-1.46-.49-.76.95-1.9,1.42-2.59,2.43-3.92,1.55-4.86,1.88-9.38,1.62l2.59-.65c4.28.95,6.13-1.85,4.04-2.26-.5-.1-1.48.93-2.43,1.29-3.21-.09-2.76-.61-2.91-.65,5.13-.55,10.49-3.84,3.23-6.95,2.05-1.82,2.64-3.01,3.23-5.66.31-1.39.24-2.21.32-3.56,1.36-.35,3.5,2.4,7.12,3.56Z"/>
            <path class="cls-72" d="m130.71,52.06c-.03,1.54-.43,6.33-.65,7.76-.06.39-.88,2.19-.97,2.75-.12.76.39.88.32,1.29-.03.2-.79.39-.97,1.46-.21,1.25-.6,2-.65,3.56l-3.23,2.91c.52-4.35,1.09-8.64,1.94-12.94.14-.7.18-1.61.32-2.26.45-2.08.9-4.86,1.62-6.79.39-1.06.67-1.64,1.29-2.59.87-.46,1,3.44.97,4.85Z"/>
            <path class="cls-69" d="m127.8,68.88c-.08,2.93-.15,2.84,1.29,5.18.99,1.61,2.25,2.26,2.26,2.43.14,1.37-4.89,1.67.32,6.31-4.24-1.89-2.43-2.47-.65,3.23-4.38-1.3-1.09-6.73-3.23-5.18-.44-1.64-.87.82-1.94-.49l-2.26-4.04c.02-.54-.05-1.09,0-1.62.01-.15.74-.97.97-2.91l3.23-2.91Z"/>
            <path class="cls-59" d="m131.68,82.79c2.71,1.21,2.41.91,3.88,1.29.16.04-.3.56,2.91.65-.17.07-1.75.67-1.62.97l-2.59.65c-.76-.04-2.79-.19-3.23-.32-1.78-5.71-3.59-5.13.65-3.23Z"/>
            <path class="cls-73" d="m134.59,43.33c5.35,3.33,9.19-3.29,9.06,9.87-.01,1.16-.86,10.44-1.62,10.51-.03-.18-.22-.63-.32-.97-.51-1.6.16-3.34-3.4-4.21-1.1-2.15.29-4.1.49-6.15.3-3.11-1.55-3.38-3.88-1.94-.92-2.49-.97,1.19-4.21,1.62.03-1.41-.1-5.31-.97-4.85.48-.72,1.87-2.04,2.59-2.59.96-.73,1.14-.84,2.26-1.29Z"/>
            <path class="cls-27" d="m142.36,66.62c0,.43.02.87,0,1.29-.08,1.35-.01,2.17-.32,3.56-2.51-9.25-12.33-6.93-12.94-3.07-.37,2.37,3.15,7.89,0,5.66-1.44-2.34-1.37-2.25-1.29-5.18.04-1.56.43-2.31.65-3.56,3.57-4.04,10.98-3.24,13.91,1.29Z"/>
            <path class="cls-46" d="m132.01,59.5c-3.19,1.9-.48,1.55-.32,1.62,2.54,1.05,6.08.66,9.06,1.94.75.97,1.28,1.9,1.94,2.91.03.29-.33.34-.32.65-2.93-4.53-10.34-5.33-13.91-1.29.18-1.07.94-1.26.97-1.46.07-.41-.44-.54-.32-1.29.09-.56.91-2.36.97-2.75.92.44,1.68-1.57,1.94-2.59v2.26Z"/>
            <path class="cls-35" d="m141.71,62.74c.11.34.29.79.32.97.09.48.89,1.14.65,2.26-.66-1.02-1.19-1.94-1.94-2.91-2.58-3.32-5.34-4.98-9.06-1.94-.16-.07-2.86.28.32-1.62,3.63-2.17,7.6.02,9.7,3.23Z"/>
            <path class="cls-48" d="m136.86,85.7c-.13-.3,1.45-.91,1.62-.97.95-.36,1.93-1.39,2.43-1.29,2.09.41.24,3.21-4.04,2.26Z"/>
            <path class="cls-74" d="m134.92,50.44c-.48.29-.16.43-.65.97-1.11,1.23-.44,1.62-.81,1.94-.33.29-.97-.45-1.13-.16-.1.18.04,2.63-.32,4.04-.26,1.02-1.02,3.02-1.94,2.59.22-1.43.62-6.23.65-7.76,3.23-.42,3.29-4.11,4.21-1.62Z"/>
            <path class="cls-69" d="m138.8,52.38c-.2,2.04-1.58,4-.49,6.15,3.56.87,2.89,2.6,3.4,4.21-2.1-3.21-6.07-5.4-9.7-3.23v-2.26c.36-1.41.22-3.87.32-4.04.16-.29.8.45,1.13.16.36-.32-.3-.71.81-1.94,1.58,3.09,1.77.96,4.53.97Z"/>
            <path class="cls-69" d="m140.74,63.06c-2.98-1.28-6.52-.89-9.06-1.94,3.71-3.04,6.48-1.38,9.06,1.94Z"/>
            <g>
              <path class="cls-49" d="m138.8,52.38c-2.76,0-2.95,2.12-4.53-.97.49-.54.17-.68.65-.97,2.33-1.44,4.18-1.17,3.88,1.94Z"/>
              <path class="cls-69" d="m136.05,50.12c.72-.2,2.75.35,2.75,1.13,0,.67-6.9.02-2.75-1.13Z"/>
            </g>
            <g>
              <path class="cls-29" d="m142.03,71.47c-.59,2.65-1.19,3.85-3.23,5.66,7.26,3.12,1.9,6.41-3.23,6.95-1.47-.39-1.17-.08-3.88-1.29-5.21-4.64-.18-4.94-.32-6.31-.02-.17-1.27-.82-2.26-2.43,3.15,2.23-.37-3.29,0-5.66.61-3.86,10.43-6.18,12.94,3.07Z"/>
              <g>
                <path class="cls-33" d="m138.31,71.47c3.94-.01,1.09,4.73-.65,4.53-1.49-.17-2.8-4.52.65-4.53Z"/>
                <path class="cls-22" d="m137.99,72.44c1.28,0,.57,2.56-.65,1.62-.6-.47.11-1.62.65-1.62Z"/>
              </g>
            </g>
          </g>
        </g>
      </g>
    </g>
  </g>
</svg>