<?xml version="1.0" encoding="UTF-8"?>
<svg id="Layer_2" data-name="Layer 2" xmlns="http://www.w3.org/2000/svg" xmlns:xlink="http://www.w3.org/1999/xlink" viewBox="0 0 201.2 242.15">
  <defs>
    <style>
      .cls-1 {
        fill: url(#linear-gradient);
      }

      .cls-1, .cls-2, .cls-3, .cls-4, .cls-5, .cls-6, .cls-7, .cls-8, .cls-9, .cls-10, .cls-11, .cls-12, .cls-13, .cls-14, .cls-15, .cls-16, .cls-17, .cls-18, .cls-19, .cls-20, .cls-21, .cls-22, .cls-23, .cls-24, .cls-25, .cls-26, .cls-27, .cls-28, .cls-29, .cls-30, .cls-31, .cls-32, .cls-33, .cls-34, .cls-35, .cls-36, .cls-37, .cls-38, .cls-39, .cls-40, .cls-41, .cls-42, .cls-43, .cls-44, .cls-45, .cls-46, .cls-47, .cls-48, .cls-49, .cls-50, .cls-51, .cls-52, .cls-53, .cls-54, .cls-55, .cls-56, .cls-57, .cls-58, .cls-59, .cls-60, .cls-61, .cls-62, .cls-63, .cls-64, .cls-65, .cls-66, .cls-67, .cls-68, .cls-69, .cls-70, .cls-71, .cls-72, .cls-73, .cls-74, .cls-75, .cls-76, .cls-77, .cls-78, .cls-79, .cls-80, .cls-81, .cls-82, .cls-83, .cls-84, .cls-85, .cls-86 {
        stroke-width: 0px;
      }

      .cls-2 {
        fill: url(#linear-gradient-4);
      }

      .cls-3 {
        fill: url(#linear-gradient-2);
      }

      .cls-4 {
        fill: url(#linear-gradient-3);
      }

      .cls-5 {
        fill: url(#linear-gradient-5);
      }

      .cls-6 {
        fill: #f6f4f1;
      }

      .cls-7 {
        fill: #5f4537;
      }

      .cls-8 {
        fill: #794c33;
      }

      .cls-9 {
        fill: #732c49;
      }

      .cls-10 {
        fill: #82937f;
      }

      .cls-11 {
        fill: #271c20;
      }

      .cls-12 {
        fill: #7b726b;
      }

      .cls-13 {
        fill: #513622;
      }

      .cls-14 {
        fill: #26361a;
      }

      .cls-15 {
        fill: #474d6e;
      }

      .cls-16 {
        fill: #653b21;
      }

      .cls-17 {
        fill: #2b351f;
      }

      .cls-18 {
        fill: #29273f;
      }

      .cls-19 {
        fill: #64616a;
      }

      .cls-20 {
        fill: #6f836e;
      }

      .cls-21 {
        fill: #895b40;
      }

      .cls-22 {
        fill: #968d71;
      }

      .cls-23 {
        fill: #a34d6b;
      }

      .cls-24 {
        fill: #6f6b51;
      }

      .cls-25 {
        fill: #a2a0a0;
      }

      .cls-26 {
        fill: #a3a0aa;
      }

      .cls-27 {
        fill: #322a1a;
      }

      .cls-28 {
        fill: #343133;
      }

      .cls-29 {
        fill: #272f25;
      }

      .cls-30 {
        fill: #577a80;
      }

      .cls-31 {
        fill: #592239;
      }

      .cls-32 {
        fill: #3e392f;
      }

      .cls-33 {
        fill: #08939e;
      }

      .cls-34 {
        fill: #182e2f;
      }

      .cls-35 {
        fill: #358785;
      }

      .cls-36 {
        fill: #412c27;
      }

      .cls-37 {
        fill: #453622;
      }

      .cls-38 {
        fill: #454544;
      }

      .cls-39 {
        fill: #431825;
      }

      .cls-40 {
        fill: #072321;
      }

      .cls-41 {
        fill: #057a83;
      }

      .cls-42 {
        fill: #113b61;
      }

      .cls-43 {
        fill: #0b3327;
      }

      .cls-44 {
        fill: #062b46;
      }

      .cls-45 {
        fill: #098a7c;
      }

      .cls-46 {
        fill: #07a791;
      }

      .cls-47 {
        fill: #21514f;
      }

      .cls-48 {
        fill: #131411;
      }

      .cls-49 {
        fill: #101e18;
      }

      .cls-50 {
        fill: #171315;
      }

      .cls-51 {
        fill: #162818;
      }

      .cls-52 {
        fill: #23615e;
      }

      .cls-53 {
        fill: #d2c0b2;
      }

      .cls-54 {
        fill: #d2a98b;
      }

      .cls-55 {
        fill: #ddd9da;
      }

      .cls-56 {
        fill: #c6c9cf;
      }

      .cls-57 {
        fill: #d9d8e4;
      }

      .cls-58 {
        fill: #acb0a6;
      }

      .cls-59 {
        fill: #aa846b;
      }

      .cls-60 {
        fill: #bdab9b;
      }

      .cls-61 {
        fill: #bbe0c1;
      }

      .cls-62 {
        fill: #c09374;
      }

      .cls-63 {
        fill: #d8778c;
      }

      .cls-64 {
        fill: #c15977;
      }

      .cls-65 {
        fill: #c1beca;
      }

      .cls-66 {
        fill: #8b8992;
      }

      .cls-67 {
        fill: #b79b87;
      }

      .cls-68 {
        fill: #bab2af;
      }

      .cls-69 {
        fill: #32553e;
      }

      .cls-70 {
        fill: #996d50;
      }

      .cls-71 {
        fill: #999980;
      }

      .cls-72 {
        fill: #009c93;
      }

      .cls-73 {
        fill: #91d4d4;
      }

      .cls-74 {
        fill: #928982;
      }

      .cls-75 {
        fill: #876b4e;
      }

      .cls-76 {
        fill: #664d33;
      }

      .cls-77 {
        fill: #ecded3;
      }

      .cls-78 {
        fill: #edebf2;
      }

      .cls-79 {
        fill: #e7c7ad;
      }

      .cls-80 {
        fill: #edb3bb;
      }

      .cls-81 {
        fill: #047065;
      }

      .cls-82 {
        fill: #025e51;
      }

      .cls-83 {
        fill: #02a6ad;
      }

      .cls-84 {
        fill: #04422b;
      }

      .cls-85 {
        fill: #669199;
      }

      .cls-86 {
        fill: #014941;
      }
    </style>
    <linearGradient id="linear-gradient" x1="73.89" y1="178.29" x2="48.1" y2="213.46" gradientUnits="userSpaceOnUse">
      <stop offset="0" stop-color="#42493b"/>
      <stop offset="1" stop-color="#8d8775"/>
    </linearGradient>
    <linearGradient id="linear-gradient-2" x1="36.27" y1="161.86" x2="21.7" y2="207.54" gradientUnits="userSpaceOnUse">
      <stop offset="0" stop-color="#615740"/>
      <stop offset="1" stop-color="#7d6145"/>
    </linearGradient>
    <linearGradient id="linear-gradient-3" x1="91.03" y1="204.23" x2="101.97" y2="234.37" gradientUnits="userSpaceOnUse">
      <stop offset="0" stop-color="#626563"/>
      <stop offset="1" stop-color="#b7b5b6"/>
    </linearGradient>
    <linearGradient id="linear-gradient-4" x1="184.3" y1="13.32" x2="176.46" y2="24.04" gradientUnits="userSpaceOnUse">
      <stop offset="0" stop-color="#25524f"/>
      <stop offset="1" stop-color="#1a3d3f"/>
    </linearGradient>
    <linearGradient id="linear-gradient-5" x1="16.37" y1="12.4" x2="26.27" y2="26.27" gradientUnits="userSpaceOnUse">
      <stop offset="0" stop-color="#2c5a59"/>
      <stop offset="1" stop-color="#173837"/>
    </linearGradient>
  </defs>
  <g id="Layer_1-2" data-name="Layer 1">
    <g>
      <g>
        <g>
          <path class="cls-1" d="m33.39,143.57c-.15,2.6,4.34,4.04,6.35,5.49.74.53,1.57.91,2.31,1.44,1.48,1.07,3.4,2.93,4.62,4.33-.09,0-.33.36-1.88,0-.69.39,11.31,5.79,11.99,6.35-4.49-.57-11.01,1.4-15.31,2.74,7.98-1.28,6.14.15,6.5.14,1.97-.05,15.25-3.77,9.82,0-.58.4-7.15,1.36-8.81,2.46l11.12,1.88c1.26,1.05-.75,1.67,1.3,1.73.02.05.25.31.58.87-.68.29-7.21,2.01-6.64,2.74,6.51-.56,2.88,1.21,3.61,1.59.49.25,3.85-.91,5.92-.58,2.61,2.95,10.65,9.49,14.44,9.82.08,1.32,3.04-.01,4.04.87-2.6.31-3.61.26-6.21-.58-.45.37.03,1.77.14,2.31,1.19,5.49,7.11,7.79,7.51,8.23.13.14.08,1.91,1.73,3.32-.76,1.28.96,1.24,1.44,2.31-2.59,6.67-8.82,20.67.87,23.54-.77,7.24,5.15,12.45,9.82,17.19-2.34-.33-5.57-1.43-8.38-2.02-5.17-11.37-32.16-26.55-43.18-27.44-12-.97-20.28,3.4-21.37,3.47-1.05.07-4.74-1.71-6.35-1.44-1.08.18-4.1,3.61-5.92,3.75-1.22-.51-2.86-.5-3.75-1.73-.02-.26.26-.29.29-.58,1.61-.24,8-6,8.52-6.07,1.28-.16,1.66,2.1,4.04,1.44.43-.12,4.09-3.8,4.91-4.62,8.57.07,7.99-7.06,8.23-7.65.27-.66,2.34-.79,2.6-1.44.43-1.11-.96-8.41-1.44-9.96.63-.9,2.34.93,3.61,1.44.64-.03.26-5.08-1.59-6.79.59-8.54-2.5-10.8-4.04-14.3-1.8-4.08-4.59-9.72-6.07-13.58-.59-1.54-1.31-3.02-1.73-4.62l2.89-8.67c1.08.96,2.28,1.78,3.47,2.6Z"/>
          <path class="cls-68" d="m90.29,239.76c-10.48-2.2-21-4.71-31.34-7.51-9.56-2.58-37.5-10.82-45.49-14.15,1.83-.14,4.84-3.58,5.92-3.75,1.61-.27,5.31,1.51,6.35,1.44,1.09-.07,9.37-4.44,21.37-3.47,11.03.89,38.01,16.07,43.18,27.44Z"/>
          <g>
            <path class="cls-13" d="m27.04,149.64c.42,1.6,1.15,3.09,1.73,4.62-11.07,5.54-1.76,14.68-.87,17.19,1.89,5.29-3.97,4.6-2.6,11.55-6.19,3.37-3.31,4.1-4.04,6.64-.13.45-5.52,6.07-6.35,6.93,3.38,11.49-4.31,13.79-4.91,19.21-.03.29-.3.32-.29.58-.03-.04-.49.12-.58-.14-.48-4.78.48-9.71.58-12.13,0-.2-.87,0-.58-3.75.45-5.81,2.23-11.65,3.47-17.33.16-.72-.5-1.41-.29-2.31.51-2.22,2.34-4.12,2.6-9.24l4.04-7.8c-.59-4.28,2.58-10.3,4.91-14.01.41-.65.16-1.03.72-1.44.48,1.55,1.03.99,2.46,1.44Z"/>
            <path class="cls-27" d="m29.92,140.97l-2.89,8.67c-1.42-.45-1.98.11-2.46-1.44-.56.42-.32.8-.72,1.44-.25-3.43,1.59-8.16,3.18-11.26.12.15,2.46,2.21,2.89,2.6Z"/>
          </g>
          <path class="cls-3" d="m34.83,167.84c-6.86,2.99-2.68,3.92-2.31,8.52.1,1.2-1.06,2.62-.58,3.75.18.42,2.78.47,4.91,7.37.48,1.55,1.88,8.85,1.44,9.96-.26.66-2.33.78-2.6,1.44-.24.6.34,7.72-8.23,7.65-.82.82-4.48,4.5-4.91,4.62-2.38.65-2.77-1.6-4.04-1.44-.52.06-6.91,5.82-8.52,6.07.6-5.42,8.29-7.72,4.91-19.21.83-.86,6.22-6.48,6.35-6.93.74-2.54-2.14-3.27,4.04-6.64-1.37-6.95,4.49-6.27,2.6-11.55-.9-2.51-10.21-11.65.87-17.19,1.47,3.86,4.27,9.5,6.07,13.58Z"/>
          <path class="cls-24" d="m36.86,187.48c-2.13-6.9-4.73-6.94-4.91-7.37-.48-1.13.67-2.55.58-3.75-.37-4.6-4.55-5.53,2.31-8.52,1.54,3.5,4.63,5.76,4.04,14.3,1.85,1.7,2.22,6.76,1.59,6.79-1.27-.52-2.98-2.34-3.61-1.44Z"/>
          <path class="cls-29" d="m56.79,161.19c.6.08,1.13.27,1.73.29.41-.02.25.3.29.58.29,1.95,1.71,6.37,2.6,8.09-2.05-.06-.04-.68-1.3-1.73l-11.12-1.88c1.65-1.09,8.23-2.05,8.81-2.46,5.43-3.77-7.85-.05-9.82,0-.36,0,1.49-1.42-6.5-.14,4.3-1.34,10.81-3.32,15.31-2.74Z"/>
          <path class="cls-29" d="m63.72,173.04c.21.27.28.27.29.29.99,1.25.81,1.38.87,1.44-2.08-.33-5.43.83-5.92.58-.73-.38,2.9-2.15-3.61-1.59-.57-.74,5.97-2.46,6.64-2.74.13.22,1.34,1.5,1.73,2.02Z"/>
          <path class="cls-29" d="m37.72,145.6c1.1.79,1.61,2.24,2.02,3.47-2.01-1.44-6.5-2.89-6.35-5.49,2.19,1.51,3.87,1.69,4.33,2.02Z"/>
        </g>
        <g>
          <path class="cls-4" d="m103.87,204.52c-1.09,1.73-2.78,4.27-2.31,6.35l-.58.72c.34,1.85-.19,3.67-.29,5.49-.23,4,.52,23.36,0,24.55-.15.35-1.11-.13-1.16.43-1.16-.12-.82-.28-.87-.29-4.67-4.74-10.59-9.95-9.82-17.19-9.68-2.87-3.45-16.87-.87-23.54,5.34,1.23,10.34,5.1,15.89,3.47Z"/>
          <path class="cls-55" d="m118.89,202.79c0,.62.21,1.37.58,1.88-5.21,5.57,1.97,8.49.58,14.73-.18.83-4.02,3.78-9.82,13.72-1.56,2.68-3.28,5.44-4.33,8.38-.05,0-.54.55-.72.58-.92.12-4.62.1-5.63,0,.04-.57,1-.08,1.16-.43.52-1.19-.23-20.55,0-24.55.1-1.82.63-3.63.29-5.49l.58-.72c3.52-1.91,7.29-3.34,10.83-5.2,2.87-1.51,5.39-4.15,6.5-2.89Z"/>
          <path class="cls-38" d="m103.58,203.65c.6-.07.65-.25.87-.29.05.69-.54,1.1-.58,1.16-5.54,1.63-10.55-2.24-15.89-3.47-.48-1.07-2.2-1.03-1.44-2.31,1.18,1.01,4.67,2.2,6.21,1.44.59.16,1.11,4.6,10.83,3.47Z"/>
          <path class="cls-25" d="m119.17,195.85c-.16,1.05-.54,2.82-.58,3.75-.11,2.57.29,3.02.29,3.18-1.11-1.26-3.63,1.38-6.5,2.89-3.54,1.86-7.31,3.29-10.83,5.2-.47-2.08,1.22-4.62,2.31-6.35.03-.05.63-.47.58-1.16,4.39-.77,4.9-1.88,8.52-3.75.43-.22.98.49,1.44.29,1.24-.55,3.77-3.87,4.77-4.04Z"/>
        </g>
        <g>
          <path class="cls-68" d="m187.63,218.67c-24.11,6.59-54.79,17.69-78.56,22.24,2.68-3.13,8.76-9.42,11.7-11.84,6.44-5.3,30.27-15.63,38.13-16.46,1.69-.18,13.95-.08,14.73.29,2.2,1.04-1.5,3.94,8.38.29l5.63,5.49Z"/>
          <path class="cls-70" d="m192.54,214.63c0,.67,0,1.35,0,2.02l-9.96-7.51c-2.15.38-4.02.43-6.21.29-1.21-3.92-3.95-1.92-7.8-6.5-1.28-1.52-2.94-5.52-4.62-7.22l2.89-4.33c-.87-3.24,1.24-6.09,2.89-8.67-1.91-10.19,3.42-9.37,4.04-16.9.33.51,3.97,2.72,4.91,3.9l-.87,9.24c1.89,2.91,3.39,6.11,4.04,9.53,1.19,1.66,6.47,9.14,6.64,10.11.36,2.03-1.27,4.2-.87,6.93.08.52,3.92,8.56,4.91,9.1Z"/>
          <path class="cls-8" d="m192.54,214.63c-.99-.54-4.83-8.57-4.91-9.1-.4-2.73,1.22-4.9.87-6.93-.17-.97-5.45-8.45-6.64-10.11-.65-3.42-2.16-6.63-4.04-9.53l.87-9.24c-.94-1.18-4.58-3.39-4.91-3.9-1.34-2.04-.43-6.98.58-9.39-4.92-1.75-.21-11.74-7.22-10.25-1.5.32-6.03,2.56-3.75,2.74-1.88,1.34-1.77,3.89-3.32,5.34-.62.58-6.88,3.8-6.21,1.73,3.19-2.86,6.07-6.09,9.24-8.95.9-.81,4.66-1.95,10.69-9.53,1.9,4.16,3.46,8.52,4.91,12.85.61,1.84.21,3.25.29,3.47.68,1.93,3.34,6.84,3.47,7.22.28.82-.02,3.45,2.31,5.2,1.07,4.75,1.72,9.77,4.33,13.86.14,3.66.25,7.41,2.02,10.69l1.44,9.82c-1.37,4.63.05,9.38,0,14.01Z"/>
          <path class="cls-67" d="m165.1,207.7c3.17.34,5.98,1.38,11.26,1.73,2.19.15,4.06.09,6.21-.29l9.96,7.51-4.91,2.02-5.63-5.49c-9.88,3.65-6.17.75-8.38-.29-.78-.37-13.04-.47-14.73-.29-7.86.84-31.69,11.16-38.13,16.46-2.94,2.42-9.02,8.72-11.7,11.84-1.05.2-2.13.42-3.18.58,1.06-2.93,2.77-5.7,4.33-8.38.44.37.95-.06,1.3-.29.87-.57,8.18-6.09,8.52-6.5.76-.9,2.42-4.92,3.18-6.5.89.41,3.86-1.71,5.92-2.6,5.14-2.22,22.61-8.95,27.15-9.53,2.65-.34,6.65.66,7.8-.58.22.19.8.55,1.01.58Z"/>
          <path class="cls-59" d="m173.76,165.81c-.62,7.53-5.95,6.7-4.04,16.9-1.65,2.58-3.76,5.42-2.89,8.67l-2.89,4.33c1.69,1.7,3.35,5.7,4.62,7.22,3.85,4.58,6.59,2.58,7.8,6.5-5.28-.35-8.09-1.4-11.26-1.73.27-1.61-3.31-1.49-5.05-2.31-1.16-.55-9.92-5.87-9.96-6.5,1.92-3.15,13.08-11.85,13.86-13.29,3.08-5.63-2.15-16.07-2.02-22.24-5.5.74,2.89,9.11-7.37,19.21-2.36,2.32-7.59,5.29-9.1,7.08-4.92,9.6-8.84,12.75-17.04,19.06-2.32,3.43-3.42,7.45-5.2,11.12-.76,1.58-2.42,5.6-3.18,6.5-.35.41-7.65,5.93-8.52,6.5-.35.23-.86.66-1.3.29,5.8-9.94,9.64-12.89,9.82-13.72,1.39-6.25-5.79-9.16-.58-14.73-.37-.51-.58-1.25-.58-1.88,0-.16-.4-.61-.29-3.18,9.77-9.61,21.67-17.3,30.62-27.73.88-1.03,1.54-2.08,2.31-3.18.04-.06.89-.59,1.16-1.01-.7-.91-6.84,1.87-8.09,2.17.3-.66.83-1.64.87-1.73,1.98-.85,4.06-1.25,6.07-2.02.73-.28,2.1-.42,2.74-.87,3.82-2.65-2.51-1.57-5.34-.58l-.29-.87c2.52-.65,6.02-1.24,6.64-1.44,2.29-.76,2.94-2.34,3.75-4.62.31-.21.36-.37.58-.58.43-.4,6.9-8.89,7.22-9.39.42-.65.55-.83.29-1.59,7.01-1.49,2.3,8.51,7.22,10.25-1.01,2.41-1.92,7.35-.58,9.39Z"/>
          <path class="cls-70" d="m167.12,146.17c.26.76.13.94-.29,1.59-.32.5-6.79,8.98-7.22,9.39-4.2.31-5.45-.48-9.53,1.73,1.47-1.25,3.07-2.27,3.75-2.89-.67,2.07,5.59-1.16,6.21-1.73,1.55-1.45,1.44-4.01,3.32-5.34-2.27-.18,2.26-2.43,3.75-2.74Z"/>
          <path class="cls-67" d="m165.1,207.7c-.21-.02-.79-.39-1.01-.58-1.15,1.24-5.15.24-7.8.58-4.54.58-22.02,7.31-27.15,9.53-2.06.89-5.03,3.01-5.92,2.6,1.77-3.67,2.87-7.69,5.2-11.12,8.2-6.31,12.12-9.47,17.04-19.06,1.5-1.78,6.74-4.75,9.1-7.08,10.25-10.1,1.87-18.47,7.37-19.21-.12,6.17,5.1,16.61,2.02,22.24-.78,1.43-11.95,10.13-13.86,13.29.05.63,8.8,5.95,9.96,6.5,1.74.82,5.32.7,5.05,2.31Z"/>
          <path class="cls-75" d="m149.21,171.88c-8.95,10.43-20.84,18.11-30.62,27.73.04-.94.42-2.71.58-3.75.67-.11-.29,1.58,2.17,0,1.39-.89,1.99-2.61,2.31-2.89.97-.86,2.72-.42,4.77-4.62.56.56,5.3-6.06,4.62-6.64,4.71-2.57,8.76-6.62,9.24-6.93,1.18-.77,5.45-2.77,6.93-2.89Z"/>
          <path class="cls-70" d="m155.28,162.35c-2.2-1.16-5.49-.41-8.09-.58.1-.24-.22-.86.29-.87,1.03-.5,3.16.03,3.32,0,.23-.04.05-.53.29-.58,2.24-.45,6.06-1.28,7.94-2.6-.82,2.28-1.47,3.86-3.75,4.62Z"/>
          <path class="cls-8" d="m159.61,157.15c-.22.2-.27.36-.58.58-1.89,1.32-5.71,2.15-7.94,2.6-.24.05-.05.54-.29.58-.16.03-2.29-.5-3.32,0-.14-.67,1.47-1.06,2.6-2.02,4.08-2.21,5.33-1.43,9.53-1.73Z"/>
          <path class="cls-70" d="m151.52,168.7c-.77,1.1-1.43,2.15-2.31,3.18-1.49.12-5.75,2.12-6.93,2.89-.02-.29.03-.58,0-.87-.01-.35.39-.44.58-.58,2.39-1.75,5.84-3.75,8.67-4.62Z"/>
          <path class="cls-8" d="m151.52,168.7c-2.83.87-6.28,2.87-8.67,4.62.45-1.05.94-2.15,1.44-3.18,0-.02.1.12.29-.29,1.24-.3,7.39-3.08,8.09-2.17-.27.42-1.11.95-1.16,1.01Z"/>
          <path class="cls-8" d="m155.28,162.35c-.63.21-4.12.8-6.64,1.44-1.04.27-1.84,1.1-1.73,0,.13-.38.1-1.57.29-2.02,2.6.17,5.89-.58,8.09.58Z"/>
          <path class="cls-70" d="m151.52,166.1c-.52-1.04-6.63-.03-2.6-1.44,2.84-1,9.17-2.07,5.34.58-.65.45-2.01.58-2.74.87Z"/>
          <path class="cls-8" d="m148.64,163.79l.29.87c-4.03,1.42,2.08.41,2.6,1.44-2.01.77-4.09,1.17-6.07,2.02.47-1.21.7-2.53,1.16-3.75.26-.69.28-.55.29-.58-.11,1.1.7.27,1.73,0Z"/>
          <path class="cls-76" d="m128.42,188.34c.08-.16.89-2.65,1.16-3.47.15-.45.32-.96.29-1.44.05-.02-.11-.13.87-.58.77-.35,1.57-.75,2.31-1.16.68.58-4.06,7.2-4.62,6.64Z"/>
        </g>
      </g>
      <g>
        <path class="cls-69" d="m174.34,136.93c2.25-3.67,3.79-7.51,5.2-11.55,4.95-14.22,6.15-28.07,2.31-42.75l.58-.29c5.48,16.38,2.49,40.66-8.09,54.59Z"/>
        <g>
          <path class="cls-81" d="m38.01,11.29c-1.1,1.85,2.06,2.88,3.47,4.77,2.7,3.61,2.77,5.6,4.33,8.95.07.76-.34,1.19-.29,2.17.02.48-.55.49,0,1.73.86,1.93,6.33,2.97,8.38,4.04-1.95.68-7.34-2.54-9.68-3.18-1.15-3.25-2.94-6.18-4.48-9.24-1.91-3.81-3.87-4.5-2.31-7.94C31.18,6.79,20.94.69,12.16,3.2,7.79,5.34,3.94,7.72,2.2,13.02c-2.4,7.3.96,11.87-.87,12.13C-4.78,8.35,11.09-8.33,30.36,4.64c2.29,1.54,6.05,5.46,7.65,6.64Z"/>
          <path class="cls-45" d="m157.88,24.57c-.12.39-1.27.93-.87,5.05-.49.76-.64-.01-1.16.14.43-.85-.07-1.8-.29-2.6-.5-1.79,1.09-2.08-2.31-1.73-3.88-.91-.32-.87.29-3.18.8-.74,1.43-1.77,2.31-2.46-.22-.67-8.21,5.51-12.85,5.34-.53.71.43.54.43.58,0,.17-.53.7-.29,1.3.33.82,1.18,1.51,1.73,2.17.16.19.46,1.15,1.59,2.02.27.07,3.87-.47,4.19-.58-.12,1.3,2.96-.1,4.33-.58l1.16.58c-3.35.88-6.78,1.36-9.53,3.75-.08-.04-.21.04-.29,0-7.25-7.38-12.93-9.82-23.11-11.26-3.36-.73-6.41-1.09-9.82-1.44,1.34-2.91-.54-.9-.87-2.31,9.7.98,21.1,5.11,26.43,4.62,5.35-.49,14.11-4.99,18.63-8.09,2.75,1.96.62,2.24.58,3.03-.03.57.42,2.38.29,3.18-.03.15-2.12,2.54-.58,2.46Z"/>
          <path class="cls-81" d="m200.91,14.18c-.62,6.38-.51,7.11-1.16,1.44-.85-7.47-6.15-11.87-13.43-13-12.02-1.86-25.03,11.28-28.45,21.95-1.55.08.55-2.31.58-2.46.13-.8-.32-2.61-.29-3.18.04-.79,2.17-1.07-.58-3.03,6.11-4.2,12.14-12.01,18.63-14.44,10.9-4.08,22.8.42,24.7,12.71Z"/>
          <path class="cls-45" d="m61.7,23.71c-.4.5-.21.85-.29,1.16-.58.19-1.12.16-1.73.29-7.84.49-16.65-9.32-12.42-3.61,2.08,2.8,6.04,4.91,9.53,4.48-1.53,1.06-.59,1.41-1.01,1.73-3.47-.72-6.72-1.07-10.25-.58-.05-.97.36-1.41.29-2.17-1.56-3.36-1.63-5.34-4.33-8.95-1.41-1.88-4.56-2.92-3.47-4.77,7.39,5.45,14.47,10.67,23.68,12.42Z"/>
          <path class="cls-82" d="m193.69,35.26c-.38.82-.79,1.63-1.16,2.46.01,6.56,1.48,13.05,1.44,19.64l-6.07,6.07c-.13.48.47.98.29,1.88-.28-.03-.2.24-.58.58.07-1.07-.84-.47-1.44-.29-2.33-4.46.91-4.04,4.91-7.94.5-1.52-2.96-16.08-1.73-19.5,1.29-1.03,2.98-1.91,4.33-2.89Z"/>
          <path class="cls-82" d="m11.44,45.08c-.06,3.02-.73,5.97-.87,8.95-.05,1.13-.37,2.19-.29,3.32,3.61,3.64,5.93,2.56,5.2,8.52-.14-.06-1.09.23-2.31-.87.05-.28.7-.91,0-2.02.07,0,1.1-.27.87-.72-.42-.81-5.96-4.01-6.64-5.63-.86-4.38,1.76-15.93,1.16-18.92-.87-1.49-1.8-2.95-2.6-4.48l5.49,5.34c-.03,2.17.04,4.33,0,6.5Z"/>
          <path class="cls-43" d="m4.22,14.46c-2.76,9.82,3.39,15.15,8.38,22.24-.11,2.98.4,5.98.29,8.95l-1.44-.58c.04-2.16-.03-4.33,0-6.5l-5.49-5.34c-1.24-2.36-3.77-5.75-4.62-8.09,1.83-.26-1.53-4.83.87-12.13,1.79-.2.54,2.49,2.02,1.44Z"/>
          <path class="cls-43" d="m199.76,15.62c.64,5.67.54,4.93,1.16-1.44,1.77,11.49-5.08,16.47-7.22,21.09-1.36.98-3.04,1.86-4.33,2.89-.03.02-.01-.38-.72,0-.11,1.58-.7,1.09-.72,1.16,0-.73.2-1.29-.58-1.16v-.58c1.78-1.67,3.2-3.51,4.62-5.49,4.27-5.94,7.88-10.09,5.2-18.2,1.52-.04,1.48,1.12,2.6,1.73Z"/>
          <path class="cls-81" d="m68.34,24.28c-1.46,3.28,3.96-.86,6.35,0-3.11.8-6.13,1.83-9.24,2.6l-1.01-.29c-2.95,2.58-5.67,5.4-8.52,8.09-.32-.57-1.96-.54-2.02-1.01,0-.07.67-.76.87-1.01.2-.26,1.77-.67,1.16-2.02,1.53-.49,3.89-2.83.87-3.03,1.95-.19,3.97-.16,4.62-2.74.08-.3-.11-.66.29-1.16,2.75.52,3.31,1,6.64.58Z"/>
          <path class="cls-86" d="m182.43,82.34l-.58.29c-.31-1.19-.77-2.3-1.16-3.47,2.54-.24.67-.29,1.16-2.74.65-3.29,3.34-6.71,3.18-8.23.91-.63,1.76-1.56,2.6-2.31.38-.34.3-.61.58-.58-1.19,5.98-4.18,11.18-5.78,17.04Z"/>
          <path class="cls-45" d="m89.71,19.66l.29,1.73c-5.25.52-10.19,1.58-15.31,2.89-2.4-.86-7.81,3.28-6.35,0,2.18-.28,11.77-3.5,21.37-4.62Z"/>
          <g>
            <path class="cls-86" d="m23.28,71.37c-1.5,2.88-2.71,5.47-3.47,8.67-.43.46-.95,1.44-1.16,2.02-1.45-3.67-5.56-12.5-5.78-15.89q5.2,2.6,10.4,5.2Z"/>
            <path class="cls-81" d="m15.48,65.88c1.55.65,7.71,3.8,8.38,4.91-.02.04-.29.03-.58.58q-5.2-2.6-10.4-5.2c-.04-.56.18-.58.29-1.16,1.22,1.1,2.17.81,2.31.87Z"/>
          </g>
          <path class="cls-84" d="m13.17,62.99c-2.2-.21-5.36-4.26-5.78-6.35.68,1.62,6.23,4.82,6.64,5.63.23.46-.8.73-.87.72Z"/>
          <path class="cls-55" d="m39.74,20.53c1.54,3.06,3.32,5.99,4.48,9.24,2.34.63,7.73,3.86,9.68,3.18.32-.11.47-.39.87-.29-.19.25-.88.94-.87,1.01.06.47,1.7.44,2.02,1.01-.94.89-1.95,1.71-2.89,2.6-3.94-6.97-1.56,3.43-3.9-3.18l-.29,2.6c-1.95-4.6-1.8,2.13-1.59,4.91-.54-.43-4.26-4.36-4.62-4.91.92.07,2.28,1.14,2.31.14-1.51-1.58-2.55-3.67-3.75-5.49-.44-.66-1.12-.38-1.16-.43-4.83-7.61-5.94-16.16-17.62-21.95-.84-.41-1.37-.86-2.31-1.16-7.8-2.47-14.06,3.42-13,11.41.19,1.45,1.15,2.65,1.73,3.9,3.81,8.19,5.19,5.59,5.63,5.78.75.32.33,5.16,3.18,4.33.66.4.58,5.39,2.46,7.65-2.52,7.33,2.42,8.61.29,11.84,5.02.2,4.14,6.42,8.09,6.5.48,0,1.23.07,1.44,0,1.27-.4,1.68-1.5,2.31-2.02.5-.42,1.7-1.35,2.02-1.73l.29.29c-2.03,2.28-4.28,4.76-6.07,7.22.43-1.74-.99-.4-4.48-2.89-3.24-2.31-4.31-7.02-8.81-6.93-.5-5.13.15-10.39-1.44-15.45-.4-.85-1.11-.95-1.16-1.01C7.6,29.62,1.46,24.28,4.22,14.46,6.26,7.19,14.82,4.95,21.4,6.09c8.32,1.44,13.54,8.05,18.34,14.44Z"/>
          <path class="cls-82" d="m39.74,20.53c-4.8-6.39-10.02-13-18.34-14.44-6.59-1.14-15.14,1.1-17.19,8.38-1.48,1.05-.23-1.64-2.02-1.44C3.94,7.72,7.79,5.34,12.16,3.2c8.78-2.51,19.02,3.59,25.27,9.39-1.56,3.44.4,4.13,2.31,7.94Z"/>
          <path class="cls-46" d="m61.41,24.86c-.65,2.58-2.67,2.55-4.62,2.74,3.03.2.66,2.54-.87,3.03-3.1,1-7.54-.41-10.4-1.73-.55-1.25.02-1.25,0-1.73,3.54-.49,6.78-.15,10.25.58.42-.32-.52-.68,1.01-1.73.71-.49,2.05-.69,2.89-.87.61-.13,1.15-.1,1.73-.29Z"/>
          <path class="cls-45" d="m55.92,30.64c.62,1.35-.96,1.76-1.16,2.02-.4-.11-.55.18-.87.29-2.05-1.07-7.52-2.11-8.38-4.04,2.85,1.33,7.29,2.73,10.4,1.73Z"/>
          <path class="cls-82" d="m199.76,15.62c-1.12-.62-1.08-1.77-2.6-1.73-3.52-10.65-21.9-12.53-33.5,3.9-.84,1.19-6.24,10.92-6.07,11.55.18.65,2.16.3.29,1.01-.28.11-1.28.17-1.73.29l-1.16-.58c.31-.11.55-.19.87-.29.52-.16.67.61,1.16-.14-.4-4.12.74-4.67.87-5.05,3.42-10.67,16.43-23.81,28.45-21.95,7.29,1.13,12.59,5.53,13.43,13Z"/>
          <path class="cls-55" d="m157.88,30.35c.02,1.03,1.15,2.04,1.16,2.17,0,.54-4.68,5.41-5.78,5.92-.67-.93-.8-2.04-1.59-2.89-4.47.43-4.26-.8-5.05-1.16,2.76-2.4,6.18-2.88,9.53-3.75.45-.12,1.45-.18,1.73-.29Z"/>
          <path class="cls-46" d="m155.57,27.17c-1,.74-4.1,3.19-4.91,3.47-.32.11-3.92.65-4.19.58-1.13-.87-1.43-1.83-1.59-2.02.74-2.26,6.23-3.54,8.38-3.75,3.4-.34,1.81-.06,2.31,1.73Z"/>
          <path class="cls-61" d="m153.55,22.26c-2.6,2.43-6.45,4.63-10.11,3.47,0-.04-.96.13-.43-.58,4.64.17,12.64-6.02,12.85-5.34-.88.69-1.51,1.71-2.31,2.46Z"/>
          <path class="cls-45" d="m153.26,25.44c-2.15.22-7.64,1.49-8.38,3.75-.55-.65-1.41-1.35-1.73-2.17-.24-.6.29-1.13.29-1.3,3.66,1.16,7.5-1.04,10.11-3.47-.61,2.3-4.17,2.27-.29,3.18Z"/>
          <path class="cls-69" d="m146.32,34.39c-4.54-2.24-7.01-5.93-12.42-8.09-.76-.3-1.54-.6-2.31-.87-1.72-.59-3.71-.99-5.49-1.44-1.29-.33-2.74-.83-2.89-.87,10.18,1.44,15.85,3.88,23.11,11.26Z"/>
          <path class="cls-37" d="m111.38,21.69c.66.06,1.36-.07,2.02,0,3.41.35,6.46.72,9.82,1.44-1.31-.19-9.49-1.11-9.96-.87-.2,1.15-1.04,1.93-1.59,2.89l-2.6.87c.72-1.52,1.56-4.21,2.31-4.33Z"/>
          <path class="cls-45" d="m155.57,27.17c.22.8.72,1.75.29,2.6-.32.1-.56.18-.87.29-1.37.47-4.45,1.88-4.33.58.81-.28,3.91-2.73,4.91-3.47Z"/>
          <path class="cls-61" d="m59.67,25.15c-.84.18-2.18.38-2.89.87-3.49.44-7.45-1.67-9.53-4.48-4.23-5.71,4.58,4.1,12.42,3.61Z"/>
          <path class="cls-49" d="m189.36,38.15c-1.23,3.41,2.23,17.97,1.73,19.5-4,3.9-7.24,3.49-4.91,7.94-1.08.33-2.03.81-3.18,1.16-.35-6.11.15-5.76,1.44-8.67.64-1.43,1.51-2.7,2.31-4.04.05-.08.73-.2,1.44-1.3.26-1.13-1.46-10.04-.29-13.43.02-.06.61.43.72-1.16.71-.38.69.02.72,0Z"/>
          <path class="cls-81" d="m187.63,65.88c-.84.75-1.68,1.68-2.6,2.31-2.05,1.42-4.52,2.2-6.5,3.75-.71.03-.81-.45-1.3-.87-.09-.31-.58-1.61-.43-1.73l5.05-2.02c.06-.02.11-.26,1.16-.58,1.15-.35,2.1-.82,3.18-1.16.6-.18,1.51-.78,1.44.29Z"/>
          <path class="cls-49" d="m12.02,54.04c4.92-.07,1.62,1.59,4.04,2.31,1.59,3.45,3.68,2.58,2.89,10.54l6.07,1.59c-.07.11-.8,1.65-1.16,2.31-.66-1.11-6.83-4.26-8.38-4.91.73-5.96-1.59-4.88-5.2-8.52-.08-1.14.24-2.19.29-3.32,1.12.28,1.33,0,1.44,0Z"/>
          <path class="cls-51" d="m12.88,45.66c-.1,2.8-.84,5.57-.87,8.38-.11,0-.32.28-1.44,0,.14-2.99.81-5.94.87-8.95l1.44.58Z"/>
          <path class="cls-27" d="m15.19,53.17c.06.6-.1,1.4,0,1.88.05.23.67.88.87,1.3-2.43-.72.87-2.38-4.04-2.31.02-2.8.76-5.58.87-8.38.11-2.97-.4-5.97-.29-8.95.04.06.76.16,1.16,1.01,1.59,5.07.95,10.32,1.44,15.45Z"/>
          <path class="cls-55" d="m197.16,13.89c2.68,8.1-.93,12.26-5.2,18.2-1.23.34-.6-.44-3.47-2.02,2.25-3.23,4.65-6.16,5.49-10.11,2.06-9.64-4.88-14.26-10.83-13.29-.92.15-2.46,1.31-3.32,1.73-2.12,1.03-8.05,4.26-7.51,6.79-2.57.31-3.78,3-4.91,5.05-1.03,1.87-1.34,3.39-2.02,5.2-.27.71-2.41,5.04-2.31,5.34.22.65,2.65.69,2.89,1.16.52,1.02-1.58,11.9-1.16,13.29.5,1.64,3.73-.45,1.73,8.81-.24-.31-3.53-3.74-5.2-5.78,2.41.34-1.89-5.94-1.73-11.7-.55.75-.93,1.68-1.44,2.46-.66,1.01-1.34,2.14-2.31,2.89-.92-1.14-1.74-2.29-2.6-3.47,1.1-.51,5.78-5.39,5.78-5.92,0-.12-1.14-1.14-1.16-2.17,1.87-.71-.11-.36-.29-1.01-.17-.63,5.22-10.36,6.07-11.55,11.61-16.43,29.98-14.55,33.5-3.9Z"/>
          <path class="cls-56" d="m185.32,35.84c.65.59,1.33,1.19,2.02,1.73v.58c-1.08,5.24-1.05,10.56-.58,15.89-.8,1.34-1.67,2.61-2.31,4.04-1.64-.64-.6-2.47-3.18-4.91-3.29-3.72.78-6.78.87-8.52.06-1.31-3.19-4.51.87-6.35-.46-1.33-.01-2.62.29-3.9.55-.54.65.19,2.02,1.44Z"/>
          <path class="cls-55" d="m188.49,30.06c2.87,1.58,2.24,2.36,3.47,2.02-1.42,1.97-2.84,3.82-4.62,5.49-.69-.54-1.38-1.14-2.02-1.73-2.43-2.56.34-7.14.72-7.22.14-.03,2.08,1.24,2.46,1.44Z"/>
          <path class="cls-36" d="m187.92,39.3c-1.17,3.4.55,12.3.29,13.43-.72,1.1-1.39,1.22-1.44,1.3-.48-5.32-.5-10.64.58-15.89.78-.14.57.42.58,1.16Z"/>
          <g>
            <path class="cls-72" d="m112.53,19.37c.32,1.41,2.2-.6.87,2.31-.66-.07-1.36.06-2.02,0-.03,0,.1-.56-.14-.58-3.14-.26-6.4.44-9.53-.29-3.64-.08-7.22.26-10.83.58-.29.02-.58-.03-.87,0l-.29-1.73c7.59-.88,15.21-1.06,22.82-.29Z"/>
            <path class="cls-81" d="m111.38,21.69c-.75.13-1.59,2.81-2.31,4.33-1.07,2.26-2.48,4.4-2.89,6.93-2.15,3.78-3.02,12.86-4.77,11.55-2.06-6.23-4.54-12.43-7.37-18.34-.63-1.32-2.07-4.63-3.18-4.77,3.62-.32,7.2-.66,10.83-.58,3.13.73,6.39.03,9.53.29.24.02.11.58.14.58Z"/>
          </g>
          <path class="cls-81" d="m180.7,79.16c-1.37-4.07-3.11-6.94-3.47-8.09.49.42.59.9,1.3.87,1.98-1.55,4.45-2.33,6.5-3.75.16,1.52-2.53,4.94-3.18,8.23-.48,2.46,1.39,2.5-1.16,2.74Z"/>
          <path class="cls-56" d="m28.48,62.99c-.82,1.13-2.65,4.13-3.47,5.49l-6.07-1.59c.79-7.96-1.3-7.1-2.89-10.54-.19-.42-.82-1.07-.87-1.3-.1-.47.06-1.28,0-1.88,4.5-.09,5.57,4.62,8.81,6.93,3.49,2.49,4.91,1.15,4.48,2.89Z"/>
          <path class="cls-12" d="m42.63,36.7c.36.55,4.08,4.48,4.62,4.91.17.13.66-.41.87.58-1.77,1.73-3.79,3.46-5.49,5.2-.2-.75-.55-2.57-.58-3.18-.14-2.8-.07-5.87.29-8.67.05.1-.12.55.29,1.16Z"/>
          <path class="cls-56" d="m42.63,36.7c-.4-.61-.24-1.06-.29-1.16-1.29-2.52-1.56.78-3.61,2.31-.18.14-1.54-.14-1.73,0-.42.3.3,1.66-.72,1.44-.16-1.66.67-5.76.87-7.65.47-.69,1.4-.39,2.31-.43.32-.02.6.09.58-.29.03.05.72-.23,1.16.43,1.2,1.82,2.25,3.91,3.75,5.49-.03,1-1.39-.07-2.31-.14Z"/>
          <path class="cls-66" d="m42.05,44.21c.03.61.38,2.43.58,3.18-2.32,2.37-6.06,6.1-8.09,8.38l-.29-.29c1.05-1.26,2.05-1.67,1.44-2.89.69-3.19,3.63-6.62,6.35-8.38Z"/>
          <path class="cls-74" d="m53.03,37.28c-1.66,1.58-3.26,3.3-4.91,4.91-.21-.98-.7-.44-.87-.58-.21-2.78-.36-9.51,1.59-4.91l.29-2.6c2.34,6.61-.04-3.8,3.9,3.18Z"/>
          <path class="cls-50" d="m168.56,31.22v.29c-5.36,1.06,1.33,3.35,6.07,4.04.06.06.38-.22,1.16,1.16-.73,1.47-1.14,1.49-1.16,1.59-.04.3,1.59,2.26,1.73,2.74-.77,1.35-1.82,2.39-2.6,3.75-1.96,3.45-2.09,5.24-2.89,9.24-.79.34-2.37,1.27-2.89,2.02-.5-.66-.98-1.42-1.44-2.02,2-9.26-1.23-7.17-1.73-8.81-.42-1.38,1.67-12.27,1.16-13.29-.24-.47-2.67-.5-2.89-1.16-.1-.3,2.04-4.63,2.31-5.34,1.44-.51,2.33,4.74,3.18,5.78Z"/>
          <path class="cls-68" d="m161.34,48.26c-.95-1.16-1.93-2.31-2.89-3.47l-.29-5.78c.51-.78.89-1.7,1.44-2.46-.16,5.75,4.14,12.04,1.73,11.7Z"/>
          <path class="cls-25" d="m158.46,44.79c-.82-.99-1.78-1.88-2.6-2.89.97-.75,1.65-1.88,2.31-2.89l.29,5.78Z"/>
          <path class="cls-82" d="m181.85,67.32l-5.05,2.02c-.15.12.34,1.43.43,1.73-.65-.56-.89-1.38-1.16-1.73-.04-.28.07-.69,0-.87.7-.07,1.64-.14,2.31-.29,1.08-.23,2.41-.56,3.47-.87Z"/>
          <g>
            <path class="cls-55" d="m178.39,68.19c-.67.15-1.61.22-2.31.29-.6-1.58-4.48-6.64-5.78-8.52-.33-.48.31-.69.29-.72,3.09-.69,3.13-.27,5.49-2.02.39-.29.57-.3.72-.87.57,0,3.38,10.2,3.03,10.83-.25.45-1.69.19-1.44,1.01Z"/>
            <path class="cls-55" d="m181.27,53.17c2.58,2.44,1.53,4.27,3.18,4.91-1.29,2.9-1.79,2.55-1.44,8.67-1.05.32-1.09.56-1.16.58-1.06.3-2.39.63-3.47.87-.24-.82,1.2-.56,1.44-1.01.35-.63-2.46-10.84-3.03-10.83-.16.57-.33.58-.72.87l3.03-5.78c.96,1.23,2.07,1.64,2.17,1.73Z"/>
          </g>
          <path class="cls-2" d="m182.72,9.27c-4.99.82,1.09.34,2.17.58,2.35.51,4.74,3.87,5.05,6.21,1.05,7.8-4.28,11.41-4.62,11.99-1.76-.9-3.78-1.98-5.78-1.73-.12.02.23.21-2.17.58-.28.04-.07,1.5-4.91,0l-.72.43c-.08.2.3.41.29,1.3-1.06.34-.63.18-1.16-.29.65-1.97-1.75-2.93-.29-3.9-1.5-1.3-1.08-3.72-3.18-4.19,1.13-2.06,2.34-4.74,4.91-5.05-.54-2.53,5.39-5.76,7.51-6.79.77,1.55.99,0,2.89.87Z"/>
          <path class="cls-85" d="m193.98,19.95c-.84,3.95-3.23,6.88-5.49,10.11-.38-.21-2.32-1.47-2.46-1.44-.39.08-3.15,4.66-.72,7.22-1.37-1.25-1.47-1.98-2.02-1.44.21-.88.09-3.12,2.02-6.35.35-.58,5.67-4.19,4.62-11.99-.31-2.34-2.71-5.7-5.05-6.21-1.08-.23-7.16.24-2.17-.58.47-.08,3.43-.59,3.61-.58,3.6.32,7.47,7.97,7.65,11.26Z"/>
          <path class="cls-85" d="m193.98,19.95c-.19-3.3-4.06-10.95-7.65-11.26-.18-.02-3.14.5-3.61.58-1.89-.86-2.12.68-2.89-.87.86-.42,2.4-1.58,3.32-1.73,5.95-.97,12.89,3.64,10.83,13.29Z"/>
          <path class="cls-34" d="m170.88,28.33c-.49-.44-2.26-3.31-2.89-1.3-.07.21,1.19.79.58,4.19-.84-1.04-1.73-6.28-3.18-5.78.68-1.81.99-3.33,2.02-5.2,2.09.47,1.68,2.89,3.18,4.19-1.46.97.94,1.93.29,3.9Z"/>
          <g>
            <path class="cls-17" d="m90,21.4c.28-.03.58.02.87,0,1.11.14,2.55,3.45,3.18,4.77,2.83,5.92,5.31,12.11,7.37,18.34,1.75,1.31,2.62-7.77,4.77-11.55q-2.09,7.51-4.19,15.02c-.78-1.61-5.25-15.05-6.07-15.02-.07,0-.51.93-.43,1.16-.56-1.36-5.3-11.62-5.92-11.84-4.14-.16-8.25.8-12.28,1.73-2.71.63-4.38,1.67-4.62,1.73-1.6.41-3.29.81-4.91,1.16-.61.13-1.61-.09-2.31,0,3.11-.77,6.14-1.8,9.24-2.6,5.11-1.31,10.06-2.37,15.31-2.89Z"/>
            <path class="cls-82" d="m101.7,45.08c.74-.39.83.51.29.58-.03,0-.58-.42-.29-.58Z"/>
          </g>
          <g>
            <path class="cls-50" d="m39.46,31.22c-.91.04-1.84-.26-2.31.43-.19,1.9-1.03,6-.87,7.65.12,1.24,1.82,4.53,1.73,5.05-.2,1.16-5.39,2.45-2.31,8.23.61,1.22-.39,1.63-1.44,2.89-.32.39-1.52,1.32-2.02,1.73-.45-1-.59-2.71.29-3.32-6.28-.29,2.78-7.71-3.9-3.61l-.43-.43,2.02-4.33-4.91-2.46c.09-1.81.27-3.29.87-5.2.28-.89.03-1.68.43-2.02,1.86-.58,3.8-1.06,5.63-1.73,5.3-1.93,7.05-2.22-.29-2.46l3.32-7.08,4.19,6.64Z"/>
            <path class="cls-85" d="m20.1,7.82c-2.02,1.91-2.58.14-3.18,2.02-2.85-.38-4.71,2.49-7.22,3.03l.29,5.34s.12.26-.87.43c.55.56-.29,1.74.29,4.62l-.58-.14c-.58-1.25-1.54-2.45-1.73-3.9-1.06-7.99,5.2-13.88,13-11.41Z"/>
            <g>
              <path class="cls-35" d="m26.46,30.64c-.32-.15-1.23-.08-2.74-1.44-1.55,4.87.93,4.98,2.46,8.67-.6,1.91-.77,3.39-.87,5.2-.15,3.01.04,6.09.72,8.95.58-.2,1.02-.61,1.59-.87.21,1.52-.24,3.27,0,4.77.26,1.63,2.04,2.83.87,3.32-3.94-.07-3.07-6.3-8.09-6.5,2.13-3.23-2.8-4.51-.29-11.84-1.88-2.27-1.79-7.25-2.46-7.65-2.84.83-2.43-4.01-3.18-4.33-.44-.19-1.83,2.41-5.63-5.78l.58.14c-.58-2.88.26-4.06-.29-4.62.99-.17.82-.41.87-.43.32-.18.24.82.58.43.03-.34.15-2.51.29-2.6,1.98-1.28-1.46,4.2,2.31,9.53,3.08,4.35,2.36,1.14,7.94.14l5.34,4.91Z"/>
              <path class="cls-47" d="m32.23,57.21c-.63.52-1.04,1.63-2.31,2.02l-1.16-8.52c-.41-.44-1.1.41-1.16.43-.57.25-1.01.67-1.59.87-.69-2.86-.88-5.94-.72-8.95l4.91,2.46-2.02,4.33.43.43c6.68-4.1-2.38,3.32,3.9,3.61-.88.61-.74,2.32-.29,3.32Z"/>
              <path class="cls-52" d="m29.92,59.23c-.21.07-.97,0-1.44,0,1.17-.49-.61-1.69-.87-3.32-.24-1.5.21-3.24,0-4.77.06-.02.74-.88,1.16-.43l1.16,8.52Z"/>
            </g>
            <path class="cls-30" d="m20.1,7.82c.95.3,1.48.74,2.31,1.16-.49,1.35-4.05.69-5.49.87.6-1.88,1.16-.12,3.18-2.02Z"/>
            <path class="cls-49" d="m26.46,30.64c1.26.58,2.76.88,3.32,2.31,1.51-.19,1.57.14,2.46,1.16-1.83.67-3.77,1.15-5.63,1.73-.4.34-.16,1.13-.43,2.02-1.53-3.68-4.01-3.8-2.46-8.67,1.51,1.36,2.42,1.3,2.74,1.44Z"/>
            <g>
              <path class="cls-5" d="m40.03,30.93c.02.38-.26.27-.58.29l-4.19-6.64-3.32,7.08c7.34.24,5.59.52.29,2.46-.89-1.02-.95-1.35-2.46-1.16-.56-1.43-2.06-1.73-3.32-2.31l-5.34-4.91c-5.59.99-4.86,4.21-7.94-.14-3.77-5.33-.33-10.81-2.31-9.53-.14.09-.26,2.26-.29,2.6-.34.39-.26-.62-.58-.43l-.29-5.34c2.51-.54,4.37-3.42,7.22-3.03,1.43-.18,5,.48,5.49-.87,11.68,5.79,12.78,14.34,17.62,21.95Z"/>
              <path class="cls-49" d="m33.53,21.4c.58-.23.56,2.11.43,2.74-.47,2.31-6.83,8.2-.43-2.74Z"/>
            </g>
          </g>
          <path class="cls-56" d="m42.34,35.55c-.36,2.79-.43,5.87-.29,8.67-2.73,1.75-5.66,5.19-6.35,8.38-3.08-5.78,2.11-7.07,2.31-8.23.09-.52-1.61-3.82-1.73-5.05,1.02.22.3-1.15.72-1.44.2-.14,1.55.14,1.73,0,2.06-1.53,2.32-4.83,3.61-2.31Z"/>
          <path class="cls-49" d="m176.94,29.77s.12-.45-.14-.58c-1.29-.62-4.69-1.7-1.3.14l.58,6.79c-.1.2-.19.39-.29.58-.77-1.38-1.1-1.1-1.16-1.16-1.34-1.28-1.97-1.06-3.18-2.17,1.89-.76.58-2.56.58-2.74,0-.68,0-1.36,0-2.02.01-.89-.37-1.1-.29-1.3l.72-.43c4.84,1.5,4.63.04,4.91,0,2.39-.37,2.04-.56,2.17-.58-.02,2.36-2.78-.77-.58,3.9-.22.44-1.75-.31-2.02-.43Z"/>
          <path class="cls-34" d="m172.03,30.64c0,.18,1.32,1.98-.58,2.74,1.21,1.1,1.84.89,3.18,2.17-4.73-.69-11.43-2.98-6.07-4.04,1.84-.36.85.77,3.47-.87Z"/>
          <path class="cls-34" d="m170.88,28.33c.53.47.09.62,1.16.29,0,.66,0,1.34,0,2.02-2.61,1.64-1.63.5-3.47.87v-.29c.62-3.4-.64-3.98-.58-4.19.63-2.01,2.4.86,2.89,1.3Z"/>
          <g>
            <path class="cls-35" d="m185.32,28.04c-1.94,3.23-1.82,5.48-2.02,6.35-.3,1.28-.75,2.56-.29,3.9-4.05,1.85-.8,5.04-.87,6.35-.08,1.74-4.16,4.8-.87,8.52-.1-.1-1.2-.5-2.17-1.73l-3.03,5.78c-2.35,1.75-2.4,1.34-5.49,2.02-.02-.03.06-.32-.29-.29,1.53-1.75,2.29-3.07,3.18-5.2.98-2.36,3.55-10.54,2.89-12.71-.15-.48-1.77-2.45-1.73-2.74.01-.1.43-.12,1.16-1.59.09-.19.19-.38.29-.58.3-.61,2.66-4.08,2.6-4.48-.08-.57-2.8-1.44-1.73-1.88.27.13,1.8.88,2.02.43-2.2-4.67.56-1.54.58-3.9,2-.25,4.01.83,5.78,1.73Z"/>
            <path class="cls-52" d="m173.48,53.75c-.89,2.13-1.65,3.45-3.18,5.2-1.14-.62-1.6-1.93-2.31-2.89.52-.75,2.1-1.68,2.89-2.02.19-.08,1.37-.56,1.44-.58.06-.01.97.24,1.16.29Z"/>
            <path class="cls-47" d="m173.48,53.75c-.18-.05-1.1-.3-1.16-.29.29-2.93,2.42-6.82,1.44-8.67.78-1.36,1.83-2.4,2.6-3.75.66,2.17-1.9,10.35-2.89,12.71Z"/>
            <path class="cls-86" d="m172.32,53.46c-.08.02-1.26.5-1.44.58.8-4,.93-5.79,2.89-9.24.97,1.84-1.15,5.74-1.44,8.67Z"/>
          </g>
          <path class="cls-50" d="m176.94,29.77c-1.07.44,1.65,1.3,1.73,1.88.06.4-2.3,3.87-2.6,4.48l-.58-6.79c-3.4-1.84.01-.76,1.3-.14.27.13.1.56.14.58Z"/>
        </g>
        <g>
          <path class="cls-79" d="m179.54,125.38c-1.41,4.04-2.95,7.88-5.2,11.55-.02.03-.22.13-.58.58-6.03,7.58-9.79,8.72-10.69,9.53,1.41-4.34,10.33-22.16,10.69-23.83.11-.52.19-1.65-.58-1.88.84-1.61,3.45-9.85,3.47-12.13,1.23-2.29,1.41-6.43.87-8.95,3.01,6.06-.26,15.59-2.6,21.81l4.62,3.32Z"/>
          <path class="cls-75" d="m37.72,145.02c.04.11-.02.38,0,.58-.46-.33-2.15-.51-4.33-2.02-1.19-.82-2.39-1.64-3.47-2.6-.43-.39-2.77-2.45-2.89-2.6-.32-.4-1.78-3.14-2.31-4.04l-3.18-8.38,8.09-3.75c2.52,7.62,5.22,15.32,8.09,22.82Z"/>
          <path class="cls-13" d="m18.37,91.01c-.74,8.62-1.08,16.38.58,24.98.65,3.36,2.57,6.5,2.6,9.96l3.18,8.38c-6.64-11.36-9.41-24.52-8.67-37.55,1.14.21.29-1.8.58-2.74.02-.08,1.13-1.08,1.16-1.16.37-1.04-1.08-2.09.58-1.88Z"/>
          <path class="cls-27" d="m18.37,91.01c-1.66-.22-.21.84-.58,1.88-.03.08-1.13,1.08-1.16,1.16-.28.94.56,2.95-.58,2.74.29-5.04.9-9.96,2.6-14.73.21-.58.72-1.56,1.16-2.02-.85,3.59-1.13,7.31-1.44,10.98Z"/>
          <path class="cls-28" d="m106.47,179.39c.86.39,17.25,5.16,18.2,5.2v.58c-4.24-.12-8.54-1.63-12.71-2.31-12.19-3.76-22.6,1.89-28.59,2.6-1-.88-3.96.46-4.04-.87,3.75.32,16.73-5.32,23.11-5.49.21,0,3.43,1.33,4.04.29Z"/>
          <path class="cls-70" d="m146.32,34.39c.08.04.21-.04.29,0,.8.36.59,1.59,5.05,1.16.79.85.91,1.96,1.59,2.89.86,1.18,1.68,2.33,2.6,3.47.82,1,1.78,1.9,2.6,2.89.96,1.16,1.94,2.3,2.89,3.47,1.67,2.04,4.96,5.47,5.2,5.78.46.6.95,1.36,1.44,2.02.72.96,1.17,2.26,2.31,2.89.35-.03.26.25.29.29.02.03-.62.25-.29.72,1.3,1.88,5.18,6.94,5.78,8.52.07.18-.04.58,0,.87-1.52-1.98-2.76-4.63-3.03-4.62-.53.02-.13,1.52-1.3,1.16-3.74-5.57-10.19-13.41-14.73-18.49-1.44-1.61-2.83-3.07-4.33-4.62-5.84-6.01-12.03-11.48-18.77-16.46,5.41,2.16,7.88,5.85,12.42,8.09Z"/>
          <path class="cls-70" d="m176.07,69.34c.27.35.51,1.18,1.16,1.73.35,1.15,2.1,4.02,3.47,8.09.39,1.16.84,2.27,1.16,3.47,3.84,14.68,2.64,28.53-2.31,42.75l-4.62-3.32c2.33-6.21,5.6-15.74,2.6-21.81-.57-1.15-.54-1.38-.58-1.44,8.41-10.57,1.24-23.35-5.2-32.93,1.17.37.77-1.14,1.3-1.16.28-.01,1.51,2.64,3.03,4.62Z"/>
          <path class="cls-59" d="m173.19,121.33c-2.44,4.67-4.66,2.57-8.81,1.16-1.46,3.42-4.02,6.05-6.21,8.95l-3.18-4.04c3.35-2.44,9.82-10.67,11.26-14.44,3.53,1.16,8.58-.38,10.4-3.75-.02,2.28-2.63,10.53-3.47,12.13Z"/>
          <path class="cls-13" d="m65.45,26.88c.7-.09,1.7.13,2.31,0-11.76,12.31-43.15,39.85-46.5,55.89-1.64,7.85,1.98,19.7,4.33,27.58,1.19,4.01,2.73,7.88,4.04,11.84l-8.09,3.75c-.03-3.47-1.95-6.6-2.6-9.96-1.66-8.6-1.32-16.36-.58-24.98.32-3.66.59-7.39,1.44-10.98.76-3.2,1.96-5.78,3.47-8.67.29-.55.56-.54.58-.58.36-.66,1.09-2.2,1.16-2.31.82-1.36,2.64-4.36,3.47-5.49,1.79-2.46,4.04-4.94,6.07-7.22,2.03-2.28,5.77-6,8.09-8.38,1.7-1.74,3.72-3.47,5.49-5.2,1.65-1.61,3.25-3.33,4.91-4.91.93-.89,1.95-1.71,2.89-2.6,2.85-2.69,5.57-5.5,8.52-8.09l1.01.29Z"/>
          <path class="cls-50" d="m79.6,105.74c.05.16,1.62,1.2,2.02,2.6-.8,2.06-.05,4.31,0,6.35.13,5.37-.7,10.92-.29,16.32.4,1.27,1.64-1.49,3.18-3.61l.58,1.16c-1.88,3.35-5.41,14-4.62,17.47.71,1.15,1.58,2.19,2.31,3.32.52.8,1.39,1.87,2.02,2.6.83.95,1.73,1.84,2.46,2.89.77-1.23,1.49-2.47,2.17-3.75,3.82,1.14,5.12,1.07,7.22,4.62,2.24,3.77,1.41,4.65,1.44,4.91.22,1.91-1.44,2.72,3.75,8.09.4.41.28,1.38,1.3,1.16.85-.77,1.88-1.26,2.74-2.02.65-.57,1.19-1.34,1.73-2.02,3.51-4.34,2.03-3.46,2.02-4.33-.01-1.28-.58-2.12,0-4.19.98-3.5,6.3-6.41,9.82-5.34.74,1.13,2.58,3.22,3.61,1.44.41-.71-1-2.53-1.3-3.18-.7-1.5-1.62-2.84-2.31-4.33.04-.01.25-.66.58-.58l5.34,4.04c1.34-2.29,1.38-4.7,1.3-7.22,1.47,1.02-.17,7.26.58,9.96-.25.97-6.2,2.62-6.07,4.19-1.76.9-3.53,1.81-5.34,2.6-3.58,4.17-10.11,10.92-10.54,16.46-.09,1.19.07,2.42,0,3.61.39.64.96.34,1.16.43-.61,1.04-3.83-.29-4.04-.29v-.58c.66-6.9-2.66-9.12-6.64-13.29-5.95-6.22-8.07-7.15-15.74-11.26-3.04-.31-6.08-.38-9.1-.87-5.27-.85-9.52-3.42-10.69-.58h-.29c2.38-3.97,3.86-.74,7.08-.58.48.02.48-.15.43-.58,3.05.74,6.29.45,9.39.58l.72-.72c-1.2-4.41,3.27-32.78,2.6-34.37-.12-.28-.87-.1-1.16-.14-1.15-5.33-5.13-12.19-10.4-14.15.93-1.56,5.11.31,6.79,1.16,1.48.75,2.85,3.28,4.19,2.02Z"/>
          <g>
            <path class="cls-56" d="m88.27,187.77c-2.21,4.37,10.32,10.16,13.72,10.69,4.02.63,7.53-.65,7.37.58-1.48.88-4.32,3.35-5.78,4.62-9.72,1.14-10.24-3.3-10.83-3.47-1.54.75-5.03-.43-6.21-1.44-1.65-1.41-1.61-3.18-1.73-3.32-.4-.44-6.32-2.74-7.51-8.23.59-.45,2.72,1,4.19,1.16,1.9.21,5.03.12,6.79-.58Z"/>
            <path class="cls-26" d="m111.95,182.86c-1.59,1.81-4.99-.06-9.82,2.89-.62.38-1.9,1.31-2.17,2.02-2.44-4.04-7.93-1.31-10.83-.58-.38.1-.49.5-.87.58-1.76.69-4.89.78-6.79.58-1.47-.16-3.6-1.6-4.19-1.16-.12-.54-.6-1.95-.14-2.31,2.6.84,3.61.89,6.21.58,6-.71,16.4-6.36,28.59-2.6Z"/>
            <path class="cls-78" d="m129.57,184.88c-.26.81-1.08,3.3-1.16,3.47-2.04,4.2-3.8,3.76-4.77,4.62-.32.28-.92,2-2.31,2.89-2.45,1.58-1.5-.11-2.17,0-1,.17-3.53,3.5-4.77,4.04-.46.2-1.02-.51-1.44-.29-3.62,1.87-4.14,2.99-8.52,3.75-.22.04-.26.22-.87.29,1.45-1.27,4.3-3.74,5.78-4.62.58-.34,9.21-3.69,4.48-2.89-.07.01-.79.73-1.16.87-.34-1.23-4.16.25-7.51,0-5.7-.43-13.73-4.31-16.03-9.82,2.9-.73,8.39-3.47,10.83.58.26-.71,1.55-1.64,2.17-2.02,5.49-1.11,11.05-.26,16.61-.58,3.64,1.45,10.17,5.24,10.25-.58.28,0,.32.31.58.29Z"/>
            <path class="cls-57" d="m109.35,199.03c.16-1.22-3.34.05-7.37-.58-3.4-.53-15.93-6.31-13.72-10.69.38-.07.48-.48.87-.58,2.3,5.51,10.33,9.39,16.03,9.82,3.34.25,7.17-1.23,7.51,0,.37-.13,1.08-.85,1.16-.87,4.73-.81-3.9,2.55-4.48,2.89Z"/>
            <path class="cls-65" d="m124.66,185.17c1.79.05,3.39-.58,4.33-.58-.08,5.82-6.62,2.03-10.25.58-5.56.32-11.12-.54-16.61.58,4.83-2.95,8.23-1.08,9.82-2.89,4.17.68,8.47,2.2,12.71,2.31Z"/>
            <path class="cls-66" d="m129.86,183.43c.03.49-.14.99-.29,1.44-.26.02-.3-.29-.58-.29-.95,0-2.54.63-4.33.58v-.58c2.08.09,3.3-.43,5.2-1.16Z"/>
          </g>
          <path class="cls-50" d="m68.63,102.56c5.27,1.96,9.25,8.82,10.4,14.15-2.62,3.86-15.49,21.32-16.17,23.54-1.58,5.16-1.02,9.75,4.62,11.12.05.43.05.6-.43.58-3.22-.16-4.69-3.39-7.08.58-.92,1.53-1.29,2.53-1.44,4.33-.69.6-.85-.26-1.44-1.44-.24-.47-.76-1.4-.87-1.73-.24-.78-.41-1.79-.58-2.6-.38-1.87-1.02-7.28-.87-8.95.27-2.99,3.4-7.22,6.35-8.09,6.38.79,8.62-7.81,9.53-12.71,4.18-22.53-7.56-15.82-16.75-23.68l.87-.29c3.71,4.31,11.98,4.5,13.86,5.2Z"/>
          <g>
            <g>
              <path class="cls-10" d="m53.9,150.8c.6.08,1.08.44,1.73.29.17.81.33,1.82.58,2.6-4.4-.29-10.09-3.37-14.15-3.18-.74-.54-1.57-.91-2.31-1.44-.41-1.23-.92-2.68-2.02-3.47-.02-.2.04-.47,0-.58,4.53.74,12.94,5.34,16.17,5.78Z"/>
              <path class="cls-20" d="m46.68,154.84c3.44.08,6.93.93,10.4.58.59,1.19.75,2.04,1.44,1.44-.12,1.38.9,3.18,0,4.62-.6-.02-1.13-.21-1.73-.29-.68-.56-12.67-5.96-11.99-6.35,1.54.36,1.78,0,1.88,0Z"/>
              <path class="cls-10" d="m56.21,153.68c.11.33.63,1.26.87,1.73-3.47.35-6.95-.5-10.4-.58-1.22-1.4-3.14-3.26-4.62-4.33,4.06-.19,9.76,2.89,14.15,3.18Z"/>
            </g>
            <path class="cls-71" d="m27.04,111.51c.71,2.58,3.17,8.82,4.91,10.69-.93,3.07,6.28,8.86,9.53,12.85,4.22,5.17,7.77,10.91,12.42,15.74-3.24-.43-11.64-5.03-16.17-5.78-2.86-7.5-5.57-15.2-8.09-22.82-1.31-3.96-2.85-7.84-4.04-11.84l1.44,1.16Z"/>
            <path class="cls-22" d="m40.32,123.64c3.97,6.84,8.28,13.38,14.44,18.49-.15,1.67.48,7.09.87,8.95-.65.15-1.14-.21-1.73-.29-4.65-4.83-8.2-10.57-12.42-15.74-3.26-4-10.46-9.79-9.53-12.85,2.29,2.46,5.31,2.82,8.38,1.44Z"/>
          </g>
          <path class="cls-18" d="m130.15,107.47c-4.31,6.61.45,10.67,5.05,15.02-.04-2.33-.92-10.01-.43-11.41.08-.22.38-.15.58-.14-.08,3.13.54,7.08,1.44,10.11,1.55,5.16,3.21,6.6,6.35,10.4.19.23.43.4.58.58,2.49,3,5.61,5.43,7.22,8.95-.62,3.46-.09,8.2-1.16,11.55-.34,1.07-.74,1.75-1.73,2.31-.15-1.08-2.44-5.46-3.61-5.49-5.59,2.7-11.69,4.25-17.91,3.75-1.71,1.13-3.52,2.24-5.34,3.18-.13-1.57,5.82-3.22,6.07-4.19-.75-2.7.89-8.95-.58-9.96-.18-5.32-2.08-14.3-5.78-18.2l.58-.29c7.25,9.44,4.03,5.96,3.75-3.75.55.04,1.1,4.69,1.44,7.22,1.1,8.23,2.86,16.37,2.6,24.7.73,1.65,10.84-1.43,12.42-2.17,3.93-1.85,5.66-3.47,3.75-7.94-.62-1.46-17.64-24.59-18.77-25.71-.45-.44-.79-1-1.16-.58l-.29,3.61c-.03-1.61-.09-3.3,0-4.91.09-1.64.32-3.29.58-4.91.38.09.57-.15.87-.29,1.87-.87,3.02-2.37,3.47-1.44Z"/>
          <path class="cls-59" d="m158.17,131.44c-2.4,3.18-4.72,6.43-7.22,9.53-1.61-3.52-4.73-5.96-7.22-8.95,3.68-.62,8.26-2.44,11.26-4.62l3.18,4.04Z"/>
          <g>
            <path class="cls-55" d="m163.08,147.04c-3.17,2.86-6.05,6.09-9.24,8.95-.68.61-2.29,1.64-3.75,2.89-1.13.96-2.74,1.35-2.6,2.02-.51,0-.19.62-.29.87-.19.45-.15,1.65-.29,2.02-.01.03-.03-.11-.29.58-.88,2.02-7.93,5.24-10.25,6.07-2.06.73-15.69,3.82-16.75,3.18-1.74-1.06,8.13-2.09,8.95-2.31,6.26-1.64,12.15-4.39,17.62-7.8.61-.63.59-2.26,1.01-3.75.07-.25.53-1.14.58-1.44,1.28-.48,15.85-13.52,14.88-13.86-3.86,3.31-8.25,5.95-12.85,8.09,1.07-3.36.53-8.09,1.16-11.55,2.5-3.1,4.82-6.35,7.22-9.53,2.19-2.9,4.75-5.53,6.21-8.95,4.14,1.41,6.36,3.51,8.81-1.16.76.23.69,1.36.58,1.88-.36,1.67-9.27,19.49-10.69,23.83Z"/>
            <path class="cls-58" d="m147.77,158.3c.01-.09-.01-.19,0-.29.14-1,.42-2.22.29-3.18.99-.56,1.39-1.24,1.73-2.31,4.6-2.13,8.99-4.78,12.85-8.09.97.35-13.59,13.38-14.88,13.86Z"/>
          </g>
          <path class="cls-79" d="m171.74,65.88c6.44,9.58,13.61,22.35,5.2,32.93-1.09-1.7-6.09-6.33-8.09-6.64-1.1-2.77-2.07-5.61-3.18-8.38-1.99-4.96-4.08-9.23-7.22-13.58,2.39-1.4-.96-2.48-2.31-4.77-3.12-5.28-2.57-13,.87-18.05,4.55,5.07,10.99,12.92,14.73,18.49Z"/>
          <path class="cls-62" d="m133.9,26.31c6.74,4.99,12.94,10.46,18.77,16.46-4.66,3.96-7.21,7.16-6.64,13.58-8.09-9.19-15.82-17.54-14.44-30.91.77.26,1.55.56,2.31.87Z"/>
          <path class="cls-54" d="m157.01,47.39c-3.44,5.05-3.99,12.77-.87,18.05,1.35,2.29,4.7,3.36,2.31,4.77-3.67-5.07-8.31-9.2-12.42-13.86-.57-6.42,1.98-9.61,6.64-13.58,1.5,1.55,2.89,3.01,4.33,4.62Z"/>
          <path class="cls-70" d="m131.59,25.44c-1.38,13.36,6.35,21.71,14.44,30.91,4.11,4.67,8.75,8.79,12.42,13.86,3.14,4.34,5.24,8.62,7.22,13.58-.43.07-1.87.75-2.02.87-3.59-11.84-12.43-20.5-22.24-27.44-1.51-1.07-3.17-1.98-4.33-3.47.56-.46,1.3-.26,1.16-1.3-.66-1.02-1.83-1.61-2.6-2.46-6.59-7.27-22.26-15.06-9.53-26,1.78.46,3.77.86,5.49,1.44Z"/>
          <path class="cls-8" d="m123.22,23.13c.15.03,1.6.54,2.89.87-12.72,10.93,2.94,18.72,9.53,26-4.08-1.96-8.11-3.34-12.71-2.89-2.06-6.37-8.64-10.33-15.02-11.26.13-.46.2-2.22.58-3.32.75-2.19,2.03-5.38,3.18-7.37.55-.95,1.39-1.74,1.59-2.89.48-.25,8.65.68,9.96.87Z"/>
          <path class="cls-13" d="m111.66,25.15c-1.15,1.99-2.42,5.18-3.18,7.37-.38,1.1-.45,2.86-.58,3.32-.07.26-1.25,2.35-1.73,5.05-2,11.12-.54,23.15-1.44,34.37.34.31.63.6.87,1.01v2.31c-1.11.16.03-1.47-1.16-3.9-.16-.33-3.41-4.14-4.04-3.9,0-5.26.31-13.16,0-17.76-.64-9.47-2.37-11.03-4.62-16.9-.15-.38-.1-1.56-.29-2.02-.07-.23.37-1.15.43-1.16.81-.03,5.29,13.41,6.07,15.02q2.09-7.51,4.19-15.02c.41-2.53,1.82-4.67,2.89-6.93l2.6-.87Z"/>
          <path class="cls-54" d="m165.68,92.45c1.83,6.62,3.09,13.92.58,20.51-1.44,3.78-7.91,12.01-11.26,14.44-3,2.18-7.59,4-11.26,4.62-.15-.18-.38-.34-.58-.58,2.33-3.77,5.98-6.5,8.67-9.96,5.98-7.72,10.19-17.16,12.13-26.72.32-.49.75-1.7,1.16-2.31.19.03.39-.03.58,0Z"/>
          <g>
            <path class="cls-15" d="m176.94,98.8c.04.07.01.3.58,1.44.55,2.53.36,6.67-.87,8.95-1.82,3.38-6.87,4.91-10.4,3.75,2.52-6.59,1.25-13.88-.58-20.51.78.11,2.94.12,3.18-.29,2,.31,6.99,4.94,8.09,6.64Z"/>
            <path class="cls-18" d="m165.68,83.79c1.11,2.77,2.08,5.61,3.18,8.38-.24.41-2.4.4-3.18.29-.19-.03-.39.03-.58,0-1.45-.21-4.24-.41-4.91-.58-.11-.03-.25-.55-2.02-1.16-.97-.82,1.52-2.54,4.62-5.2.35-.3.82-.83.87-.87.15-.11,1.6-.8,2.02-.87Z"/>
          </g>
          <path class="cls-8" d="m72.67,25.73c-9.87,10.31-15.24,23.66-20.51,36.68-2.15,1.81-9.2,9.57-10.98,11.99-1.35,3.06-12.63,19.63-13,20.8-.14.43.15.67.29,1.01-3.56,3.07-2.79,8.81-2.02,13,.15.82.36,1.51.58,2.31l-1.44-1.16c-2.35-7.88-5.98-19.73-4.33-27.58,3.36-16.04,34.74-43.58,46.5-55.89,1.62-.35,3.31-.75,4.91-1.16Z"/>
          <path class="cls-13" d="m37.72,113.82c1.06,3.04,1.07,6.81,3.18,9.39l-.58.43c-3.06,1.38-6.08,1.02-8.38-1.44-1.74-1.87-4.2-8.11-4.91-10.69-.22-.8-.43-1.49-.58-2.31,3.36,3.35,6.15,5.86,11.26,4.62Z"/>
          <path class="cls-70" d="m95.78,36.13c2.25,5.86,3.98,7.42,4.62,16.9.31,4.6,0,12.5,0,17.76,0,2.41-.01,4.81,0,7.22l-5.2,2.6s.15-.48-.43-.87c-3.36-.24-6.91.32-10.25,0-.38-.04-.49-.54-.87-.58.23-.53.28-.55.29-.58.71,0,2-.29,2.6-.58,17.6,1.97,11.5-26.55-2.46-26.86-3.77-.08-11.07,3.37-14.3,5.49-.04-.32-.3-.48-.58-.58-1.48-.5-2.48-1.64-3.18-1.73-1.94-.26-11.75,6.31-13.86,8.09,5.26-13.02,10.64-26.37,20.51-36.68.24-.06,1.91-1.11,4.62-1.73,9.33,9.13-1.47,16.18-6.35,22.96-4.92,6.84.56.08,11.99.72,1.18-7.18,6.81-8.97,12.85-11.55Z"/>
          <path class="cls-16" d="m95.49,34.11c.19.46.14,1.64.29,2.02-6.04,2.59-11.67,4.37-12.85,11.55-11.43-.64-16.91,6.12-11.99-.72,4.88-6.78,15.68-13.83,6.35-22.96,4.03-.93,8.14-1.89,12.28-1.73.63.22,5.36,10.48,5.92,11.84Z"/>
          <path class="cls-11" d="m67.47,151.37c-5.64-1.37-6.2-5.96-4.62-11.12.68-2.22,13.55-19.68,16.17-23.54.29.04,1.04-.13,1.16.14.67,1.59-3.8,29.96-2.6,34.37l-.72.72c-3.1-.13-6.33.16-9.39-.58Z"/>
          <path class="cls-8" d="m86.54,113.82c-.18,1.36-.45,2.67-.58,4.04-.25,2.68-.8,5.38-.58,8.09-.14.17-.4.8-.87,1.44-1.54,2.12-2.78,4.89-3.18,3.61-.41-5.4.42-10.95.29-16.32l4.91-4.91c-.35,1.49.03,3.84,0,4.04Z"/>
          <g>
            <path class="cls-56" d="m80.18,171.88c.03,1.31,2.72,0,3.61.87h-9.53v.58c9.11,3.03,18.57,4.62,28.16,5.2v.58c-6.38.17-19.36,5.81-23.11,5.49-3.79-.33-11.83-6.87-14.44-9.82-.06-.06.12-.2-.87-1.44,1.54.89,2.64.67,3.03.87,2.19,1.07,5.44,5.15,14.15,6.64,2.59.44,5.63-.53,7.8.87,1.06-1.07,4.98-1.02,5.78-1.44,1.85-1-5.52-.52-8.09-.87-5.71-.77-12.93-3.91-18.05-6.64,1.71-1.54,4.67.01,5.05,0,5.81-.19-1.69-1.31-2.89-1.73-2.22-.79-4.27-2.38-6.5-3.18-1.16-1.83,2.52.38,2.31-1.44,3.92,2.23,9.11,5.1,13.58,5.49Z"/>
            <path class="cls-68" d="m61.12,162.64c.29.16,2.92,2.29,5.49,3.75.21,1.82-3.47-.39-2.31,1.44-6.7-2.39-.99,1.82,1.16,3.18-.28,1.25-1.73.74-1.73,2.02-.4-.53-1.6-1.8-1.73-2.02-.33-.56-.55-.82-.58-.87-.89-1.71-2.31-6.14-2.6-8.09.83-.14,1.62.2,2.31.58Z"/>
            <path class="cls-55" d="m95.78,165.24c3.98,4.16,7.3,6.39,6.64,13.29-9.59-.58-19.05-2.17-28.16-5.2v-.58h9.53c-.89-.87-3.58.44-3.61-.87,9.14.79-9.78-4-7.51-6.35,1.87.34,4.85.46,6.79.29-5.07-1.52-17.04-6.11-19.93-9.53,14.47,1.25,22.98,3.17,36.25,8.95Z"/>
            <path class="cls-56" d="m68.63,172.75c5.13,2.73,12.34,5.88,18.05,6.64,2.57.35,9.94-.13,8.09.87-.79.43-4.72.37-5.78,1.44-2.17-1.39-5.2-.42-7.8-.87-8.72-1.49-11.96-5.57-14.15-6.64-.4-.19-1.49.02-3.03-.87-.01-.02-.08-.01-.29-.29,0-1.28,1.45-.77,1.73-2.02,1.04.66,2.1,1.16,3.18,1.73Z"/>
            <path class="cls-55" d="m72.67,165.53c-2.27,2.35,16.65,7.14,7.51,6.35-4.47-.38-9.66-3.26-13.58-5.49-2.56-1.46-5.2-3.6-5.49-3.75.03-.24-.49-.47-.14-.58.74-.22,9.83,3.13,11.7,3.47Z"/>
            <path class="cls-56" d="m64.3,167.84c2.23.79,4.28,2.39,6.5,3.18,1.2.42,8.7,1.55,2.89,1.73-.39.01-3.34-1.54-5.05,0-1.08-.58-2.13-1.07-3.18-1.73-2.15-1.36-7.86-5.57-1.16-3.18Z"/>
            <path class="cls-56" d="m70.94,153.11c3.02.49,6.06.55,9.1.87,7.67,4.11,9.79,5.05,15.74,11.26-13.27-5.78-21.78-7.71-36.25-8.95,2.89,3.43,14.86,8.01,19.93,9.53-1.94.18-4.91.05-6.79-.29-1.87-.33-10.96-3.68-11.7-3.47-.35.1.17.34.14.58-.69-.38-1.48-.72-2.31-.58-.04-.28.12-.6-.29-.58.9-1.44-.12-3.24,0-4.62.15-1.8.53-2.8,1.44-4.33h.29c1.64,2.16,15.85,4.98,16.9,4.33.64-1.54-5.88-2.29-6.21-3.75Z"/>
            <path class="cls-78" d="m70.94,153.11c.33,1.46,6.85,2.22,6.21,3.75-1.05.65-15.25-2.18-16.9-4.33,1.17-2.84,5.42-.28,10.69.58Z"/>
          </g>
          <path class="cls-13" d="m87.4,107.76c-.3.69-.69,1.28-.87,2.02l-4.91,4.91c-.05-2.04-.8-4.29,0-6.35.83-.34,2.89-1.07,3.18-2.02.89-.16,2.44.56,2.6,1.44Z"/>
          <path class="cls-11" d="m93.76,145.02c.11.11.16.17.29.29-.29.25-1.36,1.13-1.44,1.16-.1.03-.44.03-1.16.29-.05.02-.29-.63-1.01-.29-.84.41-4.71,4.29-5.63,5.49-.63-.72-1.5-1.8-2.02-2.6,1.02.91,4.88-4.06,5.49-4.33,1.64-.75,3.79-.05,5.49,0Z"/>
          <g>
            <path class="cls-55" d="m144.3,170.15c-.5,1.03-1,2.12-1.44,3.18-.19.14-.59.23-.58.58-.07-.63.02-.97,0-1.01-.22-.43-7.26,5.13-7.37,5.92-.15-1.05-3.03,2.59-4.19,4.04-.98.44-.82.56-.87.58-1.9.73-3.12,1.25-5.2,1.16-.95-.04-17.34-4.81-18.2-5.2-.2-.09-.77.21-1.16-.43.07-1.19-.09-2.42,0-3.61,20.86,8.62,36.58-5.01,38.56-5.49.06-.01.21.35.43.29Z"/>
            <path class="cls-78" d="m148.06,154.84c.13.95-.15,2.18-.29,3.18-.13-2.13-4.82,2.01-8.23,3.47-2.91,1.24-6.22,1.65-9.1,3.03.07,1.28,15.74-4,16.75-4.77-.42,1.49-.4,3.12-1.01,3.75-5.47,3.41-11.36,6.15-17.62,7.8-.83.22-10.69,1.25-8.95,2.31,1.07.65,14.69-2.44,16.75-3.18,2.32-.83,9.38-4.05,10.25-6.07-.45,1.22-.68,2.55-1.16,3.75-.04.09-.56,1.08-.87,1.73-.19.41-.28.27-.29.29-.22.06-.37-.3-.43-.29-1.98.47-17.7,14.1-38.56,5.49.43-5.54,6.97-12.29,10.54-16.46,1.81-.79,3.58-1.7,5.34-2.6,1.82-.94,3.63-2.05,5.34-3.18,6.22.49,12.32-1.06,17.91-3.75,1.17.03,3.46,4.41,3.61,5.49Z"/>
            <path class="cls-55" d="m147.77,158.02c-.01.09.01.19,0,.29-.05.31-.51,1.19-.58,1.44-1.02.76-16.68,6.05-16.75,4.77,2.88-1.39,6.19-1.79,9.1-3.03,3.41-1.46,8.1-5.6,8.23-3.47Z"/>
            <path class="cls-78" d="m142.28,173.9c.03.28-.02.58,0,.87-.48.31-4.53,4.36-9.24,6.93-.75.41-1.54.8-2.31,1.16,1.15-1.45,4.04-5.09,4.19-4.04.1-.79,7.14-6.35,7.37-5.92.02.04-.07.38,0,1.01Z"/>
          </g>
          <path class="cls-13" d="m45.81,91.58c-.49.92-.89,1.81-.87,2.89-1.05-.14-1.87.06-2.89.29-.49.11-.52-.09-1.16.29-.13.08-.63-.09-.72,0-1.26,1.27.17,12.36.72,14.59,2.47,9.95,11.37,19.5,20.22,24.41-2.96.87-6.09,5.1-6.35,8.09-6.16-5.1-10.47-11.65-14.44-18.49l.58-.43c-2.11-2.58-2.12-6.34-3.18-9.39v-19.21c.53-1.02,6.68-2.66,8.09-3.03Z"/>
          <path class="cls-8" d="m40.9,95.05c.63,5.35,2.45,11.88,5.78,16.17-.38,1.48,3.87,6.99,5.49,8.81,1.4,1.57,8.98,8.35,10.54,8.52,3.78.41,5.66-7.91,2.46-15.31,2.17,2.4,4.29,5.05,5.49,8.09-.91,4.9-3.15,13.5-9.53,12.71-8.84-4.9-17.74-14.46-20.22-24.41-.55-2.22-1.98-13.31-.72-14.59.09-.09.59.08.72,0Z"/>
          <path class="cls-6" d="m49.56,92.74c1.8,2.3,1.96,2.88,4.33,4.91,9.19,7.87,20.93,1.16,16.75,23.68-1.2-3.04-3.31-5.69-5.49-8.09-.5-1.16-3.92-6.37-4.77-6.93-4.66-.91-15.32-6.62-15.45-11.84-.03-1.08.37-1.97.87-2.89.75-.2,1.49-1.07,2.46-.87.31.1.66,1.21,1.3,2.02Z"/>
          <path class="cls-59" d="m143.15,131.44c-3.14-3.79-4.81-5.24-6.35-10.4.94-2.29,2.05-4.44,3.18-6.64,11.5,1.6,15.25-5.65,20.22-13.86,1.32-2.18,2.38-3.71,3.75-5.78-1.94,9.56-6.15,18.99-12.13,26.72-2.69,3.47-6.34,6.2-8.67,9.96Z"/>
          <path class="cls-15" d="m141.7,149.64c-.15-.8.3-.96.29-1.01-.41-2.31-12.51-18.59-15.31-21.52-.34-2.54-.89-7.18-1.44-7.22,0-.29,0-.58,0-.87l.29-3.61c.37-.43.7.13,1.16.58,1.14,1.11,18.15,24.24,18.77,25.71,1.91,4.48.18,6.1-3.75,7.94Z"/>
          <path class="cls-6" d="m158.17,90.72c1.77.6,1.91,1.13,2.02,1.16,1.31,6.69-8.95,11.35-14.3,13.58-1.77,1.47-1.78,2.2-1.88,2.31-2,2.34-2.7,4.02-4.04,6.64-1.13,2.21-2.23,4.35-3.18,6.64-.91-3.03-1.52-6.98-1.44-10.11.08-3.34.71-6.66,3.75-8.67,3.83-2.53,10.02.33,17.76-12.13.65-.2.83.42,1.3.58Z"/>
          <path class="cls-15" d="m141.7,149.64c-1.58.74-11.69,3.81-12.42,2.17.26-8.33-1.5-16.46-2.6-24.7,2.8,2.93,14.9,19.21,15.31,21.52,0,.05-.44.21-.29,1.01Z"/>
          <path class="cls-48" d="m159.32,87.25c1.22-.42,2.2-1.43,3.47-1.73-3.1,2.66-5.59,4.38-4.62,5.2-.47-.16-.65-.78-1.3-.58-7.75,12.46-13.93,9.61-17.76,12.13-.83-.98-.88-.19-1.44,0-.39-1.51-8.49.67-9.39,1.44-.65.56-2.12,4.19-1.59,5.2-.3.14-.49.37-.87.29.01-.09-.01-.19,0-.29.19-1.26,1.12-3.55,1.73-4.77.38-6.9-.32-16.77,7.51-19.79.51,3.14-1.78,3.11-2.89,4.77-2.16,3.22-1.28,6.83,2.02,8.81,1.94,1.16,3.58,1.46,5.78,1.44.13.18.05,1.7.14,1.73,1.73.59,9.93-3.24,10.83-5.34.05-.12-1.27-1.92-1.44-2.17.03-.09-.02-.2,0-.29.27-1.05.63-1.56.58-2.74,0-.13-.46-1.93-.58-2.46-.2-.89-1.55-4.43-2.31-4.62,6.85.89,9.18,4.16,10.25,4.33.9.14,1.27-.37,1.88-.58Z"/>
          <path class="cls-8" d="m104.73,86.67c-.49,4.97-.34,10.03-.29,15.02.04,4.04-.03,8.09,0,12.13l.14.58c1.48-.24,5.59,1.09,7.08,1.73,3.2,1.37,7.91,4.55,9.82,7.51l-.58.29c-2.73-2.88-12.48-8.54-16.32-8.95-1.05-.11-2,.22-3.03.29-.1,0-.19,0-.29,0v-1.73c.26-4.43-.22-8.87-.29-13.29-.07-4.62.05-9.24,0-13.86.04,0-.19-.69.43-.58,1.03.43,2.22.71,3.32.87Z"/>
          <path class="cls-15" d="m139.1,102.27c-3.04,2.01-3.67,5.32-3.75,8.67-.2,0-.5-.08-.58.14-.49,1.4.39,9.08.43,11.41-4.6-4.35-9.37-8.41-5.05-15.02,1.42-2.17,5.04-4.38,7.51-5.2.56-.19.62-.98,1.44,0Z"/>
          <path class="cls-79" d="m124.66,113.82c.15.1.39.24.58.29-.09,1.61-.03,3.3,0,4.91,0,.29,0,.58,0,.87.28,9.71,3.49,13.19-3.75,3.75-1.91-2.96-6.62-6.14-9.82-7.51,4.02-1.13,8.72-1.39,13-2.31Z"/>
          <path class="cls-62" d="m120.62,96.49c-.03,3.22.02,6.45,0,9.68l5.2,2.74c-.01.09.01.19,0,.29-.26,1.62-.49,3.27-.58,4.91-.19-.05-.43-.18-.58-.29-.84-.58-2.28-2.06-2.89-2.89-.85-1.15-1.48-2.45-2.31-3.61-.13-3.01.09-9.92-.58-12.28,2.03-.37.48,1.48,1.73,1.44Z"/>
          <path class="cls-18" d="m137.66,102.27c-2.47.82-6.09,3.03-7.51,5.2-.44-.92-1.6.57-3.47,1.44-.53-1.01.94-4.64,1.59-5.2.9-.77,9-2.96,9.39-1.44Z"/>
          <path class="cls-79" d="m134.19,56.06c-.44,1.32,3.57,4.89,6.64,1.73.03-.03.53-.14.58-.58,9.81,6.94,18.65,15.6,22.24,27.44-.05.04-.51.56-.87.87-1.27.3-2.24,1.32-3.47,1.73.09-7.07-1.86-13.19-9.24-15.31,1.14-.46-3.43-3.09-4.48-3.47-2.74-.99-5.7-.91-8.52-1.44.05-.06-.05-.23,0-.29.41-.56,1.47-1.74,1.44-2.46-.04-1.03-3.06-4.29-4.91-4.77-2.61-.67-4.68.87-4.91,3.47-6.47-11.54-15.44-.25-7.8,14.44-9.3-1.28-15.03-15.08-6.79-21.09,5.5-4.01,14.14-2.38,20.07-.29Z"/>
          <path class="cls-59" d="m122.93,47.1c4.6-.45,8.63.93,12.71,2.89.77.85,1.94,1.44,2.6,2.46.15,1.04-.6.84-1.16,1.3-.05.04-.44-.07-1.16.58-.45.4-1.56,1.21-1.73,1.73-5.94-2.09-14.57-3.72-20.07.29-8.24,6-2.51,19.81,6.79,21.09v.29c-.13.7-.84,2.64-.87,2.89-20.26-1.56-13.5-31.91,2.89-33.5Z"/>
          <path class="cls-86" d="m137.08,53.75c1.17,1.49,2.83,2.4,4.33,3.47-.04.44-.55.55-.58.58-.21-.76-3.1-1.71-4.91-3.47.72-.65,1.11-.54,1.16-.58Z"/>
          <path class="cls-70" d="m122.93,47.1c-16.39,1.59-23.15,31.95-2.89,33.5-.27,2.82-.74,5.32-1.16,8.09-2.62.09-12.31-10.74-13.29-12.42-.24-.41-.52-.7-.87-1.01.9-11.22-.55-23.26,1.44-34.37.49-2.71,1.66-4.8,1.73-5.05,6.38.94,12.96,4.9,15.02,11.26Z"/>
          <path class="cls-13" d="m105.6,78.59l.29,8.38c-.13-.02-.33-.17-1.16-.29-1.1-.16-2.29-.44-3.32-.87-.62-.12-.4.57-.43.58-.09.02-.2-.02-.29,0-.2-.88-.25-1.7-.29-2.6-.07-1.92,0-3.86,0-5.78-.01-2.41,0-4.81,0-7.22.63-.24,3.88,3.57,4.04,3.9,1.19,2.43.04,4.06,1.16,3.9Z"/>
          <path class="cls-8" d="m118.89,88.7c-.01.09.38.55,0,1.73-2.08-1.22-6.75-2.32-9.24-2.89-1.24-.28-2.51-.37-3.75-.58l-.29-8.38v-2.31c.98,1.68,10.67,12.51,13.29,12.42Z"/>
          <path class="cls-70" d="m165.1,92.45c-.4.61-.83,1.83-1.16,2.31-1.38,2.07-2.44,3.6-3.75,5.78-1.61-1.63-1-.05-2.17.87-4.07,3.2-9.01,5.09-14.01,6.35.1-.11.11-.84,1.88-2.31,5.35-2.22,15.6-6.88,14.3-13.58.67.17,3.46.37,4.91.58Z"/>
          <path class="cls-16" d="m66.03,54.32c-.39.63-.89,2.19-1.16,2.6-.77,1.19-1.62.76-1.44,2.02-.19-.02-.39.02-.58,0-.06,0,.34-.82-1.01-.58-11.75,8-14.72,13.21-21.23,24.84-1.66,2.96-3.45,5.77-4.33,9.1-.64.78-5.94,2.3-7.8,3.9-.14-.34-.43-.58-.29-1.01.37-1.17,11.65-17.73,13-20.8,1.78-2.42,8.83-10.18,10.98-11.99,2.11-1.78,11.92-8.34,13.86-8.09Z"/>
          <path class="cls-59" d="m86.54,78.01c3.05-1.49,6.63-5.97,6.93-9.39.66-7.47-7.96-14.47-11.26-10.54-2.15-.26-4.24,3.26-5.2,4.91-1.72-3.51-4.8-4.99-8.09-2.31-1.92-.54.8-.78-2.6-1.44,1.28-.56,2.34-1.86,3.47-2.6,3.23-2.12,10.53-5.57,14.3-5.49,13.95.31,20.05,28.83,2.46,26.86Z"/>
          <path class="cls-62" d="m86.54,78.01c-.6.29-1.89.58-2.6.58,1.81-4.43,5.89-19.59-1.73-20.51,3.31-3.93,11.92,3.07,11.26,10.54-.3,3.42-3.88,7.9-6.93,9.39Z"/>
          <path class="cls-8" d="m95.2,80.61c.51.69,1.19,3.42,2.02,4.33-3.15,1.33-6.14,3.05-9.53,3.75-1.26-2.89-2.56-5.84-3.18-8.95,3.34.32,6.89-.24,10.25,0,.58.39.4.83.43.87Z"/>
          <path class="cls-13" d="m84.51,79.74c.61,3.12,1.92,6.06,3.18,8.95.29.66.44,1.41.87,2.02-.05.02.03.27-.87.58-1.1.37-1.95.79-3.18.58-.77-6.97-.98-3.35-3.32-3.75-.19-.03-1.53-1.24-1.88-1.44,1.23-.48,1.28-1.99,1.73-2.89.29-.58.57-1.16.87-1.73.39-.76,1.09-1.53,1.44-2.31.09-.21.2-.37.29-.58.38.04.49.54.87.58Z"/>
          <path class="cls-21" d="m100.4,78.01c0,1.92-.07,3.86,0,5.78-.89.53-2.43.84-3.18,1.16-.83-.92-1.51-3.64-2.02-4.33l5.2-2.6Z"/>
          <g>
            <path class="cls-81" d="m69.78,56.63c-1.12.74-2.19,2.04-3.47,2.6-.84-.17-1.98-.18-2.89-.29-.18-1.27.68-.83,1.44-2.02l4.33-.87c.28.09.54.26.58.58Z"/>
            <path class="cls-14" d="m69.21,56.06l-4.33.87c.26-.41.77-1.97,1.16-2.6.7.09,1.69,1.23,3.18,1.73Z"/>
          </g>
          <g>
            <path class="cls-55" d="m120.91,123.93c3.7,3.9,5.6,12.87,5.78,18.2.08,2.52.04,4.93-1.3,7.22l-5.34-4.04-.29-.58.14-6.07q-7.65,1.73-15.31,3.47c-5.83-1.6-11.21-4.28-15.16-8.95-.44-1.9-1.91-4.15-1.44-8.09.33-.43.26-.8.29-.87.73-1.48,10.64-8.21,13.29-8.95,1.03-.06,1.98-.4,3.03-.29,3.84.41,13.59,6.08,16.32,8.95Z"/>
            <path class="cls-19" d="m88.27,145.02c-.6.27-4.47,5.24-5.49,4.33-.74-1.13-1.6-2.17-2.31-3.32-.79-3.48,2.74-14.12,4.62-17.47.02-.04.55-.53.58-.58-1.08,5.72-.98,12.22,2.6,17.04Z"/>
            <path class="cls-36" d="m88.27,124.22c-.03.07.04.44-.29.87-1.08.69-1.67,1.85-2.31,2.89-.03.04-.56.54-.58.58l-.58-1.16c.47-.65.73-1.27.87-1.44.65-.82,1.31-1.54,2.02-2.31l.87.58Z"/>
            <path class="cls-65" d="m119.75,144.73c-6.9-.18-10.92,4.95-20.07,2.89-.92-.21-5.01-1.78-5.63-2.31-.13-.11-.18-.18-.29-.29-2.36-2.46-3.59-8.63-4.33-11.84,3.95,4.68,9.33,7.35,15.16,8.95q7.65-1.73,15.31-3.47l-.14,6.07Z"/>
            <path class="cls-66" d="m89.42,133.18c.74,3.22,1.97,9.38,4.33,11.84-1.7-.05-3.85-.75-5.49,0-3.58-4.82-3.68-11.32-2.6-17.04.64-1.04,1.24-2.2,2.31-2.89-.46,3.94,1.01,6.19,1.44,8.09Z"/>
            <path class="cls-7" d="m101.27,115.27c.1,0,.19,0,.29,0-2.65.74-12.56,7.47-13.29,8.95l-.87-.58c2.04-2.2,8.39-7.31,10.98-8.09,1.25-.38,1.85-.19,2.89-.29Z"/>
          </g>
          <path class="cls-59" d="m62.85,58.95c-3.37,2.52-8.07,9.05-1.16,9.82,2.58.29,6.11-.87,6.35-.14-.33.48-.95.38-1.16,1.01-.07.22.13.63-.29,1.16-12.73.82-19.96,2.68-19.93,17.04-2.01-.51-4.13-3.25-6.07-4.62,6.51-11.63,9.47-16.84,21.23-24.84,1.35-.25.95.57,1.01.58Z"/>
          <path class="cls-8" d="m88.27,95.63c.42,3.08.98,6.16,1.44,9.24-.79.5-1.96,2.1-2.31,2.89-.16-.89-1.71-1.6-2.6-1.44.22-.72-.1-12.73-.29-14.44,1.23.22,2.08-.2,3.18-.58.48,1.33.39,2.95.58,4.33Z"/>
          <path class="cls-13" d="m81.05,83.79c-.45.9-.5,2.41-1.73,2.89-1.73-1-3.31-2.44-4.62-3.18v-.87c.76.33,5.17,1.27,6.35,1.16Z"/>
          <g>
            <path class="cls-63" d="m113.97,148.2c-.66,3.28,3.32,2.19,6.07,3.47-.03.01.1.4-.58.29-3.53-1.07-8.84,1.84-9.82,5.34-.58,2.07-.01,2.91,0,4.19-1.88,1.07-1.02-2.81-2.6-1.44-.16-.63-.1-1.58-.72-2.02l-9.68-2.31c-2.1-3.55-3.4-3.48-7.22-4.62.01-.02-.5-.05-.29-.43.41-.74,1.79-2.24,2.31-3.9,2.84,1.07,11.28,7.47,11.99,7.51,2.18.14,6.35-4.59,10.54-6.07Z"/>
            <path class="cls-23" d="m119.46,145.88c.69,1.5,1.61,2.84,2.31,4.33-.48,0-.85.56-1.16.87-1.12-5.22-2.36-4.39-6.64-2.89-4.19,1.47-8.36,6.2-10.54,6.07-.71-.04-9.15-6.44-11.99-7.51.71-.26,1.06-.26,1.16-.29,13.32,6.48,11.79,4.02,19.79,1.16,3.51-1.26,6.34-1.52,7.08-1.73Z"/>
            <path class="cls-9" d="m107.33,161.77c.13,1.67-.3,3.65.29,4.04-.55.68-1.08,1.45-1.73,2.02-2.79-8.84-1.69-1.49-3.18.72-.18.26-.59.12-.87.14-5.19-5.36-3.53-6.18-3.75-8.09l9.24,1.16Z"/>
            <path class="cls-39" d="m119.75,144.73l.29.58c-.32-.09-.54.57-.58.58-.74.21-3.56.47-7.08,1.73-7.99,2.86-6.47,5.33-19.79-1.16.09-.03,1.15-.9,1.44-1.16.62.53,4.71,2.1,5.63,2.31,9.15,2.06,13.18-3.07,20.07-2.89Z"/>
            <path class="cls-23" d="m107.04,160.04c.2.75.23.94.29,1.73l-9.24-1.16c-.03-.26.79-1.14-1.44-4.91l9.68,2.31c.62.45.56,1.39.72,2.02Z"/>
            <path class="cls-31" d="m91.45,146.75c-.52,1.66-1.9,3.16-2.31,3.9-.21.39.3.41.29.43-.68,1.28-1.4,2.52-2.17,3.75-.72-1.05-1.62-1.94-2.46-2.89.92-1.2,4.79-5.08,5.63-5.49.72-.34.96.31,1.01.29Z"/>
            <path class="cls-39" d="m105.89,167.84c-.86.76-1.9,1.25-2.74,2.02-1.02.23-.9-.74-1.3-1.16.28-.03.69.12.87-.14,1.49-2.21.39-9.56,3.18-.72Z"/>
            <path class="cls-64" d="m109.64,161.48c0,.87,1.49,0-2.02,4.33-.59-.4-.16-2.37-.29-4.04-.06-.79-.09-.98-.29-1.73,1.58-1.37.72,2.51,2.6,1.44Z"/>
            <path class="cls-9" d="m121.77,150.22c.3.64,1.71,2.47,1.3,3.18-1.04,1.77-2.87-.32-3.61-1.44.68.11.55-.28.58-.29.53-.24.54-.54.58-.58.31-.31.68-.87,1.16-.87Z"/>
            <path class="cls-80" d="m120.62,151.08s-.05.34-.58.58c-2.75-1.28-6.72-.18-6.07-3.47,4.28-1.51,5.52-2.33,6.64,2.89Z"/>
          </g>
          <path class="cls-62" d="m98.09,115.27s.32-.07.29.29c-2.59.77-8.94,5.88-10.98,8.09-.71.77-1.37,1.49-2.02,2.31-.22-2.7.33-5.41.58-8.09,1.95-.53,3.69-1.73,5.63-2.31,1.25-.38,2.73,0,2.46-.87,1.35.17,2.7.34,4.04.58Z"/>
          <path class="cls-21" d="m98.09,115.27c-1.34-.24-2.69-.4-4.04-.58-2.5-.32-5-.64-7.51-.87.03-.2-.35-2.55,0-4.04.18-.74.56-1.33.87-2.02.35-.79,1.52-2.39,2.31-2.89.26,1.77.35,3.56.29,5.34,2.68,1.56,5.47,3.97,8.52,4.48.36.37-.33.11-.43.58Z"/>
          <path class="cls-59" d="m94.05,114.69c.27.88-1.21.49-2.46.87-1.94.58-3.68,1.78-5.63,2.31.13-1.38.4-2.69.58-4.04,2.51.23,5.01.55,7.51.87Z"/>
          <path class="cls-21" d="m44.94,94.47c.13,5.22,10.8,10.93,15.45,11.84.84.56,4.26,5.77,4.77,6.93,3.2,7.4,1.33,15.72-2.46,15.31-1.56-.17-9.14-6.95-10.54-8.52-1.62-1.81-5.86-7.32-5.49-8.81,5.26,6.8,16.57,11.51,15.31,2.46-1.11-7.95-14.16-5.78-19.93-18.92,1.02-.23,1.83-.43,2.89-.29Z"/>
          <path class="cls-59" d="m42.05,94.76c5.77,13.14,18.82,10.96,19.93,18.92,1.26,9.06-10.05,4.34-15.31-2.46-3.33-4.3-5.14-10.82-5.78-16.17.64-.38.67-.18,1.16-.29Z"/>
          <path class="cls-70" d="m160.19,100.54c-4.97,8.22-8.72,15.46-20.22,13.86,1.34-2.62,2.05-4.3,4.04-6.64,5-1.26,9.94-3.15,14.01-6.35,1.17-.92.55-2.5,2.17-.87Z"/>
          <path class="cls-77" d="m150.08,71.94c7.39,2.12,9.33,8.24,9.24,15.31-.61.21-.98.72-1.88.58-1.08-.17-3.41-3.44-10.25-4.33-3.96-.51-8.36-.59-12.13.87-7.83,3.02-7.13,12.88-7.51,19.79-.62,1.21-1.54,3.5-1.73,4.77l-5.2-2.74c.02-3.22-.03-6.45,0-9.68.01-1.72-.1-3.48,0-5.2.08-1.46-.16-2.92.43-4.33,6.23,1.93,4.98-.91,8.52-3.18,2.45-1.57,5.48-1.86,8.09-3.03.31-.44,1.29-9.13,1.16-9.96,3.18.22,8.35.32,11.26,1.16Z"/>
          <path class="cls-49" d="m147.19,83.5c.76.19,2.11,3.73,2.31,4.62-1.14-1.07-2.21-1.69-3.75-2.02-4.73-1.03-14.69.45-14.15,6.93.21,2.56,1.02,3.11,2.6,4.91-3.31-1.98-4.18-5.59-2.02-8.81,1.11-1.65,3.4-1.62,2.89-4.77,3.77-1.45,8.17-1.38,12.13-.87Z"/>
          <path class="cls-49" d="m139.97,99.38c4.05-.02,8.21-1.58,9.53-5.78.18.24,1.5,2.05,1.44,2.17-.9,2.11-9.1,5.94-10.83,5.34-.1-.03-.02-1.55-.14-1.73Z"/>
          <path class="cls-79" d="m118.89,95.05c.67,2.36.44,9.27.58,12.28.83,1.16,1.46,2.46,2.31,3.61q-8.67,1.44-17.33,2.89c-.03-4.04.04-8.09,0-12.13,1.29-.25,1.66-2.57,2.02-3.75.93.77,1.78-1.81,3.61-3.18,2.56-1.91,7.7-3.63,8.81.29Z"/>
          <path class="cls-59" d="m100.98,86.38c.05,4.62-.07,9.24,0,13.86-4.48-2.93-7.55-8.14-8.95-3.9-1.9,5.74,4.4,14.17,9.24,17.19v1.73c-1.04.1-1.63-.09-2.89.29.03-.36-.29-.27-.29-.29.11-.47.79-.2.43-.58-3.05-.51-5.84-2.91-8.52-4.48.06-1.79-.02-3.58-.29-5.34-.46-3.08-1.02-6.17-1.44-9.24,2.15-1.19,1.93-3.35,2.6-5.49,3.18-1.2,6.47-3.05,9.82-3.75.09-.02.2.02.29,0Z"/>
          <path class="cls-54" d="m100.98,100.25c.07,4.42.55,8.86.29,13.29-4.84-3.01-11.14-11.45-9.24-17.19,1.4-4.24,4.47.97,8.95,3.9Z"/>
          <path class="cls-79" d="m124.66,113.82c-4.27.92-8.98,1.18-13,2.31-1.49-.64-5.6-1.97-7.08-1.73l-.14-.58q8.67-1.44,17.33-2.89c.61.82,2.05,2.31,2.89,2.89Z"/>
          <path class="cls-62" d="m105.89,86.96c1.25.21,2.51.29,3.75.58-1.51,3.33-2.13,6.94-3.18,10.4-.36,1.18-.73,3.5-2.02,3.75-.05-4.99-.2-10.05.29-15.02.83.12,1.03.27,1.16.29Z"/>
          <path class="cls-79" d="m118.89,90.43c.08.05.65,1.07,1.73.87-.1,1.71.01,3.48,0,5.2-1.25.04.3-1.81-1.73-1.44-1.11-3.92-6.25-2.2-8.81-.29-1.83,1.37-2.68,3.95-3.61,3.18,1.05-3.46,1.67-7.07,3.18-10.4,2.49.57,7.17,1.67,9.24,2.89Z"/>
          <path class="cls-77" d="m128.71,62.99c-.25,2.82,2.05,4.19,2.89,6.64.16.45.83,3.06.87,3.32.77,6.36.03,8.75-3.47,10.54-6.74,3.45-6.76.15-8.09-5.78v-.29c-7.64-14.69,1.32-25.98,7.8-14.44Z"/>
          <path class="cls-44" d="m133.62,59.52c-4.67-.17-.23,3.39,3.47,7.22-.05.06.05.23,0,.29-.43.51-1.53,1.19-2.02,1.73-.92-.09-4.12-.25-3.47.87-.84-2.45-3.13-3.82-2.89-6.64.23-2.59,2.3-4.14,4.91-3.47Z"/>
          <path class="cls-54" d="m150.08,71.94c-2.92-.84-8.08-.94-11.26-1.16-.07-.41.15-.91-.14-1.16-1.23-.23-2.36-.74-3.61-.87.49-.55,1.59-1.22,2.02-1.73,2.82.53,5.78.46,8.52,1.44,1.05.38,5.61,3,4.48,3.47Z"/>
          <path class="cls-42" d="m137.08,66.74c-3.69-3.83-8.14-7.39-3.47-7.22,1.85.48,4.87,3.74,4.91,4.77.03.72-1.03,1.9-1.44,2.46Z"/>
          <path class="cls-45" d="m140.84,57.79c-3.08,3.16-7.08-.41-6.64-1.73.17-.52,1.28-1.33,1.73-1.73,1.81,1.75,4.7,2.71,4.91,3.47Z"/>
          <path class="cls-16" d="m128.99,83.5l.58.29c-3.54,2.27-2.29,5.11-8.52,3.18-.59,1.41-.35,2.87-.43,4.33-1.08.2-1.65-.82-1.73-.87.38-1.18-.01-1.65,0-1.73.41-2.77.89-5.27,1.16-8.09.02-.25.74-2.19.87-2.89,1.33,5.93,1.35,9.23,8.09,5.78Z"/>
          <path class="cls-13" d="m100.69,86.38c-3.35.7-6.64,2.55-9.82,3.75-.51.19-1.79.39-2.31.58-.43-.61-.58-1.37-.87-2.02,3.39-.7,6.39-2.43,9.53-3.75.75-.32,2.29-.62,3.18-1.16.03.9.09,1.72.29,2.6Z"/>
          <path class="cls-54" d="m63.43,58.95c.91.11,2.05.12,2.89.29,3.4.67.68.9,2.6,1.44-.6.49-1.12,1.02-1.44,1.73-.63-.98-.68-.2-1.44.43l-4.33,5.92c-6.91-.78-2.21-7.3,1.16-9.82.19.02.39-.02.58,0Z"/>
          <g>
            <path class="cls-55" d="m66.61,70.79l1.44,9.96c.4.67,5.48,2.09,6.64,2.74,1.32.74,2.89,2.18,4.62,3.18.35.2,1.69,1.41,1.88,1.44,2.34.41,2.55-3.22,3.32,3.75.19,1.71.5,13.72.29,14.44-.28.95-2.35,1.68-3.18,2.02-.4-1.39-1.98-2.44-2.02-2.6-2.1-7.1.79-20.67-13.72-22.24-11.68-1.26-17.93,4.5-19.21,4.33-.03-14.37,7.2-16.22,19.93-17.04Z"/>
            <path class="cls-18" d="m75.85,65.88c-1.47,3.55-2.47,6.13-2.6,10.11-.04,1.25.06,3.43.29,4.62.09.47-.06,1.09,0,1.59.49.37,1.06.39,1.16.43v.87c-1.16-.65-6.24-2.07-6.64-2.74l-1.44-9.96c.42-.53.22-.94.29-1.16,3.72-1.26,1.65-.88.58-3.18,3.43,3.92,4.46,1.84,6.21,3.18.72-.15.65-3.8,2.17-3.75Z"/>
            <path class="cls-44" d="m77,62.99c-.06.1-.61,1.48-.87,2.02-1.19.1.22-.67-.14-1.44-.08-.17-2.71-2.26-2.89-2.31-3.48-.94-4.18,6.13-6.21,4.04-.12-1.1.13-1.91.58-2.89.32-.71.84-1.24,1.44-1.73,3.29-2.68,6.37-1.2,8.09,2.31Z"/>
            <path class="cls-44" d="m76.14,65.01s-.09.38-.29.87c-1.51-.05-1.45,3.6-2.17,3.75-1.75-1.34-2.78.75-6.21-3.18-.13-.28-.54-.84-.58-1.16,2.03,2.09,2.73-4.99,6.21-4.04.18.05,2.81,2.14,2.89,2.31.36.78-1.04,1.55.14,1.44Z"/>
            <g>
              <path class="cls-77" d="m82.2,58.08c7.62.92,3.54,16.07,1.73,20.51-.01.03-.06.04-.29.58-.09.21-.2.37-.29.58-4.95,0-5.01-4.95-5.34-5.2-1.55-1.14-1.24,2.17-1.73,2.31-.16.05-.79-1.53-3.03-.87.13-3.98,1.12-6.56,2.6-10.11.2-.48.27-.83.29-.87.25-.54.81-1.93.87-2.02.96-1.65,3.05-5.17,5.2-4.91Z"/>
              <path class="cls-53" d="m83.36,79.74c-.35.78-1.05,1.55-1.44,2.31l-8.38-1.44c-.23-1.19-.33-3.37-.29-4.62,2.24-.66,2.87.91,3.03.87.49-.14.18-3.45,1.73-2.31.34.25.39,5.21,5.34,5.2Z"/>
              <path class="cls-60" d="m81.91,82.05c-.29.57-.57,1.16-.87,1.73-1.18.11-5.59-.83-6.35-1.16-.1-.04-.67-.06-1.16-.43-.06-.5.09-1.12,0-1.59l8.38,1.44Z"/>
            </g>
          </g>
          <path class="cls-70" d="m90.87,90.14c-.67,2.13-.45,4.3-2.6,5.49-.19-1.38-.09-3.01-.58-4.33.89-.3.82-.56.87-.58.52-.19,1.8-.38,2.31-.58Z"/>
          <path class="cls-67" d="m67.47,62.41c-.44.98-.7,1.79-.58,2.89.04.32.45.87.58,1.16,1.07,2.3,3.14,1.92-.58,3.18.2-.63.83-.53,1.16-1.01-.24-.73-3.77.43-6.35.14l4.33-5.92c.76-.63.82-1.41,1.44-.43Z"/>
          <g>
            <path class="cls-50" d="m46.68,87.83c1.27.17,7.52-5.6,19.21-4.33,14.51,1.57,11.62,15.15,13.72,22.24-1.33,1.25-2.7-1.27-4.19-2.02-1.68-.85-5.86-2.71-6.79-1.16-1.88-.7-10.15-.89-13.86-5.2-1.37-1.6-2.32-6.18-5.05-5.49-.32.08.57.72-.14.87-.64-.81-.99-1.92-1.3-2.02-.96-.21-1.71.67-2.46.87-1.41.37-7.56,2.01-8.09,3.03v19.21c-5.11,1.23-7.9-1.28-11.26-4.62-.76-4.18-1.54-9.93,2.02-13,1.86-1.6,7.16-3.12,7.8-3.9.89-3.33,2.68-6.14,4.33-9.1,1.93,1.37,4.06,4.11,6.07,4.62Z"/>
            <g>
              <path class="cls-32" d="m54.76,97.36l-.87.29c-2.37-2.03-2.53-2.61-4.33-4.91.71-.14-.18-.79.14-.87,2.73-.69,3.68,3.89,5.05,5.49Z"/>
              <g>
                <path class="cls-41" d="m68.92,99.09c2.68-2.18,3.56-2.81,3.75-6.35.03-.48.21-2.9-.43-2.89-.83,1.09-1.12,2.48-2.46,3.18.76-1.89,1.61-1.32.87-3.18-1.21-3.03-4.43-1.78-4.62-.29-2.4-.83-5.21-.02-7.22,1.44-.39-.24-.48-.85-.72-.87-.18-.01-2.04,1.53-3.32,1.16.11-7.51,15.51-3.88,17.19-2.6,2.2,1.69,2.43,8.04-3.03,10.4Z"/>
                <path class="cls-73" d="m71.23,94.18c-.61,1.29-1.28,2.96-2.74,3.75-4.95,2.68-8.38-1.04-10.83-.87-1.42-1.43-2.22-2.68-2.6-4.62,4.93,2.46,11.07,4.81,16.17,1.73Z"/>
                <path class="cls-83" d="m72.67,92.74c-1.52-.21-.93.35-1.44,1.44-5.1,3.08-11.24.73-16.17-1.73-.01-.06-.31.29-.29-1.16,1.28.37,3.15-1.17,3.32-1.16.24.02.34.63.72.87,3.32,2.03,6.94,4.12,10.98,2.02,1.34-.69,1.62-2.09,2.46-3.18.64-.02.46,2.41.43,2.89Z"/>
                <path class="cls-72" d="m72.67,92.74c-.19,3.54-1.08,4.17-3.75,6.35-4.18,1.81-7.94,1.34-11.26-2.02,2.45-.17,5.88,3.55,10.83.87,1.46-.79,2.13-2.46,2.74-3.75.52-1.1-.08-1.66,1.44-1.44Z"/>
                <path class="cls-40" d="m66.03,89.56c-.32,2.52,3.67,3.25,4.62.29.74,1.86-.11,1.29-.87,3.18-4.03,2.09-7.65.01-10.98-2.02,2.01-1.47,4.82-2.27,7.22-1.44Z"/>
                <path class="cls-6" d="m70.65,89.85c-.95,2.96-4.95,2.23-4.62-.29.19-1.49,3.41-2.74,4.62.29Z"/>
              </g>
            </g>
          </g>
          <path class="cls-18" d="m135.06,68.77c1.25.13,2.38.64,3.61.87.29.24.08.75.14,1.16.13.83-.85,9.52-1.16,9.96-2.61,1.17-5.64,1.46-8.09,3.03l-.58-.29c3.49-1.79,4.24-4.19,3.47-10.54-.03-.26-.71-2.87-.87-3.32-.66-1.12,2.54-.96,3.47-.87Z"/>
          <g>
            <path class="cls-83" d="m147.48,90.72c1.01.83-.63.95-.58,1.73-5.34,3.2-8.82,3.12-14.59.58.84,6.77,15.62,6.39,16.32-.29l.87.58c-.02.09.03.2,0,.29-1.32,4.2-5.48,5.76-9.53,5.78-2.2.01-3.84-.28-5.78-1.44-1.58-1.8-2.39-2.35-2.6-4.91,4.08-6.15,2.96-1.46,5.63-.29,2.57,1.12,8.46.47,10.25-2.02Z"/>
            <path class="cls-33" d="m149.5,88.12c.12.52.57,2.33.58,2.46.05,1.18-.31,1.69-.58,2.74l-.87-.58c.04-.34.09-1.26-.14-1.44-.43.62-1,.8-1.59,1.16-.05-.78,1.59-.9.58-1.73.45-.62,1.06-1.61.72-2.31l-.43.29c-2.01-4.44-5.56.04-6.07.29-2.08,1.04-8.62-.71,4.04-2.89,1.54.34,2.62.95,3.75,2.02Z"/>
            <path class="cls-43" d="m145.75,86.1c-12.66,2.18-6.13,3.92-4.04,2.89.84,3.46,5.51,2.8,6.07-.29l.43-.29c.34.7-.28,1.69-.72,2.31-1.8,2.49-7.68,3.14-10.25,2.02-2.68-1.17-1.55-5.86-5.63.29-.54-6.48,9.42-7.96,14.15-6.93Z"/>
            <path class="cls-73" d="m148.64,92.74c-.7,6.68-15.48,7.05-16.32.29,5.77,2.55,9.24,2.62,14.59-.58.59-.35,1.16-.53,1.59-1.16.23.18.18,1.11.14,1.44Z"/>
            <path class="cls-6" d="m147.77,88.7c-.55,3.09-5.23,3.75-6.07.29.51-.25,4.06-4.73,6.07-.29Z"/>
          </g>
        </g>
      </g>
    </g>
  </g>
</svg>