<?xml version="1.0" encoding="UTF-8"?>
<svg id="Layer_2" data-name="Layer 2" xmlns="http://www.w3.org/2000/svg" xmlns:xlink="http://www.w3.org/1999/xlink" viewBox="0 0 263.37 274.23">
  <defs>
    <style>
      .cls-1 {
        fill: url(#linear-gradient);
      }

      .cls-1, .cls-2, .cls-3, .cls-4, .cls-5, .cls-6, .cls-7, .cls-8, .cls-9, .cls-10, .cls-11, .cls-12, .cls-13, .cls-14, .cls-15, .cls-16, .cls-17, .cls-18, .cls-19, .cls-20, .cls-21, .cls-22, .cls-23, .cls-24, .cls-25, .cls-26, .cls-27, .cls-28, .cls-29, .cls-30, .cls-31, .cls-32, .cls-33, .cls-34, .cls-35, .cls-36, .cls-37, .cls-38, .cls-39, .cls-40, .cls-41, .cls-42, .cls-43, .cls-44, .cls-45, .cls-46, .cls-47, .cls-48, .cls-49, .cls-50, .cls-51, .cls-52, .cls-53, .cls-54, .cls-55, .cls-56, .cls-57, .cls-58, .cls-59, .cls-60, .cls-61, .cls-62 {
        stroke-width: 0px;
      }

      .cls-2 {
        fill: url(#linear-gradient-4);
      }

      .cls-3 {
        fill: url(#linear-gradient-2);
      }

      .cls-4 {
        fill: url(#linear-gradient-3);
      }

      .cls-5 {
        fill: #f9fdff;
      }

      .cls-6 {
        fill: #4b435e;
      }

      .cls-7 {
        fill: #5d4b5e;
      }

      .cls-8 {
        fill: #61913f;
      }

      .cls-9 {
        fill: #4f3a49;
      }

      .cls-10 {
        fill: #78784c;
      }

      .cls-11 {
        fill: #53130e;
      }

      .cls-12 {
        fill: #716661;
      }

      .cls-13 {
        fill: #77b054;
      }

      .cls-14 {
        fill: #507d54;
      }

      .cls-15 {
        fill: #514a44;
      }

      .cls-16 {
        fill: #261f31;
      }

      .cls-17 {
        fill: #3a5427;
      }

      .cls-18 {
        fill: #565526;
      }

      .cls-19 {
        fill: #2b2520;
      }

      .cls-20 {
        fill: #635851;
      }

      .cls-21 {
        fill: #58bae1;
      }

      .cls-22 {
        fill: #637633;
      }

      .cls-23 {
        fill: #55692f;
      }

      .cls-24 {
        fill: #898b5f;
      }

      .cls-25 {
        fill: #727181;
      }

      .cls-26 {
        fill: #899299;
      }

      .cls-27 {
        fill: #5a7836;
      }

      .cls-28 {
        fill: #3c2b3c;
      }

      .cls-29 {
        fill: #175770;
      }

      .cls-30 {
        fill: #3d823e;
      }

      .cls-31 {
        fill: #363144;
      }

      .cls-32 {
        fill: #436a71;
      }

      .cls-33 {
        fill: #049dbc;
      }

      .cls-34 {
        fill: #413932;
      }

      .cls-35 {
        fill: #19b0aa;
      }

      .cls-36 {
        fill: #225e5c;
      }

      .cls-37 {
        fill: #1facc5;
      }

      .cls-38 {
        fill: #c3c2ba;
      }

      .cls-39 {
        fill: #d1e5ed;
      }

      .cls-40 {
        fill: #acb091;
      }

      .cls-41 {
        fill: #dfdfde;
      }

      .cls-42 {
        fill: #bee5ed;
      }

      .cls-43 {
        fill: #becfd0;
      }

      .cls-44 {
        fill: #a61f22;
      }

      .cls-45 {
        fill: #a7c8ca;
      }

      .cls-46 {
        fill: #cdd3db;
      }

      .cls-47 {
        fill: #89c0ad;
      }

      .cls-48 {
        fill: #9d9792;
      }

      .cls-49 {
        fill: #9ea07a;
      }

      .cls-50 {
        fill: #a19e92;
      }

      .cls-51 {
        fill: #8f8885;
      }

      .cls-52 {
        fill: #303760;
      }

      .cls-53 {
        fill: #666737;
      }

      .cls-54 {
        fill: #326933;
      }

      .cls-55 {
        fill: #91bcba;
      }

      .cls-56 {
        fill: #86c9d0;
      }

      .cls-57 {
        fill: #7f1517;
      }

      .cls-58 {
        fill: #7e7571;
      }

      .cls-59 {
        fill: #e7edf8;
      }

      .cls-60 {
        fill: #e6e9d9;
      }

      .cls-61 {
        fill: #018bab;
      }

      .cls-62 {
        fill: #65c7c9;
      }
    </style>
    <linearGradient id="linear-gradient" x1="181.96" y1="31.54" x2="97.89" y2="192.83" gradientUnits="userSpaceOnUse">
      <stop offset=".05" stop-color="#7ca370"/>
      <stop offset=".41" stop-color="#a6c1b2"/>
      <stop offset="1" stop-color="#d9dee4"/>
    </linearGradient>
    <linearGradient id="linear-gradient-2" x1="184.6" y1="137.92" x2="170.94" y2="137.92" gradientUnits="userSpaceOnUse">
      <stop offset="0" stop-color="#89868b"/>
      <stop offset="1" stop-color="#d3d6db"/>
    </linearGradient>
    <linearGradient id="linear-gradient-3" x1="260.92" y1="155.78" x2="252.18" y2="156.8" gradientUnits="userSpaceOnUse">
      <stop offset="0" stop-color="#b1adac"/>
      <stop offset="1" stop-color="#8e847f"/>
    </linearGradient>
    <linearGradient id="linear-gradient-4" x1="132.76" y1="202.95" x2="132.91" y2="212.66" gradientUnits="userSpaceOnUse">
      <stop offset="0" stop-color="#7bb7b8"/>
      <stop offset="1" stop-color="#a7cccc"/>
    </linearGradient>
  </defs>
  <g id="Layer_1-2" data-name="Layer 1">
    <g>
      <g>
        <path class="cls-59" d="m13.57,153.07c-.12.19-.38.91-.46.91-.6.04-2.94-4.62-1.37,1.37.01.24-.61.12-.61.15-1.84-1.68-2.11-.05-3.04-.61.33-1.61-.62-4.68-.61-5.77,0-.03.6.1.61-.15.16-12.87-1.18-25.98,1.67-38.72l4.4,4.71c-.44,7,.58,34.64,0,37.35-.01.05-.46.53-.61.76Z"/>
        <path class="cls-59" d="m19.04,130.9l4.86,5.31.61,11.54c.96,1.02.6-.85,1.52.46-.21,0-.55-.07-.61.15-.54,2.12-1.72,11.68-3.8,10.78-1.04-.45.51-4.22-1.37-3.04-1.38.87-1.17,2.05-1.37,2.13-2.31-1.96-2.11-2.82-5.01-1.82,0-.61-.02-1.22,0-1.82.57,2.43,1.23.17,2.58.61.13.04,1.52,2.02,2.13,1.82,1.12-.36-.12-4.84-.15-5.92-.09-2.65-.53-18.78-.3-19.74.06-.25.6-.56.91-.46Z"/>
      </g>
      <g>
        <path class="cls-1" d="m129.57,10.05c.28.04.41-.46.76-.3,3.88,1.76,7.96,2.65,11.99,3.64.6.15,1.78-.16,2.28,0,.36.12,2.42,2.66,2.73,2.73,3.1.74,5.48-3.55,14.73,1.82.88.51,2.52,2.51,3.49,3.34,7.04-.05,9.82,3.73,14.27,8.5,7.15-.89,8.45,1.86,14.27,4.55l1.97,1.67c.23,3.06,2.73,3.92,4.55,5.62,1.34,1.24,2.77,2.4,3.8,3.95,7.03,1.41,13.45,2.27,18.07,8.2.38.49.58.57.61.61,2.3,3.34,1.9,3.06,1.82,7.74.17.43,2.52,1.29,3.34,1.97.86.71,1.66,1.46,2.43,2.28,1.15,18.95,3.45,13.96,7.74,17.76.67.6,1.09,1.31,1.67,1.97l.3,9.41c2.44,2.51,4.52,3.74,5.16,7.44.6,3.45-.45,6.46-.3,9.87,2.54,7.55.57,9.55,7.29,16.55-2.79,2.67-8.07,10.27-8.65,10.63-.18.11-3.48.69-4.1,1.06l3.64,4.25c-4.86,4.34-5.72,1.96-7.14,2.28-.47.1-7.03,5.53-7.89,5.47-.34-.03-1.13-1.22-1.21-1.21-.81.05-.1,1.61-.46,2.28-.34.63-8.57,10.6-9.26,10.78-2.65.7-3.11-4.35-6.38,3.34-2.53-.38-4.26.74-7.29.91-.85.05.83.71-1.97-.3-.03-.01.12-.52-.15-.61-.73-.24-10.84.86-13.06.3-.5-.13-.41-.89-.46-.91.76-13.32-2.45-52.72-1.82-60.43.28-3.37,1.15-1.91,1.52-3.04.48-1.46-1.12-.59-1.21-5.47-.03-1.68.27-2.74,0-4.55-.19-1.28,1.6-1.06-2.73-3.04-.07-.03-.52-.75-1.52-.61.01-.1,0-.2,0-.3.01-.17.53-1.32.3-3.49-.24-.16-.89-.41-.91-.46-.11-.22.11-.93,0-1.06-2.97-3.7-9.37.64-7.14,1.67.25.11,1.13-.09,1.67,0v2.73c-.51.09-5.13,1.85-5.31,2.13-.43.65-.14,2.31-.15,2.43-.14,1.15.12,2.48,0,3.64,0,.03-.59-.1-.61.15-.09,1.13-.23,7.27.15,7.44.27-.23-.01-.51.46-.61-.09.73.12.55.61.61.04.44-.55.21-.61.46-.31,1.41-.4,23.8-.61,28.85-.45,11.14-1.52,22.26-1.82,33.4-.41.96-5.42,1.35-6.68,1.67-5.98-1.02-4.49-3.01-5.31-3.34-.62-.24-4.31,1.23-12.15-4.55-4.48.51-4.15-.73-6.83-2.43-2.85-1.8-5.48-3.99-8.35-5.77-1.42-2.37-3.38-3.96-4.71-6.38-.75-1.35-2.87-6-2.13-7.14-1.96-.75-5.44-4.83-7.29-3.19l-2.88-5.16c-1.37.13-2.73.46-4.1.61-.91.1-1.82.2-2.73.3-2.16,0-2.82,1.67-3.04,1.82-1.54,1.06-2.58,2.33-2.73,2.43-.03.02-.14,0-.61.3-1.07.71-1.98,1.42-2.13,1.52-.11.07-1.15.42-2.43,1.21-.63.39-.73.9-1.52.3-.26-.36-.23-.56-.3-.91-1.04-4.68-2.09-2.37-7.74-2.13-.24.01,0,.62-.46.61-.34-.01-5.04-1.92-6.53-1.82-2.47,14.46-2.74,7.13-4.55,6.98-2.17-.18-4.03,8.82-10.63,6.38-.54,1.14-.98,4.16-1.37,4.71-.25.35-6.73,4.57-7.14,4.71-1.13.4-5.67-.32-7.59,2.43-2.47-.91-4.11.83-4.55.91-1.47.26-1.34-2.1-6.53,1.82-.26-.66-.38-1.31-.61-1.97-.55-.54-.86.43-.91.46-.86.39-1.82,1.1-2.43,1.82-4.01-4.65-3.4-13.16-5.47-16.09-.92-1.31-.56.57-1.52-.46l-.61-11.54-4.86-5.31c-.58-1.91.58-8.14.3-10.78-.02-.21-1.07-.75-.91-1.21.14-.41,2.63.64,1.52-7.59,6.75-4.33,2.59-4.78,3.34-6.98.13-.39,5.37-4.66,6.07-5.47-1.9-1.17,2.55-10.6,3.04-10.93,1.58-1.06,4.19,3.33,2.43-4.25.21-.36,2.43,1.19,2.88,1.06.39-.11,3.76-6.73,3.8-7.14.03-.33-1.95-5.2-1.82-6.38.79-.79,7.15-4.15,7.29-4.55.74-2.17-3.68-3.71,3.04-4.86-2.3-4.32,2.03-3.28,3.19-4.4.42-.41.74-3.98,6.98-9.11.05-.04.78.66,1.21.3,2.11-1.72,13.62-11.57,15.18-11.84,1.08-.19,5.72,1.83,6.98,1.52,1.76-.44,5.51-9.76,8.65-7.29.64.74,2.42,4.43,3.19,4.55.17.03,3.11-.91,3.19-1.06.49-.92-.83-4.76-.15-5.31,1.69.18,4.37,1.19,4.71,1.21,2.57.2,3.4-2.04,4.1-2.13.94-.12,2.98,2.91,9.26.46-10.86-3.63-4.04-3.1-4.25-5.16-.04-.38-4.26-3.66-5.47-5.31-.07-.1-.96-1.68-1.21-2.13-.86-1.49-1.33-3.32-2.43-4.71l.46-.46c2.44-.62,8.58-.4,9.41-.61.75-.19,1.51-1.44,2.28-1.82,3.99,1.58,9.75.91,14.27,1.52Z"/>
        <g>
          <g>
            <path class="cls-18" d="m246.77,69.26c.37.76.48,3.63.61,4.86.34,3.21.13,6.64.61,9.87.67,4.5,2.11,8.92,3.04,13.36.07.32-.49.65-.3,1.52.85,4.08,3.74,9.75,3.04,13.97,3.47,4.27,1.51,9.85,1.82,14.88.22,2.65,1.04,5.39.91,8.05-.85-.62-2.25-.12-2.58-.3-.49-.27.15-.92.15-1.52,1.67-1.24.17-3.9,0-5.92-.35-.33-1.35,1.21-1.52,1.37-6.72-7-4.75-9-7.29-16.55-.15-3.41.9-6.42.3-9.87,2.46.72.04-4-.3-6.22-.94-6.14-.63-11.54-3.34-17.61-.83-1.87-8.06-12.57-9.41-13.66-1.17-.95-2.81-2.18-4.25-1.37-.82-.68-3.18-1.54-3.34-1.97.08-4.68.48-4.4-1.82-7.74,1.22-1.51,2.15,0,2.28,0,.28.02,0-.8.3-.91.56-.2,6.46,8.16,8.35,8.35.57,1.72,9.29,12.15,10.63,10.93.57-1.35.8-2.87,2.13-3.49Z"/>
            <path class="cls-53" d="m174.51,20.07c1.2.42,2.44.77,3.64,1.21,11.46,4.2,25.25,8.64,34.16,17,.55-1.31.08.09,1.21.91.57-1.76,2.71,1.36,3.64,1.52,1.02.18-.5-1.46.76-1.21,4.06,6.96,11.24,15.29,17.31,20.65,2.15,1.9,4.24,4.24,6.98,5.16l4.55,3.95c-1.33.62-1.56,2.14-2.13,3.49-1.34,1.22-10.06-9.22-10.63-10.93-1.89-.19-7.79-8.55-8.35-8.35-.3.11-.03.93-.3.91-.13,0-1.06-1.51-2.28,0-.02-.04-.23-.12-.61-.61l-.3-3.19c-4.69-4.01-7.01-7.01-12.91-9.87-3.19-1.55-5.05-2-8.2-3.04-4.01,3.02-.85-.07-.46,3.95-1.83-1.69-4.32-2.56-4.55-5.62l-1.97-1.67c-5.82-2.7-7.13-5.44-14.27-4.55-4.45-4.77-7.24-8.55-14.27-8.5-.97-.83-2.61-2.83-3.49-3.34,1.72-1.39,8.01,3.47,12.45,2.13Z"/>
            <path class="cls-18" d="m263.17,140.62l-7.89.3v-.3c.45-1.3,1.15-3.57,1.21-4.86.13-2.66-.69-5.4-.91-8.05-.31-5.03,1.65-10.6-1.82-14.88.7-4.22-2.18-9.89-3.04-13.97-.18-.87.37-1.2.3-1.52-.93-4.44-2.37-8.86-3.04-13.36-.48-3.23-.27-6.66-.61-9.87,4.8,3.65,4.75,10.19,6.98,15.33-1.13,12.4,5.04,11.22,4.86,18.22,5.23,7.4,4.08,23.52,3.95,32.95Z"/>
            <path class="cls-24" d="m167.52,7.02c1.27.07,2.78.11,2.73-.3,3.19,1.57,5.63,5.6,6.22,5.77,2.81-.62,5.04.8,7.59,1.52,1.68.47,3.63-.03,4.71,1.21-1.59.8,0,1.85-.61,2.58-7.79,3.18-19.7-7.44-20.8-7.14-.12.03-1.36,1.85-1.37,1.97-.15,1.56,12.89,6.17,14.88,6.83l1.37,1.82c-1.27-.08-3.97-.78-4.1,0-1.2-.44-2.45-.79-3.64-1.21-5.42-1.92-10.65-4.4-16.25-5.77-7.36,1.43-9.88-3.82-13.97-1.21-.52-1.33-1.43-.37-1.97.3-4.03-.99-8.12-1.88-11.99-3.64-.35-.15-.48.34-.76.3.03-1.07-1.2-.99-1.52-2.13-.1-.37.06-1.18,0-1.82,3.1.22,17.18,2.06,18.07,2.43.32.13,4.29,3.95,5.16,4.55,4.21-2.23,14.02-3.66,16.25-6.07Z"/>
            <path class="cls-10" d="m201.23,21.89c3.65,1.61,4.65,5.54,7.14,8.5,2.23.19,4.37.61,6.53,1.21-.45,2.21,1.77,5.73,3.04,7.89-1.26-.25.26,1.39-.76,1.21-.93-.16-3.08-3.28-3.64-1.52-1.13-.82-.66-2.22-1.21-.91-8.91-8.37-22.7-12.8-34.16-17,.12-.78,2.83-.08,4.1,0l-1.37-1.82c3.52,1.18,7.11,2.74,10.78,3.34,1.22.2,9.3.86,9.56.46.08-.12-.05-.84,0-1.37Z"/>
            <path class="cls-18" d="m234.63,53.17c-2.04.31,1.53,5.07.61,6.98-6.07-5.36-13.25-13.69-17.31-20.65-1.26-2.17-3.49-5.69-3.04-7.89.38.11,1.51-.07,2.88.61.81.4,11.37,11.51,11.69,12.3,1.48,3.6-2.01.89,5.16,8.65Z"/>
            <path class="cls-49" d="m152.04,6.1c.2,0,.41-.01.61,0,.85,2.58,9.38.33,10.48.3.22,0,2.3.49,4.4.61-2.22,2.42-12.04,3.85-16.25,6.07-.88-.6-4.84-4.42-5.16-4.55-.88-.37-14.96-2.21-18.07-2.43-.07-.72-.04-1.7,0-2.43,5.29-.09,7.07,1,8.35,1.21,4.5.75,15.81,3.18,15.64,1.21Z"/>
            <path class="cls-53" d="m188.78,15.21c.61.7.51,2.18,1.67,3.04,1.22.91,8.79,2.77,10.78,3.64-.05.52.08,1.24,0,1.37-.27.41-8.34-.26-9.56-.46-3.67-.6-7.26-2.16-10.78-3.34-1.98-.67-15.03-5.28-14.88-6.83.01-.12,1.25-1.94,1.37-1.97,1.1-.3,13.01,10.32,20.8,7.14.6-.73-.98-1.78.61-2.58Z"/>
            <path class="cls-40" d="m131.39.64c9.16.15,12.48,1.69,20.65,5.47.17,1.96-11.14-.47-15.64-1.21-1.28-.21-3.06-1.31-8.35-1.21.08-1.4-.32-2.8.46-3.34.94.45,1.9.29,2.88.3Z"/>
            <path class="cls-18" d="m234.63,53.17c3.34,3.61,8.89,6.52,7.59,12.15-2.74-.92-4.84-3.27-6.98-5.16.92-1.91-2.65-6.68-.61-6.98Z"/>
            <path class="cls-49" d="m170.25,6.71c.05.42-1.46.37-2.73.3-2.1-.12-4.18-.61-4.4-.61-1.1.03-9.62,2.27-10.48-.3,2.51.16,9.82-3.23,17.61.61Z"/>
            <path class="cls-49" d="m128.05,7.93c.31,1.14,1.55,1.06,1.52,2.13-4.52-.61-10.28.06-14.27-1.52,2.74-1.37,9.15-.23,12.75-.61Z"/>
            <path class="cls-18" d="m245.56,102.97c-.64-3.7-2.72-4.93-5.16-7.44l-.3-9.41c-.58-.66-1-1.38-1.67-1.97-4.29-3.81-6.6,1.18-7.74-17.76-.76-.81-1.57-1.56-2.43-2.28,1.44-.82,3.08.41,4.25,1.37,1.35,1.1,8.58,11.79,9.41,13.66,2.71,6.07,2.4,11.47,3.34,17.61.34,2.22,2.76,6.94.3,6.22Z"/>
            <path class="cls-18" d="m222.48,53.78c-4.62-5.93-11.04-6.79-18.07-8.2-1.02-1.55-2.46-2.71-3.8-3.95-.39-4.02-3.55-.92.46-3.95,3.14,1.04,5.01,1.49,8.2,3.04,5.9,2.86,8.22,5.86,12.91,9.87l.3,3.19Z"/>
            <path class="cls-10" d="m174.51,20.07c-4.44,1.34-10.73-3.52-12.45-2.13-9.25-5.37-11.62-1.08-14.73-1.82-.31-.08-2.37-2.62-2.73-2.73-.49-.16-1.68.15-2.28,0,.54-.67,1.45-1.63,1.97-.3,4.09-2.6,6.6,2.64,13.97,1.21,5.6,1.37,10.83,3.85,16.25,5.77Z"/>
          </g>
          <g>
            <path class="cls-46" d="m106.79,18.25c-1.41,2.87-5.91,10.83-3.64,12.15-.34-.03-3.02-1.04-4.71-1.21-.68.55.64,4.4.15,5.31-.08.15-3.02,1.09-3.19,1.06-.77-.13-2.55-3.82-3.19-4.55-1.03-1.18-1.66-.15-1.82-1.06-.07-.41,3.85-6.09,3.95-7.29,3.24-2.74,11.86-4.27,11.23-6.53.26.44,1.14,2.03,1.21,2.13Z"/>
            <path class="cls-59" d="m103.15,30.4c-2.26-1.32,2.23-9.28,3.64-12.15,1.21,1.66,5.43,4.93,5.47,5.31.21,2.06-6.61,1.53,4.25,5.16-6.28,2.45-8.33-.57-9.26-.46-.7.09-1.53,2.33-4.1,2.13Z"/>
            <g>
              <path class="cls-59" d="m131.39.64c-.99-.02-1.95.15-2.88-.3-.78.54-.37,1.94-.46,3.34-.04.73-.07,1.71,0,2.43.06.64-.1,1.46,0,1.82-3.61.37-10.01-.77-12.75.61-.77.38-1.53,1.64-2.28,1.82-.83.21-6.98-.01-9.41.61l-.46.46c1.1,1.38,1.56,3.22,2.43,4.71.63,2.26-7.99,3.79-11.23,6.53-.09,1.2-4.02,6.88-3.95,7.29.16.91.79-.12,1.82,1.06-3.15-2.48-6.89,6.85-8.65,7.29-1.27.32-5.9-1.71-6.98-1.52-1.56.27-13.07,10.12-15.18,11.84-.43.35-1.17-.34-1.21-.3-6.24,5.13-6.57,8.7-6.98,9.11-1.16,1.13-5.49.08-3.19,4.4-6.72,1.15-2.3,2.69-3.04,4.86-.14.41-6.5,3.76-7.29,4.55-.13,1.18,1.85,6.05,1.82,6.38-.04.4-3.41,7.03-3.8,7.14-.45.13-2.67-1.42-2.88-1.06,1.76,7.58-.85,3.2-2.43,4.25-.49.33-4.93,9.76-3.04,10.93-.7.8-5.94,5.08-6.07,5.47-.75,2.2,3.41,2.66-3.34,6.98,1.11,8.23-1.38,7.18-1.52,7.59-.16.47.89,1.01.91,1.21.28,2.64-.88,8.86-.3,10.78-.32-.1-.85.21-.91.46-.22.96.22,17.08.3,19.74.04,1.08,1.27,5.56.15,5.92-.6.19-1.99-1.78-2.13-1.82-1.35-.43-2.01,1.82-2.58-.61.02-.7.74-1.14-.3-1.52.15-.23.6-.71.61-.76.58-2.71-.44-30.35,0-37.35l-4.4-4.71c-2.85,12.74-1.51,25.84-1.67,38.72,0,.25-.61.12-.61.15-1.4-2.55-1.03,6.61-2.88,6.07-.26-.08-.12-.6-.15-.61-.04-.01-.3-.67-.46-.61-.84.34-1.25,7.28-3.8,2.58.89-12.8-.77-25.78,0-38.56.59-9.72,1.49-11.07,7.29-19.13-.04-4.55,1.81-9.28,2.13-13.97.71-2.12,5.59-7.15,5.77-7.59.57-1.4.74-7.53.91-7.89.34-.74,1.29-.14,1.82-.91.66-.95,1.34-5.12,1.52-5.47.33-.63,7.18-7.3,9.41-10.63,5.57-8.31,3.37-12.55,19.59-20.8,6.62-11.67,11.48-9.01,14.58-10.63,3.09-1.62,5.9-10.23,15.49-9.41,2.25-7.4,5.19-.29,10.63-4.55,1.49,1.48,8.66,2.47,10.02,2.13.6-.15,8.42-6.55,10.02-7.29,4.83-.5,9.75-.45,14.58-.91,2.3-.22,6.97-1.81,7.44-.3Z"/>
              <path class="cls-46" d="m19.8,93.25c2.09-.91-.92,6.14-.76,8.65-.11,1.18-4.14,4.21-5.01,3.8-1.69-.81,5.47-10.56,5.77-12.45Z"/>
              <path class="cls-46" d="m19.49,87.79c2.67-.79,6.24,1.62-.61,3.95-1.53.09-.25-2.26-2.88-1.37,1.86-1.05,3.27-2.51,3.49-2.58Z"/>
              <path class="cls-46" d="m32.85,74.43c2.21,4.86.27,4.99-2.73,7.89-.72-.55,2.11-6.86,2.73-7.89Z"/>
              <g>
                <path class="cls-46" d="m94.49,12.78c2.99-.46-.48,2.77-3.04,6.07l.91-3.64c-14.49.33-1.97,1.82-1.97,5.01,0,.49-5.77,7.28-6.22,7.44-2.71.91-3.65-5.28-3.8-5.62-.21-.47-1.33.7-1.21-.3.02-.17,1.82-2.98,1.97-2.88.49.3-.93,3.87,3.8-2.28-.86-1-1.85.72-1.97.76-.62.18-.88-.42-1.21-.3-.66.23-7.54,4.18-7.74,3.8,7.5-8.63,7.89-5.09,17.16-7.14,1.52.78,2.6-.8,3.34-.91Z"/>
                <path class="cls-59" d="m81.44,15.52c.26-.15.76.4.76.46-.06.7-1.72.1-.76-.46Z"/>
              </g>
            </g>
          </g>
        </g>
      </g>
      <g>
        <path class="cls-17" d="m13.88,164.3c.83,2.88,4.92.66,6.53.91,1.54.24.71,1.53,2.88.61-.26,1.55.6.24,1.97.61,1.64.44,11.19,4.32,11.84,4.25.39-.04.23-1.09.15-1.52.37-.03.27.25.3.3.27.45.57.97.61,1.52v.3c-4.49-1.19-8.96-2.32-13.21-4.25-1.62-.1-6.3,2.36-7.29,2.43-.3.02-2.05-.61-2.28-.61-1.5,0-1.83-.66-2.58-.61-2.14,1.63-6.6,1.4-9.26.91-.09-.45-.53-1.38-.61-1.82,2.46,2.74,3.88.92,7.14,1.21,2.16-1.55,1.84-5.35,3.8-4.25Z"/>
        <path class="cls-23" d="m20.25,156.11c1.12,2.13.98,4.88,2.13,6.38l.61-2.43c2.53-2.18,4.53-.95,5.01-2.13,2.25,2.29-2.79,7.08-4.71,7.89-2.18.93-1.35-.37-2.88-.61-1.61-.25-5.7,1.97-6.53-.91-.15-.52-.02-6.26,0-7.89,2.9-1,2.7-.14,5.01,1.82.2-.08-.01-1.26,1.37-2.13Z"/>
        <g>
          <path class="cls-23" d="m7.5,149.12c-.02,1.09.94,4.16.61,5.77-1.96,3.12-7.1,8.58-.76,10.32,8.29,2.28,3.97-7.95,3.8-9.72,0-.03.62.09.61-.15-1.57-5.98.76-1.33,1.37-1.37.07,0,.34-.72.46-.91,1.05.38.32.82.3,1.52-.02.61,0,1.22,0,1.82-.02,1.63-.15,7.38,0,7.89-1.96-1.1-1.64,2.7-3.8,4.25-3.26-.29-4.68,1.52-7.14-1.21-1.08-5.93-1.71-7.21,1.52-12.75.03.01-.11.53.15.61,1.86.54,1.49-8.62,2.88-6.07Z"/>
          <path class="cls-22" d="m11.14,155.5c.18,1.77,4.5,12-3.8,9.72-6.34-1.74-1.2-7.2.76-10.32.92.56,1.2-1.07,3.04.61Z"/>
        </g>
        <g>
          <path class="cls-23" d="m26.02,148.21c2.06,2.93,1.45,11.45,5.47,16.09,4.08,4.73,4.97,2.22,2.43-1.82.05-.02.36-.99.91-.46.23.66.34,1.31.61,1.97.28.7,1.77,4.89,1.82,5.16.08.42.23,1.48-.15,1.52-.65.07-10.2-3.81-11.84-4.25-1.37-.37-2.24.94-1.97-.61,1.91-.81,6.96-5.61,4.71-7.89-.48,1.18-2.48-.05-5.01,2.13-.25.22-1.47-.84-.61,2.43-1.15-1.5-1-4.25-2.13-6.38,1.88-1.18.33,2.59,1.37,3.04,2.08.9,3.26-8.66,3.8-10.78.06-.23.4-.15.61-.15Z"/>
          <path class="cls-23" d="m31.49,164.3c.61-.72,1.57-1.43,2.43-1.82,2.54,4.04,1.65,6.55-2.43,1.82Z"/>
          <path class="cls-60" d="m22.99,160.05l-.61,2.43c-.86-3.27.36-2.21.61-2.43Z"/>
        </g>
      </g>
      <g>
        <path class="cls-59" d="m182.4,90.22c0,.1.01.2,0,.3-.02.18-.56,1.72-.61,3.64h-10.93c.01-.12-.28-1.78.15-2.43.18-.27,4.8-2.04,5.31-2.13.04,0,.21.05.91,0,.22-.02.25.3.91.3.7,0,.83.16,1.06-.61.11.85,1.59.62,3.19.91Z"/>
        <path class="cls-5" d="m170.86,97.81c-.7,1.41,3.34.87,7.29.91v3.64c-.37.2-1.5.68-1.52.76-.16.77,1.13.09.91,1.06-2.81.08-3.73-.03-6.68.61-.47.1-.19.38-.46.61-.38-.17-.24-6.31-.15-7.44.02-.25.6-.12.61-.15Z"/>
        <path class="cls-26" d="m184.22,98.72c.63,5.21,2.79,6.48,2.13,0h.3c.1,4.88,1.69,4.01,1.21,5.47h-6.98c-1.11.02-2.23-.03-3.34,0,.22-.97-1.07-.3-.91-1.06.02-.08,1.14-.56,1.52-.76,6.03-3.25,2.81,1.22,3.8,1.21-.14-2.42,1.12-2.97,1.37-4.86h.91Z"/>
        <path class="cls-44" d="m176.02,94.16c1.37,3.1-.14,4.16,3.64,4.25v.3c-.51,0-1.01,0-1.52,0-3.95-.04-7.98.5-7.29-.91.12-1.16-.14-2.5,0-3.64h5.16Z"/>
        <path class="cls-11" d="m181.79,94.16h4.86c.27,1.82-.03,2.88,0,4.55h-6.98v-.3c3.85.1,4.77-2.87,1.52-4.25h.61Z"/>
        <path class="cls-59" d="m181.79,86.27c-.13.8-2.48.58-3.64.61-.81.02-.57.31-.61.3-.06,0-.37-.17-1.21-.3-.54-.09-1.42.11-1.67,0-2.24-1.03,4.16-5.37,7.14-1.67.11.14-.11.84,0,1.06Z"/>
        <path class="cls-27" d="m182.4,90.22c-1.59-.29-3.08-.06-3.19-.91-.23.77-.37.61-1.06.61v-3.04c1.16-.03,3.51.19,3.64-.61.02.05.67.3.91.46.23,2.17-.29,3.32-.3,3.49Z"/>
        <g>
          <path class="cls-3" d="m180.58,105.7c2.02.2,3.35.03,5.77,1.52-.63,7.71,2.59,47.1,1.82,60.43-1.55-.6-3.23-2.02-4.86-1.21-.88.43-5.7,1.01-5.92,1.21-.37.34,2.08,5.72-3.95.61-.34-.1-3.85,1.07-4.71,1.21-3.22.53-3.72.86-6.98.3,1.26-.32,6.27-.71,6.68-1.67.3-11.15,1.38-22.26,1.82-33.4.2-5.05.3-27.44.61-28.85.05-.25.65-.01.61-.46,2.02.26,6.45.03,9.11.3Z"/>
          <path class="cls-36" d="m187.87,104.18c-.37,1.13-1.24-.33-1.52,3.04-2.41-1.49-3.75-1.31-5.77-1.52l.3-1.52h6.98Z"/>
          <path class="cls-32" d="m177.54,104.18c1.11-.03,2.23.02,3.34,0l-.3,1.52c-2.66-.27-7.09-.05-9.11-.3-.48-.06-.69.12-.61-.61,2.95-.64,3.87-.53,6.68-.61Z"/>
        </g>
        <path class="cls-26" d="m186.65,94.16h-2.43c-.48-.86-1.28-2.6-.3-3.04,4.33,1.97,2.54,1.75,2.73,3.04Z"/>
        <path class="cls-26" d="m183.92,91.13c-.98.43-.17,2.17.3,3.04h-2.43c.04-1.93.59-3.46.61-3.64,1-.15,1.44.57,1.52.61Z"/>
        <path class="cls-14" d="m177.54,87.18l-.3,2.43c-.7.05-.87,0-.91,0v-2.73c.85.14,1.15.3,1.21.3Z"/>
        <path class="cls-57" d="m181.19,94.16c3.25,1.38,2.34,4.35-1.52,4.25-3.79-.1-2.28-1.15-3.64-4.25h5.16Z"/>
        <path class="cls-47" d="m178.15,86.87v3.04c-.66,0-.69-.32-.91-.3l.3-2.43s-.2-.28.61-.3Z"/>
        <path class="cls-46" d="m179.67,98.72h3.64c-.25,1.89-1.51,2.44-1.37,4.86-.99,0,2.23-4.47-3.8-1.21v-3.64c.51,0,1.01,0,1.52,0Z"/>
        <path class="cls-25" d="m186.35,98.72c.66,6.48-1.5,5.21-2.13,0h2.13Z"/>
      </g>
      <g>
        <path class="cls-7" d="m63.37,165.22l-7.44,6.38-17.76-.61c-.03-.55-.34-1.07-.61-1.52,1.99-.63,4.02-1.42,6.07-1.82,2.38-.47,17.26-2.87,18.98-3.04,1.11-.11.71.61.76.61Z"/>
        <path class="cls-9" d="m105.27,132.73c.87,9.3-.5,18.71,1.06,27.94,8.38,1.96,16.13,5.95,9.56-.15-1.95-4.67,7.7.94,9.56,1.97,2.75.26,18.13,6.13,19.13,6.07.62-.03.46-.25.46-.91,1.98,1.2,4.15,2.18,6.07,3.49-7.61,1.65-17.64-3.72-27.94-3.49-.46.01-1.14-.5-2.28-.3-.63.43-.41.9-.46.91-2.87.53-5.61.72-8.5.91-5.44-8.38-3.5,2.37-9.26-.91-2.07-1.18-1.9-3.72-3.49-4.25-.47-.16-2.65.44-3.34.61,6.87-4.44-9.21.06-9.41-.76l13.06-7.59-.61-18.98c.46-.3.58-.28.61-.3.73,1.15.29,2.86,1.52,2.73-.25,1.37.08,6.6.3,8.35.11.85,1.52,8.1,1.82,6.38.15-.85-.52-14.52-.61-17.16.08-.16,1.72-.06-.3-2.73.22-.15.88-1.82,3.04-1.82Z"/>
        <path class="cls-28" d="m108.01,132.42c-.3,5.98-2.69,15.36,0,8.65.8,3.04,2.89,14.76,4.25,11.84l1.82-14.27c1.23-.9.84-1.61.91-1.67,1.85-1.64,5.33,2.43,7.29,3.19-.74,1.14,1.38,5.78,2.13,7.14-1.77,3.22-7.79.63-7.59,4.1,6.43,3.51,13.13,6.75,19.43,10.48,3,1.77,5.81,3.95,8.81,5.77,0,.66.17.88-.46.91-1,.06-16.38-5.81-19.13-6.07-1.86-1.03-11.52-6.65-9.56-1.97,6.57,6.1-1.18,2.12-9.56.15-1.56-9.23-.19-18.64-1.06-27.94.91-.11,1.82-.2,2.73-.3Z"/>
        <path class="cls-28" d="m161.75,169.77c-17.1,4.28-30.66,2.42-47.98,3.04-.33-1.25-1.13-2.58-1.82-3.64,2.89-.2,5.63-.39,8.5-.91,3.7,4.68,3.2,3.61,9.26,3.64l-6.53-4.25c10.3-.22,20.33,5.14,27.94,3.49-1.92-1.32-4.09-2.29-6.07-3.49-3-1.82-5.81-4-8.81-5.77.33-1.5,2.2-.13,1.21-2.43,2.68,1.7,2.35,2.94,6.83,2.43,7.84,5.79,11.53,4.31,12.15,4.55.83.33-.67,2.32,5.31,3.34Z"/>
        <path class="cls-9" d="m114.99,136.98c-.07.06.32.77-.91,1.67l-1.82,14.27c-1.36,2.92-3.45-8.8-4.25-11.84-2.69,6.7-.3-2.67,0-8.65,1.37-.15,2.73-.47,4.1-.61l2.88,5.16Z"/>
        <path class="cls-16" d="m137.46,159.45c.99,2.3-.89.93-1.21,2.43-6.3-3.73-13-6.97-19.43-10.48-.2-3.47,5.82-.87,7.59-4.1,1.33,2.41,3.28,4.01,4.71,6.38,2.87,1.78,5.5,3.97,8.35,5.77Z"/>
        <path class="cls-28" d="m96.77,138.8l-.61,12.6-3.49,3.49c.28-3.37.58-6.84,1.06-10.17.34-2.33,1.43-4.51.61-4.71,1.28-.8,2.31-1.14,2.43-1.21Z"/>
        <g>
          <path class="cls-52" d="m84.32,137.89l1.21,6.98c-.52.75-.53.68-1.21,1.21-.62.49-3.43,2.06-4.55,2.73-2.24,1.33-5.18,2.63-7.59,3.95-9.42,5.13-19.25,9.5-28.54,14.88-2.05.4-4.08,1.2-6.07,1.82-.03-.05.07-.34-.3-.3-.05-.27-1.54-4.46-1.82-5.16,5.18-3.92,5.06-1.56,6.53-1.82.44-.08,2.09-1.83,4.55-.91,1.92-2.75,6.46-2.03,7.59-2.43.4-.14,6.89-4.36,7.14-4.71.39-.55.83-3.57,1.37-4.71,6.6,2.45,8.45-6.56,10.63-6.38,1.81.15,2.08,7.47,4.55-6.98,1.49-.1,6.19,1.81,6.53,1.82Z"/>
          <path class="cls-52" d="m92.52,139.41c.08.35.04.55.3.91-.88,1.49-7.08,5.08-6.68,3.95.72-4.39,2.64-10.96,6.38-4.86Z"/>
        </g>
        <path class="cls-41" d="m92.52,139.41c-3.73-6.1-5.66.47-6.38,4.86-.22.08-.49.44-.61.61l-1.21-6.98c.46.02.22-.6.46-.61,5.66-.25,6.7-2.55,7.74,2.13Z"/>
        <path class="cls-7" d="m102.54,137.28c-.07.13-1.31,1.31-1.52,2.43-1.23.12-.78-1.58-1.52-2.73.15-.1,1.19-1.36,2.73-2.43,2.03,2.68.38,2.57.3,2.73Z"/>
        <path class="cls-31" d="m94.65,165.22c-5.31,1.67-10.6,4.49-13.82,5.47-3.54,1.08-7.26,1.31-10.78,2.43-1.47.03-2.94-.02-4.4,0l-.15.61c-.03-.09-.73-.93-.61-1.82,10.19-.9,19.76-5.75,29.76-6.68Z"/>
        <path class="cls-6" d="m63.37,165.22s.35-.72-.76-.61c-1.71.17-16.6,2.57-18.98,3.04,9.29-5.38,19.13-9.75,28.54-14.88.45,1.22-2.32,2.17-2.43,2.88-.14.9,2.89,3.81,3.49.46,2.26.13,3.16-2.63,4.25-3.64.02-.02.37.52.61.3.68-.63.35-.99.61-1.21.03-.02.36.52.61.3.86-.75,2.21-2.37.46-3.04,1.13-.67,3.93-2.24,4.55-2.73-.6.82-.24,2.75-.3,2.88-.65,1.38-17.26,13.7-19.89,16.55-.23-.33-.39-.32-.76-.3Z"/>
        <path class="cls-7" d="m99.2,164l-3.95,8.65-1.21.46c-7.99.49-16-.18-23.99,0,3.52-1.12,7.24-1.35,10.78-2.43,3.21-.98,8.5-3.8,13.82-5.47.24-.08.22-.36,1.21-.61.69-.17,2.88-.76,3.34-.61Z"/>
        <g>
          <path class="cls-7" d="m95.86,164.61c-.99.24-.97.53-1.21.61-10,.93-19.57,5.78-29.76,6.68-.24.02-.31-.18-.46-.3-.6.41-.41.79-.46.91-7.38.3-14.92-1.7-22.17-.61-.48.07-1.03-.05-1.52,0-.7-.18-1.41-.42-2.13-.61v-.3l17.76.61,7.44-6.38c.37-.02.53-.03.76.3,2.63-2.84,19.24-15.17,19.89-16.55.06-.13-.29-2.07.3-2.88.68-.53.69-.47,1.21-1.21.12-.17.39-.53.61-.61-.4,1.13,5.8-2.46,6.68-3.95.79.59.89.08,1.52-.3.82.2-.27,2.38-.61,4.71-.48,3.33-.78,6.81-1.06,10.17l3.49-3.49.61-12.6c.15-.09,1.05-.81,2.13-1.52l.61,18.98-13.06,7.59c.21.81,16.29-3.68,9.41.76Z"/>
          <path class="cls-29" d="m63.98,172.5c-.02.06-.27,1.02-.3,1.21l-21.86-1.82c7.25-1.09,14.79.91,22.17.61Z"/>
          <path class="cls-31" d="m91.46,149.12c.99.28-4.48,10.39-7.89,12.75-6.88,4.76,5.36-11.64,7.89-12.75Z"/>
        </g>
        <path class="cls-7" d="m79.77,148.82c1.76.67.4,2.29-.46,3.04-.24.21-.58-.33-.61-.3-.26.22.07.58-.61,1.21-.24.22-.58-.33-.61-.3-1.09,1.02-1.99,3.78-4.25,3.64-.6,3.36-3.63.45-3.49-.46.11-.71,2.88-1.66,2.43-2.88,2.41-1.31,5.35-2.62,7.59-3.95Z"/>
        <path class="cls-9" d="m101.02,139.71c.2-1.12,1.45-2.3,1.52-2.43.09,2.63.75,16.31.61,17.16-.3,1.73-1.71-5.52-1.82-6.38-.22-1.75-.55-6.99-.3-8.35Z"/>
        <path class="cls-28" d="m123.19,167.65l6.53,4.25c-6.06-.03-5.57,1.04-9.26-3.64.05,0-.18-.49.46-.91,1.14-.2,1.82.31,2.28.3Z"/>
        <g>
          <path class="cls-23" d="m111.95,169.16c.69,1.07,1.49,2.39,1.82,3.64-1.31,3.16-3.72.35-4.1.3-1.11-.14-13.4.41-14.27.61-.1.02-.47.42-.46.61-.37-.26-1.09.96-.91-.61.04-.05-.02-.36,0-.61l1.21-.46,3.95-8.65c1.59.53,1.42,3.07,3.49,4.25,5.77,3.28,3.82-7.46,9.26.91Z"/>
          <g>
            <path class="cls-54" d="m91.31,175.54c-.19,1.66,4.47,1.92,6.22,5.16l.76-4.25c.26,0,.31.23.61.3l-.3,4.55c-2.83-.24-5.67-.37-8.5-.61-1.29-.78.27-4.34,1.21-5.16Z"/>
            <path class="cls-8" d="m94.95,174.33c.17.12.42,1.03,3.34,2.13l-.76,4.25c-1.75-3.25-6.42-3.51-6.22-5.16.13-.12,1.37.14,2.73-1.82-.18,1.57.54.34.91.61Z"/>
          </g>
        </g>
      </g>
      <g>
        <path class="cls-4" d="m263.17,140.62c-.12,8.56.5,17.34-2.73,25.51,0-.04-.25.03-.61-.46,1.45-6.29-.23-2.22-2.13.15-1.42,1.78-1.86,2.38-3.04,4.25-.07.12.06-.59-1.52,2.13l-.61-.3c.37-1.6-1.95-12.56-2.73-14.73-.47-1.29-1.88-2.59-1.52-3.8,1.02-1.28,1.61-3.08,3.04-4.1-.11-1.28-1.74-2.04-2.13-2.58-.51-.71-.96-1.43-1.52-2.13,2.18-1.47,5.89-1.65,7.59-3.64l7.89-.3Z"/>
        <path class="cls-12" d="m247.68,201.35c-1.47,2.34-2.91,3.73-3.04,3.95-.05-.39-1.45.37-1.52.46-3.97,4.69-7.19,10.42-11.84,14.42-2.63,4.37-5.18,8.95-8.2,13.06-.79,1.07-1.56,2.02-2.43,3.04.43-5.25-11.64,5.91-16.25,8.5-2.02,1.14-7.51,3.83-6.83,2.73v-.3c4.41-4.14,7.12-9.56,10.32-14.58,2.49.08,4.56,3.44,6.07,3.04l.76.3c.27-.13.33-.74,1.37-1.52,6.54-4.93,12.79-19.98,19.59-26.42,3.24-3.07,8.07-4.5,8.05-6.38,1.09.23,2.77-.42,3.95-.3Z"/>
        <path class="cls-58" d="m256.79,177.06c-.12,2.3-1.74,6.06-2.73,8.2-.46.98-1.41,1.61-1.52,1.82-2.28,4.5-5.04,8.78-6.98,13.36-.79.39-1.63.52-2.43.91-1.96.95-4.13,1.45-6.07,2.43,0-.53-.88-.15-.91-.46-.06-.69,6.75-9.94,7.59-11.54,1.28-2.42.57-1.88.61-1.97.15-.36.59-.73.91-1.52.17-.42.2-.63.3-.91,1.34-1.4,1.54-.37,2.58-.91,2.86-1.49,6.53-6.85,8.65-9.41Z"/>
        <path class="cls-51" d="m254.67,170.07c-.26,2.75.55,2.01.61,2.13.78,1.76.88,1.44.91,1.52.53,1.43.59.86.61.91.09.38.03,1.79,0,2.43-2.13,2.56-5.8,7.92-8.65,9.41-1.04.54-1.24-.49-2.58.91.13-.35.03-2.38.3-2.88.13-.25,4.13-1.66,2.13-4.25,1.08-.73,3.2-3.33,3.95-4.71.08-.16-.05-1.15,1.21-3.34,1.57-2.72,1.44-2.01,1.52-2.13Z"/>
        <path class="cls-58" d="m93.74,259.65c-.12,1.22-1.58,2.07-.3,3.04-1.97,1.66.35.88.91,3.34-3.71-.55-7.43-1.73-10.93-3.04-.05-.02.05-.24-.91-.61l.91-.61c1.91.66,9.02,1.89,9.11,1.06-3.49-3.92-8.83-8.03-10.78-12.91,4.02,3.22,7.82,6.68,11.99,9.72Z"/>
        <path class="cls-20" d="m244.65,205.3c-4.75,7.93-2.19,11.44-13.36,14.88,4.65-4.01,7.88-9.74,11.84-14.42.07-.09,1.47-.84,1.52-.46Z"/>
        <path class="cls-12" d="m247.68,201.35c-1.18-.11-2.86.53-3.95.3-.03,0,.11-.42-.61-.3.8-.39,1.64-.52,2.43-.91,1.24-.78,5.75-6.22,4.86-7.74,1.66.1,2.79-5.02,2.13-5.62.11-.21,1.06-.84,1.52-1.82-.88,2.71-2.27,10-2.73,11.08-.18.42-2.81,3.68-3.64,5.01Z"/>
        <path class="cls-12" d="m260.44,166.13c-.23,2.65-1.99,6.37-3.64,8.5-.01-.05-.08.51-.61-.91,3.25-5.66,4.58-8.05-.61-2.43.88-4.18,2.67-3.62,2.13-5.47,1.9-2.37,3.58-6.44,2.13-.15.36.49.61.42.61.46Z"/>
        <path class="cls-15" d="m199.71,253.58c-3.71,3.71-8.46,5.57-13.82,4.25-3,3-5.62,5.94-9.26,8.2-.99.62-2.33,1.21-2.88,2.13-1.09-.44-4.19.44-3.19,1.82-1.33-.14-1.28-.91-1.37-.91-5.16,1.71-10.73-.71-15.94.91,2.51-1.8-3.37-.67-8.05-.3-4.7.16-9.43-.41-14.12-.3l1.82-2.73c1.13.13-1.52,2.65,6.83-.91,3.01,3.21,8.16,3.83,11.99,1.67-1.42-1.33-2.79-2.82-4.25-4.1-.76-1.82,3.34.77,3.8.91,13.33,4.11,19.65,4.62,29-6.38.5-.59.99-1.26,1.52-1.82.32-.34,1.07-.49.91-1.21,1.32-.05,3.85-.54,5.16-.91,2.36,2.18,10.36-2.46,11.84-.3Z"/>
        <path class="cls-20" d="m220.66,236.27c-4.58,5.36-10.95,8.97-17.16,12.15-.98,2.07-2.19,3.55-3.8,5.16-1.48-2.16-9.48,2.48-11.84.3,3.9-1.11,6.9-3.59,9.72-6.38-.68,1.1,4.81-1.59,6.83-2.73,4.61-2.6,16.68-13.75,16.25-8.5Z"/>
        <path class="cls-12" d="m97.08,262.38c1.78,1.11,3.33,2.05,5.47,2.43.89.16,2.18.39,3.04.3-.53,1.36,5.15,1.34,8.65,2.13,1.01.38.3,1.07,1.06,1.52,6.99,4.12,4.05,1.6,0,2.43-4.31-.57-8.6-.88-13.06-.61-2.81-1.16-5.39-2.85-7.89-4.55-.56-2.46-2.88-1.68-.91-3.34,1.6.28,2.15.39,3.64-.3Z"/>
        <path class="cls-19" d="m115.29,271.19c.16.02,1.6,1.03,2.88,1.21,2.98.43,15.34.49,18.98.3,0,2.35-5.88.48-8.5,1.52-9.05-.28-17.9-.13-26.42-3.64,4.45-.27,8.75.04,13.06.61Z"/>
        <path class="cls-58" d="m180.88,239.91c7.2-1.23,15.56-5.65,20.65-10.93,1.46,5.14-1.4,11.66-4.86,15.49-7.04,7.78-18.12,6.59-27.63,6.98-4.4-1.31-7.88-4.22-11.69-6.68-.65.35.53,1.51.76,1.82-3.82-2.42-7.53-5.1-11.08-7.89-2.63-2.08-7.02-6.92-9.26-6.98,4.24-2.65,8.58-5.6,13.51-6.68.33-.2.69-1.21,1.67-2.13,2.31,2.31,3.66,5.87,5.77,8.65.92,1.22,7.17,8.06,8.05,8.35.17.06.02-.76.61-.61,5.01,1.35,8.41,1.48,13.51.61Z"/>
        <path class="cls-48" d="m137.76,231.71c2.24.06,6.63,4.91,9.26,6.98,3.55,2.8,7.26,5.47,11.08,7.89,1.28,1.75,4.66,4.04,6.68,5.01-.12.24-3.38.2-3.95.15-5.91-.5-31.49-11.98-33.86-13.66-1.05-.74-1.22-.61-.46-1.52,2.11-.42,4.32-.5,6.38-1.21,2.01-.77,3.07-2.52,4.86-3.64Z"/>
        <g>
          <path class="cls-48" d="m50.31,226.55c5.08,6.7,10.51,13.03,18.07,17,.2-.08.92-3.12,1.06-3.64.68-2.51,1.04-5.08,1.82-7.59,1.88.8,1.53,4.42,2.13,5.92.48,1.23,5.52,9.98,6.22,10.17,2.36.66-1.63-5.52-1.21-10.02,4.59,8.79,12.3,16.19,19.89,22.47,2.64,2.19,4.74,3.42,4.25,3.95-2.13-.38-3.69-1.32-5.47-2.43-1.16-.73-2.21-1.91-3.34-2.73-4.17-3.04-7.97-6.5-11.99-9.72,1.95,4.88,7.29,8.98,10.78,12.91-.09.83-7.2-.41-9.11-1.06-2.19-.76,1.14-.15.91-2.28-.19-1.77-6.54-3.09-10.17-5.62-4.31-3-5.45-6.9-6.22-5.62-.32.53,1.95,5.54-8.96-3.19-2.35-1.88-8.87-9.18-10.02-9.72-2.26-1.06-5.96-.19-10.78-2.73-1.05-2.11-1.74-4.97-2.73-6.98,2.04-1.39,2.71.56,2.88.61,2.33.65,2.6-.04,2.73,0,.55.17,5.22,2.78,7.89,2.73.22-.09,1.08-2.02,1.37-2.43Z"/>
          <path class="cls-48" d="m83.41,261.78l-.91.61c-2.56-.96-6.53-2.02-8.35-3.04-1.99-1.11-4.74-4.33-6.07-5.16-2.22-1.4-11.34-4.92-14.58-6.38-4.51-5.85-10.15-10.17-15.33-15.18,4.82,2.54,8.52,1.67,10.78,2.73,1.15.54,7.67,7.83,10.02,9.72,10.9,8.72,8.64,3.72,8.96,3.19.77-1.28,1.91,2.62,6.22,5.62,3.63,2.53,9.98,3.85,10.17,5.62.23,2.12-3.11,1.52-.91,2.28Z"/>
          <path class="cls-58" d="m42.12,222.91c-.39,1.36,4.97,1.65,8.5,3.04-.09.14-.21.47-.3.61-.28.4-1.14,2.34-1.37,2.43-2.68.04-7.34-2.56-7.89-2.73-.13-.04-.4.65-2.73,0-.17-.05-.84-2-2.88-.61-.41-.83-.27-1.16-.3-1.21,2.22-.67,4.81-.84,6.98-1.52Z"/>
          <path class="cls-12" d="m53.35,218.05c.32.15.64.4.91.61,1.44,1.11,3.11,3.7,4.86,4.86-6.65-.72-4.02-4.73-7.29.3-.44.68-.75,1.42-1.21,2.13-3.53-1.39-8.89-1.68-8.5-3.04,3.9-1.21,7.35-3.61,11.23-4.86Z"/>
          <path class="cls-12" d="m59.12,223.52c2.83,1.86,7.75,2.84,8.65,3.34,2.96,1.65,3.87,5.58,2.73.61,5.48-.42,5.08,4.97,6.68,6.07.25.18,5.35,1.7,5.92,1.82.87,2.28,1.29,4.81,2.43,6.98-1.36.88-1.24-2.08-3.19-4.55-8.55-3.77-7.49-7.46-7.89-7.89-.09-.09-2.32-.68-2.43-.61-.16.11-.57,2.42-.76,3.04-.79,2.51-1.14,5.08-1.82,7.59-2.4.82-8.77-6.14-10.93-8.65-.71-.83-4.13-7.22-6.68-7.44,3.26-5.03.64-1.03,7.29-.3Z"/>
          <path class="cls-51" d="m69.44,239.91c-.14.52-.86,3.56-1.06,3.64-7.55-3.97-12.98-10.31-18.07-17,.09-.13.21-.47.3-.61.46-.71.77-1.44,1.21-2.13,2.55.22,5.97,6.61,6.68,7.44,2.16,2.51,8.53,9.48,10.93,8.65Z"/>
        </g>
        <path class="cls-12" d="m97.08,262.38c-1.5.69-2.04.58-3.64.3-1.28-.96.18-1.81.3-3.04,1.13.82,2.18,2.01,3.34,2.73Z"/>
        <path class="cls-58" d="m252.54,171.9c-.03.14-1.82,2.07-1.97,2.13-.95.33-2.3-1.79-3.19-1.82-.67-2.42-1.57-4.84-2.13-7.29-.74-3.28-.57-7-1.82-7.59.93-.77,2.49-1.19,3.49-2.13.3-.28-.31-.45-.15-.61.07-.07.79-.3,1.52-1.21-.36,1.21,1.05,2.5,1.52,3.8.78,2.17,3.1,13.13,2.73,14.73Z"/>
        <path class="cls-58" d="m253.15,172.2c-1.27,2.19-1.13,3.18-1.21,3.34-1.02.9-2.94,1.56-3.34,1.82-.32-1.73-.75-3.46-1.21-5.16.89.03,2.24,2.15,3.19,1.82.16-.05,1.94-1.98,1.97-2.13l.61.3Z"/>
        <path class="cls-58" d="m255.58,171.29c-.08.36-.05.55-.3.91-.05-.12-.87.63-.61-2.13,1.17-1.87,1.62-2.47,3.04-4.25.55,1.84-1.24,1.29-2.13,5.47Z"/>
        <path class="cls-58" d="m243.74,201.65c.02,1.88-4.81,3.31-8.05,6.38-6.79,6.43-13.05,21.48-19.59,26.42,1.39-2.66,3.13-5.09,4.25-7.89.03-.08.71-.94.91-1.37l-.46-.46c-4.45,2.25-10.87,1.04-8.35,8.2.34.96,1.21,1.73,1.52,2.73-1.52.4-3.59-2.95-6.07-3.04.64-1,1.18-2.03,1.82-3.04.75-1.18.93-2.67,1.67-3.64,4.87-5.36,15.7-11.56,17.61-13.36,2.37-2.23.88-2.2-.91-.3,2.23-4.86,4.31-6.16,8.96-8.5,1.94-.98,4.11-1.48,6.07-2.43.72-.11.57.3.61.3Z"/>
        <path class="cls-34" d="m197.58,247.2v.3c-2.81,2.79-5.81,5.26-9.72,6.38-1.31.37-3.84.86-5.16.91-4.11.14-16.92-2.54-13.66-3.34,9.52-.4,20.59.8,27.63-6.98l.91,2.73Z"/>
        <path class="cls-15" d="m209.73,229.59c-.64,1-1.18,2.04-1.82,3.04-3.21,5.01-5.91,10.43-10.32,14.58l-.91-2.73c3.46-3.82,6.32-10.34,4.86-15.49.34-.35,2.62-2.87,2.73-3.04,1.47,1.36,3.84,4.27,5.47,3.64Z"/>
        <path class="cls-20" d="m237.06,203.78c-4.65,2.34-6.72,3.64-8.96,8.5,1.79-1.89,3.28-1.93.91.3-1.91,1.8-12.74,8-17.61,13.36-.74.97-.92,2.46-1.67,3.64-1.62.63-3.99-2.28-5.47-3.64.95-1.47,4.38-12.1,4.55-13.66.61-.05,1.23-.19,1.82-.3,4.37-.86,8.79-1.58,13.21-2.13,6.36-5.76,11.51-3.47,11.08-12.91l9.41-7.14c-.04.1.67-.45-.61,1.97-.84,1.6-7.65,10.85-7.59,11.54.03.3.92-.07.91.46Z"/>
        <path class="cls-51" d="m245.26,188.29c-.32.79-.76,1.16-.91,1.52l-9.41,7.14c.43,9.43-4.73,7.14-11.08,12.91-4.42.55-8.84,1.26-13.21,2.13-.06-1.99,2.03-.7,2.58-.91.21-.08,2.45-2.62,3.34-3.04,2.72-1.26,11.73-3.87,15.49-5.47l1.37-1.97c-.88-6.38,7.39-10.44,8.81-12.75,1.03-1.68.99-4.39,2.13-6.53l.91,6.98Z"/>
        <path class="cls-20" d="m245.56,187.38c-.11.28-.13.5-.3.91l-.91-6.98c.65-1.23.84-1.26,1.82-2.13.12-.1,2.26-1.71,2.43-1.82.4-.26,2.32-.92,3.34-1.82-.75,1.38-2.87,3.98-3.95,4.71,2.01,2.59-1.99,4-2.13,4.25-.27.5-.17,2.54-.3,2.88Z"/>
        <path class="cls-12" d="m245.56,200.44c1.94-4.58,4.7-8.86,6.98-13.36.66.6-.46,5.72-2.13,5.62.89,1.52-3.62,6.97-4.86,7.74Z"/>
        <path class="cls-12" d="m256.19,173.72c-.03-.08-.13.24-.91-1.52.26-.36.23-.55.3-.91,5.19-5.62,3.86-3.23.61,2.43Z"/>
        <path class="cls-51" d="m126.53,236.57c-.76.91-.59.77.46,1.52,2.37,1.69,27.95,13.16,33.86,13.66-.91,1.49.84,1.03,1.21,1.37.06.05-.75.46-.46.76,1.37,1.41,17.12,2.39,20.19,2.13-.53.56-1.02,1.23-1.52,1.82-3.52,1.24-6.61,1.56-10.32,1.52-9.52-.1-19.87-5.02-35.68-4.25-.25.01-.12.61-.15.61-1.01.05-2.03-.06-3.04,0-1.12-1.64-12.33-11.98-13.21-11.84-2.57.41,10.51,11.38,11.08,12.15-3.06.17-6.03.65-9.11.61-.65,0-.68.31-.91.3-2.06-.08-8.54-2.08-10.02-1.21-.23.13-.18,1.14-.91.91-1.89-2-3.9-3.91-5.62-6.07-1.34-.6-3.03-.84-3.19-.91-4.25-1.93-8.72-3.37-12.91-5.47-.55-.38-.4-.88-.76-1.52-.04-.08.04-.22,0-.3-1.14-2.18-1.56-4.7-2.43-6.98.61.13,1.98-.11,3.19.91-.26-.87,4.61-.39,4.86-.3,2.66.89,2.72,8.91,17.61-2.43l7.89,4.55c.84.16,8.32-1.21,9.87-1.52Z"/>
        <path class="cls-12" d="m180.27,257.83c-9.35,10.99-15.67,10.49-29,6.38-.46-.14-4.55-2.73-3.8-.91-1.63-1.44-3.89-2.35-5.16-4.25,2.3.41,4.47,1.52,6.83,1.82,5.68-1.18,19.67,2,20.8-1.52,3.72.04,6.8-.28,10.32-1.52Z"/>
        <path class="cls-19" d="m142.32,259.04c1.27,1.9,3.53,2.82,5.16,4.25,1.46,1.28,2.83,2.77,4.25,4.1-3.84,2.16-8.99,1.54-11.99-1.67-8.35,3.56-5.7,1.04-6.83.91-2.8-.32-2.34,4.16-9.41,0,3.81-1.59,14.61-4.97,14.58-7.89,1.7.25,3.34.14,4.25.3Z"/>
        <path class="cls-34" d="m120.15,266.63c.56.5,6.33,2.38,7.44,3.64,2.54-.06,3.31-.91,3.49-.91,4.69-.11,9.42.47,14.12.3,4.67-.37,10.56-1.5,8.05.3-5.21,1.8-10.62,2.46-16.09,2.73-3.63.18-16,.13-18.98-.3-1.28-.18-2.73-1.19-2.88-1.21,4.05-.83,6.99,1.69,0-2.43,6.51,1.13,12.27,6.27,4.25-1.97l.61-.15Z"/>
        <path class="cls-12" d="m169.04,251.45c-3.26.8,9.55,3.48,13.66,3.34.16.73-.59.87-.91,1.21-3.07.27-18.82-.72-20.19-2.13-.3-.3.52-.71.46-.76-.38-.34-2.13.12-1.21-1.37.57.05,3.83.08,3.95-.15-2.02-.97-5.4-3.26-6.68-5.01-.23-.31-1.41-1.47-.76-1.82,3.81,2.46,7.29,5.37,11.69,6.68Z"/>
        <path class="cls-12" d="m119.85,256.61c6.28,4.16,11.34,4.11.3,3.49-.34,4.04.12,4.63,3.34,6.53,7.07,4.16,6.62-.32,9.41,0l-1.82,2.73c-.18,0-.96.85-3.49.91-1.11-1.26-6.88-3.14-7.44-3.64-2.28-2.04-.8-6.79-1.21-9.72.24,0,.26-.31.91-.3Z"/>
        <path class="cls-20" d="m118.94,256.92c.42,2.93-1.07,7.68,1.21,9.72l-.61.15c8.01,8.24,2.26,3.1-4.25,1.97-.76-.45-.05-1.14-1.06-1.52-3.51-.79-9.19-.77-8.65-2.13.94-.1,7.33-3.35,7.89-3.95.06-.06.79.29.61-.76l-5.16-4.71c1.48-.87,7.96,1.13,10.02,1.21Z"/>
        <g>
          <path class="cls-48" d="m209.73,199.83c-2.53,2.54-1.26,3.24-1.21,6.38-2.93-1.05-9.97,1.55-14.12,2.13-4.15,2.56-8.27,8.59-12.45,10.93-11.69,6.56-19.27-.14.15,19.89-.1.22-.78.11-1.21.15-3.89.41-4.63-1.6-5.31-.61-5.06-5.61-13.61-8.99-16.55-16.55,12.55-6.4,20.38-1.55,29.15-14.42,3.8-5.58,2.91-4.79,3.34-12.3.16-.41,3.36-1.76,4.55-2.58,3.69-2.54,5.48-3.73,8.2-6.83-1.05-.18-.86-.44-.91-.46.61.14,1.02-1.02,1.21-1.52,1.03,1.89,5.36,13.37,5.47,14.12.08.53-1.11,1.49-.3,1.67Z"/>
          <path class="cls-51" d="m188.17,207.73c-8.77,12.88-16.6,8.03-29.15,14.42,2.93,7.56,11.49,10.93,16.55,16.55.69-.99,1.42,1.02,5.31.61v.61c-5.1.87-8.51.74-13.51-.61-.58-.16-.44.66-.61.61-.88-.29-7.12-7.13-8.05-8.35-2.11-2.78-3.46-6.34-5.77-8.65,2.16-2.02,4.98-4.96,6.83-7.29,7.43.02,9.07-3.67,17-1.21l4.55-6.98,6.83.3Z"/>
          <path class="cls-58" d="m203.35,185.56s-.14.28.91.46c-2.72,3.1-4.51,4.3-8.2,6.83l1.06-8.5c1.66.53,5.08.75,6.22,1.21Z"/>
          <path class="cls-48" d="m208.51,206.21c0,.1,0,.2,0,.3,0,1.96.51,3.9.3,5.77-.17,1.57-3.6,12.2-4.55,13.66-.11.17-2.39,2.68-2.73,3.04-5.09,5.28-13.45,9.7-20.65,10.93v-.61c.43-.05,1.11.06,1.21-.15-19.43-20.02-11.85-13.33-.15-19.89,4.18-2.34,8.3-8.37,12.45-10.93,4.15-.57,11.18-3.18,14.12-2.13Z"/>
        </g>
        <path class="cls-15" d="m212.46,198.92c.6-.04,1.22.03,1.82,0-1.39,2.79-3.26,5.71-5.77,7.59,0-.1,0-.2,0-.3-.04-3.14-1.32-3.83,1.21-6.38.29-.29.29-.96.76-1.21.78-.13,1.19.36,1.97.3Z"/>
        <path class="cls-20" d="m229.16,171.59l7.59,1.52c-.88,1.07-1.74,1.95-2.88,2.73l-8.05-.76c.58,4.57,2.04,6.77.3,11.54-3.02.38-4.06,4.8-7.29,4.4.94-2.06,1.89-4.15,3.34-5.92-.44-1.95-.36-3.08,0-5.01.35-1.88-.32-1.19,2.43-4.55,1.21-1.49,3.07-2.73,4.55-3.95Z"/>
        <path class="cls-12" d="m243.43,157.32c1.25.59,1.08,4.31,1.82,7.59-.45-.05-.63-.05-.61.46.23,4.57,1.25,9.23,1.52,13.82-.98.86-1.17.9-1.82,2.13-1.13,2.14-1.09,4.85-2.13,6.53-1.42,2.31-9.69,6.37-8.81,12.75l-1.37,1.97c-3.75,1.6-12.77,4.21-15.49,5.47-.89.41-3.13,2.96-3.34,3.04-.55.21-2.64-1.08-2.58.91-.6.12-1.22.25-1.82.3.2-1.87-.3-3.81-.3-5.77,2.51-1.88,4.38-4.8,5.77-7.59.77.91,3.28-5.1,4.55-7.89,3.23.4,4.27-4.03,7.29-4.4,1.74-4.77.28-6.97-.3-11.54l8.05.76c1.14-.79,2.01-1.66,2.88-2.73.19-.23,1.03-.85,1.52-1.67l-.61-.46c.55-1.64,3.67-4.64,3.64-6.07,2.86.56-.29-5.6,2.13-7.59Z"/>
        <path class="cls-20" d="m246.77,154.59c-.16.16.45.33.15.61-1,.93-2.56,1.36-3.49,2.13-2.42,1.99.73,8.15-2.13,7.59-.03-1.92-4.18-5.13-.61-9.56,1.7-2.1,2.54-.38,6.07-.76Z"/>
        <path class="cls-34" d="m237.66,170.99l.61.46c-.49.82-1.33,1.44-1.52,1.67l-7.59-1.52c.43-.35,1.91-2.37,2.28-2.43l6.22,1.82Z"/>
        <g>
          <path class="cls-51" d="m85.54,242.34c.04.08-.04.23,0,.3-2,1.96,1.93,2.19,2.88,3.04,1.06.94,10.35,12.61,9.87,15.18-7.58-6.28-15.3-13.68-19.89-22.47-.41,4.5,3.58,10.68,1.21,10.02-.7-.2-5.74-8.95-6.22-10.17-.59-1.5-.25-5.13-2.13-5.92.19-.62.59-2.93.76-3.04.1-.07,2.34.52,2.43.61.4.43-.66,4.12,7.89,7.89,1.95,2.48,1.83,5.44,3.19,4.55Z"/>
          <path class="cls-58" d="m99.2,249.63c1.87,4.23,4.1,9.34,8.35,11.54.53.1,3.29-.63,4.1-.61.84.02,1.17.35,1.82.61-.56.6-6.95,3.85-7.89,3.95-.85.09-2.14-.14-3.04-.3.49-.53-1.61-1.76-4.25-3.95.48-2.58-8.81-14.24-9.87-15.18-.95-.84-4.88-1.08-2.88-3.04.36.64.21,1.14.76,1.52,4.18,2.1,8.65,3.53,12.91,5.47Z"/>
          <path class="cls-12" d="m108.01,256.61c1.23,1.3,2.47,2.6,3.64,3.95-.81-.02-3.57.71-4.1.61-4.25-2.2-6.48-7.31-8.35-11.54.16.07,1.85.32,3.19.91,1.72,2.16,3.73,4.07,5.62,6.07Z"/>
          <path class="cls-58" d="m113.47,261.17c-.65-.26-.98-.59-1.82-.61-1.18-1.35-2.42-2.65-3.64-3.95.73.23.69-.78.91-.91l5.16,4.71c.18,1.05-.55.7-.61.76Z"/>
        </g>
        <path class="cls-48" d="m245.26,164.91c.55,2.45,1.46,4.86,2.13,7.29.47,1.7.89,3.43,1.21,5.16-.17.11-2.31,1.72-2.43,1.82-.27-4.58-1.29-9.25-1.52-13.82-.03-.51.16-.51.61-.46Z"/>
        <g>
          <path class="cls-20" d="m220.36,226.55c-1.12,2.8-2.86,5.24-4.25,7.89-1.03.78-1.09,1.39-1.37,1.52l-.76-.3c-.31-1-1.18-1.77-1.52-2.73,1.78-2.24,5.6-6.63,7.89-6.38Z"/>
          <path class="cls-12" d="m220.36,226.55c-2.3-.25-6.11,4.13-7.89,6.38-2.52-7.16,3.9-5.95,8.35-8.2l.46.46c-.2.42-.88,1.29-.91,1.37Z"/>
        </g>
        <path class="cls-20" d="m131.08,255.7c1.01-.06,2.03.05,3.04,0,2.89,4.71,3.11,2.91,3.95,3.04.03,2.92-10.77,6.31-14.58,7.89-3.22-1.9-3.68-2.49-3.34-6.53,11.03.61,5.97.67-.3-3.49,3.08.04,6.05-.44,9.11-.61,1.29-.07,1.82-.29,2.13-.3Z"/>
        <path class="cls-12" d="m169.95,259.35c-1.13,3.52-15.12.34-20.8,1.52-2.36-.31-4.53-1.41-6.83-1.82-.91-.16-2.55-.06-4.25-.3-.84-.12-1.05,1.68-3.95-3.04.03,0-.1-.6.15-.61,15.8-.77,26.15,4.15,35.68,4.25Z"/>
        <path class="cls-48" d="m131.08,255.7c-.31.02-.84.23-2.13.3-.57-.77-13.65-11.73-11.08-12.15.88-.14,12.09,10.2,13.21,11.84Z"/>
        <g>
          <path class="cls-38" d="m203.35,180.09c.8,1.48,1.8,2.72,1.82,2.88.05.46-.43.61-.61,1.06-.19.5-.6,1.66-1.21,1.52-1.14-.46-4.57-.68-6.22-1.21l-1.06,8.5c-1.19.82-4.4,2.17-4.55,2.58-.43,7.5.46,6.71-3.34,12.3l-6.83-.3-4.55,6.98c-7.93-2.45-9.57,1.24-17,1.21-1.85,2.33-4.67,5.27-6.83,7.29-.98.92-1.34,1.92-1.67,2.13-4.93,1.08-9.27,4.03-13.51,6.68-1.79,1.12-2.85,2.87-4.86,3.64-2.05-1.21-5.37.04-10.78-.61-2.78-.33-8.95-2.48-12.75-3.04l-24.6-3.04c-5.58-1.77-9.94-5.72-15.49-7.59-2.13-.72-14.84-3.96-15.03-2.43-.27-.21-.6-.46-.91-.61l-.15-.61-29.91-2.43c-1.16-1.66-2.57-4.85-3.64-6.83-.27-.49-.81-.42-.91-.61-.3-.55-.05-1.52-.61-2.58,2.44-.57,7.41,2.96,9.56,3.34,4.06.71,17.16-3.62,37.04,1.52,12.56,3.25,16.14,8.7,34.01,6.98,4.4.56,18.76,9.05,34.01,7.29,4.44-.51,19.84-4.69,22.17-8.5,2.37.22,4.31-2.31,4.55-2.43,3.3-1.57,7-1.98,8.81-2.73,1.79-.74,18.53-10.67,18.98-11.69l.91-8.2c1.4-1.37,2.84.1,4.25-2.13,1.3-2.04-.03-2.01,0-2.13.23-.85,1.75-.99.3-1.52.12-.31.78,0,.91-.3,1.15-2.81-.17-4.34,9.72-4.4Z"/>
          <path class="cls-33" d="m38.17,171.29c.72.19,1.43.42,2.13.61.08.02-.12.2,1.52.61-5.24,3.18.56,1.46,4.25,3.95-5.65-1.09-10.26-2.73-11.99,0-3.38-4.35-4.86-2.26-10.17-1.21-1.04.21-2.25,1.14-3.49.91-4.58-2.14-4.52,2.65-15.33-1.21-.14-.52-.71-1.52-.91-2.43,3.96-.55,13.15-1.91,11.23-3.64.22,0,1.98.63,2.28.61.98-.07,5.66-2.53,7.29-2.43,4.25,1.93,8.72,3.06,13.21,4.25Z"/>
          <path class="cls-39" d="m23.9,175.24c.17,2.85-7.9,1.66-11.69,2.13-.42,1.8,2.68.12,2.58,1.52-2.78-.17-5.56-.56-8.35-.61-.78.27,1.13,5.15,1.37,5.31.89.63.4-1.42,1.97-1.06.79.18,7.12,6.38,13.66,8.5,6.7-.82,13.51.41,20.04-1.21.93,2.25,3.64.75,5.47,1.21.27.07,1.86,1.75,1.97,1.82-6.31-1.07-12.55-2.26-18.98-1.82v.61c1.34-.26,2.36.54,3.49.91l-.3.91c-.81-.33-9.02-2.73-7.74-.91,3.17,1.32,6.01,3.38,9.56,2.43,2.28.9,14.09,5.35,15.18,5.47-.59,1.03-1.68.76-3.04.91-3.38-1-6.84-1.37-10.32-1.82-2.97-4.49-4.1-3.38-7.89-3.64-1.9-2.27-7.91-3-11.08-4.86-.33-.15-.58.32-.61.3-1.35-.61-8.29-5.42-8.81-5.47-2.19-.21-.22,2.86.46,4.55-1.42-1.47-4.56-8.85-5.16-10.78-.45-1.43-.21-3.19-.61-4.71,10.82,3.86,10.75-.93,15.33,1.21,1.24.23,2.45-.71,3.49-.91Z"/>
          <path class="cls-50" d="m53.35,218.05c-3.88,1.24-7.33,3.65-11.23,4.86-2.18.68-4.76.85-6.98,1.52-2.56-4.49-7.5-3.16-11.84-9.41l29.91,2.43.15.61Z"/>
          <path class="cls-56" d="m30.88,195.88c-7.74-.53-9.09.11-17.16-3.95-.73,3.83,5.01,3.13,5.01,3.49-1.34.55-4.15-.55-3.64,1.37-.72-.61-1.03-2.01-1.21,0-.99-2.12-2.17-4.2-3.04-6.38-.67-1.69-2.65-4.76-.46-4.55.52.05,7.46,4.86,8.81,5.47.03.01.28-.45.61-.3,3.18,1.86,9.19,2.59,11.08,4.86Z"/>
          <path class="cls-61" d="m15.39,168.86c1.91,1.74-7.28,3.09-11.23,3.64-.25-1.1-.38-2.25-.61-3.34,2.66.49,7.12.72,9.26-.91.75-.06,1.08.6,2.58.61Z"/>
          <path class="cls-50" d="m132.91,235.36c-2.06.72-4.27.79-6.38,1.21-1.55.31-9.03,1.68-9.87,1.52l-7.89-4.55c-14.89,11.34-14.95,3.32-17.61,2.43-.25-.08-5.12-.57-4.86.3-1.21-1.02-2.58-.78-3.19-.91-.57-.12-5.67-1.65-5.92-1.82-1.6-1.11-1.2-6.5-6.68-6.07,1.13,4.97.23,1.05-2.73-.61-.9-.5-5.83-1.48-8.65-3.34-1.75-1.15-3.42-3.75-4.86-4.86.19-1.53,12.91,1.71,15.03,2.43,5.55,1.87,9.9,5.82,15.49,7.59l24.6,3.04c3.8.56,9.98,2.7,12.75,3.04,5.41.65,8.73-.6,10.78.61Z"/>
          <path class="cls-46" d="m64.89,171.9c-.12.89.57,1.73.61,1.82.15.42-.22,1.56.15,1.82.56.39,11.91.3,13.66.3.14,0,2.45-.61,2.58-.61,1.4,0,3.29-.14,4.55,0,.17.6-.51.75-.61,1.21-2.52.65-19.08-.88-19.89-.3-.25.18-.25,3.47,0,3.64.28.2,5.36-.27,6.83.3.48,3.03-.05,1.01-1.37,1.52-2.84,1.1.17,6.32,5.47,6.98,3.25.41,5.5-.58,9.26.61,2.12.67,4.18,2.89,7.44,3.64,1.87.43,8.07,1.08,6.07-.61,6.03,1.82,11.6,1.54,17.92.91,2.05-.2,2.58-1.2,2.73-1.21,1.64-.14,3.32.5,5.47.3,6.35-.58,15.83-2.2,21.26-2.43,2.78-.12,24.86.24,26.11.61.72.21.98,1.47,1.06,1.52,2.59,1.64,3.59,1.55,7.14.91l-.46,1.21c-.88.47-1.07.21-.61.91-.76-.16-.42.42-.91.61-.05.02-.16-.63-1.06-.3-3.14,1.15-5.86,1.77-8.96,2.73-6.1,1.9-12.17,3.9-18.37,5.47-17.91.28-35.84-.65-53.59-3.04l-2.88-2.43c-.96,1.2-2.14,2.23-3.19,3.34,2.28-1.85-9-4.89-12.3-6.38-.31-.14.01-.77-.3-.91-.1-.04-.84.25-2.13-.3-1.21-.53-4.25-2.54-5.47-3.04-1.77-.72-5.46-2.28-6.98-2.73-.04-.01-.23.41-.61.3-.25-.07-.05-.54-.3-.61-9.18-2.51-19.58-1.75-28.24-7.29-6.76-.08-13.45-1.1-20.19-1.52.1-1.4-3,.28-2.58-1.52,3.79-.46,11.86.73,11.69-2.13,5.31-1.05,6.79-3.14,10.17,1.21,1.73-2.73,6.34-1.09,11.99,0,5.59,1.08,11.09,3.02,16.85,3.34.47-.22.63-2.82.76-3.64.11-.73-.13-1.73,0-2.43.04-.2.28-1.16.3-1.21.05-.12-.15-.5.46-.91.15.13.21.32.46.3Z"/>
          <path class="cls-35" d="m14.79,178.88c6.74.42,13.43,1.43,20.19,1.52,8.66,5.54,19.06,4.78,28.24,7.29.25.07.05.53.3.61.38.11.57-.32.61-.3,1.53.46,5.22,2.01,6.98,2.73,1.22.5,4.25,2.51,5.47,3.04,1.28.56,2.03.26,2.13.3.31.14-.01.77.3.91,3.3,1.49,14.57,4.53,12.3,6.38-.79.84-4.92,6.26-5.31,6.38-.79-.03-1.53-.38-2.28-.61-1.42-.43-14.42-6.13-15.03-6.68-.67-.6-1.89-3.85-2.43-3.95-.15-.03-2.53,1.51-2.73,1.52-.18,0-.97-.73-3.49-1.21-.87-.17-.08-1.24-3.04.61-1.93-1.65-3.92-3.21-6.07-4.55-.11-.07-1.71-1.75-1.97-1.82-1.82-.46-4.54,1.03-5.47-1.21-6.53,1.62-13.34.4-20.04,1.21-6.55-2.12-12.88-8.32-13.66-8.5-1.58-.36-1.09,1.69-1.97,1.06-.24-.17-2.14-5.04-1.37-5.31,2.79.05,5.57.43,8.35.61Z"/>
          <path class="cls-33" d="m188.17,167.65s-.05.79.46.91c2.22.55,12.33-.55,13.06-.3.27.09.12.59.15.61-.37,2.9-6.84.78-10.63,2.43-.63.02-8.05,1.36-8.65,1.52-5.72,1.54-27.08,11.96-29.45,12.15-1.06.08-.55-.45-1.06-.61,1.03-.43,4.09-1.9,5.01-2.43,8.9-5.08-1.21-1.41-12.6-2.73-1.22-1.8,2.36-.65,5.92-1.21.69-.11,4.04-1.42,7.29-1.52.17-.67-1.42.4-1.06-1.52,3.38-.68,6.59-1.96,10.02-2.43.47-.06.19-.4.46-.61.29-.03.55.4,1.67.3,2.19-.18,15.19,0,15.94-.61l-1.37-5.16c1.63-.81,3.31.61,4.86,1.21Z"/>
          <path class="cls-39" d="m50.92,192.85c2.15,1.35,4.15,2.91,6.07,4.55-.26.16-.84.84-1.82,1.52-.49-1.34-.36-.54-1.67-.61-5.62-3.05-12.07-3.78-18.07-5.77-1.13-.37-2.16-1.17-3.49-.91v-.61c6.43-.44,12.67.75,18.98,1.82Z"/>
          <path class="cls-39" d="m30.88,195.88c3.8.26,4.92-.85,7.89,3.64-6.07-.79-12.15-1.08-18.22-1.82-2.38-.29-4.91-1.2-4.86-.3-.27-.21-.4-.43-.61-.61-.51-1.92,2.3-.82,3.64-1.37,0-.36-5.74.34-5.01-3.49,8.06,4.05,9.41,3.41,17.16,3.95Z"/>
          <path class="cls-59" d="m83.72,207.12c-.79.59-1.02.6-1.82.91-7.39-2.3-12.47-7.27-20.65-6.68-.64-.93-2.43-4.44-1.21-4.55,2.52.49,3.31,1.22,3.49,1.21.2,0,2.58-1.55,2.73-1.52.54.1,1.76,3.34,2.43,3.95.61.55,13.61,6.25,15.03,6.68Z"/>
          <path class="cls-45" d="m20.56,197.71c6.07.75,12.15,1.03,18.22,1.82,3.48.45,6.94.82,10.32,1.82-7.26.82-9.84-1.18-13.82,1.82-.62.12-.28-.53-.76-.61-4.34-.71-10.16-3.84-14.58-3.95l.61-.91Z"/>
          <path class="cls-56" d="m55.17,198.92c-.53.36-1.42,1.33-1.97,1.82-.29-.46-.66-.26-1.06-.3-1.1-.12-12.9-4.57-15.18-5.47-.11-.04-.17-.85-1.82-1.52l.3-.91c6,1.99,12.45,2.72,18.07,5.77,1.31.07,1.18-.73,1.67.61Z"/>
          <path class="cls-45" d="m81.89,208.03c-5.37,2.1-13.27-4.4-19.28-5.16-.84-.46-.86-.79-1.37-1.52,8.18-.59,13.26,4.38,20.65,6.68Z"/>
          <path class="cls-45" d="m20.56,197.71l-.61.91c-.35,0-.52.05-.76-.3-2.22,1.82,13.02,4.73,13.66,5.16.28.19.12.62.15.91-1.43.95-4.41,1.96-5.92,1.52-.68-.2-9.97-7.4-11.39-8.5-.05-.9,2.48.01,4.86.3Z"/>
          <g>
            <path class="cls-2" d="m169.34,198.01c.33.97-.1.78,0,1.82.08.85.97,5.7.46,6.07-1.04-.19-3.74-.98-4.25-.91-.84.12-12.92,7.21-14.88,8.2-3.91.07-8.37.85-11.84,2.73h-18.52c-7.99-2.67-15.99-11.15-19.43-5.16-3.8-5.21-6.79-5.15-4.4-10.17l.91-.15c17.76,2.39,35.68,3.32,53.59,3.04,6.2-1.57,12.27-3.56,18.37-5.47Z"/>
            <path class="cls-55" d="m179.36,195.58l-1.67,4.55c-2.62-.23-7.61-.87-8.35-.3-.1-1.04.33-.85,0-1.82,3.1-.97,5.81-1.58,8.96-2.73.9-.33,1.01.32,1.06.3Z"/>
          </g>
          <path class="cls-41" d="m19.95,198.62c4.41.11,10.23,3.24,14.58,3.95-.14,1.42-.85,1.38-1.52,1.82-.03-.29.13-.72-.15-.91-.65-.43-15.88-3.35-13.66-5.16.24.36.4.3.76.3Z"/>
          <g>
            <path class="cls-38" d="m254.06,133.94c0,.6-.64,1.24-.15,1.52.33.18,1.73-.32,2.58.3-.06,1.28-.76,3.56-1.21,4.86.45-4.03-7.66,1.27-8.2,3.04-.38-.48-2.47-1.94-2.43-2.58,6.36-7.06,9.43-16.05,9.41-7.14Z"/>
            <path class="cls-38" d="m255.28,140.62v.3c-1.7,1.99-5.41,2.17-7.59,3.64-.27-.34-.39-.64-.61-.91.53-1.76,8.65-7.07,8.2-3.04Z"/>
          </g>
          <g>
            <path class="cls-41" d="m254.06,133.94c.02-8.91-3.05.08-9.41,7.14-.04.65,2.05,2.1,2.43,2.58.21.27.34.57.61.91.56.7,1,1.42,1.52,2.13-1.48-1.32-.47,0-3.49,1.82-2.99,1.81-8.04,3.47-10.32,4.86-6.19,3.76-9.53,10.46-15.18,14.88-6.63,2.25-13.51,3.53-20.34,4.86.63,3.44,2.44,4.9,2.58,5.16.31.59.58,1.22.91,1.82-9.89.06-8.57,1.6-9.72,4.4-.13.31-.79,0-.91.3,1.44.53-.07.67-.3,1.52-.03.12,1.3.08,0,2.13-1.41,2.22-2.85.76-4.25,2.13l-.91,8.2c-.45,1.02-17.19,10.95-18.98,11.69-1.81.75-5.5,1.16-8.81,2.73-.25.12-2.19,2.65-4.55,2.43-2.33,3.81-17.73,7.99-22.17,8.5-15.25,1.77-29.61-6.73-34.01-7.29-17.87,1.72-21.45-3.74-34.01-6.98-19.89-5.14-32.99-.81-37.04-1.52-2.16-.38-7.12-3.91-9.56-3.34-1.43-2.7-2.95-5.44-4.25-8.2.19-2.01.5-.61,1.21,0,.2.17.33.39.61.61,1.42,1.1,10.7,8.3,11.39,8.5,1.51.44,4.49-.57,5.92-1.52.67-.44,1.38-.4,1.52-1.82.48.08.14.73.76.61,3.97-3,6.55-1,13.82-1.82,1.36-.15,2.44.12,3.04-.91.41.04.78-.15,1.06.3.55-.49,1.44-1.46,1.97-1.82.99-.68,1.56-1.35,1.82-1.52,2.96-1.85,2.17-.77,3.04-.61-1.21.12.57,3.63,1.21,4.55.51.73.52,1.05,1.37,1.52,6.01.77,13.92,7.26,19.28,5.16.81-.32,1.04-.32,1.82-.91.75.23,1.48.58,2.28.61.4-.12,4.53-5.54,5.31-6.38,1.05-1.11,2.22-2.14,3.19-3.34l2.88,2.43-.91.15c-2.39,5.02.6,4.96,4.4,10.17,3.45-5.99,11.45,2.49,19.43,5.16h18.52c3.47-1.88,7.94-2.66,11.84-2.73,1.96-.99,14.04-8.08,14.88-8.2.51-.07,3.21.72,4.25.91.51-.37-.37-5.22-.46-6.07.74-.57,5.73.08,8.35.3l1.67-4.55c.49-.19.15-.77.91-.61l4.86,1.67c-1.22-3.17-.75-4.43-4.25-2.58l.46-1.21c-3.55.64-4.55.73-7.14-.91,2.83.83,3.72.03,6.53-.91,4.03-1.35,8.12-3.54,11.39-6.22.7-2.6-10.19-9.52,5.01-6.22.46-6.25.7-7.53-5.92-7.29,3.78-1.65,10.26.47,10.63-2.43,2.81,1.02,1.12.35,1.97.3,3.03-.17,4.75-1.29,7.29-.91,3.26-7.69,3.73-2.64,6.38-3.34.69-.18,8.93-10.15,9.26-10.78.36-.67-.35-2.23.46-2.28.09,0,.87,1.19,1.21,1.21.87.07,7.43-5.36,7.89-5.47,1.42-.32,2.27,2.06,7.14-2.28l-3.64-4.25c.62-.37,3.92-.95,4.1-1.06.58-.36,5.86-7.95,8.65-10.63.16-.16,1.16-1.7,1.52-1.37.17,2.02,1.67,4.68,0,5.92Z"/>
            <path class="cls-45" d="m102.69,210.76c.48-.01,8.47,3.3,8.81,3.64,1.47,1.49-4.14.54-6.07,1.82-.49-.95-5.46-5.38-2.73-5.47Z"/>
            <path class="cls-43" d="m123.95,217.14l8.35,1.37c-3.37,2.84-6.1,2.79-8.35-1.37Z"/>
            <path class="cls-45" d="m180.27,194.97c-.46-.7-.28-.44.61-.91,3.5-1.85,3.03-.59,4.25,2.58l-4.86-1.67Z"/>
          </g>
          <path class="cls-37" d="m63.67,176.15c-.13.82-.28,3.42-.76,3.64-5.77-.32-11.26-2.26-16.85-3.34-3.7-2.48-9.49-.77-4.25-3.95,7.7,1.9,13.96,2.86,21.86,3.64Z"/>
          <path class="cls-42" d="m41.81,171.9l21.86,1.82c-.13.7.11,1.7,0,2.43-7.9-.79-14.17-1.74-21.86-3.64-1.64-.4-1.44-.59-1.52-.61.49-.05,1.04.07,1.52,0Z"/>
          <path class="cls-62" d="m35.13,193.46c1.65.67,1.71,1.47,1.82,1.52-3.56.95-6.4-1.11-9.56-2.43-1.28-1.82,6.93.58,7.74.91Z"/>
          <g>
            <path class="cls-50" d="m224.61,175.54c-2.75,3.37-2.07,2.67-2.43,4.55-2.15-.17-6.99,6.78-10.63,9.56-.51,4.14,2,7.78.91,9.26-.79.05-1.2-.43-1.97-.3-.47.25-.47.93-.76,1.21-.81-.18.38-1.14.3-1.67-.11-.75-4.44-12.23-5.47-14.12.18-.45.66-.6.61-1.06-.02-.17-1.02-1.4-1.82-2.88-.33-.61-.6-1.23-.91-1.82.22-1.98,6.43-2.08,7.74-1.82,5.14,1-1.26,6.55,5.16,3.95,1.32-.53,6.82-5.26,9.26-4.86Z"/>
            <path class="cls-38" d="m249.2,146.69c.39.54,2.01,1.3,2.13,2.58-1.42,1.02-2.02,2.82-3.04,4.1-.73.92-1.45,1.15-1.52,1.21-3.54.38-4.38-1.35-6.07.76-3.58,4.44.57,7.64.61,9.56.02,1.43-3.1,4.44-3.64,6.07l-6.22-1.82c-.37.06-1.85,2.08-2.28,2.43-1.48,1.22-3.34,2.46-4.55,3.95-2.44-.4-7.94,4.32-9.26,4.86-6.42,2.6-.02-2.95-5.16-3.95-1.31-.25-7.53-.15-7.74,1.82-.14-.26-1.95-1.72-2.58-5.16,6.84-1.33,13.72-2.61,20.34-4.86,5.66-4.42,8.99-11.12,15.18-14.88,2.28-1.39,7.34-3.05,10.32-4.86,3.02-1.83,2.01-3.14,3.49-1.82Z"/>
            <path class="cls-48" d="m222.18,180.09c-.36,1.93-.44,3.06,0,5.01-1.45,1.77-2.4,3.86-3.34,5.92-1.28,2.8-3.78,8.81-4.55,7.89-.6.03-1.22-.04-1.82,0,1.08-1.48-1.42-5.13-.91-9.26,3.64-2.79,8.48-9.73,10.63-9.56Z"/>
          </g>
          <path class="cls-39" d="m85.54,180.4c1,.04,1.53.65,2.43,0,.12.41.24.25.3.3,1.09.84,1.73,0,1.82,0,2.83.24,5.67.37,8.5.61,3.67.31,7.25.67,10.93.91,2.23.15,2.52-.36,3.49-.3.26.02,2.22.58,2.58.61,4.76.3,9.06,0,8.81,1.06-.33,1.37-9.61.62-10.63,2.28-.31,0-1.39-.53-4.25-.61-4.42-.12-7.74,1.35-12.3.91-5.44-1.82-11.64-1.07-16.55-1.52-.79-.07-1.64-.21-2.43-.3-12.1-5.71-7.11,3-.46,3.95,2.82.4,7.34-.86,8.35.91-3.76-1.19-6.02-.2-9.26-.61-5.29-.66-8.3-5.88-5.47-6.98,1.31-.51,1.85,1.51,1.37-1.52.87-.3.23,1.86,1.06,1.82.64-.03.31-1.62.61-1.82.46-.31,9.66.24,11.08.3Z"/>
          <path class="cls-37" d="m85.84,176.45c-.04.19.09,2.8-.3,3.95-1.42-.06-10.63-.62-11.08-.3-.3.21.04,1.79-.61,1.82-.83.04-.19-2.12-1.06-1.82-1.48-.57-6.55-.11-6.83-.3-.25-.18-.25-3.47,0-3.64.81-.58,17.37.95,19.89.3Z"/>
          <path class="cls-37" d="m70.05,173.11c7.99-.18,15.99.49,23.99,0-.02.25.04.56,0,.61-1.37,1.96-2.6,1.71-2.73,1.82-.95.82-2.51,4.38-1.21,5.16-.09,0-.73.84-1.82,0,.67-1.31,1.97-4.45,0-5.16-.3-.11-1.37-.25-1.82-.3-1.26-.14-3.15,0-4.55,0l-16.4-1.52.15-.61c1.47-.02,2.94.03,4.4,0Z"/>
          <path class="cls-39" d="m81.89,175.24c-.13,0-2.45.61-2.58.61-1.76,0-13.11.09-13.66-.3-.38-.27,0-1.41-.15-1.82l16.4,1.52Z"/>
          <path class="cls-13" d="m88.27,175.54c.23,1.4-.68,3.62-.3,4.86-.9.65-1.43.04-2.43,0,.4-1.14.26-3.75.3-3.95.09-.46.78-.61.61-1.21.45.05,1.52.19,1.82.3Z"/>
          <path class="cls-21" d="m152.04,184.35c-13.93,5.89-28.38,6.38-42.51.91,2.87.08,3.94.6,4.25.61,1.75.05,3.56-.11,5.31,0,8.47-2.16,17.31-3.14,25.35-6.68,11.39,1.32,21.5-2.35,12.6,2.73-.92.53-3.98,1.99-5.01,2.43Z"/>
          <g>
            <path class="cls-33" d="m191.21,171.29c6.62-.24,6.38,1.04,5.92,7.29-15.2-3.3-4.31,3.62-5.01,6.22-3.26,2.68-7.36,4.87-11.39,6.22-2.81.94-3.7,1.74-6.53.91-.08-.05-.34-1.31-1.06-1.52-1.25-.36-23.34-.73-26.11-.61-5.42.23-14.91,1.85-21.26,2.43-2.15.2-3.83-.45-5.47-.3-.16.01-.68,1.01-2.73,1.21-6.31.62-11.88.91-17.92-.91,2,1.69-4.2,1.04-6.07.61-3.26-.75-5.32-2.97-7.44-3.64-1.01-1.77-5.53-.51-8.35-.91-6.66-.94-11.65-9.66.46-3.95-2.26-.27-6.6-1.92-6.98-1.37.76,2.53,3.36,3.52,5.62,4.4,8.61-.41,8.47,1.79,3.8-2.73,4.91.45,11.11-.3,16.55,1.52,4.56.44,7.88-1.03,12.3-.91,14.13,5.47,28.58,4.98,42.51-.91.52.16,0,.69,1.06.61,2.37-.18,23.73-10.6,29.45-12.15.6-.16,8.03-1.5,8.65-1.52Z"/>
            <path class="cls-37" d="m78.25,184.35c.79.1,1.64.23,2.43.3,4.68,4.53,4.81,2.33-3.8,2.73-2.25-.88-4.86-1.87-5.62-4.4.39-.55,4.72,1.09,6.98,1.37Z"/>
            <path class="cls-33" d="m186.5,187.08c.3-.02.61.01.91,0,.53.29-10.33,4.86-10.93,4.86-.16,0-2.68-1.09-2.58-1.67.11-.65,11.95-3.15,12.6-3.19Z"/>
          </g>
          <path class="cls-21" d="m168.74,169.47v2.73c-1.12.09-1.38-.33-1.67-.3-.26.21,0,.54-.46.61,0-.19.07-.57-.15-.61-.41-.06-7.53.21-8.2.3-2.74.37-10.26,3.55-12.3,3.95-1.3.25-4.87.88-5.16-.3.3-.11.96.07,1.37,0v-.61c-12.63.71-25.29,3.33-37.96,1.82,3.86,1.37,9.11,1.36,13.21,1.21-.46,2.9,1.47,1.97,3.34,3.19-2.48,1.11-5.34-.27-5.16,1.06-.36-.02-2.32-.59-2.58-.61-.98-.06-1.26.45-3.49.3l.76-1.21c-1.93.07-4.1-2.25-6.98-2.43.48-3.05-4.11-1.75-4.4-1.82-.29-.08-.35-.3-.61-.3-2.92-1.1-3.17-2-3.34-2.13-.02-.19.36-.59.46-.61.87-.19,13.17-.75,14.27-.61.37.05,2.79,2.86,4.1-.3,17.32-.62,30.87,1.25,47.98-3.04,3.26.56,3.76.23,6.98-.3Z"/>
          <path class="cls-33" d="m144.44,179.18c-8.05,3.54-16.89,4.52-25.35,6.68-1.75-.11-3.57.05-5.31,0,1.02-1.65,10.3-.91,10.63-2.28.25-1.06-4.05-.76-8.81-1.06-.17-1.33,2.68.04,5.16-1.06-1.87-1.22-3.8-.29-3.34-3.19,4.92-.17,10.39-1.38,15.33-1.82,3.17-.29,4.98.49,8.05-.61.29,1.19,3.86.56,5.16.3,3.64.34,7.09-.5,10.63-1.21-.36,1.92,1.24.85,1.06,1.52-3.25.09-6.6,1.41-7.29,1.52-3.56.57-7.14-.58-5.92,1.21Z"/>
          <path class="cls-59" d="m183.31,166.43l1.37,5.16c-.75.61-13.75.43-15.94.61v-2.73c.86-.14,4.37-1.32,4.71-1.21,6.03,5.11,3.58-.27,3.95-.61.22-.2,5.04-.78,5.92-1.21Z"/>
          <path class="cls-59" d="m166.61,172.5c-3.43.47-6.64,1.75-10.02,2.43-3.53.71-6.99,1.55-10.63,1.21,2.03-.4,9.56-3.58,12.3-3.95.67-.09,7.79-.37,8.2-.3.22.03.16.42.15.61Z"/>
          <path class="cls-33" d="m109.53,182.22c-3.68-.24-7.26-.6-10.93-.91l.3-4.55c.29.08,4.89-1.23,4.4,1.82,2.89.18,5.05,2.49,6.98,2.43l-.76,1.21Z"/>
          <path class="cls-30" d="m88.27,180.7c-.06-.05-.18.1-.3-.3-.38-1.23.53-3.46.3-4.86,1.97.71.67,3.85,0,5.16Z"/>
          <path class="cls-21" d="m140.8,175.84c-3.07,1.1-4.88.32-8.05.61-4.94.45-10.41,1.65-15.33,1.82-4.1.15-9.35.15-13.21-1.21,12.66,1.51,25.33-1.11,37.96-1.82v.61c-.41.07-1.07-.11-1.37,0Z"/>
        </g>
      </g>
    </g>
  </g>
</svg>