<?xml version="1.0" encoding="UTF-8"?>
<svg id="Layer_2" data-name="Layer 2" xmlns="http://www.w3.org/2000/svg" xmlns:xlink="http://www.w3.org/1999/xlink" viewBox="0 0 294.29 243.33">
  <defs>
    <style>
      .cls-1 {
        fill: url(#linear-gradient);
      }

      .cls-1, .cls-2, .cls-3, .cls-4, .cls-5, .cls-6, .cls-7, .cls-8, .cls-9, .cls-10, .cls-11, .cls-12, .cls-13, .cls-14, .cls-15, .cls-16, .cls-17, .cls-18, .cls-19, .cls-20, .cls-21, .cls-22, .cls-23, .cls-24, .cls-25, .cls-26, .cls-27, .cls-28, .cls-29, .cls-30, .cls-31, .cls-32, .cls-33, .cls-34, .cls-35, .cls-36, .cls-37, .cls-38, .cls-39, .cls-40, .cls-41, .cls-42, .cls-43, .cls-44, .cls-45, .cls-46, .cls-47, .cls-48, .cls-49, .cls-50 {
        stroke-width: 0px;
      }

      .cls-2 {
        fill: #f9a464;
      }

      .cls-3 {
        fill: #630d16;
      }

      .cls-4 {
        fill: #7a5a24;
      }

      .cls-5 {
        fill: #75461c;
      }

      .cls-6 {
        fill: #714d4c;
      }

      .cls-7 {
        fill: #842943;
      }

      .cls-8 {
        fill: #7c605e;
      }

      .cls-9 {
        fill: #4f2812;
      }

      .cls-10 {
        fill: #457eab;
      }

      .cls-11 {
        fill: #a35f30;
      }

      .cls-12 {
        fill: #6dab43;
      }

      .cls-13 {
        fill: #713843;
      }

      .cls-14 {
        fill: #a3a98e;
      }

      .cls-15 {
        fill: #381e0f;
      }

      .cls-16 {
        fill: #3d1e1d;
      }

      .cls-17 {
        fill: #593914;
      }

      .cls-18 {
        fill: #593530;
      }

      .cls-19 {
        fill: #3d1311;
      }

      .cls-20 {
        fill: #072a3c;
      }

      .cls-21 {
        fill: #231311;
      }

      .cls-22 {
        fill: #1e6686;
      }

      .cls-23 {
        fill: #181216;
      }

      .cls-24 {
        fill: #cc8b98;
      }

      .cls-25 {
        fill: #cd834d;
      }

      .cls-26 {
        fill: #d4dcec;
      }

      .cls-27 {
        fill: #d6d8db;
      }

      .cls-28 {
        fill: #b37f40;
      }

      .cls-29 {
        fill: #bbb3a4;
      }

      .cls-30 {
        fill: #b7bfc2;
      }

      .cls-31 {
        fill: #b5703b;
      }

      .cls-32 {
        fill: #8b6b63;
      }

      .cls-33 {
        fill: #9caec6;
      }

      .cls-34 {
        fill: #8d5d61;
      }

      .cls-35 {
        fill: #8d5925;
      }

      .cls-36 {
        fill: #c28f4a;
      }

      .cls-37 {
        fill: #b9c3d5;
      }

      .cls-38 {
        fill: #8f4e28;
      }

      .cls-39 {
        fill: #6d2432;
      }

      .cls-40 {
        fill: #fed8ae;
      }

      .cls-41 {
        fill: #66481c;
      }

      .cls-42 {
        fill: #685c62;
      }

      .cls-43 {
        fill: #fcfefe;
      }

      .cls-44 {
        fill: #fbf5e6;
      }

      .cls-45 {
        fill: #fcc493;
      }

      .cls-46 {
        fill: #fae9cb;
      }

      .cls-47 {
        fill: #f09153;
      }

      .cls-48 {
        fill: #e9ebf4;
      }

      .cls-49 {
        fill: #698aa6;
      }

      .cls-50 {
        fill: #6a3815;
      }
    </style>
    <linearGradient id="linear-gradient" x1="165.51" y1="145.72" x2="181.64" y2="149.24" gradientUnits="userSpaceOnUse">
      <stop offset="0" stop-color="#b0bdcf"/>
      <stop offset="1" stop-color="#8a9eb5"/>
    </linearGradient>
  </defs>
  <g id="Layer_1-2" data-name="Layer 1">
    <g>
      <path class="cls-15" d="m255.5,215.15c6.16,5.62,12.28,8.57,19.75,12l2.25-.75c-.45-.9,2.29-4.12,2.5-4.25.49-.31,3.53.77,3.5-1.25-11.65-10.01-19.28-23.44-29-35-3.21-3.81-11.41-10.69-13-12.75-1.04-1.35-3.54-4.62-2-6,1.4,1.67,3.6,2.87,5,4.5.78.91,1.59,1.53,2,2,6.54,7.58,38.27,45.32,43.25,48,.35.19,1.6.75,1.75.25-6.6-6.82-11.19-15.05-17-22.5l4.5-5.25c3.66,3.13,5.18,4.81,5.5,5-5.32,6.74,10.7,17.38,9.75,24.5-.54.08-1.27-.13-1.75,0-7.34,1.95-13.07-3.3-14.5,4-3.67,1.93-21.61-3.73-22.75-3.5l-.75.75c1.9,2.87,3.26,7.45,5,10.25-1.62.46-3.86.91-5.5,1-.04-.41,1.87-1.95,2-2,.12-.04,2.38,1.48,2.5-.25-5.47-8.88-8.89-18.27-13.5-28-8.4-14.2-20.04-25.37-31.75-36.75-1.42.13-1.21,6.3-2.25,10.5-.68,2.73-3.54,10.66-3.5,11.25.03.42,3.88,7.05,4.25,7.25,1.16.63,6.25.05,7.75,2.25-.13,1.21-5.17,1.29-5.5,2.5-.21.78,6.45,12.59,7.5,14.25-.94.3-2,1.8-2.5,2.5-5.13-7.78-23.11-38.51-25-43.5-.18-.47.18-1.54,0-2-.02-.06,1.2.33,1-.75-2.8-1.41-12.73-22.75-14.5-21.5-.78,1.71-1.53,3.65-2.5,5.25-.63,1.04-3.06,3.46-3,5-.24-.12-1.46-.39-2-.5-.25-1.91-2.06-9.97-2-10.5.09-.83-.24-1.34.75-2,1.83.12,5.93-1.01,6.25-1,4.77.13,9.79,13.07,12.5,17.25,4.77,7.35,10.09,14.32,14.75,21.75l1.75-13.25c-1.2-1.68-6.13-5.21-6.5-6.25-.09-.26.23-.8-.5-1.25.27-.63,1.59-.87,2.5-1.25l4.75,5-.25-6c.07-.04.43-.66,1.5-.75-2-2.6-9.49-10.52-10-11.5-.29-.55.66-.91.5-1.25.88-.59,4.85-2.5,5-3.25.04-.22-1.81-3.21-1.5-4.25,1.99,4.94,12.84,22.41,16.5,26.75,3.04,3.62,12.85,12.46,16.75,15.25,6.53,4.67,12.99,6.54,13.25,7.25.4,1.07-2.91,2.6-3,3-.21.93,6.66,15.22,6.5,18,1.33,1.73,2.87,1.63,3,1.75Z"/>
      <path class="cls-22" d="m239,154.15c-2.56.82-7.72-2.33-10.25-4-.99.48,5.02,15.92-5.5,0-9.18,5.8-12.06-9.2-21.75-18-2.79-7.58-8.27-18.65-13-25,8.83-3.69-9.16-11.07-.5-23,20.64,30.52,29.76,41.93,51,70Z"/>
      <path class="cls-9" d="m279,194.15l-4.5,5.25c5.81,7.45,10.4,15.68,17,22.5-.15.5-1.4-.06-1.75-.25-4.98-2.68-36.71-40.42-43.25-48,1.52-.74.4-4.99,0-8-.26-1.97.81-3.37-1.5-3-.06-.14.06-.37,0-.5,1.6.25,9.32,2.23,9.75,2.5,1.63,1.01,13.57,20.38,24.25,29.5Z"/>
      <path class="cls-15" d="m239,154.15c1.38,1.83,2.72,3.59,4,5.5-2.14,4.73,3.32,14.56,2.5,6.5l.5-1c.05.09-.11.55.5.5.4,3.01,1.52,7.26,0,8-.41-.47-1.22-1.09-2-2-1.49-3.64-3.3-7.73-3.75-12.5l-9.25-4.25c2.1,4.52,4.83,8.46,8,12.25-1.54,1.38.96,4.65,2,6-.49.38.4,3.59.5,3.75,1.11,1.84,23.03,27.27,27.5,33l-.5,1.25c-4.95-4.69-10.26-9.08-15-14-.96-1-3.28-5.02-3.5-5.25-8.36-8.83-17.1-17.22-25-26.5-4.84-5.69-8.81-12.22-13.5-18-3.1-3.82-8.84-8.2-10-12.5-1.62-.95-.44,1.31-1.5,1.75-.1-1.79-.02-2.96,1-4.5,9.69,8.8,12.57,23.8,21.75,18,10.52,15.92,4.51.48,5.5,0,2.53,1.67,7.69,4.82,10.25,4Z"/>
      <path class="cls-10" d="m244.5,161.15c-1.02.74.95,4.49,1,5,.82,8.06-4.64-1.77-2.5-6.5.06.09.75.23,1.5,1.5Z"/>
      <path class="cls-20" d="m245,162.15c.06.13-.06.36,0,.5.35.83.55,1.73,1,2.5l-.5,1c-.05-.51-2.02-4.26-1-5,.18.3.34.68.5,1Z"/>
      <path class="cls-12" d="m260,236.65c-2.25-.79-40.87,3.92-47.5,4.5-5.54.48-11.15,1.73-16.75,2-13.59.65-29.6-.66-43.5,0-6.59-.23-13.2-1.6-19.75-2-5.75-.35-21.62-.11-23.25-.5-.37-.09-.25-.66-.25-1,9.76.31,19.48.8,29.25.5.37.29.87,1,1,1,29.82.81,58.26,1.84,88-3,.82-1.5-.27-1.43-.25-1.5.45-1.69.52-.91.5-1,4.07.91,8.37.49,12.5.5,4.61.01,9.42.26,14,0,1.64-.09,3.88-.54,5.5-1,.08.13,2.96-.41.5,1.5Z"/>
      <path class="cls-43" d="m101.5,106.15c-.46,6.15-3.94,12.33,2,6,2,1.87.19,3.04-1,4.75-3.19,4.58-32.26,34.63-39.5,44.5-2.99,3.85-13.81,6.93-11,11.75-.1.05-.74,1.63-1.75,1.5-.76-2.03-5.99-5.65-6.25-6-.1-.13-.59-2.21-1.5-3,1.47.29,2.7-.72,3.75-1.5,4.2-3.11,20.74-21.44,25.75-27,9.78-10.85,18.76-21.9,27.5-33.5,2.23-2.95,2.47-3.79,2,2.5Z"/>
      <path class="cls-42" d="m72,137.15c-5.01,5.56-21.55,23.89-25.75,27-1.05.78-2.28,1.79-3.75,1.5,7.55-7.43,22.04-27,29.5-28.5Z"/>
      <g>
        <path class="cls-11" d="m62,166.65c-2.67,4.95-12.1,11.56-18.5,17.5-5.41,5.03-10.35,10.78-16,15.5,3.1-4.57-4.18-1.2-8.5-3.5v-1c7.07-6.13,12.7-13.6,19.5-20,2.88,3.09,10.93-8.37,4-4l1.5-2.5c.26.35,5.49,3.97,6.25,6,1.01.13,1.65-1.45,1.75-1.5,3.27-1.64,7.17-4.21,10-6.5Z"/>
        <path class="cls-11" d="m38.5,175.15c1.39-1.3,2.31-2.93,4-4,6.93-4.37-1.12,7.09-4,4Z"/>
        <path class="cls-4" d="m19,196.15c4.32,2.3,11.6-1.07,8.5,3.5-1.14.95-1.79,3.08-3.75,3l-7.75-4c.65-.73,1.33-1.6,1.75-2.5h1.25Z"/>
      </g>
      <g>
        <path class="cls-44" d="m152.5,2.15c1.05,2.85.63,2.77,1,4.5.43,2.01-.99,3.35,3.25,11,7.3.5,6.98,3.29,10.5,8.5,7.9-3.38,9.27-4.87,12.25,4.5-.66,1.58-.67,3.34-1,5-2.39-14.15-12.94,13.98-22,6.75-.29-.65.97-3.18.5-5.75-.14-.76-3.37-6.9-3.75-7-4.34,1.03-9.65.85-13.5-1.5l-5.75,8c-.14-.05-.34.04-.5,0-1.9-4.16-9.43-.85-11.5-1.5-.21-.07-1.86-2.74-3.25-3-.56-.1-10.98.65-11.25,1.25-.18.4-.06,4.53.25,4.75.33.24,7.59,1.48,8,1.5,1.09.05,2.29-.99,5.25-1,6.52-.02,3.97,1.2,7.5,6,1.22,1.66,2.09,3.36,3.5,5,.2,1.49-.74.82-1.5,1-.57.13-2.78.51-3,.5-.12,0,.42-1.7-1.5-.75-.28,1.44.54,1.98.5,2.25-.05.29-.8-.49-.5,5h-2.5c-3.73-9.88-4.05-8-14.75-9.5-1.09,8.53,8.85.1,15.25,13.5.56,2.67-4.06-1.59-3,6.5v.5c-.19-.1-.79.1-1,0-6.37-2.89-13.07-4.12-19.5-6.75,1.93-19.87-2.61-21.34-2.5-22.5.19-1.88,5.15-3.05,4.5-5.25.54-9.89,2.23-8.32-3.75-16.5,8.05-7.89,9.7.5,12.5.5.48,0,6.1-4.51,6.5-4.5,2.86.05,5.81,13.15,15.25,6.25-1.19-3.91-2.45-9.22-2.5-13.25-.07-5.56,1.65-3.14,4.5-3.5,1.78-.22,2.33.61,2.75.5.65-.17,2.32-3.92,6.5-3,2.39.53.94,3.9,8.25,2Z"/>
        <path class="cls-2" d="m178.5,35.65c-1.08,5.42-3.13,6.64-3.5,12.25,17.2,6.27,12.19,9.06,2.5,20.25-.62-.35-3.74-.94-4.5-1,.4-2.51,4.83-6.34,6.5-8.75.28-.41-1.04-1.16,2-2.5-2.43-.26-3.44-2.63-4.75-2.25-.27.08-1.54,2.56-3.25,4.5-4.27-.41-3.6.49-5,1.5-.95.2-1.09-.34-1.5-1-.21-.35.8-.58.25-1-4.15-3.16-15.27-.55-20.75-1,3.98-6.09,6.97-13.6,10.5-20,.47,2.57-.79,5.1-.5,5.75,9.06,7.23,19.61-20.9,22-6.75Z"/>
        <path class="cls-40" d="m157,36.65c-3.53,6.4-6.52,13.91-10.5,20-.39.59-.48.47-.5.5-3.93-1.41-10.85,3.23-7.5-1.5,2.16-3.05,4.04-6.09,6-9.25-2.16-1.74-9.04-9.7-10.5-10.25l5.75-8c3.85,2.35,9.16,2.53,13.5,1.5.38.1,3.61,6.24,3.75,7Z"/>
        <path class="cls-45" d="m167,58.65c-8.34,7.29-14.43,8.51-6,9-1.66-.05-3.34,0-5,0-3.1,0-8.68-1.82-10.75.5-.75-2.33-5.18.07-9.5-.5-.45.16-.18.97-.25,1-2.21-1.82-3.62.42-4.25.5-3.89.47-7.38-1.48-7.75,2.5-.36-.06-1.74,3.05-.5-2.75-.67-1.12-1.72-.6-2-.75v-.5c3.98-3,26.94-2.36,28.25-3,.33-.16.91-.81.75-1.25l-6-5c.57-.99,1.44-.42,2-1.25.02-.03.11.09.5-.5,5.48.45,16.6-2.16,20.75,1,.55.42-.46.65-.25,1Z"/>
        <path class="cls-46" d="m138.5,55.65c-3.35,4.73,3.57.09,7.5,1.5-.56.83-1.43.26-2,1.25l6,5c.16.44-.42,1.09-.75,1.25-1.31.64-24.27,0-28.25,3-1.06-8.09,3.56-3.83,3-6.5,3.08,1.62.11-2.38-.5-4h2.5c-.16,2.34-.21,2.52,2,3,4.39.95,5.25-1.33,5.5-1.5.21-.14,1.14,1.07,1.5.25,1.42-3.22-2.69-6.59-4.5-8.75.76-.18,1.7.49,1.5-1,2.02,2.33,4.65,4.01,6.5,6.5Z"/>
        <path class="cls-2" d="m133.5,36.15c.16.04.36-.05.5,0,1.46.55,8.34,8.51,10.5,10.25-1.96,3.16-3.84,6.2-6,9.25-1.85-2.49-4.48-4.17-6.5-6.5-1.41-1.64-2.28-3.34-3.5-5-.16-4.4-1.15-9.57,5-8Z"/>
        <path class="cls-40" d="m122,34.65l-1,3.5c-2.96.01-4.16,1.05-5.25,1-.41-.02-7.67-1.26-8-1.5-.31-.22-.43-4.35-.25-4.75.27-.6,10.69-1.35,11.25-1.25,1.39.26,3.04,2.93,3.25,3Z"/>
        <path class="cls-40" d="m123.5,57.15c.61,1.62,3.58,5.62.5,4-6.4-13.4-16.34-4.97-15.25-13.5,10.7,1.5,11.02-.38,14.75,9.5Z"/>
        <path class="cls-40" d="m133.5,36.15c-6.15-1.57-5.16,3.6-5,8-3.53-4.8-.98-6.02-7.5-6l1-3.5c2.07.65,9.6-2.66,11.5,1.5Z"/>
        <path class="cls-45" d="m130.5,50.15c1.81,2.16,5.92,5.53,4.5,8.75-.36.82-1.29-.39-1.5-.25-1.52.84-2.81-4.18-3.75-4.5-2.99-1.03-3.87,2.53-1.75,6-2.21-.48-2.16-.66-2-3-.3-5.49.45-4.71.5-5l1-1.5c.22.01,2.43-.37,3-.5Z"/>
        <path class="cls-44" d="m127.5,50.65l-1,1.5c.04-.27-.78-.81-.5-2.25,1.92-.95,1.38.74,1.5.75Z"/>
        <path class="cls-47" d="m173,67.15c-.28-.02-.96.69-5.5.5-1-.04-2,.04-3,0,2.19-3.42,6.36-5.37,9-8.25.15-.16-.13-1.1,0-1.25,1.71-1.94,2.98-4.42,3.25-4.5,1.31-.38,2.32,1.99,4.75,2.25-3.04,1.34-1.72,2.09-2,2.5-1.67,2.41-6.1,6.24-6.5,8.75Z"/>
        <path class="cls-45" d="m173.5,58.15c-.13.15.15,1.09,0,1.25-2.64,2.88-6.81,4.83-9,8.25-1-.04-2,.03-3,0-.13-1.34,6.22-7.44,7-8,1.4-1.01.73-1.91,5-1.5Z"/>
        <path class="cls-2" d="m168.5,59.65c-.78.56-7.13,6.66-7,8-.17,0-.33,0-.5,0-8.43-.49-2.34-1.71,6-9,.41.66.55,1.2,1.5,1Z"/>
        <path class="cls-2" d="m133.5,58.65c-.25.17-1.11,2.45-5.5,1.5-2.12-3.47-1.24-7.03,1.75-6,.94.32,2.23,5.34,3.75,4.5Z"/>
      </g>
      <path class="cls-1" d="m185.5,128.65c1.32,7.23,10.58,39.99,13.25,40,.72,0,.48-2.18,1.75-1,.37,1.04,5.3,4.57,6.5,6.25l-1.75,13.25c-4.66-7.43-9.98-14.4-14.75-21.75-2.71-4.18-7.73-17.12-12.5-17.25-.47-3.44-6.93-1.25-9.25-2.5-.99-.53-2.44-4.56-2.75-5,1.8.51-.9-7.91-1.5-13.25-.19-1.66-.71-11.44-.5-12.25l8.25,8,1-8.5,12.25,14Z"/>
      <path class="cls-9" d="m254,197.15c-2.98,1.75,2.75,13.15,1.5,18-.13-.12-1.67-.02-3-1.75.16-2.78-6.71-17.07-6.5-18,.09-.4,3.4-1.93,3-3-.26-.71-6.72-2.58-13.25-7.25-3.9-2.79-13.71-11.63-16.75-15.25-3.66-4.34-14.51-21.81-16.5-26.75-.96-2.37-1.84-3.69-2-6.5,1.06-.44-.12-2.7,1.5-1.75,1.16,4.3,6.9,8.68,10,12.5,4.69,5.78,8.66,12.31,13.5,18,7.9,9.28,16.64,17.67,25,26.5.22.23,2.54,4.25,3.5,5.25Z"/>
      <path class="cls-49" d="m188.5,107.15c4.73,6.35,10.21,17.42,13,25-1.02,1.54-1.1,2.71-1,4.5.16,2.81,1.04,4.13,2,6.5-.31,1.04,1.54,4.03,1.5,4.25-.15.75-4.12,2.66-5,3.25-4.78-10.17-10.31-31.49-11.5-32.75-1.13-1.2-1.54,1.09-2.5.75-.59-3.5-1.4-13.14-5.5-13.5,3.43-2.75,1.34-2.74,1.25-6.5,2.67,2.7,5.48,5.45,7.75,8.5Z"/>
      <path class="cls-10" d="m199,150.65c.16.34-.79.7-.5,1.25.51.98,8,8.9,10,11.5-1.07.09-1.43.71-1.5.75-.52.26-3.77.69-4.5,1-.91.38-2.23.62-2.5,1.25.73.45.41.99.5,1.25-1.27-1.18-1.03,1-1.75,1-2.67,0-11.93-32.77-13.25-40-.09-.49.33-5.06-.5-10,.96.34,1.37-1.95,2.5-.75,1.19,1.26,6.72,22.58,11.5,32.75Z"/>
      <path class="cls-50" d="m254,197.15c4.74,4.92,10.05,9.31,15,14,3.73,3.53,7.31,7.4,11,11-.21.13-2.95,3.35-2.5,4.25l-2.25.75c-7.47-3.43-13.59-6.38-19.75-12,1.25-4.85-4.48-16.25-1.5-18Z"/>
      <path class="cls-9" d="m280,222.15c-3.69-3.6-7.27-7.47-11-11l.5-1.25c-4.47-5.73-26.39-31.16-27.5-33-.1-.16-.99-3.37-.5-3.75,1.59,2.06,9.79,8.94,13,12.75,9.72,11.56,17.35,24.99,29,35,.03,2.02-3.01.94-3.5,1.25Z"/>
      <path class="cls-9" d="m244.5,171.65c-1.4-1.63-3.6-2.83-5-4.5-3.17-3.79-5.9-7.73-8-12.25l9.25,4.25c.45,4.77,2.26,8.86,3.75,12.5Z"/>
      <path class="cls-49" d="m166,140.65c.31.44,1.76,4.47,2.75,5,2.32,1.25,8.78-.94,9.25,2.5-.32,0-4.42,1.12-6.25,1-.99.66-.66,1.17-.75,2h-.5c-4.78-3.68-6.76-14.36-9-13.5-.44-3.04.52-3.32.5-3.5.8,2.48,2.55,4.42,4,6.5Z"/>
      <path class="cls-9" d="m207,164.15l.25,6-4.75-5c.73-.31,3.98-.74,4.5-1Z"/>
      <path class="cls-29" d="m246.5,165.65c-.61.05-.45-.41-.5-.5-.45-.77-.65-1.67-1-2.5,2.31-.37,1.24,1.03,1.5,3Z"/>
      <path class="cls-27" d="m138,120.65c.92,1.92,1.03,3.91,1,6-.09,7.49.31,15.03-.5,22.5-.52.13-2.88.89-3,1-.55-.71-1.03-1.43-1.75-2-5.53,11.35-10.47,23.83-15.5,35l2.75-2c-.48.7-1.02,1.3-1.5,2-6.38,9.25-13.94,17.96-20,27.5l-2-10.5c.05-.02.44-.79.5-1,1.85-.17,3.88-2.06,5-3.5,2.37-3.04,2.78-6.53,4-10,.24-.67,2.23-3.28,2-3.75-1.82-.6-3.65-1.23-5.5-1.75,8.16-14.44,17.25-29.07,21.5-45.25.91-3.46.52-8.79,3-11.25.91,3.96,5.5.73,10-3Z"/>
      <g>
        <path class="cls-25" d="m171,151.15c-.06.53,1.75,8.59,2,10.5.41,3.1,1.27,6.44,1.5,9.5.18,2.34.58,4.64.5,7-.23,2.11-6.13,16.66-7.5,19.5-4.84,10.03-18.98,31.26-25.5,42.5-.12,0-.57.88-2.25.5-.54-.32.37-.39.25-1.5,7.48-13.63,11.96-28.49,16.5-43.25.52-5.78,1.38-9.31,3-14.75.31-1.03.68-1.98,1-3,1.35-4.28,3.47-8.3,5-12.5,1.74-4.79,2.86-9.85,5-14.5h.5Z"/>
        <path class="cls-50" d="m189.5,174.65c1.28.86,2.9,1.63,4.5,1.5,1.89,4.99,19.87,35.72,25,43.5-.05.06.07.75-.5,1.5-1.05-1.08-2.58-2.72-4-1.5-3.26-5-31.16-27.5-39.5-41.5.08-2.36-.32-4.66-.5-7,.82-.62,1.44-.49,2.25,0,2.35,1.43,24.3,26.02,28.5,31-2.13-8.07-20.77-26.08-15.75-27.5Z"/>
        <path class="cls-9" d="m175,162.15c2.7,1.37,11.68,10.6,14.5,12.5-5.02,1.42,13.62,19.43,15.75,27.5-4.2-4.98-26.15-29.57-28.5-31-.81-.49-1.43-.62-2.25,0-.23-3.06-1.09-6.4-1.5-9.5.54.11,1.76.38,2,.5Z"/>
        <path class="cls-15" d="m178,157.15l16,17c.18.46-.18,1.53,0,2-1.6.13-3.22-.64-4.5-1.5-2.82-1.9-11.8-11.13-14.5-12.5-.06-1.54,2.37-3.96,3-5Z"/>
        <path class="cls-9" d="m194,174.15l-16-17c.97-1.6,1.72-3.54,2.5-5.25,1.77-1.25,11.7,20.09,14.5,21.5.2,1.08-1.02.69-1,.75Z"/>
        <path class="cls-50" d="m218.5,221.15c1.41,1.45,8.61,12.57,9,14.5.02.09-.05-.69-.5,1-9.67,3.62-5.95.4-8-6.25-.78-2.52-3.19-8.73-4.5-10.75,1.42-1.22,2.95.42,4,1.5Z"/>
        <path class="cls-11" d="m142,240.15c6.52-11.24,20.66-32.47,25.5-42.5l15.5,42.75c-13.69,1.19-27.33-.11-41-.25Z"/>
      </g>
      <path class="cls-37" d="m135.5,150.15c-3.2,2.87-.81,9.22-1,10.25-.22,1.22-11.74,18.2-13.5,20.75l-2.75,2c5.03-11.17,9.97-23.65,15.5-35,.72.57,1.2,1.29,1.75,2Z"/>
      <g>
        <path class="cls-38" d="m140.5,204.65l-11.5,3.25c-.75,1.58,9.5,22.25,10.5,25.75.58,2.04.3,3.71.5,5.5.12,1.11-.79,1.18-.25,1.5,1.68.38,2.13-.5,2.25-.5,13.67.14,27.31,1.44,41,.25l-15.5-42.75c1.37-2.84,7.27-17.39,7.5-19.5,8.34,14,36.24,36.5,39.5,41.5,1.31,2.02,3.72,8.23,4.5,10.75,2.05,6.65-1.67,9.87,8,6.25-.02.07,1.07,0,.25,1.5-29.74,4.84-58.18,3.81-88,3-.13,0-.63-.71-1-1-9.77.3-19.49-.19-29.25-.5-7.81-.25-23.16.05-28.5-.5-1.07-.11-2.21.42-3-.75.43-.38.75-.7,1-1.25.4.05.59.34,1,.5,1.5.57,12.17.92,13,.25,1.04-6.84,6.3-15.52,5.5-20.75,8.43-7.52,11.67-9.05,12-9.75.25-.53-1.71-2.68-1.5-4,.19-1.17,13.64-18.32,13.5-19.5-.16-1.36-1.72-.57-2.5-.75.48-.7,1.02-1.3,1.5-2,1.76-2.55,13.28-19.53,13.5-20.75.19-1.03-2.2-7.38,1-10.25,1.32,1.7,2.84,4.95,6.5,7.75.24,1.42-4.83,7.41-5,8.5-.3,1.9,2.73,33.88,3.5,38.25Z"/>
        <path class="cls-38" d="m140.5,204.65c.77,4.38,3.9,10.49,4,15.25l-5,13.75c-1-3.5-11.25-24.17-10.5-25.75l11.5-3.25Z"/>
        <path class="cls-11" d="m98,217.15c.8,5.23-4.46,13.91-5.5,20.75-.83.67-11.5.32-13-.25,4.41-6.12,8.12-12.59,14-17.5,1.85-1.78,4.3-2.82,4.5-3Z"/>
        <path class="cls-31" d="m98,217.15c-.2.18-2.65,1.22-4.5,3l-1.5-1c.67-.84,1.34-1.65,2-2.5.81-1.04,1.69-1.95,2.5-3,.13-.17.37.43,3-3,6.06-9.54,13.62-18.25,20-27.5.78.18,2.34-.61,2.5.75.14,1.18-13.31,18.33-13.5,19.5-.21,1.32,1.75,3.47,1.5,4-.33.7-3.57,2.23-12,9.75Z"/>
        <path class="cls-36" d="m93.5,220.15c-5.88,4.91-9.59,11.38-14,17.5-.41-.16-.6-.45-1-.5.68-1.52,2.08-3.54,3-5,2.37-3.75,5.71-8.01,8.5-11.5.22-.27,1.79-1.23,2-1.5l1.5,1Z"/>
      </g>
      <path class="cls-48" d="m126.5,102.15c.08.57.47-.19.5,3,0,.98-.14,1.64.5,2.5-.08.09-.62-.23-1,.25-1.24,1.56-12.38,30.41-16,36.5-.57.97-1.87.32-3,2.25-4.34-3.73-4.38-1.18-5-.5-1.69,1.86-5.8,10.63-8.5,13.5.96-7.73-1.18-6.29-1.5-6.5-.91-.6-9.72-3.07-10.25-3-.48.07-7.4,4.38-8.25,5-4.35,3.17-7.78,8.09-12,11.5-2.83,2.29-6.73,4.86-10,6.5-2.81-4.82,8.01-7.9,11-11.75,7.24-9.87,36.31-39.92,39.5-44.5,1.19-1.71,3-2.88,1-4.75.5-.53,7.51-9.57,9-11.5,2.95-.59,1.62,1.45,1,3.25-3.33,9.74-26.78,43.18-24.75,44.75l7.25,1.25c5-9.3,9.77-18.84,15-28,3.2-5.61,13.23-19.3,9.5-18.25,1.99-2.09,3.5-4.63,5.75-6.5.58.44.11,3.97.25,5Z"/>
      <path class="cls-17" d="m107.5,146.65c-5.21,8.86-10.13,18.05-16,26.5-1.81,2.6-4.67,4.72-5.5,8-9.04,13.91-8.77,16.37,3,3.25,4.56-5.09,9.39-11.57,11.25-17.75l-4.25,3.5c9.62-9.23,7.82-7.43.5,9.25.07,1.38,1.63,1.69,2.5,2.25,1.83,1.18,6.49,2.08,8,4-1.22,3.47-1.63,6.96-4,10-2.24-5.44,1.49-6.85-.5-8.5,1.29-2.8-6.31-8.54-9-2.5-1.72,1.43-23.17,22.5-25,24.5-.02-.81.68-2.94,1-3.5.67-1.15,3.89-4.43,5-6.75.54-1.13,5.85-15.72,8.5-22.25,3.01,3.71,2.04,1.23,5.5-3,2.28-2.79,18.16-25.76,17.5-27.25-.34-.78-2.36-.77-3.5-.25.62-.68.66-3.23,5,.5Z"/>
      <g>
        <path class="cls-11" d="m27.5,205.15c-.16,5.99,1.39,12.06,1.5,18,.02.89-.8,1.62-.5,3-9.01-.86-18.46.78-27.5.5-.04-.06-1.03.15-1-.25,3.04-2.36,11.27-10.26,13.25-11.25.06-.03.48.79,1.25.5.51-.19.99-.53,1.5-.75-1.07-1.59-1.9-.24-2-.25-3.19-.37-7.53.35-8-.25.53-2.01,1.98-3.52,3-5.25,1.03-1.76,2.34-3.34,3.5-5l10.25,5.5c1.58-1.51,3.18-2.97,4.75-4.5Z"/>
        <path class="cls-28" d="m14.5,215.65l-.5-1c.1.01.93-1.34,2,.25-.51.22-.99.56-1.5.75Z"/>
        <path class="cls-25" d="m44.5,186.15c-5.48,5.08-9.5,10.86-11.5,13-1.82,1.95-3.61,4.16-5.5,6-1.57,1.53-3.17,2.99-4.75,4.5l-10.25-5.5c1.25-1.8,1.97-3.78,3.5-5.5l7.75,4c1.96.08,2.61-2.05,3.75-3,5.65-4.72,10.59-10.47,16-15.5l1,2Z"/>
        <path class="cls-11" d="m33,199.15c2-2.14,6.02-7.92,11.5-13,2.22-2.06,16.38-13.42,18.25-14.5.35-.2,1.13.82,2.5.5.67-.59,1.2-1.31,1.75-2,5.91,11.78,2.27,16.4-6.25,25.5-11.18,2.6-12.48,6.9-27.75,3.5Z"/>
        <path class="cls-25" d="m67,170.15c-.55.69-1.08,1.41-1.75,2-1.37.32-2.15-.7-2.5-.5-1.87,1.08-16.03,12.44-18.25,14.5l-1-2c6.4-5.94,15.83-12.55,18.5-17.5,4.22-3.41,7.65-8.33,12-11.5.39,1.66-6.26,14.07-7,15Z"/>
        <path class="cls-50" d="m94,159.65c-.55,4.39-4.66,9.49-5.5,14-3.46,4.23-2.49,6.71-5.5,3,3.17-7.83,6.38-15.65,9.5-23.5.32.21,2.46-1.23,1.5,6.5Z"/>
        <path class="cls-50" d="m47,202.65c-3.42,6.35-14.39,19.5-16.5,25,.06-.14.42-1.4.25-1.5-.74-.05-1.51.07-2.25,0-.3-1.38.52-2.11.5-3,5.24-6.96,9.93-14.44,16.25-20.5,1.55-.88,1.67.04,1.75,0Z"/>
        <g>
          <path class="cls-38" d="m92.5,153.15c-3.12,7.85-6.33,15.67-9.5,23.5-2.65,6.53-7.96,21.12-8.5,22.25-1.11,2.32-4.33,5.6-5,6.75-1.7-.64-12.26,10.68-12.5,11.75-.34,1.48.75,2.77.5,4.25-1.7,2.22-4.62,6.19-6,8.5l-23,.5c-1.68-.63,1.89-2.74,2-3-1.48,3.87,2.7,2.29,4.5.25.83-.94,5.15-11.7,8-15.5,5.79-7.72,28.35-22.87,4-9.75-.08.04-.2-.88-1.75,0-6.32,6.06-11.01,13.54-16.25,20.5-.11-5.94-1.66-12.01-1.5-18,1.89-1.84,3.68-4.05,5.5-6,15.27,3.4,16.57-.9,27.75-3.5,8.52-9.1,12.16-13.72,6.25-25.5.74-.93,7.39-13.34,7-15,.85-.62,7.77-4.93,8.25-5,.53-.07,9.34,2.4,10.25,3Z"/>
          <path class="cls-25" d="m30.5,227.65c2.11-5.5,13.08-18.65,16.5-25,24.35-13.12,1.79,2.03-4,9.75-2.85,3.8-7.17,14.56-8,15.5-1.8,2.04-5.98,3.62-4.5-.25Z"/>
          <path class="cls-5" d="m69.5,205.65c-.32.56-1.02,2.69-1,3.5-2.36,2.57-9.46,10.5-11,12.5.25-1.48-.84-2.77-.5-4.25.24-1.07,10.8-12.39,12.5-11.75Z"/>
        </g>
      </g>
      <g>
        <path class="cls-38" d="m92,208.65c.64,2.52.49,5.9,2,8-.66.85-1.33,1.66-2,2.5-.21.27-1.78,1.23-2,1.5-4.7-.67-10.11,10.06-11.75,11-.9.52-4.69-.11-4.25,1.5-8.44,1.26-17,2.17-25.5,3,.14-1.37.48-.95.5-1,1.39,1.14,2.52-.47,3.5-1.5-.59,1.98,7.96-.01,9.25-.5,1.28-.48,13.65-8.21,14.5-9,3.26-3.03,9.27-14.78,14.25-19,.05.21.24-1.43,1.5,3.5Z"/>
        <path class="cls-25" d="m86.5,194.65c-9.2,11.75-20.24,22-30,33.25-.93,1.07-3.5,5.23-4,5.75-.98,1.03-2.11,2.64-3.5,1.5.36-.97,1.96-4.09,2.5-5,1.38-2.31,4.3-6.28,6-8.5,1.54-2,8.64-9.93,11-12.5,1.83-2,23.28-23.07,25-24.5-2.24,3.3-4.55,6.87-7,10Z"/>
        <path class="cls-38" d="m103,195.65c-1.12,1.44-3.15,3.33-5,3.5-3.55.32-9.13-4.61-9-1,.05,1.52,1.06,5.18,1.5,7-4.98,4.22-10.99,15.97-14.25,19-.85.79-13.22,8.52-14.5,9-1.29.49-9.84,2.48-9.25.5.5-.52,3.07-4.68,4-5.75,9.76-11.25,20.8-21.5,30-33.25.89,5.14,15.36-6.11,16-7.5,1.99,1.65-1.74,3.06.5,8.5Z"/>
        <path class="cls-41" d="m98,199.15c-.06.21-.45.98-.5,1-4.27,1.84.07,9.16-1,13.5-.81,1.05-1.69,1.96-2.5,3-1.51-2.1-1.36-5.48-2-8,4.63-4.13,4.81-12.29-3-10.5-.13-3.61,5.45,1.32,9,1Z"/>
        <path class="cls-5" d="m92,208.65c-1.26-4.93-1.45-3.29-1.5-3.5-.44-1.82-1.45-5.48-1.5-7,7.81-1.79,7.63,6.37,3,10.5Z"/>
        <path class="cls-17" d="m90,220.65c-2.79,3.49-6.13,7.75-8.5,11.5-2.61-.4-5.01.63-7.5,1-.44-1.61,3.35-.98,4.25-1.5,1.64-.94,7.05-11.67,11.75-11Z"/>
        <path class="cls-11" d="m102.5,187.15c-.64,1.39-15.11,12.64-16,7.5,2.45-3.13,4.76-6.7,7-10,2.69-6.04,10.29-.3,9,2.5Z"/>
      </g>
      <path class="cls-26" d="m157.5,95.15c0,.6,1.72,11.22,2,11.75.72,1.37,3.02,1.24,3.5,2.5.72,1.9-1.32,1.84,1,4.75-.03.32.07.73,0,1-.21.81.31,10.59.5,12.25.6,5.34,3.3,13.76,1.5,13.25-1.45-2.08-3.2-4.02-4-6.5-.55-5.67-3.91-12.47-6.25-18-.25,2.48-.59,1.59-1.25,2,.32-12.68-6.78-21.99,3-23Z"/>
      <path class="cls-37" d="m162,134.15c.02.18-.94.46-.5,3.5,1.35,9.33,2.66,18.66,4,28-1.53,4.2-3.65,8.22-5,12.5l-2.5-2.5c-.05-1.48.04-5.23,0-5.5,2.9-.9,1.38-.54,2-2.75-1.77-9.69-1.23-19.79-3-29.5-.41-2.24-2.98-16.93-6.25-14.75-1.11.74-.61,21.35-3.75,26.25l.5,26.75c-2.49-1.39-2.69-4.05-4.5-3,.16-5.21.48-10.31,1-15.5.02-.23,1.75-2.12,2-4.25.63-5.35.77-14.84,0-20.25,5.05-6.11,1.01-9.91,3-12.5.18-.24,3.46-1.21,5.5-2.5.66-.41,1,.48,1.25-2,2.34,5.53,5.7,12.33,6.25,18Z"/>
      <path class="cls-33" d="m170.5,151.15c-2.14,4.65-3.26,9.71-5,14.5-1.34-9.34-2.65-18.67-4-28,2.24-.86,4.22,9.82,9,13.5Z"/>
      <path class="cls-33" d="m160.5,178.15c-.32,1.02-.69,1.97-1,3-3.57-.51-1.49-5.17-1.5-5.5l2.5,2.5Z"/>
      <g>
        <path class="cls-50" d="m256,234.15c-6.26-7.49-8.95-17.07-14-25.25-1.67-2.7-8.34-12.31-10.5-12.25-.16-2.01-11.97-14.21-14.5-16.5-.64-.58-1.33-1.72-1.75-2.5-1.16.7-.55,1.64-.75,2.5l-3.5-.5c1.04-4.2.83-10.37,2.25-10.5,11.71,11.38,23.35,22.55,31.75,36.75,4.61,9.73,8.03,19.12,13.5,28-.12,1.73-2.38.21-2.5.25Z"/>
        <path class="cls-50" d="m256,234.15c-.13.05-2.04,1.59-2,2-4.58.26-9.39.01-14,0l-1-1c1.74-.08,3.5.06,5.25,0,1.65-.66-5.47-16.93-6.75-19.25-1.18-2.13-7.75-11.19-9.5-13.25,1.98-1.7,3.74-3.06,3.5-6,2.16-.06,8.83,9.55,10.5,12.25,5.05,8.18,7.74,17.76,14,25.25Z"/>
        <path class="cls-50" d="m214.5,180.15c-1.01,4.46-.18,9.31-1.5,13.75l13,5.25c-.1.18-.45.97-.5,1-.21.11-3.82.36-4.75.5l-.75,1.75c3.71,7.21,5.31,15.19,8,22.75-.63,1.12-4.51-4.83-6.5-8-1.05-1.66-7.71-13.47-7.5-14.25.33-1.21,5.37-1.29,5.5-2.5-1.5-2.2-6.59-1.62-7.75-2.25-.37-.2-4.22-6.83-4.25-7.25-.04-.59,2.82-8.52,3.5-11.25l3.5.5Z"/>
        <path class="cls-17" d="m221.5,217.15c1.99,3.17,5.87,9.12,6.5,8,.64,1.8,2.85,9.52,4.25,10,1.99-.34,5.03.08,6.75,0l1,1c-4.13,0-8.43.41-12.5-.5-.39-1.93-7.59-13.05-9-14.5.57-.75.45-1.44.5-1.5.5-.7,1.56-2.2,2.5-2.5Z"/>
        <path class="cls-38" d="m217,180.15c-2.47,4.37,10.84,15.62,9,19l-13-5.25c1.32-4.44.49-9.29,1.5-13.75.2-.86-.41-1.8.75-2.5.42.78,1.11,1.92,1.75,2.5Z"/>
        <path class="cls-38" d="m231.5,196.65c.24,2.94-1.52,4.3-3.5,6-.66-.78-1.9-1.58-2.5-2.5.05-.03.4-.82.5-1,1.84-3.38-11.47-14.63-9-19,2.53,2.29,14.34,14.49,14.5,16.5Z"/>
        <path class="cls-11" d="m225.5,200.15c.6.92,1.84,1.72,2.5,2.5,1.75,2.06,8.32,11.12,9.5,13.25,1.28,2.32,8.4,18.59,6.75,19.25-1.75.06-3.51-.08-5.25,0-1.72.08-4.76-.34-6.75,0-1.4-.48-3.61-8.2-4.25-10-2.69-7.56-4.29-15.54-8-22.75l.75-1.75c.93-.14,4.54-.39,4.75-.5Z"/>
      </g>
      <path class="cls-43" d="m128,123.65c-2.48,2.46-2.09,7.79-3,11.25-4.25,16.18-13.34,30.81-21.5,45.25-2.78-.78-8.15-2.95-4.5,1.5-.87-.56-2.43-.87-2.5-2.25,7.32-16.68,9.12-18.48-.5-9.25-1.06,1.01-2.51,1.94-3.5,3h-1c5.87-8.45,10.79-17.64,16-26.5,1.13-1.93,2.43-1.28,3-2.25,3.62-6.09,14.76-34.94,16-36.5.38-.48.92-.16,1-.25.07-.08.34,1.22,2-.5,1.45,3.98-2.23,13.32-1.5,16.5Z"/>
      <path class="cls-37" d="m146,133.15c.77,5.41.63,14.9,0,20.25-.25,2.13-1.98,4.02-2,4.25l-5.5-8.5c.81-7.47.41-15.01.5-22.5l4.75,9.5c.42-1.25,1.46-2.05,2.25-3Z"/>
      <path class="cls-27" d="m103.5,180.15c1.85.52,3.68,1.15,5.5,1.75.23.47-1.76,3.08-2,3.75-1.51-1.92-6.17-2.82-8-4-3.65-4.45,1.72-2.28,4.5-1.5Z"/>
      <path class="cls-26" d="m97.5,200.15l2,10.5c-2.63,3.43-2.87,2.83-3,3,1.07-4.34-3.27-11.66,1-13.5Z"/>
      <path class="cls-27" d="m158,170.15c-.22-1.74-.78-3.08-2.5-2.5-1.1.37-6.68,7.07-7.5,8.5h-.5l-.5-26.75c3.14-4.9,2.64-25.51,3.75-26.25,3.27-2.18,5.84,12.51,6.25,14.75,1.77,9.71,1.23,19.81,3,29.5-.62,2.21.9,1.85-2,2.75Z"/>
      <path class="cls-33" d="m147.5,176.15h.5c-2.17,3.78-4.15,10.64-4.5,15-.34,0-.84.14-1-.25-.33-.82.43-15.38.5-17.75,1.81-1.05,2.01,1.61,4.5,3Z"/>
      <g>
        <path class="cls-17" d="m138.5,149.15l5.5,8.5c-.52,5.19-.84,10.29-1,15.5-.07,2.37-.83,16.93-.5,17.75.16.39.66.25,1,.25-.37,4.52.23,7.05,1,11.5.56,3.21.98,6.81,2.5,9.75,1.21-5.41,2.39-10.82,3.5-16.25,1.92-9.43,3.45-18.99,5-28.5,1.72-.58,2.28.76,2.5,2.5.04.27-.05,4.02,0,5.5.01.33-2.07,4.99,1.5,5.5-1.62,5.44-2.48,8.97-3,14.75-4.54,14.76-9.02,29.62-16.5,43.25-.2-1.79.08-3.46-.5-5.5l5-13.75c-.1-4.76-3.23-10.87-4-15.25-.77-4.37-3.8-36.35-3.5-38.25.17-1.09,5.24-7.08,5-8.5-3.66-2.8-5.18-6.05-6.5-7.75.12-.11,2.48-.87,3-1Z"/>
        <path class="cls-11" d="m150.5,196.15c-3.41-.98-1.85,5.99-6,6.5-.77-4.45-1.37-6.98-1-11.5.35-4.36,2.33-11.22,4.5-15,.82-1.43,6.4-8.13,7.5-8.5-1.55,9.51-3.08,19.07-5,28.5Z"/>
        <path class="cls-38" d="m150.5,196.15c-1.11,5.43-2.29,10.84-3.5,16.25-1.52-2.94-1.94-6.54-2.5-9.75,4.15-.51,2.59-7.48,6-6.5Z"/>
      </g>
      <path class="cls-43" d="m116.5,103.65c.11.66.47,3.31.75,3.5.91-1.35,2.15-2.35,3.25-3.5,3.73-1.05-6.3,12.64-9.5,18.25-5.23,9.16-10,18.7-15,28l-7.25-1.25c-2.03-1.57,21.42-35.01,24.75-44.75.62-1.8,1.95-3.84-1-3.25.38-.49,1.75-2.68,3.5-5,.1,2.41.12,5.68.5,8Z"/>
      <path class="cls-35" d="m88.5,173.65c.84-4.51,4.95-9.61,5.5-14,2.7-2.87,6.81-11.64,8.5-13.5,1.14-.52,3.16-.53,3.5.25.66,1.49-15.22,24.46-17.5,27.25Z"/>
      <g>
        <path class="cls-11" d="m86,181.15c2.57-2.17,4.24-5.58,6.5-8,.99-1.06,2.44-1.99,3.5-3l4.25-3.5c-1.86,6.18-6.69,12.66-11.25,17.75-11.77,13.12-12.04,10.66-3-3.25Z"/>
        <path class="cls-40" d="m92.5,173.15c-2.26,2.42-3.93,5.83-6.5,8,.83-3.28,3.69-5.4,5.5-8h1Z"/>
      </g>
      <g>
        <path class="cls-34" d="m121,68.15c.28.15,1.33-.37,2,.75-1.24,5.8.14,2.69.5,2.75,5.92.97,6.41.39,11.5-2-.04.66.45.47,1,.5-5.3,4.39-6.3,3.65-12.75,3-.52.26.58.58.25,2l-11,5c2.39-4.06,5.15-7.92,7.5-12,.21.1.81-.1,1,0Z"/>
        <path class="cls-23" d="m177.5,68.15c3.66,5.22,6.93,10.72,10.5,16-8.66,11.93,9.33,19.31.5,23-2.27-3.05-5.08-5.8-7.75-8.5.09,3.76,2.18,3.75-1.25,6.5-.33-.03-.67.01-1,0-1.99-9-5.3-18.63-8-27.5-.19-.62-.3-1.39-.5-2-.4-1.21-1.11-5.96-2.25-6.5l-6.75-.25c1.8-.53,6.54.62,6.5-1.25,4.54.19,5.22-.52,5.5-.5.76.06,3.88.65,4.5,1Z"/>
        <path class="cls-8" d="m115,82.15l1.5,4.5c-2.3,3.08-12.62,18.94-13.5,19.75-.73.68-.92-.16-1.5-.25.47-6.29.23-5.45-2-2.5-5.97,2.09,9.34-18.49,12.5-20.5.77-.22,2.68-.82,3-1Z"/>
        <path class="cls-30" d="m123.5,75.15c-.1.45.12,1.17,0,1.5-.92,2.42-1.72,1.88-3.5,3-1.56.98-3.39,1.57-5,2.5-.32.18-2.23.78-3,1-1.98-1.31-.4-1.48.5-3l11-5Z"/>
        <path class="cls-3" d="m161,67.65c.17,0,.33,0,.5,0,1,.03,2-.04,3,0,1,.04,2-.04,3,0,.04,1.87-4.7.72-6.5,1.25l6.75.25c1.14.54,1.85,5.29,2.25,6.5l-9,1.25c1.64,1.56,2.2,3.74,3,5.75l-2.5,2c-.2-.27-4.2-3.78-5-4.5-.47-.42-3.02-3.45-3.25-3.5-1.03-.11-1.17,1.01-1.25,1-1.82-.21-6.11-.99-7.5-.5l-1-1.5c1.18-2.16,2.67-4.17,3.5-6.5,4.15-1.82,7.42-.31,9-1.5,1.66,0,3.34-.05,5,0Z"/>
        <path class="cls-14" d="m156,67.65c-1.58,1.19-4.85-.32-9,1.5-.34.15-.67.11-1,.5-1.5-1.49-5.09.73-10,.5-.55-.03-1.04.16-1-.5.05-.02.45-.97.5-1,.07-.03-.2-.84.25-1,4.32.57,8.75-1.83,9.5.5,2.07-2.32,7.65-.5,10.75-.5Z"/>
        <path class="cls-39" d="m135.5,68.65s-.45.98-.5,1c-5.09,2.39-5.58,2.97-11.5,2,.37-3.98,3.86-2.03,7.75-2.5.63-.08,2.04-2.32,4.25-.5Z"/>
        <path class="cls-7" d="m146,69.65c-1.03,2.48-3.04,4.33-4.5,6.5-4.01.01-7.99-.13-12,0-.33.01-.67-.02-1,0-.14,0-2.46-.6-2.75-.5-1.37.49.11,3.11-2.25,1,.12-.33-.1-1.05,0-1.5.33-1.42-.77-1.74-.25-2,6.45.65,7.45,1.39,12.75-3,4.91.23,8.5-1.99,10-.5Z"/>
        <path class="cls-21" d="m156.5,80.15c.8.72,4.8,4.23,5,4.5.4.55,5.28,10.55,6,12.25,1.76,4.14.79,10.1,5.5,6.75.22.35,4.69,4.82,5.75,6,.15-.68-.18-4.2-.25-4.5.33.01.67-.03,1,0,4.1.36,4.91,10,5.5,13.5.83,4.94.41,9.51.5,10l-12.25-14-1,8.5-8.25-8c.07-.27-.03-.68,0-1,.53.66,5.76,5.65,6.5,4.75-1.22-11.6-5.43-22.96-11.25-32.75-1.24,2.66-.61,5.48-.75,8.25-.02.39-1-.01-1,.75-9.78,1.01-2.68,10.32-3,23-2.04,1.29-5.32,2.26-5.5,2.5-2.65-.81-.98-6.82-2-10.5,5.07-6.62,1.51-3.8-2-5.5-.07-.03.22-.75-.25-1-2.97-1.58-6.81-1.48-4.75-6,2.14,2.98,7.57,1.72,11.25,3.5.87-2.31-1.33-3,1.25-4.75.25-1.79-.99-1.45-1.5-5.25-.12-.91.35-3.26-.5-5,.27-.07.83-.36,1-.5,1.86-1.49-.08-4.72,5-5.5Z"/>
        <path class="cls-16" d="m178.5,105.15c.07.3.4,3.82.25,4.5-1.06-1.18-5.53-5.65-5.75-6-.15-.25-.31-2.28-2-5.5,1.75-4.83-7.36-13.2-1.5-15.75-.54-1.74-1.06-3.98,1-4.75,2.7,8.87,6.01,18.5,8,27.5Z"/>
        <path class="cls-21" d="m170,75.65c.2.61.31,1.38.5,2-2.06.77-1.54,3.01-1,4.75-5.86,2.55,3.25,10.92,1.5,15.75-2.55-4.87-4.96-10.38-7-15.5-.8-2.01-1.36-4.19-3-5.75l9-1.25Z"/>
        <path class="cls-16" d="m129.5,76.15c-.15,1.24.26.88,1,1-.32,4.87.87,10.86-1,10.5.52-7.75-4.39,7.67-2.5,14-.06.14.1.55-.5.5-.14-1.03.33-4.56-.25-5-2.25,1.87-3.76,4.41-5.75,6.5-1.1,1.15-2.34,2.15-3.25,3.5-.28-.19-.64-2.84-.75-3.5,2.91,1.1,5.92-11.03,9.5-16.75-3.76-4.25-7.81,5.84-10,8.75-1.75,2.32-3.12,4.51-3.5,5-1.49,1.93-8.5,10.97-9,11.5-5.94,6.33-2.46.15-2-6,.58.09.77.93,1.5.25.88-.81,11.2-16.67,13.5-19.75.15-.2,1.89-1.33,2-1.5,2.95.13,9.12-6.08,10-9,.33-.02.67.01,1,0Z"/>
        <path class="cls-8" d="m118.5,85.15c-.11.17-1.85,1.3-2,1.5l-1.5-4.5c1.61-.93,3.44-1.52,5-2.5.91,4.14.08,3.22-1.5,5.5Z"/>
        <path class="cls-6" d="m128.5,76.15c-.88,2.92-7.05,9.13-10,9,1.58-2.28,2.41-1.36,1.5-5.5,1.78-1.12,2.58-.58,3.5-3,2.36,2.11.88-.51,2.25-1,.29-.1,2.61.51,2.75.5Z"/>
        <path class="cls-16" d="m164,82.65c2.04,5.12,4.45,10.63,7,15.5,1.69,3.22,1.85,5.25,2,5.5-4.71,3.35-3.74-2.61-5.5-6.75-.72-1.7-5.6-11.7-6-12.25l2.5-2Z"/>
        <path class="cls-18" d="m152,77.65c-.48,2.01-3.06,3.38-3.5,4-.65-1.99-2.2-.22-3.5,1,.35-2.38-4.61,1.35-5.5,2,.38-4.42,1.4-3.31,1.5-3.5.75,1.49,2.57-3.67,3.5-4,1.39-.49,5.68.29,7.5.5Z"/>
        <path class="cls-16" d="m156.5,80.15c-5.08.78-3.14,4.01-5,5.5-.6-3.47-3.05.19-5,0-.24-.45,1.61-3.45,2-4,.44-.62,3.02-1.99,3.5-4,.08,0,.22-1.11,1.25-1,.23.05,2.78,3.08,3.25,3.5Z"/>
        <path class="cls-24" d="m147,69.15c-.83,2.33-2.32,4.34-3.5,6.5-.31.56-.7.93-1,1.5l-1-.5c.08-.12-.08-.39,0-.5,1.46-2.17,3.47-4.02,4.5-6.5.33-.39.66-.35,1-.5Z"/>
        <path class="cls-19" d="m144.5,77.15c-.93.33-2.75,5.49-3.5,4,1.08-2.12,1.4-3.81,1.5-4,.3-.57.69-.94,1-1.5l1,1.5Z"/>
        <path class="cls-39" d="m141.5,76.15c-.08.11.08.38,0,.5-2.61,4-4.71,5.88-6,11.5-.18.28.71,1.35-1.5,2,1.44-5.31,2.55-12.02-3.5-13-.74-.12-1.15.24-1-1,4.01-.13,7.99.01,12,0Z"/>
        <path class="cls-18" d="m164,114.15c-2.32-2.91-.28-2.85-1-4.75-.48-1.26-2.78-1.13-3.5-2.5-.28-.53-2-11.15-2-11.75,0-.76.98-.36,1-.75.14-2.77-.49-5.59.75-8.25,5.82,9.79,10.03,21.15,11.25,32.75-.74.9-5.97-4.09-6.5-4.75Z"/>
        <path class="cls-16" d="m147,110.15c1.02,3.68-.65,9.69,2,10.5-1.99,2.59,2.05,6.39-3,12.5-.79.95-1.83,1.75-2.25,3l-4.75-9.5c.03-2.09-.08-4.08-1-6,1.02-.84,4.99-4.45,3.5-5,.71-.66,5.26-5.19,5.5-5.5Z"/>
        <path class="cls-18" d="m148.5,81.65c-.39.55-2.24,3.55-2,4,.39.72,3.36.68,4,.5.85,1.74.38,4.09.5,5-5.26-2.3-8.94,1.99-11,6.5-2.06,4.52,1.78,4.42,4.75,6,.47.25.18.97.25,1l-10,14.5c-.7-.6-1.67-1.03-2-2,1.75-1.04,9.77-9.67,9.5-11.25l-6.75-7.75-5.5,5c-1.2-.44,13.82-19.63,14.75-20.5,1.3-1.22,2.85-2.99,3.5-1Z"/>
        <path class="cls-21" d="m151,91.15c.51,3.8,1.75,3.46,1.5,5.25-2.58,1.75-.38,2.44-1.25,4.75-3.68-1.78-9.11-.52-11.25-3.5,2.06-4.51,5.74-8.8,11-6.5Z"/>
        <path class="cls-18" d="m147,110.15c-.24.31-4.79,4.84-5.5,5.5-.73.68-5.37,5-5.75,5-1.31,0-.55-1.33-.75-1.5l10-14.5c3.51,1.7,7.07-1.12,2,5.5Z"/>
        <path class="cls-13" d="m151.5,85.65c-.17.14-.73.43-1,.5-.64.18-3.61.22-4-.5,1.95.19,4.4-3.47,5,0Z"/>
        <path class="cls-16" d="m133,117.15c.33.97,1.3,1.4,2,2,.2.17-.56,1.51.75,1.5.38,0,5.02-4.32,5.75-5,1.49.55-2.48,4.16-3.5,5-4.5,3.73-9.09,6.96-10,3-.73-3.18,2.95-12.52,1.5-16.5.71-.73,3.17-5.18,5-5.25-1.19,2.92-7.03,18.55-1.5,15.25Z"/>
        <path class="cls-16" d="m145,82.65c-.93.87-15.95,20.06-14.75,20.5l5.5-5,6.75,7.75c.27,1.58-7.75,10.21-9.5,11.25-5.53,3.3.31-12.33,1.5-15.25-1.83.07-4.29,4.52-5,5.25-1.66,1.72-1.93.42-2,.5-.64-.86-.49-1.52-.5-2.5,3.1.32,2.7-6.03,3.5-8.25.5-1.4,3.19-5.59,3.5-6.75,2.21-.65,1.32-1.72,1.5-2,1.97-3.11,2.61-2.5,4-3.5.89-.65,5.85-4.38,5.5-2Z"/>
        <path class="cls-6" d="m134,90.15c-.31,1.16-3,5.35-3.5,6.75-.8,2.22-.4,8.57-3.5,8.25-.03-3.19-.42-2.43-.5-3,.6.05.44-.36.5-.5,1.86-4.17,2.2-9.51,2.5-14,1.87.36.68-5.63,1-10.5,6.05.98,4.94,7.69,3.5,13Z"/>
        <path class="cls-6" d="m116.5,103.65c-.38-2.32-.4-5.59-.5-8,2.19-2.91,6.24-13,10-8.75-3.58,5.72-6.59,17.85-9.5,16.75Z"/>
        <path class="cls-43" d="m129.5,87.65c-.3,4.49-.64,9.83-2.5,14-1.89-6.33,3.02-21.75,2.5-14Z"/>
        <path class="cls-32" d="m142.5,77.15c-.1.19-.42,1.88-1.5,4-.1.19-1.12-.92-1.5,3.5-1.39,1-2.03.39-4,3.5,1.29-5.62,3.39-7.5,6-11.5l1,.5Z"/>
      </g>
    </g>
  </g>
</svg>