<?xml version="1.0" encoding="UTF-8"?>
<svg id="Layer_2" data-name="Layer 2" xmlns="http://www.w3.org/2000/svg" xmlns:xlink="http://www.w3.org/1999/xlink" viewBox="0 0 307.34 345.52">
  <defs>
    <style>
      .cls-1 {
        fill: url(#linear-gradient);
      }

      .cls-1, .cls-2, .cls-3, .cls-4, .cls-5, .cls-6, .cls-7, .cls-8, .cls-9, .cls-10, .cls-11, .cls-12, .cls-13, .cls-14, .cls-15, .cls-16, .cls-17, .cls-18, .cls-19, .cls-20, .cls-21, .cls-22, .cls-23, .cls-24, .cls-25, .cls-26, .cls-27, .cls-28, .cls-29, .cls-30, .cls-31, .cls-32, .cls-33, .cls-34, .cls-35, .cls-36, .cls-37, .cls-38, .cls-39, .cls-40, .cls-41, .cls-42, .cls-43, .cls-44, .cls-45, .cls-46, .cls-47, .cls-48, .cls-49, .cls-50, .cls-51, .cls-52, .cls-53, .cls-54, .cls-55, .cls-56, .cls-57, .cls-58, .cls-59, .cls-60, .cls-61, .cls-62, .cls-63, .cls-64, .cls-65, .cls-66, .cls-67 {
        stroke-width: 0px;
      }

      .cls-2 {
        fill: url(#linear-gradient-2);
      }

      .cls-3 {
        fill: #5c8686;
      }

      .cls-4 {
        fill: #5fc5bd;
      }

      .cls-5 {
        fill: #5e7a7e;
      }

      .cls-6 {
        fill: #6f938e;
      }

      .cls-7 {
        fill: #5facb8;
      }

      .cls-8 {
        fill: #787069;
      }

      .cls-9 {
        fill: #716161;
      }

      .cls-10 {
        fill: #7b9a8a;
      }

      .cls-11 {
        fill: #4f5c28;
      }

      .cls-12 {
        fill: #7c6a5a;
      }

      .cls-13 {
        fill: #79837f;
      }

      .cls-14 {
        fill: #514a3b;
      }

      .cls-15 {
        fill: #2b5344;
      }

      .cls-16 {
        fill: #4a4a2f;
      }

      .cls-17 {
        fill: #637a6d;
      }

      .cls-18 {
        fill: #6cb1c7;
      }

      .cls-19 {
        fill: #809ea3;
      }

      .cls-20 {
        fill: #867968;
      }

      .cls-21 {
        fill: #705a4d;
      }

      .cls-22 {
        fill: #544030;
      }

      .cls-23 {
        fill: #53564d;
      }

      .cls-24 {
        fill: #968776;
      }

      .cls-25 {
        fill: #352c20;
      }

      .cls-26 {
        fill: #38bfbd;
      }

      .cls-27 {
        fill: #5b3e33;
      }

      .cls-28 {
        fill: #1c4030;
      }

      .cls-29 {
        fill: #199aab;
      }

      .cls-30 {
        fill: #088591;
      }

      .cls-31 {
        fill: #0a9ec0;
      }

      .cls-32 {
        fill: #0d6e6c;
      }

      .cls-33 {
        fill: #058baa;
      }

      .cls-34 {
        fill: #171512;
      }

      .cls-35 {
        fill: #c3baac;
      }

      .cls-36 {
        fill: #c6b4b5;
      }

      .cls-37 {
        fill: #abd4d0;
      }

      .cls-38 {
        fill: #d2e5f0;
      }

      .cls-39 {
        fill: #ad9996;
      }

      .cls-40 {
        fill: #afa394;
      }

      .cls-41 {
        fill: #b2e1ec;
      }

      .cls-42 {
        fill: #adc9de;
      }

      .cls-43 {
        fill: #92c5d7;
      }

      .cls-44 {
        fill: #92b1b4;
      }

      .cls-45 {
        fill: #b7d9e4;
      }

      .cls-46 {
        fill: #9e8686;
      }

      .cls-47 {
        fill: #304441;
      }

      .cls-48 {
        fill: #8d7e7e;
      }

      .cls-49 {
        fill: #999384;
      }

      .cls-50 {
        fill: #6c604e;
      }

      .cls-51 {
        fill: #816c67;
      }

      .cls-52 {
        fill: #7dd1e4;
      }

      .cls-53 {
        fill: #65734d;
      }

      .cls-54 {
        fill: #654e3b;
      }

      .cls-55 {
        fill: #684e44;
      }

      .cls-56 {
        fill: #ecf7f7;
      }

      .cls-57 {
        fill: #e9e9ed;
      }

      .cls-58 {
        fill: #045d5f;
      }

      .cls-59 {
        fill: #00a6a4;
      }

      .cls-60 {
        fill: #02788a;
      }

      .cls-61 {
        fill: #04958f;
      }

      .cls-62 {
        fill: #055495;
      }

      .cls-63 {
        fill: #045366;
      }

      .cls-64 {
        fill: #006579;
      }

      .cls-65 {
        fill: #01373b;
      }

      .cls-66 {
        fill: #00837e;
      }

      .cls-67 {
        fill: #01494b;
      }
    </style>
    <linearGradient id="linear-gradient" x1="153.73" y1="177.76" x2="135.32" y2="338.43" gradientUnits="userSpaceOnUse">
      <stop offset=".29" stop-color="#684c46"/>
      <stop offset="1" stop-color="#392421"/>
    </linearGradient>
    <linearGradient id="linear-gradient-2" x1="169.68" y1="192.08" x2="175.19" y2="303.36" gradientUnits="userSpaceOnUse">
      <stop offset="0" stop-color="#4a93cf"/>
      <stop offset=".35" stop-color="#79abd6"/>
      <stop offset="1" stop-color="#387fc2"/>
    </linearGradient>
  </defs>
  <g id="Layer_1-2" data-name="Layer 1">
    <g>
      <path class="cls-1" d="m299.37,168.12c-.95,14.52-3.56,28.82-7.48,42.82-.03.11-.21-.01-.83,2.08-1.74,5.89-3.11,11.9-5.82,17.46-.51.01-.62.5-.83.83-.06.1.05-.63-1.25,1.25-.63.91-3.95,4.26-.83,4.99-.82,1.09-8.36,16.71-12.89,23.9-4.78,7.59-10.42,15.06-15.8,22.24-1.88,2.51-9.34,10.32-9.56,12.06-.35,2.78,2.19,7.02,2.08,9.98-1.21-.17-7.7-2.19-8.11-2.08-.25,2.42-10.23,7.45-10.19,8.11.03.48,1.28-.2,1.04.62-.29.98-10.49,5.05-12.26,5.82-.31.14-5.28,1.16-5.82,2.7-.87,2.48.53,7,2.49,8.94l-.83.42c-2.21-2.98-3.31-4.65-2.7-8.73-.52-.23-4.48,2.93-5.2,3.33-3.39,1.88-8.09,4.16-11.64,5.82-.68.32-2.29.8-4.16,1.66-5.68,2.61-21.64,9.74-26.19,11.22-5.12,1.66-5.49,2.75-11.22,1.25-3.13-.82-22.69-10.09-27.85-12.47-5.37-2.48-10.98-4.73-16.21-7.48-.19-.1-2.3-2.37-3.53-2.49-1.26,2.29-2.39,4.53-3.95,6.65h-.83c3.6-7.17,5.48-7.95-3.33-10.6-2.89,4.83,10.39,11.85-24.11,8.94-2.18-1.27-1.22-12.06-.83-14.97.07,0,.8-.81,1.04-.83,3.9-.31,7.96-.08,11.85-.62-9.84-4.84-16.54-14.45-25.36-19.96-1.14,2.1,17.93,16.88,20.79,18.71,0,1.29-5.38,1.17-6.44.62-.42,1.16-2.31,1.1-3.53,1.25-4.51.53-3.52,1.24-3.74,1.25-2.26.07-6.11-1.41-7.48-3.33-1.9-6.08,2.95-9.28,2.91-10.19-5.38-7.35-12.25-13.97-14.97-22.87-1.28-1.26-12.69-.44-7.48-11.85,2.04-.99,5.2,7.59,7.48,6.24,1.95,2.73,7.7,9.79,9.98,12.26,1.25,1.36,19.29,19.46,19.54,15.38-10.53-8.23-19.82-18.03-27.85-28.69-3.12-4.13-4.71-9.3-6.24-6.86-5.02-7.79-10.6-16.57-14.55-24.94-10.62-22.5-13.9-48.59-16.21-73.17l4.57.42c2.13,2.3.52,3.2.83,4.78,1.94-.12.96,6.24,1.25,7.9.06.34.77.08.83.42.82,4.66,6.3,39.15,8.11,40.12.35.18,4.33.7,4.37-2.29.03-2.36-9.76-38.57-8.73-46.35,1.83-.04,13.37,6.98,13.72,7.69,1.95,13.53,4.26,26.95,7.07,40.33.02.1-.88,1.64-.83,1.87-4.33-1,3.72,14.26,6.24,19.12,1.48,2.86,2.89,6,4.57,8.73-.61.75.03,2.43.42,3.12.9,1.62,13.92,18.95,16.21,21.62,16.52,19.21,44.62,36.65,68.39,45.11.09.03,1.58-.86,1.66-.83,5.02,1.73,16.51,7.91,15.59,4.99,4.1.63,10.07-3.54,10.6-3.74,1.45-.55,4.36-.75,4.57-.83.23-.09.23-1.01.83-1.25,4.29-1.7,8.7-2.71,9.15-2.91.16-.07,1.09-1.26,2.91-2.08,1.95-.88,6.34-1.93,6.65-2.08.65-.31.58-1.13.83-1.25,7.1-3.43,13.46-6.46,20.16-10.81-.05,2.35.77.92,2.08.42-.16.4.34,1.22.62,1.25,1.62.13,20.25-16.41,22.66-18.92,1.66-1.73,13.03-15.2,13.3-16.21.36-1.32-.5-2.22-2.08-.62l-.83-1.25c6.39-7.97,13.65-18.64,17.04-28.27,1.17-3.33,10.56-37.26,10.81-39.29.56-4.62-1.72-1.04-2.08-3.53,2.15-1.04,6.18-3.75,9.15-5.4,3.61-2.02,6.29-4,6.65-4.16.45-.19,1.53-.77,1.66.21.23,1.65-4.02,14.73-4.16,18.08-.75,2.46-5.82,16.99-5.4,18.08.16.43,1.03.08,1.25.21,1.05.61,2.34.55,3.12,1.66,2.53-10.88,7-21.67,9.35-32.63.54-2.51,4.19-19.84.42-13.1.4-1.73.66-2.21,1.25-3.74.02-.05.67.16.83-.21.59-1.59-2.19-2.8.83-5.2.1.22,2.71,2.58,2.49,4.16Z"/>
      <path class="cls-21" d="m58.25,52.54c-.32.11-1.3-.19-2.49,1.04-11.52,23.26-20.81,41.96-26.61,67.56-3.11,13.73-5.04,27.59-6.65,41.57-1.21-.01-3.24-.08-3.33,1.66-3.19-2.07-5.67-4.85-7.48-4.57,1.23-9.01,1.98-25.57,2.49-26.81.56-1.35,5.1-3.65,5.4-4.16.63-1.04,1.33-8.52,2.49-10.81.18-2.22-4.29-6.33-4.16-7.69,3.61-.97,5.82.57,8.31-2.08.88-.94,6.71-11.17,6.65-11.85-1.22-.32-.72-.85-.83-1.04,2.39-9.32,12.57-20.28,11.64-25.36,3.18-4.94,4.22-7.62,6.65-12.47,1.66,2.25,3.29-8.04,7.9-4.99Z"/>
      <path class="cls-24" d="m180.06,24.69c4.62,1.17,18.49,7.51,24.11,9.98.23.1-.72,1.08,3.95,2.49,4.22,1.32,5.73.37,6.03.42.29.04,3.93,1.26,5.61,1.66,1.04-.36,1.18-5.01,2.91-4.57,8.56,2.07,3.25,5.53,6.24,7.9,5.18.44,10.47.75,15.59,1.66.51.09,8.19,3.38,9.56,1.25,1.7,1.41,5.02,1.03,5.61,1.66,1.4,1.49-2.24,5.75,7.28,8.52-2.5,8.73,1.2,10.49,3.74,18.29.94.98,2.19,1.59,3.33,2.29-1.2,3.17,2.34,6.03,2.91,9.15-1.25,1.6,4.1,2.22,6.65,4.78-7.83,9.71,2.65,10.65,2.08,20.37,7.46,11.88,10.9,9.29,2.91,18.29.46,11.98,3.08,10.65,3.33,11.22,2.18,4.99-2.95,2.31,10.81,12.06.24,1.6-.8,2.17-.83,2.29-3.03-.97-7.86-8.5-10.81-7.48-.65.23-.74-.16-1.25,1.25-2.82-8.29-3.83-16.91-5.82-25.36-.91-3.86-1.37-7.94-2.08-11.85-5.96-21.7-15.55-41.91-25.15-62.15-8.91-1.93-18.16-2.86-27.02-4.99-1.61-.39-2.75-1.62-2.91-1.66-1.07-.26-3.52-.15-4.57-.42-19.16-4.88-26.98-7.96-44.28-17.04.59-.36,1.5-.15,2.08,0Z"/>
      <path class="cls-21" d="m10.44,164.79c2.32,24.58,5.59,50.67,16.21,73.17-.91.69.15,3.33-1.66,3.33-3.65-5.61-5.77-3.82-6.24-4.78-.02-4.58-3.8-22.13-5.82-24.74,1.49-2.66-2.47-5.64-4.57-7.48.47-4.86-1.07-12.34-3.33-16.84,4.73-16.65-.21-13.65-.83-15.8-.33-1.15.31-4.55,0-6.03,1.72-2.56,2.17.28,2.49-4.57.88,1.12,2.86,3.81,3.74,3.74Z"/>
      <path class="cls-22" d="m19.17,164.37c6.57,4.26,13.5,7.97,19.33,13.3.92-.59.53-1.27.62-2.08.65.07.78.8.83.83-.03,2.59,1.02,4.79,2.08,7.07-.9-.84-.49,6.89-.42,7.28.07.34.75.07.83.42.37,1.61-1.28.88,1.25,3.95-.98,4.88.66,10.01.83,14.97-.52,2.5-.91,4.96.83,7.07-.7.49-1.44.89-2.08,1.46.45.48.97.83,1.25,1.46,3.15,7.12,6.71,14.35,10.39,21.2.61,1.13,1.21,2.52,1.66,3.74-3.12-3.34-1.18-3.97-5.82-4.57-.1-.17-.54-.32-2.08-3.33-1.89-3.69-6.27-13.88-7.07-17.46-.05-.23.85-1.77.83-1.87-2.81-13.38-5.12-26.8-7.07-40.33-.35-.71-11.89-7.73-13.72-7.69-.5-1.35-5.47-3.83-6.65-4.99-1.07-1.04-2.46-2.53-3.33-3.74.03-.41-.06-.84,0-1.25,1.81-.27,4.29,2.5,7.48,4.57Z"/>
      <path class="cls-21" d="m287.73,234.22c0,.33.83,1.76.83,2.08-4.86,2.48-6.87,11.13-7.9,11.43-.81.24-.19-1.12-.62-1.04-.93.17-9.52,14.36-8.52,16.21-2.18.62-1.74,2.83-2.08,3.33-1.33,1.97-13.16,17.1-14.13,17.67-.81.47-.86-.36-1.66-.21,5.38-7.18,11.02-14.65,15.8-22.24,4.53-7.19,12.07-22.82,12.89-23.9.18-.24,4.54-2.67,4.16-3.74.29.12.83.04,1.25.42Z"/>
      <path class="cls-21" d="m41.2,262.9c1.64,2.54,2.8,5.41,4.57,7.9-2.28,1.35-5.45-7.23-7.48-6.24,0-.79-5.8-9.66-7.48-9.98.26-.31.89-1.06.83-1.46-.07-.47-4.3-6.94-4.99-8.11-.54-.92-1.28-3.15-1.66-3.74,1.82,0,.76-2.64,1.66-3.33,3.95,8.37,9.53,17.15,14.55,24.94Z"/>
      <path class="cls-22" d="m273.18,263.32c-1.04.23-1.44-.48-1.66-.42-1-1.85,7.59-16.05,8.52-16.21.44-.08-.19,1.28.62,1.04,1.03-.3,3.04-8.95,7.9-11.43,0,.21.65.71.42,2.29-.27,1.82-13.46,21.88-15.8,24.74Z"/>
      <path class="cls-24" d="m32.06,95.36c-.17-.29-3.81-3.38-3.74-5.4,1.7-1.86,3.41-3.85,4.99-5.82,2.29-2.85,4.55-6.14,6.65-9.15,1.16-1.66,2.65-3.29,3.74-4.99.93,5.08-9.25,16.04-11.64,25.36Z"/>
      <path class="cls-35" d="m165.51,14.71c.65,2.22,6.31,4.34,6.65,4.57.3.21.26,1.66,5.82,4.16.74.33,1.15.57,2.08.42-.05.07.03.49,0,.83-.58-.15-1.48-.36-2.08,0-4.97-2.61-15.48-9.24-17.46-9.98.1-1.22-3.51-3.4-4.37-3.33-1.08.09-13.5,8.87-18.5,11.22-.34.16-2.14.25-2.49.42.03-.27-.06-.62,0-.83,2.13-.27,4.41-2.57,6.24-3.74,2.41-1.55,6.26-4.21,8.31-5.4,10.31-5.98,5.79-2.41,15.8,1.66Z"/>
      <path class="cls-20" d="m291.06,146.91c-.22,4.18,5.13,10.56,7.9,13.72.17.19-.44.6-.42.62,2.08,2.21,6.85,4.49,7.9,6.03.3,10.03-2.87,1.88-7.07.83.21-1.58-2.4-3.94-2.49-4.16-2.35-5.29-5.2-10.29-7.07-15.8.51-1.41.6-1.02,1.25-1.25Z"/>
      <path class="cls-49" d="m94,40.07c-12.9,3.65-25.97,6.36-38.87,9.98l-1.04-.83c.39-.51.42-1.28,1.04-1.66,4.14.16,5.24-1.55,5.61-1.66.51-.15,1.11-.27,1.66-.42,3.56-.95,21.18-2.95,22.03-5.4.59,1.03,1.7.64,2.91.42,2.68-.51,9.17-3.59,6.65-.42Z"/>
      <path class="cls-24" d="m32.06,95.36c.11.19-.39.72.83,1.04.06.68-5.77,10.91-6.65,11.85-1.28-1.73.55-4.92-.83-5.82.57-.96,1.56-1.32,1.25-2.7-4.18-8.78-1.31-6.52,1.66-9.77-.07,2.02,3.58,5.11,3.74,5.4Z"/>
      <path class="cls-12" d="m298.54,211.77c-.55.85.05,1.92,0,3.74-3.03,1.44-6.18,3.82-6.24,7.48-.12.11-.8.78-.83.83-3.87-.93-3.5,8.27-6.24,6.65,2.71-5.56,4.08-11.57,5.82-17.46,2.29.58,3.88-1.07,5.61-1.66.4-.14,1.08.76,1.87.42Z"/>
      <path class="cls-21" d="m301.87,154.4c-.67,2.21-1.96,4.15-2.91,6.24-2.77-3.16-8.12-9.54-7.9-13.72,2.95-1.02,7.77,6.51,10.81,7.48Z"/>
      <path class="cls-21" d="m30.81,254.59c-3.76,4.44-12.18-3.86-4.16-9.56.69,1.16,4.92,7.64,4.99,8.11.06.4-.57,1.14-.83,1.46Z"/>
      <path class="cls-40" d="m137.65,22.61v.83c-1.37.2-11.88,6.49-25.36,11.22-2.59-1.26,3.39-3.64,5.4-4.57,5.64-2.61,11.76-4.44,17.46-7.07.35-.16,2.15-.25,2.49-.42Z"/>
      <path class="cls-21" d="m298.54,211.77c-.79.34-1.47-.55-1.87-.42-1.73.59-3.33,2.25-5.61,1.66.62-2.09.8-1.97.83-2.08q4.88-3.53,9.77-7.07c.49-.24-.48-.54-.21-1.25,3.84,1.62-.65,8.16-2.91,9.15Z"/>
      <path class="cls-20" d="m214.15,37.58c-.3-.04-1.81.9-6.03-.42-4.67-1.41-3.72-2.4-3.95-2.49.96-5.73,10.87-2.65,9.98,2.91Z"/>
      <path class="cls-24" d="m26.24,108.25c-2.49,2.65-4.71,1.11-8.31,2.08.08-.86,6.49-6.24,7.48-7.9,1.38.9-.45,4.09.83,5.82Z"/>
      <path class="cls-12" d="m276.92,85.39c-.57-3.12-4.11-5.97-2.91-9.15.84.52,5.61,2.11,5.82,2.7l-2.91,6.44Z"/>
      <path class="cls-20" d="m92.75,34.25c-3.15,1.56-3.88,3.06-5.4,6.24-1.21.23-2.32.62-2.91-.42-1.86-5.84,7.2-6.63,8.31-5.82Z"/>
      <g>
        <path class="cls-12" d="m11.69,161.05c.86,1.21,2.26,2.7,3.33,3.74v.42l-4.57-.42c-.88.07-2.86-2.62-3.74-3.74-.99-1.25-1.74-2.66-2.91-3.74,1.09-.95,3.01-2.64,3.74-3.74,1.33.85,2.61,5.3,4.16,7.48Z"/>
        <path class="cls-21" d="m6.7,161.05c-.32,4.85-.78,2.01-2.49,4.57-.31-1.45-2.95-3.67-3.74-5.4.83-1.34,2.2-1.93,3.33-2.91,1.17,1.09,1.92,2.49,2.91,3.74Z"/>
        <path class="cls-24" d="m7.53,153.57c-.73,1.1-2.65,2.79-3.74,3.74-1.13.98-2.5,1.57-3.33,2.91-2.07-4.56,3.27-9.07,7.07-6.65Z"/>
      </g>
      <path class="cls-54" d="m298.54,215.51c-.19,7.25-4.65,6.05-6.24,7.48.06-3.66,3.21-6.04,6.24-7.48Z"/>
      <path class="cls-20" d="m254.06,45.48c-1.37,2.14-9.06-1.16-9.56-1.25.07-.28.27-.59.42-.83,2.36.3,5.27.84,6.65-1.66,1.26.78,2.32,3.6,2.49,3.74Z"/>
      <path class="cls-21" d="m12.93,211.77c-.77-1-4.86-3.25-6.24-4.78.08-.6,1.65-2.54,1.66-2.7,2.1,1.85,6.06,4.82,4.57,7.48Z"/>
      <path class="cls-21" d="m291.47,223.82c-.28.39-2.45,7.41-3.33,9.15-.85-2.21-1.54-1.65-3.74-1.66.21-.33.32-.82.83-.83,2.74,1.61,2.36-7.58,6.24-6.65Z"/>
      <path class="cls-21" d="m301.45,200.96c-3.71.99-.72-7.27,2.49-6.65-.36,2.98-1.51,4.23-2.49,6.65Z"/>
      <g>
        <path class="cls-12" d="m181.72,18.87c-5.85-3.98-1.47-.02-1.66.62-.07.23-2.47.61-2.08,3.95-5.56-2.49-5.52-3.95-5.82-4.16-1.28-9.01,8.1-4.3,8.94-3.33.93,1.08.62,1.63.62,2.91Z"/>
        <path class="cls-50" d="m181.72,18.87c0,1.47-.77,3.67-1.66,4.99-.93.16-1.33-.08-2.08-.42-.39-3.34,2.01-3.72,2.08-3.95.19-.64-4.19-4.6,1.66-.62Z"/>
      </g>
      <g>
        <path class="cls-40" d="m60.74,45.89c-.37.11-1.48,1.82-5.61,1.66-.62.38-.64,1.15-1.04,1.66-.25.32-2.86,5.27-3.33,6.24-7.54,1.14-4.61-.71-6.65-3.33.12-1.94-.78-3.01-.21-3.33,13.92.2,8.62-3.93,11.85-7.48,2.55.29,4.2,2.26,4.99,4.57Z"/>
        <path class="cls-24" d="m62.41,45.48c-.56.15-1.15.27-1.66.42-.79-2.31-2.44-4.28-4.99-4.57,2.83-3.11,6.05.77,6.65,4.16Z"/>
      </g>
      <path class="cls-24" d="m251.56,41.73c-1.38,2.5-4.29,1.96-6.65,1.66,1.69-2.68,3.46-3.63,6.65-1.66Z"/>
      <path class="cls-35" d="m284.41,231.31c2.2.01,2.89-.55,3.74,1.66-.08.4-.44.43-.42,1.25-.41-.37-.96-.29-1.25-.42-1.08-.46-2.11-1.12-3.33-1.25,1.29-1.87,1.19-1.15,1.25-1.25Z"/>
      <g>
        <path class="cls-24" d="m50.77,55.45c-.05.1.86-.47-.42,2.08-2.43,4.85-3.47,7.53-6.65,12.47-1.09,1.7-2.58,3.33-3.74,4.99.59-1.18-6.61-1.12-6.86-.83.52,1.36-.54,4.65-2.29,4.99-.04-.12-1.05-.63-.83-2.29.06-.43,3.69-7.2,4.16-7.69.91.51,7.34-1.07,7.69-1.25.49-.25-.43-.66-.21-.83.2-.15,1.36.73,2.91-3.53-1.16-3.79-.65-7.57-.42-11.43,2.04,2.62-.89,4.46,6.65,3.33Z"/>
        <path class="cls-12" d="m39.96,74.99c-2.1,3.01-4.36,6.29-6.65,9.15-.73-1.74-1.89-3.18-2.49-4.99,1.75-.34,2.81-3.63,2.29-4.99.24-.28,7.45-.35,6.86.83Z"/>
        <path class="cls-12" d="m41.62,67.09c-.22.17.69.58.21.83-.35.18-6.79,1.75-7.69,1.25,2.32-2.41,4.16-1.11,7.48-2.08Z"/>
      </g>
      <path class="cls-12" d="m273.18,263.32c-.27.33-.4.39-.42.42-.81.92.22,2.32-3.33,2.49.34-.5-.1-2.71,2.08-3.33.23-.06.62.65,1.66.42Z"/>
      <path class="cls-22" d="m259.88,82.06c12.44,28.11,15.63,38.69,19.12,70.47,3.49,3.25,1.13-1.07,2.49-4.37,1.92,7.41,7.17,15.31,11.22,21.83-.6,1.1-.32,2.02-.42,3.12-.11,1.25-3.48,15.67-4.16,18.08-.94,3.33-2.78,7.25-2.91,7.69.14-3.35,4.39-16.43,4.16-18.08-.14-.98-1.21-.4-1.66-.21,1.21-1.95-4.25-1.73-4.57-3.74,1.56-11.98-9.1,3.34-7.07-15.59-5.6-7.63-5.05-17.66-6.65-26.61-1.04-5.82-3.29-11.96-3.33-17.67.11.02.3.02.42,0,3.12-.48-2.46-11.08-4.57-8.73-.02-.04-.05.13-.42-.83,1.01.08,1.33-.54,1.25-1.46-.26-2.69-12.59-27.94-14.97-33.47-.64-1.48-2.08-6.86-3.53-7.48-31.08-4.87-62.01-15.18-88.55-32.43-9.25,6.2-22.19,13.51-32.43,17.46-6.21,2.39-12.78,3.89-19.12,5.82-.35.11-.07.73-.42.83-3.55,1.07-8.77,1.55-11.64,3.33q-13.93,3.12-27.85,6.24c-1.5,1.06-1.65,7.29-8.94,8.52-1.95,6.58-7.51,13.72-9.98,18.71-.23.46-.51,4.78-2.91,5.61,5.17-13.41,11.8-26.16,18.08-39.08,28.06-6.49,56.73-12.33,82.31-26.19,2.54-1.38,4.83-3.53,7.28-4.99,2.03-1.22,4.14-2.29,6.03-3.74,27.27,18.76,59.77,28.91,92.29,33.67l1.87,1.46c3.09,7.32,6.35,14.56,9.56,21.83Z"/>
      <path class="cls-39" d="m221.22,288.26c-.51.39-1.19,1.12-2.49,2.08-2.44,1.8-6.34,4.95-8.31,6.24-6.71,4.35-13.06,7.38-20.16,10.81-.25.12-.18.94-.83,1.25-.31.15-4.7,1.2-6.65,2.08-1.82.82-2.75,2.01-2.91,2.08-.45.2-4.85,1.21-9.15,2.91-.61.24-.6,1.16-.83,1.25-.22.08-3.13.28-4.57.83-.53.2-6.5,4.37-10.6,3.74-18.81-8.19-38.77-14.54-55.29-27.02.18.11,1.55-.23,2.7.42,3.33,1.85,13.01,9.24,13.1,6.24,3.86,2.03,11.51,6.38,14.13,5.82,3.32,1.48,26.32,10.53,28.06,10.39,10.53-4.12,21.06-8.26,31.39-12.89,4.16-1.86,5.14-1.96,5.4-2.08,1.95-.91,4.08-1.58,6.03-2.49,12.31-6.22,21.86-16.12,23.28-16.21,4.46-.3-3.55,3.09-2.29,4.57Z"/>
      <path class="cls-51" d="m81.53,281.19c5.61,4.89,11.43,9.54,17.88,13.3,16.52,12.48,36.49,18.83,55.29,27.02.92,2.92-10.57-3.26-15.59-4.99-.09-.03-1.58.86-1.66.83-23.77-8.46-51.87-25.9-68.39-45.11-2.29-2.66-15.31-20-16.21-21.62-.38-.69-1.03-2.37-.42-3.12,7.23,11.72,18.7,24.59,29.1,33.67Z"/>
      <path class="cls-22" d="m271.93,190.15c.36,2.5,2.64-1.08,2.08,3.53-.25,2.02-9.63,35.95-10.81,39.29-4.16-.82-5.15,6.84-9.15,13.51-3.51,5.86-7.73,11.54-12.06,16.84.29-.41,1.85-3.64,2.49-4.57,14.2-20.48,13.46-20.43,19.12-44.9.34-1.47.5-3.08.83-4.57,1.18-5.26,2.11-10.55,3.33-15.8.14-.59-.14-1.49,0-2.08.47-1.93.93-3.96,1.66-5.82.77,1.02-.57,4.68.42,5.61.28.27.63-.34,2.08-1.04Z"/>
      <path class="cls-46" d="m21.66,169.78c-1.03,7.79,8.76,43.99,8.73,46.35-.04,2.99-4.02,2.47-4.37,2.29-1.81-.97-7.29-35.46-8.11-40.12-.06-.34-.77-.08-.83-.42-.29-1.66.69-8.02-1.25-7.9-.31-1.59,1.3-2.49-.83-4.78v-.42c1.19,1.16,6.15,3.64,6.65,4.99Z"/>
      <path class="cls-46" d="m50.77,240.45c3.81,6.6,8.41,13.05,13.3,18.92,3.78,4.53,11.81,13.52,16.21,16.01,1.09,1.06,2.34,2.24,3.74,2.91,9.97,10.03,22.78,17.42,35.34,23.7,1.66.83,3.31,1.7,4.99,2.49,1.65.78,3.35,1.77,4.99,2.49-2.63.56-10.28-3.79-14.13-5.82-4.95-2.61-11.81-6.5-16.42-9.56-7.37-4.9-15.29-13.97-17.25-10.39-10.41-9.08-21.87-21.96-29.1-33.67-1.68-2.73-3.1-5.87-4.57-8.73l.83-1.66c1.54,3.01,1.98,3.16,2.08,3.33Z"/>
      <path class="cls-21" d="m283.99,122.8c1.99,8.45,3,17.07,5.82,25.36,1.87,5.51,4.71,10.5,7.07,15.8-3.02,2.39-.25,3.61-.83,5.2-.16.36-.81.16-.83.21-2.23-4.53-5.06-8.64-7.07-13.3-.89-2.06-1.66-4.15-2.91-6.03-.37-6.47-5.18-27.36-1.25-27.23Z"/>
      <path class="cls-39" d="m288.15,156.06c2.01,4.67,4.83,8.77,7.07,13.3-.58,1.53-.85,2.02-1.25,3.74-.06.25.06.58,0,.83l-1.66-.83c.09-1.1-.18-2.02.42-3.12-4.05-6.52-9.3-14.42-11.22-21.83-1.8-7.81-2.46-15.88-4.16-23.7,1.67-.26,1.1-3.68,2.08-4.99,1.4,6.5,4.36,31.11,4.99,32.63.14.35,2.95,2.48,3.74,3.95Z"/>
      <path class="cls-46" d="m246.99,262.49c-8.27,8.38-4.99,9.77-25.78,25.78-1.26-1.48,6.75-4.88,2.29-4.57-1.42.1-10.97,9.99-23.28,16.21-1.95.92-4.08,1.58-6.03,2.49-.11-.75,1.11-1.33,1.66-1.66,2.59-1.57,5.29-2.99,7.9-4.57,4.02-2.44,4.87-2.92,8.73-5.82.26-.2,3.52-1.19,5.4-3.74,1.96-1.22,4.07-2.67,5.82-4.16.26,1.4,4.54-2.47,6.86-4.57,5.56-5.04,10.89-10.78,15.59-16.63l.83,1.25Z"/>
      <path class="cls-55" d="m263.2,232.97c-3.39,9.63-10.65,20.3-17.04,28.27-4.7,5.85-10.03,11.59-15.59,16.63-2.32,2.1-6.6,5.98-6.86,4.57,6.64-5.63,13.2-12.08,18.29-19.12,4.33-5.3,8.54-10.97,12.06-16.84,4-6.67,4.98-14.33,9.15-13.51Z"/>
      <path class="cls-51" d="m212.49,296.99c2.29-.89,6.78-4.38,6.24-6.65,1.3-.96,1.99-1.69,2.49-2.08,20.79-16,17.5-17.4,25.78-25.78,1.58-1.6,2.44-.7,2.08.62-.27,1.01-11.64,14.48-13.3,16.21-2.41,2.51-21.04,19.05-22.66,18.92-.29-.02-.79-.85-.62-1.25Z"/>
      <path class="cls-51" d="m281.08,217.17c3.86-2.86,3.58-10.21,4.57-13.51.54-1.79,2.39-4.39,2.91-6.24.2-.73-.2-2.17,0-2.91.08-.28,1.17-.96,1.25-1.25,1.7-6.24,2.71-12.99,4.16-19.33.06-.25-.06-.58,0-.83,3.77-6.75.12,10.58-.42,13.1-2.35,10.97-6.82,21.76-9.35,32.63-.78-1.12-2.07-1.05-3.12-1.66Z"/>
      <path class="cls-39" d="m293.97,173.94c-1.45,6.34-2.46,13.09-4.16,19.33-.08.28-1.17.96-1.25,1.25-.2.74.2,2.18,0,2.91-.52,1.85-2.37,4.45-2.91,6.24-.99,3.3-.71,10.66-4.57,13.51-.21-.13-1.08.22-1.25-.21-.42-1.09,4.65-15.62,5.4-18.08.13-.44,1.97-4.36,2.91-7.69.68-2.42,4.05-16.83,4.16-18.08l1.66.83Z"/>
      <path class="cls-27" d="m45.78,270.8c-1.77-2.48-2.93-5.36-4.57-7.9,1.53-2.44,3.12,2.73,6.24,6.86,8.04,10.66,17.32,20.46,27.85,28.69-.25,4.08-18.29-14.02-19.54-15.38-2.28-2.47-8.03-9.53-9.98-12.26Z"/>
      <g>
        <path class="cls-34" d="m98.99,329c-1.29,3-24.75,2.37-26.4,2.08-.13-.02-1.76-.99-2.29-1.25l1.25-2.49c34.5,2.92,21.23-4.11,24.11-8.94,8.81,2.65,6.92,3.44,3.33,10.6Z"/>
        <path class="cls-25" d="m70.31,329.83c.53.26,2.16,1.22,2.29,1.25,1.65.29,25.11.92,26.4-2.08h.83c-.49.67-.37,1.4-.42,1.46-4.87,6.22-11.75,5.23-18.5,4.78-.09,3.06-2.7,1.21-2.91,1.25-.35.06-.57.83-.62.83-2.92-.07-6.72-2.98-8.73-4.99-.96-.96-1.55-2.31-2.49-3.33-.05-.05.03-.49,0-.83,1.46-2.04,1.39.33,4.16,1.66Z"/>
        <path class="cls-34" d="m107.31,324.85c-1.08,2.18-3.05,5.72-4.57,7.48-2.59,3-3.83,4.18-7.9,4.99-.32.06-.39.31-1.25.42-4.03.5-11.49-.37-16.21,0v-.42c.05,0,.27-.77.62-.83.21-.03,2.82,1.81,2.91-1.25,6.75.45,13.63,1.44,18.5-4.78.05-.06-.08-.78.42-1.46,1.56-2.12,2.69-4.36,3.95-6.65,1.24.12,3.34,2.39,3.53,2.49Z"/>
        <path class="cls-25" d="m70.72,312.37c-.39,2.91-1.34,13.7.83,14.97l-1.25,2.49c-2.76-1.34-2.7-3.7-4.16-1.66.05-.5-.39-.4-.42-.42l-.42-13.72v-1.25c.22,0-.76-.72,3.74-1.25.69.2.74.96,1.66.83Z"/>
      </g>
      <path class="cls-22" d="m70.72,312.37c-.92.13-.98-.63-1.66-.83,1.22-.14,3.12-.09,3.53-1.25,1.06.55,6.44.67,6.44-.62-2.86-1.83-21.93-16.61-20.79-18.71,8.82,5.51,15.52,15.11,25.36,19.96-3.88.54-7.95.32-11.85.62-.24.02-.97.82-1.04.83Z"/>
      <path class="cls-24" d="m281.08,184.74c-2.96,1.65-7,4.37-9.15,5.4-1.45.7-1.79,1.31-2.08,1.04-.99-.93.35-4.59-.42-5.61,1.3-.78,2.5-1.63,3.74-2.49.13-.09.68.15,2.91-1.25l4.99,2.91Z"/>
      <path class="cls-21" d="m287.73,180.59c-.36.16-3.04,2.14-6.65,4.16l-4.99-2.91c2.37-1.48,4.77-3.36,7.07-4.99.32,2.01,5.79,1.79,4.57,3.74Z"/>
      <path class="cls-21" d="m41.62,219.67c.8,3.58,5.18,13.77,7.07,17.46l-.83,1.66c-2.51-4.86-10.57-20.12-6.24-19.12Z"/>
      <path class="cls-51" d="m212.49,296.99c-1.31.51-2.12,1.93-2.08-.42,1.98-1.28,5.87-4.43,8.31-6.24.55,2.27-3.95,5.76-6.24,6.65Z"/>
      <path class="cls-22" d="m283.16,232.55c1.21.12,2.24.79,3.33,1.25.38,1.07-3.98,3.5-4.16,3.74-3.12-.73.2-4.08.83-4.99Z"/>
      <g>
        <path class="cls-22" d="m246.16,305.72c.11-2.96-2.43-7.2-2.08-9.98,1.91-2.6,2.21,4.83,4.16,9.77-.41.73-1,.36-2.08.21Z"/>
        <g>
          <path class="cls-22" d="m252.4,302.4c.3,1.36,4.85,9.74-5.82,10.39-.25.02-2.14-2.01-4.57-.21l-.42,13.93c-1.24,1.69-21.56,1.58-22.66,1.25-2.88-.88-2.3-7.23-2.29-9.56,1.77-.78,11.98-4.84,12.26-5.82.24-.83-1.01-.15-1.04-.62-.04-.66,9.94-5.69,10.19-8.11.4-.11,6.9,1.91,8.11,2.08,1.08.15,1.66.52,2.08-.21-1.95-4.94-2.24-12.37-4.16-9.77.22-1.74,7.68-9.55,9.56-12.06.81-.16.85.68,1.66.21.98-.57,12.8-15.7,14.13-17.67,3.55-.18,2.52-1.57,3.33-2.49,2.21,9.46-2.49.92-8.73,11.85,1.8,4.96-12.57,20.3-12.89,22.45-.11.73.96,3.09,1.25,4.37Z"/>
          <path class="cls-34" d="m216.64,318.19c-.01,2.33-.59,8.68,2.29,9.56,1.09.33,21.42.44,22.66-1.25l1.25,1.66c-7.27,4.77-12.03,3.27-20.58,3.33-.49,0-4.48,2.74-8.94-1.66-1.96-1.94-3.36-6.46-2.49-8.94.54-1.54,5.51-2.57,5.82-2.7Z"/>
          <path class="cls-25" d="m244.08,331.08c-.06.11.12.68-1.25,2.08-.03.03-.16-.13-.83.42-1.95,1.59-4.27,2.28-6.65,2.91-4.97.6-4.52-.81-4.78-.83-7.38-.61-12.87,1.64-18.08-5.4l.83-.42c4.46,4.41,8.45,1.67,8.94,1.66,8.55-.06,13.31,1.44,20.58-3.33.92-.6,1.89-.68,2.29-2.08l.62.62c-.84,1.29-.93,3.04-1.66,4.37Z"/>
          <path class="cls-34" d="m212.49,330.25c5.22,7.04,10.7,4.79,18.08,5.4.27.02-.19,1.43,4.78.83-5.28,1.39-14.81,2.13-19.96.42-1.18-.39-4.41-2.74-5.4-3.74-.4-.4-1.74-2.02-2.08-2.49-1.24-1.73-1.88-4.17-3.33-5.82.72-.4,4.68-3.55,5.2-3.33-.61,4.08.49,5.75,2.7,8.73Z"/>
          <path class="cls-25" d="m246.57,312.79c-.52,1.93-.38,3.85-.42,5.82-.04,2.35.22,5.34,0,7.48-.1.99-.2,1.24-.42,2.08-.25.99-.66,2.42-1.66,2.91.74-1.33.82-3.07,1.66-4.37l-.62-.62c-.4,1.4-1.37,1.48-2.29,2.08l-1.25-1.66.42-13.93c2.44-1.8,4.33.22,4.57.21Z"/>
        </g>
      </g>
      <path class="cls-36" d="m279.42,119.48c-.98,1.31-.41,4.73-2.08,4.99-.99-4.56-2.05-9.23-3.33-13.72-5.42-19.14-15.17-36.72-23.07-54.88-21.59-1.14-53.44-10.63-72.75-20.37-6.95-3.5-13.68-8.06-20.37-12.06-1.46-.88-2.72-3.77-3.12,0-4.02,1.33-11.07,7.29-16.01,9.98-21.79,11.84-55.4,19.16-79.82,24.11-9.42,16.2-17.02,33.78-23.9,51.34.51,3.37-1.19,3.13-1.25,3.33-.11.39.55,1.11,0,3.12-.42,1.55-.85,3.01-1.25,4.57-1.25-.12-.25,2.09-3.33,1.25,5.79-25.6,15.09-44.29,26.61-67.56,1.19-1.23,2.17-.93,2.49-1.04,2.65-.91,15.2-2.39,20.99-3.74,27.17-6.35,54.68-15.02,76.91-32.43,26.28,20.84,64.27,32.08,97.28,35.75,9.97,21.91,20.88,43.69,25.98,67.35Z"/>
      <path class="cls-12" d="m160.52,14.71c1.98.74,12.49,7.37,17.46,9.98,17.3,9.09,25.12,12.17,44.28,17.04,1.05.27,3.5.15,4.57.42.16.04,1.3,1.28,2.91,1.66,8.86,2.12,18.11,3.06,27.02,4.99,9.61,20.25,19.19,40.45,25.15,62.15.71,3.91,1.17,7.98,2.08,11.85-3.93-.13.88,20.76,1.25,27.23,1.25,1.88,2.03,3.97,2.91,6.03-.79-1.47-3.6-3.6-3.74-3.95-.63-1.52-3.59-26.13-4.99-32.63-5.1-23.66-16.02-45.44-25.98-67.35-33.02-3.67-71-14.91-97.28-35.75-22.23,17.41-49.74,26.08-76.91,32.43-5.79,1.35-18.34,2.83-20.99,3.74-4.61-3.05-6.24,7.24-7.9,4.99,1.28-2.54.37-1.98.42-2.08.47-.97,3.08-5.91,3.33-6.24l1.04.83c12.9-3.62,25.97-6.33,38.87-9.98,6.11-1.73,12.29-3.3,18.29-5.4,13.48-4.73,23.98-11.02,25.36-11.22,2.03-.3.49,2.08,4.37.42,2.04-.88,11.56-7.9,13.72-10.39.93-.24,3.68.84,4.78,1.25Z"/>
      <path class="cls-39" d="m32.47,119.89c-.42,1.66-.84,5.81-2.08,6.03,1.34,2.67-1.18,6.7-1.25,7.07-.4,2.05.03,3.56,0,3.74-.06.34-.77.08-.83.42-1.23,6.7-1.93,13.81-2.91,20.58-.26,1.78-.07,3.7-.83,5.4-.25-.08-1.83-.41-2.08-.42,1.61-13.98,3.54-27.84,6.65-41.57,3.07.84,2.07-1.37,3.33-1.25Z"/>
      <path class="cls-21" d="m22.5,162.71c.24,0,1.83.33,2.08.42.57.19,7.06,4.65,10.81,5.4-.48,1.7-.98,5.06.83,1.66-.08.56,1.04.49,2.08.42.8,1.55,1.03,3.28.83,4.99-.1.81.29,1.49-.62,2.08-5.83-5.33-12.77-9.04-19.33-13.3.09-1.75,2.12-1.68,3.33-1.66Z"/>
      <path class="cls-8" d="m56.59,245.03c5.82,10.4,15.12,22.05,23.7,30.35-4.4-2.48-12.44-11.48-16.21-16.01-4.9-5.87-9.5-12.31-13.3-18.92,4.64.6,2.7,1.23,5.82,4.57Z"/>
      <g>
        <path class="cls-12" d="m303.95,194.31c-3.21-.62-6.21,7.64-2.49,6.65-.66,1.63.03,1.59,0,1.66-.27.7.7,1.01.21,1.25q-4.88,3.53-9.77,7.07c3.93-14,6.54-28.3,7.48-42.82,4.2,1.05,7.37,9.2,7.07-.83.04.06.7-.17.83.21,1.14,17.2-12.48,2.84-2.91,24.53.23,2.55-.4,2.17-.42,2.29Z"/>
        <path class="cls-24" d="m297.5,201.37c.78-.34,2.76.49,2.7.62-.28.63-3.37-.33-2.7-.62Z"/>
      </g>
      <g>
        <path class="cls-12" d="m117.7,30.09c-2.01.93-8,3.32-5.4,4.57-6,2.11-12.18,3.68-18.29,5.4,2.52-3.17-3.97-.09-6.65.42,1.52-3.18,2.25-4.68,5.4-6.24,1.1.8.85,3.51,2.7,3.74,23.83-5.37,10.28-7.76,11.85-11.85.26-.69,7.8-6.47,10.39,3.95Z"/>
        <path class="cls-20" d="m112.5,25.52c2.41.35-1.34,3.88-2.49,3.74-.76-.09-.15-4.13,2.49-3.74Z"/>
      </g>
      <g>
        <path class="cls-12" d="m165.09,9.72c.25,1.45.14,3.46.42,4.99-10.01-4.07-5.49-7.64-15.8-1.66,1.05-1.04-1.08-.76-.83-1.87.14-.63,3.23-.43,1.66-3.12,2.94-3.34,2.23-4.81,2.7-4.99h7.9c2.16,2.62,1.85,7.17,3.95,6.65Z"/>
        <path class="cls-40" d="m165.09,9.72c-2.1.52-1.79-4.03-3.95-6.65h-7.9c-.47.18.24,1.65-2.7,4.99-4.01,4.54-11.39,9.41-9.15,10.39-1.83,1.17-4.1,3.47-6.24,3.74,1.12-3.89,15.2-16.92,18.08-22.03,12.07-.91,10.57,2,11.85,9.56Z"/>
        <path class="cls-12" d="m149.71,13.05c-2.05,1.19-5.9,3.86-8.31,5.4-2.25-.99,5.14-5.85,9.15-10.39,1.57,2.69-1.52,2.49-1.66,3.12-.25,1.11,1.88.83.83,1.87Z"/>
      </g>
      <path class="cls-12" d="m160.52,14.71c-1.1-.41-3.85-1.49-4.78-1.25-2.16,2.49-11.68,9.52-13.72,10.39-3.88,1.67-2.33-.71-4.37-.42v-.83c5-2.36,17.42-11.13,18.5-11.22.85-.07,4.47,2.1,4.37,3.33Z"/>
      <path class="cls-22" d="m247.82,72.5c-3.53-9.38-7.81-6.11-19.75-9.15-25.16-6.4-50.23-14.97-71.92-29.52-26.96,18.5-59.34,26.75-91.04,32.84-15.84,29.39-26.1,58.92-29.31,92.29-.55-.12-.81.22-1.25.42-.83.38-1.74.73-2.49,1.25-1.3.9-2.86,1.26-2.08,2.91-.69-.28-1.44-.46-2.08-.83,1.55-13.15,3.48-26.23,6.65-39.08,2.22-8.98,4.58-15.92,7.9-24.53,2.4-.83,2.68-5.15,2.91-5.61,2.47-4.99,8.03-12.12,9.98-18.71,7.29-1.24,7.44-7.47,8.94-8.52q13.93-3.12,27.85-6.24c2.87-1.78,8.09-2.25,11.64-3.33.35-.11.07-.73.42-.83,6.35-1.94,12.91-3.43,19.12-5.82,10.24-3.95,23.18-11.27,32.43-17.46,26.54,17.25,57.47,27.56,88.55,32.43,1.46.62,2.9,6,3.53,7.48Z"/>
      <path class="cls-48" d="m150.13,28.85c-2.44,1.46-4.73,3.61-7.28,4.99-25.58,13.86-54.25,19.7-82.31,26.19-6.28,12.92-12.91,25.67-18.08,39.08-3.32,8.6-5.68,15.55-7.9,24.53-2.11-3.74,1.39-7.33-.83-8.31.55-2-.11-2.73,0-3.12.06-.19,1.75.05,1.25-3.33,6.89-17.57,14.49-35.14,23.9-51.34,24.42-4.95,58.03-12.27,79.82-24.11,4.94-2.68,11.98-8.65,16.01-9.98.67-.22.2-.97,1.04-.83-.55,3.26-6.73,4.54-5.61,6.24Z"/>
      <path class="cls-46" d="m274.01,110.74c-2.51-1.74-2.64-5.07-3.33-6.86-2.13-5.53-8.28-21.94-10.81-21.83-3.21-7.26-6.47-14.51-9.56-21.83l-1.87-1.46c-32.52-4.76-65.02-14.91-92.29-33.67-1.89,1.45-3.99,2.53-6.03,3.74-1.12-1.7,5.06-2.98,5.61-6.24-.84-.14-.36.61-1.04.83.4-3.77,1.65-.88,3.12,0,6.69,4,13.42,8.55,20.37,12.06,19.31,9.74,51.16,19.23,72.75,20.37,7.9,18.16,17.65,35.74,23.07,54.88Z"/>
      <path class="cls-51" d="m274.01,110.74c1.27,4.49,2.33,9.16,3.33,13.72,1.7,7.82,2.35,15.89,4.16,23.7-1.37,3.3,1,7.61-2.49,4.37-3.49-31.78-6.69-42.36-19.12-70.47,2.53-.12,8.68,16.29,10.81,21.83.69,1.79.82,5.12,3.33,6.86Z"/>
      <path class="cls-21" d="m266.53,116.98c-5.6-5.43-4.38-8.26-4.57-8.73,2.12-2.35,7.7,8.25,4.57,8.73Z"/>
      <path class="cls-39" d="m115.2,301.15c-.08,3.01-9.77-4.39-13.1-6.24-1.16-.64-2.52-.31-2.7-.42-6.45-3.76-12.27-8.41-17.88-13.3,1.96-3.57,9.88,5.49,17.25,10.39,4.61,3.06,11.47,6.95,16.42,9.56Z"/>
      <path class="cls-9" d="m34.55,123.63c-3.17,12.85-5.1,25.93-6.65,39.08-2.85-1.64.14-.47-2.49-4.99.98-6.77,1.68-13.88,2.91-20.58.06-.34.77-.08.83-.42.03-.18-.4-1.69,0-3.74.07-.36,2.58-4.4,1.25-7.07,1.24-.22,1.65-4.37,2.08-6.03.4-1.57.83-3.03,1.25-4.57,2.22.99-1.28,4.58.83,8.31Z"/>
      <path class="cls-12" d="m27.9,162.71c.64.37,1.39.56,2.08.83,1.33.53,5.41,1.86,6.65,2.08,0,1.04-.99,2-1.25,2.91-3.75-.76-10.23-5.22-10.81-5.4.76-1.7.57-3.63.83-5.4,2.63,4.52-.35,3.35,2.49,4.99Z"/>
      <path class="cls-22" d="m37.88,163.96h.42c0,.4.45.45.42.83-.02.06-.55.02-.83.83-.41-.04-.85.07-1.25,0-1.25-.22-5.32-1.55-6.65-2.08-.79-1.65.77-2.01,2.08-2.91,1.59,1.24,3.82,3.79,5.82,3.33Z"/>
      <path class="cls-12" d="m34.55,159.39l3.33,4.57c-2,.46-4.23-2.08-5.82-3.33.76-.52,1.66-.86,2.49-1.25Z"/>
      <g>
        <path class="cls-31" d="m247.82,72.5c2.38,5.53,14.71,30.78,14.97,33.47.09.91-.24,1.53-1.25,1.46-2.21-5.86-2.67-8.92-2.91-9.35-.86-1.54-2.49-1.1-3.33-2.49-2.16-3.61-8.88-20.74-12.26-26.81-30.78-5.13-60.06-16.58-87.3-31.6-26.51,17.94-58.06,25.64-88.97,32.01-15.65,29.55-22.65,48.74-26.81,81.9-.49,3.87-.13,7.84-.83,11.64-.15.8-.18,1.24-.42,2.08.04-.38-.42-.43-.42-.83.05-2.68-2.34-3.24-2.49-4.99,3.21-33.38,13.47-62.91,29.31-92.29,31.71-6.09,64.08-14.34,91.04-32.84,21.69,14.55,46.76,23.12,71.92,29.52,11.93,3.04,16.22-.24,19.75,9.15Z"/>
        <path class="cls-33" d="m266.11,116.98c.03,5.71,2.29,11.85,3.33,17.67,1.6,8.95,1.05,18.98,6.65,26.61-2.03,18.93,8.63,3.61,7.07,15.59-2.29,1.63-4.7,3.51-7.07,4.99-2.23,1.4-2.78,1.16-2.91,1.25-1.78-11.59-1.4-23.47-3.74-34.92-.37-4.47-7.32-30.99-7.07-32.63.38-2.42,2.77,1.23,3.74,1.46Z"/>
        <path class="cls-43" d="m269.44,148.16c2.35,11.45,1.96,23.34,3.74,34.92-1.24.87-2.44,1.72-3.74,2.49-.73,1.86-1.19,3.89-1.66,5.82-1.64.12-.56-1.56-1.25-3.33-1.02-2.62-4.64-3.07-4.16-1.87.5,1.24,7.37-.01-1.46,3.53,1.25-6.77-.21.17-5.61,2.08,1.41-1.77,2.62-4.84,4.37-6.24.18-.14,4.83-.39,2.08-2.49-.32-.25-2.01,4.48-3.74-1.66-.65.75.16,1.26.21,1.66-.27-.03-.63.06-.83,0-1.4-.42-3.34-1.12-1.66.83-.39.31-2.84,2.32-2.91,2.49.2-2.48-1.47-.61-.42,2.7-.18.42-1.14.1-1.25.21l.42-6.03c2.6.45,1.04-.58,2.29-1.46.43-.3,6.02-2.23,8.52-6.03q-2.08-9.04-4.16-18.08c3.31-4.59,10.8-4.71,8.73-6.65-.62-.59-2.63-1.02-2.49-1.46.26-.81,2.17,1.09,1.66-1.04.86.06,2.09.33,2.49-.83.42.05.46.44.83.42Z"/>
        <g>
          <path class="cls-18" d="m267.78,193.48c-1.22,5.25-2.15,10.54-3.33,15.8-2.08.23-3.96-.43-5.82-1.25-.78-.34-2.38-1.88-3.33-2.49-9.37-4.45-8.34-1.28-6.24-4.16,2.47,2.19,1.66-.74,1.87-.83.53-.22,3.38.33,5.82-.42,2.22-.68,5.03-3.43,7.07-4.57.37-.21,1.17.96,3.95-2.08Z"/>
          <path class="cls-45" d="m266.53,188.07c.69,1.76-.39,3.44,1.25,3.33-.14.58.14,1.48,0,2.08-2.78,3.04-3.58,1.87-3.95,2.08-2.04,1.15-4.84,3.89-7.07,4.57-2.44.75-5.3.2-5.82.42-.21.09.6,3.02-1.87.83,4.41-6.04,10.92-9.7,17.46-13.3Z"/>
        </g>
        <path class="cls-58" d="m242,263.32c-5.09,7.04-11.65,13.49-18.29,19.12-1.75,1.48-3.86,2.94-5.82,4.16,5.92-7.39,13.53-13.1,19.96-20.37,2.21-2.5,4.44-4.99,6.65-7.48-.64.93-2.2,4.17-2.49,4.57Z"/>
        <path class="cls-47" d="m37.88,165.62c-.29.82-1.55,4.36-1.66,4.57-1.81,3.4-1.31.04-.83-1.66.26-.91,1.24-1.87,1.25-2.91.4.07.84-.04,1.25,0Z"/>
        <path class="cls-6" d="m250.73,111.99c-.28.74-2.78,5.95-.42,4.16-.11.11-1.75,1.83-1.46,2.08,10.01-2.16.3-.08-.42.42-1.26.87,1.4,1.22-2.29,4.16-.21.16-.87-.99-.83.21.76.65.79-.21.83-.21.47.02,1.28.32,2.91.21l-2.7.62c-.79,2.78-2.98,1.96-2.91,3.74,6.53.88-5.16-.62-8.94,4.57-.48-.08-.73-.8-1.25-.21,2.28,2.22,1.18.3,1.25.21,5.19.91,10,1.22.83,1.04.51,3.09.5,5.8-2.08,8.73,5.24,2.87.41-1.97,3.95.62l1.25-2.49.42,2.49c2.57-6.09,1.32,3.64,3.33-3.33v3.33c3.21-2.44,4.98-3.8,1.87.62,4.74-1.69,3.8-.5,0,.83,1.23.32.72.86.83,1.04-1.83-.25-.43.03-1.46,1.25-1.76-4.52-4.39.33.21,1.04.22,2.12-.41,1.78-.42,1.87h-.42c-2.7-4.32-3.03-4.57-7.69-2.91.45-1.2-4.13-2.52-3.95-3.12.33-1.08,2.6.48-.42-1.87.04-.38-.08-3.24,0-4.57l2.49,1.87c-.63-2.15-1.89-1.5-1.04-3.95,1.77,4.32,2.68,1.91-1.04-2.08-2.21-2.37-2.53-1.85-2.91-2.08-.43-.25-.61-.3-.83-.42,4.14-6,.04-5.13,4.57-4.37-.39-6.76,2.6-6.74,2.08-4.57-.16.68-1.41-.65-1.66,0-.05.14.99,2.35,2.08.83v1.87c-2.02,1.56-4.31,8.3-2.29,7.9,1.47-.29,3.13-6.46,2.91-2.08,3.98-1.12,2.21-6.66,2.29-7.07.2-1.07,1.82-4.07,2.49-3.33-1.73,2.71-2.08,5.11-1.46,8.31,3.39-3.85,11.14-7.81,9.35-13.51-.77-.73-.89.46-2.08,1.46.07-.11.14-1.45.83-2.49.13-.19.83,1.36,1.04-1.25,1.02.34.29,3.37,1.25,3.33.17,0,.57-1.19,1.87-2.91Z"/>
        <path class="cls-12" d="m225.37,203.45c-1.54-.62-2.24-.92-3.74-1.66.41-4.37.99-8.91.83-13.3-.26-7.09-.98-4.13-2.49-7.07-.14-.27-.17-.41-.42-.83-1.05-1.78-1.72-3.97-3.33-5.4.7-.53,1.67-2.34,1.66-2.49,1.17-1.35.94,1.9,4.78,5.82,1.27-.08.91-10.13,1.04-11.22.02-.17.15.79.42-2.91.04-.57,1.68-6.67,1.25-11.22h.42c0,.05.84.34.83.62-.2,4.63-.74,8.91.83,12.89-1.63,2.47-3.47,7.24-.83,9.15-1.56,6.27-1.09,12.4,0,18.71-2.13,1.24-1.12,5.71-1.25,8.94Z"/>
        <path class="cls-45" d="m221.63,97.86c-2.45.85-.27.96,0,1.87,1.27,4.22,1.49,10.44-.21,3.95-2.03-.02,4.46,10.87-1.46,5.2,5.84,8.85-1.8,14.69-4.99,2.91-.98,1.94-1.3.47-1.66.62l-1.25-1.87c.76.34,1.35.57,2.08-.21,1.12-1.19-.54-6.81,1.46-3.74.48-.13-.36-2.97-2.7-2.91-.03-.27.06-.62,0-.83.94.3,5.5-4.29,4.16-4.57.04-.03,0-.38.62-.83,3.81,1.27,2.87-2.15,3.95.42Z"/>
        <path class="cls-43" d="m209.57,158.55c1.06,1.58,2.13,2.29,3.74,1.25.5.32,1.08.61,1.25,1.25-.13.73.27,1.5-1.66,2.29.77.65,1.3-.19,1.66-.21.95-.04.52.47,1.66,0l.62,1.66c-6.88.47-1.33,2.41,2.08-.83.57.27.73,3.37,4.78,3.33-.13,1.1.23,11.15-1.04,11.22-3.85-3.92-3.61-7.17-4.78-5.82-.18-2.32-1.53-1.61-1.66-1.66-2.02-2.56-5.58-5.45-7.07-8.31-.72-1.38-1.46-3.03-1.66-4.57,2.91-.81,1.95.38,2.08.42Z"/>
        <path class="cls-45" d="m41.62,152.32c1.9.99,5.94,2.06,6.65,4.16-1.9.58-7.14,6.6-9.15,6.24.7-3.8.35-7.77.83-11.64.67.29,1,.9,1.66,1.25Z"/>
        <path class="cls-45" d="m247.82,146.5c.35,10.31-4.76,7.49-3.33,14.13-1.4.46-.74-.35-1.66,0-.12.05-.3-.05-.42,0-2.22-2.67.26-7.16.83-11.22.65.08,1.97-.52,2.49-.83-.13.02-1.6,1.45.42,1.46-6.02,5.54,1.28,1.79.83-.83-.06-.37-.81-.71-1.25-.62.31-.19,1.99-1.96,2.08-2.08Z"/>
        <path class="cls-13" d="m229.53,147.74c.59-.47.26-.4.42-.83.51-.05.39.4.42.42.66.62,1,.47.42,1.46-1.31,2.2-1.33-.6-3.33,1.46-.55-.34-1.11-.34-1.25-.83-.66-2.4.84-12.18-.42-14.55l.83-.42c.07.14.68.08,1.66,2.7.27,3.3-1.03,12.41,1.25,10.6Z"/>
        <path class="cls-45" d="m237.43,122.39c-.08.41,1.69,5.95-2.29,7.07.22-4.38-1.44,1.79-2.91,2.08-2.03.4.27-6.34,2.29-7.9.83-.64,1.76-1.37,2.91-1.25Z"/>
        <path class="cls-17" d="m251.56,147.74c1.16-.06.13,1.62-.42,2.49-.2.32-1.65.41-1.04.83,2.32-.37,3.96.46,6.03,1.25v.42c-6.82-2.11-5.38-1.39-8.31,2.08-2.01,2.37-.91,1.33-1.25,2.08-.24.54-3.51,3.84,1.25.83.46.35,1.1.59,1.25,1.25-1.44.35-3.12,1.18-4.57,1.66-1.44-6.64,3.68-3.83,3.33-14.13.18-.27-.33-2.04.42-1.46q.31,3.01.62,6.03c.22.03,2.42-2.85,2.7-3.33Z"/>
        <path class="cls-6" d="m245.74,115.32c-2.45,4.2-3.48,6.96-3.74,7.28-1.14,1.39-.3.12-.83-2.7,1.07.04,2.48-2.82,4.57-4.57Z"/>
        <g>
          <path class="cls-45" d="m261.54,107.42c.36.97.4.79.42.83.19.47-1.03,3.3,4.57,8.73-.11.02-.31.02-.42,0-.97-.22-3.36-3.87-3.74-1.46-.26,1.65,6.69,28.16,7.07,32.63-.37.02-.42-.36-.83-.42-.53-.07-1.12,0-1.66,0-2.42-2.03-3.86.62-6.03,1.66.71-1.26,1.59-2.01,2.29-3.33,1.36-2.57-1.98,1.94-3.95-.83-.17.72-1.08,1.52-1.66,1.66-10.28,2.48.4-6.32,4.78-7.28l-4.16.42c4.28-6.22,5.64-6.99-.83-1.25q.94-3.22,1.87-6.44c-6.37,15.77-4.01,11.07-4.99-2.91-1.19,6.64,1.1,14.94-1.87,11.43,1.37,4.41.9,3.94-.83,6.86-.28.48-2.48,3.36-2.7,3.33q-.31-3.01-.62-6.03c-.75-.58-.23,1.19-.42,1.46-.08.12-1.77,1.89-2.08,2.08-.52.32-1.84.91-2.49.83.02-.13-.01-.28,0-.42,0-.1.64.25.42-1.87-4.6-.71-1.96-5.56-.21-1.04,1.03-1.22-.37-1.49,1.46-1.25.05,0-.03.35.62.83.75-1-.6-.79-.62-.83-.11-.18.4-.72-.83-1.04,3.8-1.33,4.74-2.52,0-.83,3.11-4.43,1.34-3.06-1.87-.62v-3.33c-2,6.96-.76-2.76-3.33,3.33l-.42-2.49-1.25,2.49c-3.54-2.59,1.29,2.25-3.95-.62,2.58-2.93,2.59-5.64,2.08-8.73,9.16.18,4.36-.13-.83-1.04,3.78-5.2,15.47-3.69,8.94-4.57-.07-1.78,2.12-.96,2.91-3.74l2.7-.62c-1.64.11-2.44-.19-2.91-.21,3.69-2.94,1.02-3.29,2.29-4.16.72-.5,10.42-2.57.42-.42-.29-.25,1.34-1.97,1.46-2.08.7-.67,1.72-1.45,2.49-2.08.19-.16,2.7-1.5,4.16-2.7-1.57-.89-3.94,2.55-4.16,2.7-2.42,1.71-2.37,1.98-2.49,2.08-2.37,1.8.14-3.42.42-4.16.02-.07,1.35-.48.62-1.25-1.03-.15-.47,1.04-.62,1.25-1.3,1.72-1.7,2.9-1.87,2.91-.96.05-.22-2.98-1.25-3.33-.21,2.61-.91,1.06-1.04,1.25.17-.18-.53-1.69-.62-1.66-.75.2.29,2.02.62,1.66-.7,1.05-.77,2.38-.83,2.49-2.1,1.76-3.5,4.61-4.57,4.57-.33-1.74-.83-2.36-.83-2.49.86-.42,2.24-3.86,1.87-4.99-.61,1.4-1.87,3.53-1.87,4.99-.17.08-3.27.03-3.74-.62-.16-.23,1.23-4.03-.62-3.95-1.28.05.45,3.24,0,3.74-.36.16-4.21-4.34-1.46.42-.07-.06-.99-.11-1.25.21-.75.94,1.66.13,1.25-.21.14.25,1.55-.93,1.04,1.66,5.54-2.05,4.11.3,4.37.42-.67-.75-2.29,2.26-2.49,3.33-1.15-.12-2.08.6-2.91,1.25v-1.87c-1.08,1.52-2.13-.69-2.08-.83.25-.65,1.5.68,1.66,0,.52-2.17-2.47-2.19-2.08,4.57-4.53-.77-.43-1.63-4.57,4.37-.3-.16-2.25-.07-2.91-1.04q-1.25-4.78-2.49-9.56c2.58-3.74,10.07-12.93,1.87-3.95-1.41-6.46,1.02-9.15,5.82-13.3,2.04-1.77,3.08.06,4.37-5.2-2.25-3.22-4.42,8.83-5.2,1.46.28,5.34-2.06,3.97-4.57,7.48.71-4.09,3.88-9.98-.83-2.49-1.41-2.22-1.64-4.86-1.87-5.4-1.07-2.57-.14.85-3.95-.42-.62.45-.58.8-.62.83-.17.11-2.01,2.56-2.7,2.91q-.83-2.49-1.66-4.99c2.08,10.12-2.65,2.43-3.12-.62-.69-4.44,1.86-6.11-.83-9.15l-1.25,2.49c2.76,1.82,1.15,8.28-1.25,3.33.48,3.59,4.44,3.03-.83,4.99l4.78,1.46c1.01,2.62,2.6,3.8,2.7,4.16.06.22-.03.56,0,.83l-2.08.21c4.72.24,3.09,2.75,3.33,6.44-.73.78-1.32.55-2.08.21l1.25,1.87c-.8.35,1,1.74-1.25.62l2.29,3.53c-.9-.08-4.33-1.68-4.57-1.66-4.18.25,7.69,1.69,1.66,3.74,12.48-4.25,11.25,12.03,12.26,14.76.17.45,1.91,1.13,2.08,1.46,1.26,2.37-.25,12.15.42,14.55-1.9,2.32-11.19-6.73-11.22-9.77-.64-.6-.24,1.01-.62,1.04-.36.03-4.23-5.37.21,1.04-6.94-.82-.54.23.62,1.04.6.42,8.08,8.79,10.19,10.39.44,4.55-1.21,10.65-1.25,11.22-3.94-1.07-4.51.81-3.95-4.16l-2.08,2.91c-1.1-3.1-1.72-.06-1.87,0-1.14.47-.71-.04-1.66,0l2.91-3.95c-3.81,3.03.61-5.16-2.49-1.25-1.95-7.63-.1,1.32-.42,3.12-.17-.63-.75-.93-1.25-1.25-1.99-1.28-2.03-.76-3.74-1.25-.13-.04.83-1.23-2.08-.42-.57-4.31,4.65-12.85,0-4.37-2.76-2.56-1.96-7.62-2.91-12.06-1.85-.14,1.51,6.46-.21,6.44-1.48-2.62-2.18-5.49-3.12-8.31-1.6-4.85-3.09-1.21,3.74-7.69-5.32,2.87-2.42-.55-2.49-.83-.04-.16-2.42-.57-2.49-.42-.56,1.06-.4,7.4-2.29.62-.6,4.38-1.9-2.43-3.95,1.87-.21.44.21,2.11,0,2.49-1.27,2.34-1.61,1.76-1.66,1.87-.35.8-.71,1.93-1.66,2.29,3.53,7.54.23,3.36-.21,3.53-1.44.59,4.58,2.66.62,2.91-.62-.43-1.74-1.14-2.49-.62.62.87,1.62.68,2.49.62.47.33.28,1.42.62,1.66,1.92-1.29,2.38-.59,3.95,1.04-4.64.37-3.92.69.21.62,1.29,1.66,2.99,2.82,4.37,3.74.09.06-.2,1.11.21,1.25.71.27,1.24-.61,1.87-.42,3.63,2.31,5.2,3.52,5.2,8.31-6.4-6.5-4.06-2.66.62,1.87-.35.53-5.26-1.15-5.82-1.46-4.8-2.56-.46-2.12-.42-2.7.15-1.95-2.15,1.82-3.53-3.95-1.03,1.89,2.39,4.68,1.25,5.4l-2.91-3.74c.93,5.29-1.25,1.24-3.12,2.49-2.41,1.62,2.27,15.95,2.08,19.75-2.8.14-5.52.35-8.31.62l-1.04-4.99-.21,4.99c-2.42.26-4.65.48-7.07.83-.39-2.33-3.05-4.43-3.74-5.4-.05-.08.13-.31-.83-1.66-.52-.73-1.14-1.36-1.66-2.08-.86-1.2-1.61-2.52-2.49-3.74-1.08-1.49-2.05-3.07-3.12-4.57,1.09,2.87-1.8,4.21-2.08,4.16-1.02-.18-6.71-12.23-9.35-11.64.72-3.68,2.22-2.73,1.25-4.99.61-.43,1.67-2.01,1.87-2.08,1.85-.64,4.55,3.71-.21-7.28,2.91-.35,5.81-.78,8.73-1.04,5.62-.51,4.92-1.57,9.56,1.25.14.09,2.32,2.91,2.49,1.04l-4.99-6.24c10.07-2.09,1.42-.6-1.46-1.46-1.56-.47-3.49-4.14-6.24-3.74-.6-.49-.47-1.72-.62-2.08-.06-.14.91-.38-1.04-2.91,3.1-.57,6.24-.8,9.35-1.25.86-.12,1.83.08,2.7,0v-.83c-5.7-2.55-10.36-6.99-16.63-8.31-.52-.9-1.28-1.69-1.87-2.49-.18-.25-1.52-3.92-2.91-5.4v-.42c6.37,1.1,8.16,2.94,17.88,1.46-2.94-2.43-4.26-6.97-8.52-6.86-1.89-3.43-6.71-5.27-7.69-6.86-.22-.35-1.64-4.65-2.91-7.69-.29-.7-.88-1.82-.42-2.49,3.11-.37,15.05,1.46,13.3-3.53-.22-.62-1.65-.65-2.91-1.04-.52-.16-2.82-.25-3.12-.42-1.21-.7-1.58-3.53-2.08-3.74-1.18-.51-3.32,2.43-13.1-5.61,4.99-5.93.32-6.11-4.57-14.13-3.52-5.78-3.8-12.18-3.74-.83-6.31,6.01-7.24,3.2-6.65,12.26-.97.3-3.58,2.54-4.57,3.33-.12.1-2.67.83-2.49,1.87.11.65,3.62,1.63,4.57,2.7-.75.19-13.46,6.54-13.72,7.28-1.1,3.1,8.55,2.04,9.35,2.29.8.25,1.43,1.94,1.87,2.49.92,1.15,3.23,4.58,1.66,4.57-2.54.41-6.02,1.96-8.73,2.49-8.97,4.45-1,1.23-2.49,4.57.82,2.02-3.7-2.41-3.74-2.7-.15-1.01,3.34-5.09,3.33-5.4-.03-.59-7.43-7.01-7.69-8.94-1.25.07-.98,1.19-1.04,1.25-1.52,1.34-3.51,3.7-4.57,5.4-1.14,1.83-2.06,2.53-2.08,2.7-.17,1.7,5.36.91-5.2,14.34-2.62-2.71-4.02-6.03-7.69-7.28-.41-1.14,2.69-2.49-4.99-10.81-.06.47.09,1,0,1.46-.47,2.25-.46,4.57-.42,6.86-3.66,1.09-7,7.19-10.19,10.19-2.24-.29,2.64-10.21-7.69-.21l9.98,7.48c-5.69,4.92-8.12,13.8-17.04,12.06,1.75,1.18,5.85,7.77,6.24,8.11-4.36,2.87-8.45,6.12-12.68,9.15-.53.38-.95-2.47-9.35,7.9-.66-.34-.99-.96-1.66-1.25,4.16-33.16,11.16-52.35,26.81-81.9,30.91-6.37,62.46-14.07,88.97-32.01,27.25,15.02,56.52,26.46,87.3,31.6,3.39,6.08,10.1,23.2,12.26,26.81.84,1.4,2.47.95,3.33,2.49.24.43.7,3.49,2.91,9.35Z"/>
          <g>
            <path class="cls-17" d="m227.45,129.87c.22.12.4.16.83.42,1,1.59,1.12.64,1.25,2.08-1.29-1.01-.61.83-1.04.83-.19,0-1.47-2.68-2.91-1.66-.8.56.67,2.12,1.04,2.91l-.83.42c-.17-.32-1.91-1.01-2.08-1.46-1.02-2.73.21-19.01-12.26-14.76,6.03-2.05-5.85-3.49-1.66-3.74.24-.01,3.67,1.58,4.57,1.66l-2.29-3.53c2.25,1.12.45-.28,1.25-.62.36-.16.69,1.31,1.66-.62,3.19,11.78,10.83,5.94,4.99-2.91,5.92,5.68-.58-5.22,1.46-5.2,1.7,6.49,1.47.27.21-3.95-.27-.91-2.45-1.02,0-1.87.23.54.46,3.18,1.87,5.4,4.71-7.48,1.54-1.59.83,2.49,2.51-3.51,4.85-2.14,4.57-7.48.78,7.38,2.95-4.67,5.2-1.46-1.28,5.25-2.32,3.43-4.37,5.2-4.8,4.15-7.24,6.84-5.82,13.3,8.2-8.98.71.21-1.87,3.95q1.25,4.78,2.49,9.56c.66.97,2.61.88,2.91,1.04Z"/>
            <path class="cls-17" d="m207.5,158.14c.2,1.55.95,3.19,1.66,4.57-2.47,1.02,4.58,7.98,6.03,8.73.85.44.99-.44,1.04-.42.13.05,1.48-.66,1.66,1.66.01.15-.97,1.96-1.66,2.49-.33.26-.98.99-1.46.83-4.61-4.27.95-.44.62-2.7-.23-1.59-8.25-8.45-13.3-9.77v-.42c.56.3,5.47,1.98,5.82,1.46-4.68-4.53-7.02-8.38-.62-1.87,0-4.79-1.57-6.01-5.2-8.31,1.97.61,3.65,1.63,3.74,1.46-1.7-6.06-2.11-11.16-8.31-11.22,6.89-.72,3.76,2.96,3.74-4.78.94,2.82,1.64,5.69,3.12,8.31,1.71.01-1.64-6.58.21-6.44.95,4.44.15,9.5,2.91,12.06,4.65-8.49-.57.06,0,4.37Z"/>
            <path class="cls-6" d="m263.2,146.08l-9.77,2.08c-.68.34,1.7,1.86-2.29,2.08.55-.87,1.58-2.55.42-2.49,1.73-2.92,2.21-2.45.83-6.86,2.97,3.51.68-4.8,1.87-11.43.98,13.98-1.38,18.68,4.99,2.91q-.94,3.22-1.87,6.44c6.47-5.75,5.11-4.98.83,1.25l4.16-.42c-4.38.95-15.07,9.75-4.78,7.28.58-.14,1.49-.94,1.66-1.66,1.97,2.78,5.31-1.73,3.95.83Z"/>
            <path class="cls-45" d="m217.06,98.27c1.34.28-3.22,4.87-4.16,4.57-.1-.36-1.7-1.53-2.7-4.16l-4.78-1.46c5.27-1.96,1.31-1.4.83-4.99,2.4,4.96,4.01-1.51,1.25-3.33l1.25-2.49c2.69,3.04.15,4.71.83,9.15.47,3.05,5.2,10.74,3.12.62q.83,2.49,1.66,4.99c.69-.35,2.54-2.8,2.7-2.91Z"/>
            <path class="cls-6" d="m226.2,149.41c.14.5.7.49,1.25.83-.12.12-1.67,2.74-1.66,2.91h-.42c-2.11-1.61-9.59-9.98-10.19-10.39-1.16-.81-7.57-1.86-.62-1.04-4.44-6.41-.57-1.01-.21-1.04.38-.03-.01-1.64.62-1.04.04,3.04,9.32,12.09,11.22,9.77Z"/>
            <path class="cls-16" d="m224.13,164.37c-.27,3.7-.4,2.74-.42,2.91-4.06.05-4.22-3.05-4.78-3.33-3.41,3.24-8.95,1.31-2.08.83l-.62-1.66c.15-.06.77-3.1,1.87,0l2.08-2.91c-.56,4.97,0,3.09,3.95,4.16Z"/>
            <path class="cls-45" d="m223.71,84.97c-5.9,5.95-2.42,8.73-3.53,8.73.22-6.12-5.89-11.33-2.08-9.15.51-3.43.73-.14,1.25,0,.72.2,1.15-1.64,1.25-1.66.18-.04.99,1.5,3.12,2.08Z"/>
            <path class="cls-19" d="m202.09,163.13v.42c-.77-.2-1.65-.29-2.29-.83-5.01,2.54,3.19-.4-6.44-2.08,1.87-1.26,4.04,2.79,3.12-2.49l2.91,3.74c1.14-.72-2.27-3.51-1.25-5.4,1.38,5.77,3.68,2,3.53,3.95-.04.58-4.38.14.42,2.7Z"/>
            <path class="cls-44" d="m240.34,117.4c0,.13.5.75.83,2.49-.28-.01-.15-.34-1.25-.83-.25-.11,1.18-2.47-4.37-.42.51-2.6-.9-1.42-1.04-1.66-2.76-4.76,1.09-.25,1.46-.42.45-.51-1.28-3.69,0-3.74,1.86-.08.46,3.72.62,3.95.47.66,3.57.71,3.74.62Z"/>
            <path class="cls-10" d="m214.56,163.13c-.36.02-.89.86-1.66.21,1.93-.78,1.53-1.56,1.66-2.29.32-1.79-1.54-10.75.42-3.12,3.1-3.91-1.31,4.28,2.49,1.25l-2.91,3.95Z"/>
            <path class="cls-44" d="m212.9,103.68c2.35-.06,3.19,2.78,2.7,2.91-1.99-3.07-.34,2.55-1.46,3.74-.24-3.7,1.4-6.2-3.33-6.44l2.08-.21Z"/>
            <path class="cls-44" d="m190.04,137.35l-.62,2.08-3.95-5.2c.81.7,4.38,2.92,4.57,3.12Z"/>
            <g>
              <path class="cls-7" d="m178.19,168.95c.59.87,6.47,10.07,5.4,10.39l-5.4-10.39Z"/>
              <path class="cls-7" d="m187.13,181c-.41.04-.84-.04-1.25,0l.21-4.99,1.04,4.99Z"/>
            </g>
            <path class="cls-17" d="m213.32,159.8c-1.61,1.04-2.68.33-3.74-1.25,1.71.48,1.75-.03,3.74,1.25Z"/>
            <path class="cls-6" d="m252.81,114.07c.22-.15,2.58-3.59,4.16-2.7-1.46,1.2-3.97,2.55-4.16,2.7Z"/>
            <path class="cls-44" d="m240.34,117.4c0-1.46,1.26-3.59,1.87-4.99.37,1.13-1.01,4.57-1.87,4.99Z"/>
            <path class="cls-6" d="m252.81,114.07c-.77.63-1.79,1.41-2.49,2.08.13-.1.07-.37,2.49-2.08Z"/>
            <path class="cls-44" d="m206.04,100.35c.14-.06,2.77-.06,2.91,0,1.22.54-4.13.54-2.91,0Z"/>
            <path class="cls-44" d="m190.87,146.5c-.88.05-1.87.25-2.49-.62.75-.52,1.87.19,2.49.62Z"/>
            <path class="cls-44" d="m248.03,109.5c.68.3,0,2.58-.62,1.46-.08-.15.55-1.49.62-1.46Z"/>
            <path class="cls-6" d="m234.73,119.89c.4-.24.83.09.42.83-.57,1.04-.98-.49-.42-.83Z"/>
            <path class="cls-6" d="m246.57,112.82c-.33.36-1.38-1.46-.62-1.66.09-.02.79,1.48.62,1.66Z"/>
            <path class="cls-6" d="m250.73,111.99c.16-.21-.4-1.4.62-1.25.73.77-.6,1.18-.62,1.25Z"/>
            <path class="cls-44" d="m234.52,116.98c.41.34-2,1.14-1.25.21.25-.31,1.18-.27,1.25-.21Z"/>
            <path class="cls-5" d="m199.81,157.31c.06,0,.78.62.62,1.04-.24.64-1.31-.97-.62-1.04Z"/>
            <path class="cls-6" d="m244.91,144.83s1.38-.17.62.83c-.65-.48-.57-.82-.62-.83Z"/>
            <path class="cls-45" d="m223.71,84.97c.05.01.35-1.1.83-.62.15.91-.75.54-.83.62Z"/>
            <path class="cls-44" d="m190.04,137.35l.21,1.25c-.43-.32-.1-1.13-.21-1.25Z"/>
          </g>
        </g>
        <path class="cls-56" d="m35.8,158.97c.16,1.75,2.54,2.31,2.49,4.99h-.42l-3.33-4.57c.43-.2.7-.54,1.25-.42Z"/>
        <path class="cls-45" d="m258.22,157.72q2.08,9.04,4.16,18.08c-2.51,3.8-8.09,5.72-8.52,6.03-1.25.88.31,1.91-2.29,1.46l-.42,6.03c-1.64,1.7-4.46,4.24-1.25,5.82-.46,1.44-2.11,2.65-2.08,4.37-1.15,1.12-1.68-13.48-2.29-14.76l1.04,16.01-5.4-4.78c-1.4-1.46-10.35-10.42-11.02-10.81-.05-.03-.34.61-1.04.42.05-2.28-.03-4.57,0-6.86.48-.69.96-1.5,1.25-2.29,2.84-1.16,7.42-2.46,9.15-4.99.89-1.31,3.43-7.95,1.25-7.9.87-.95,2.11-2.15,2.08-2.91.92-.35.26.46,1.66,0,1.46-.48,3.14-1.31,4.57-1.66,3.52-.86,8.62-2.65,9.15-1.25Z"/>
        <path class="cls-3" d="m255.31,191.81c-.31.11-.48-.57-1.04-.42-1.78.51-1.65,3.8,1.04.42,5.41-1.91,6.86-8.85,5.61-2.08,8.82-3.55,1.95-2.29,1.46-3.53-.48-1.2,3.13-.75,4.16,1.87-6.54,3.6-13.05,7.26-17.46,13.3-2.1,2.87-3.13-.3,6.24,4.16-.18.04-.8.38-.83.42-1.98-1.57-5.91-.99-7.9-2.49-.37-.28-5.09-7.15-5.4-7.48l5.4,4.78-1.04-16.01c.61,1.28,1.13,15.87,2.29,14.76-.03-1.71,1.62-2.93,2.08-4.37.11-.35-.87-.28,0-3.95.09-.4,1.68.44,1.25-1.87.11-.11,1.07.22,1.25-.21-1.05-3.32.62-5.18.42-2.7-.98,2.47,1.47,2.47,1.87,4.57,2.08-3.94,4.04-3.83,3.53-7.9-.05-.4-.85-.92-.21-1.66,1.73,6.15,3.42,1.42,3.74,1.66,2.75,2.1-1.9,2.35-2.08,2.49-1.75,1.4-2.96,4.46-4.37,6.24Z"/>
        <path class="cls-44" d="m266.95,151.07c2.07,1.95-5.42,2.06-8.73,6.65-.53-1.41-5.63.38-9.15,1.25-.14-.66-.79-.9-1.25-1.25-.38-.29-.81-.63-1.25-.83.34-.75-.76.29,1.25-2.08.82,3.28,2.79.42,3.95,1.66.83-.11-1.92-3.09,4.99-2.49l-.62-1.25v-.42c.63.24.97.82,1.46,1.25,4.14-4.06,1.09-2.03,3.33-1.66,1.6.26.85-2.15,2.08.83.62-1.8,2.39-1.75,3.95-1.66Z"/>
        <path class="cls-45" d="m258.22,183.08c.51,4.07-1.46,3.96-3.53,7.9-.4-2.11-2.86-2.1-1.87-4.57.07-.18,2.52-2.19,2.91-2.49.07-.06.64.09,1.66-.83.2.06.56-.03.83,0Z"/>
        <path class="cls-44" d="m257.38,183.08c-1.02.92-1.59.77-1.66.83-1.67-1.96.26-1.25,1.66-.83Z"/>
        <path class="cls-45" d="m242.83,148.99c-2.22,11.2-3.61,9.08-5.4,11.43-1.45,1.9-8.84,10.77-9.15,11.43-.15-3.32.25-18.81.83-20.16.24-.56,8.19-6.5,1.25-4.37-.02-.02.09-.46-.42-.42.1-.28.74-4.95.83-5.82,3.02,2.35.75.79.42,1.87-.19.6,4.4,1.92,3.95,3.12,4.67-1.66,5-1.41,7.69,2.91Z"/>
        <path class="cls-45" d="m239.92,119.06c1.09.49.96.82,1.25.83.53,2.82-.31,4.09.83,2.7.26-.32,1.3-3.07,3.74-7.28,1.19-1,1.3-2.18,2.08-1.46,1.78,5.7-5.96,9.66-9.35,13.51-.63-3.2-.28-5.61,1.46-8.31Z"/>
        <path class="cls-14" d="m231.19,132.36c-.38,1.39-.33,2.74-.42,4.16-.08,1.33.04,4.19,0,4.57-.09.87-.73,5.54-.83,5.82-.15.43.18.36-.42.83-.86-5.1.45-10.29,0-15.38-.13-1.44-.24-.49-1.25-2.08.38.22.7-.3,2.91,2.08Z"/>
        <path class="cls-43" d="m230.78,136.52c.08-1.41.04-2.77.42-4.16,3.72,3.99,2.81,6.39,1.04,2.08-.85,2.45.4,1.8,1.04,3.95l-2.49-1.87Z"/>
        <path class="cls-15" d="m234.52,131.95c-.07.09,1.04,2.02-1.25-.21.52-.6.77.12,1.25.21Z"/>
        <path class="cls-37" d="m246.16,122.8s-.07.86-.83.21c-.04-1.2.63-.04.83-.21Z"/>
        <g>
          <path class="cls-43" d="m170.08,168.95c-3.04,1.21-.72,1.33-.83,3.53-2.83.27-.59,2.96-3.33,3.12-.23-.4-1.24-2.02-1.46-2.08-1.99-.56-.66,2.2,1.46,2.08.18.31-.71.19,0,1.25.6.9,1.39,1.67,2.08,2.49.68.82,2.81,2.73,2.91,2.91.05.09-.03.5,0,.83-1.38.23-2.76.58-4.16.83-5.65-15.09-10.46-9.77-11.22-11.85-.08-.22,1.27-3.55,1.25-3.74-.02-.17-1.28-1.11-1.66-1.87,2.85-.67-.93-2.64.42-9.56,2.64-.59,8.33,11.46,9.35,11.64.28.05,3.17-1.28,2.08-4.16,1.07,1.5,2.04,3.09,3.12,4.57Z"/>
          <path class="cls-43" d="m155.53,156.89c-1.35,6.92,2.43,8.89-.42,9.56-1.53-3.08-3.42-6.04-4.99-9.15,2.45-1.52,4.3-3.76,6.65-5.4.98,2.26-.53,1.31-1.25,4.99Z"/>
          <path class="cls-29" d="m174.24,174.77c.96,1.35.78,1.59.83,1.66-.85,2.25-1.15,6.01-4.16,5.82-.1-.18-2.23-2.09-2.91-2.91.08-1.02,1.36.91,1.46.83.31-.24-.52-3.14,4.78-5.4Z"/>
          <path class="cls-18" d="m172.57,172.69c-2.04,1.82-3.98,3.68-6.65,4.16-.71-1.06.18-.94,0-1.25,2.74-.15.49-2.84,3.33-3.12.11-2.2-2.21-2.33.83-3.53.88,1.22,1.63,2.54,2.49,3.74Z"/>
          <path class="cls-30" d="m178.81,181.83c-2.65.38-5.26.8-7.9,1.25-.03-.33.05-.74,0-.83,3,.19,3.3-3.58,4.16-5.82.7.98,3.35,3.07,3.74,5.4Z"/>
          <path class="cls-7" d="m174.24,174.77c-5.3,2.26-4.47,5.16-4.78,5.4-.1.08-1.37-1.86-1.46-.83-.69-.83-1.48-1.6-2.08-2.49,2.67-.48,4.61-2.33,6.65-4.16.52.72,1.14,1.35,1.66,2.08Z"/>
          <path class="cls-18" d="m165.92,175.6c-2.12.12-3.44-2.64-1.46-2.08.22.06,1.22,1.67,1.46,2.08Z"/>
        </g>
        <path class="cls-54" d="m228.28,171.86c-1.16,2.48-.12,4.32,2.08,2.08l.83.42c-.39.7-.56,1.34-.83,2.08-.29.79-.77,1.59-1.25,2.29-.03,2.29.05,4.57,0,6.86-.13,6.49.86,13.03.42,19.54-1.42-.47-2.77-1.11-4.16-1.66.12-3.23-.88-7.69,1.25-8.94-1.09-6.31-1.56-12.44,0-18.71-2.64-1.91-.8-6.68.83-9.15-1.57-3.98-1.03-8.26-.83-12.89.01-.29-.83-.57-.83-.62,0-.17,1.55-2.79,1.66-2.91,2-2.06,2.02.74,3.33-1.46.59-.99.25-.83-.42-1.46,6.94-2.13-1.01,3.81-1.25,4.37-.59,1.35-.98,16.84-.83,20.16Z"/>
        <g>
          <path class="cls-45" d="m201.26,139.85c.02,7.74,3.15,4.06-3.74,4.78,6.2.07,6.62,5.17,8.31,11.22-.09.18-1.77-.85-3.74-1.46-.64-.2-1.16.69-1.87.42-.41-.14-.11-1.18-.21-1.25,1.77-1.37-.16-.51-.62-.83-4.51-3.16-6.59-9.79-7.28-14.97.05-.11.39.47,1.66-1.87.21-.38-.21-2.06,0-2.49,2.05-4.3,3.35,2.51,3.95-1.87,1.88,6.78,1.73.44,2.29-.62.08-.15,2.45.25,2.49.42.07.28-2.83,3.7,2.49.83-6.83,6.48-5.35,2.85-3.74,7.69Z"/>
          <path class="cls-44" d="m200.01,153.57c-1.38-.92-3.07-2.09-4.37-3.74-4.13.07-4.85-.26-.21-.62-1.57-1.62-2.03-2.33-3.95-1.04-.34-.24-.15-1.34-.62-1.66,3.95-.25-2.07-2.32-.62-2.91.43-.18,3.74,4,.21-3.53.95-.35,1.31-1.48,1.66-2.29.68,5.18,2.76,11.81,7.28,14.97.47.33,2.39-.54.62.83Z"/>
          <path class="cls-5" d="m200.64,148.58l1.87,1.46-.83.42,2.29,3.12c-1.57-1.32-3.36-2.64-3.33-4.99Z"/>
          <path class="cls-5" d="m197.31,139.85c.13-.03,1.22,1.95,1.25,2.08.53,2.59-2.31-1.79-1.25-2.08Z"/>
        </g>
        <path class="cls-8" d="m229.53,132.36c.45,5.09-.86,10.28,0,15.38-2.28,1.81-.98-7.3-1.25-10.6-.98-2.62-1.6-2.56-1.66-2.7-.37-.79-1.84-2.35-1.04-2.91,1.44-1.02,2.72,1.66,2.91,1.66.43,0-.25-1.84,1.04-.83Z"/>
        <path class="cls-16" d="m216.23,171.03c-.05-.02-.19.86-1.04.42-1.45-.75-8.5-7.71-6.03-8.73,1.49,2.86,5.04,5.75,7.07,8.31Z"/>
        <g>
          <path class="cls-13" d="m243.25,149.41c-.57,4.06-3.05,8.56-.83,11.22-4.11,1.53-9.43,10.63-12.06,13.3-2.2,2.24-3.24.4-2.08-2.08.31-.66,7.7-9.53,9.15-11.43,1.79-2.35,3.18-.23,5.4-11.43h.42c-.01.14.02.28,0,.42Z"/>
          <path class="cls-23" d="m242.83,160.63c.03.76-1.21,1.97-2.08,2.91-1.54,1.67-3.1,3.25-4.57,4.99-1.4,1.65-2.99,3.13-4.16,4.99-.04.07-.8.78-.83.83l-.83-.42c2.63-2.68,7.95-11.77,12.06-13.3.12-.05.29.05.42,0Z"/>
        </g>
        <g>
          <path class="cls-43" d="m266.95,147.74c-3.09-.05-4.14.58-.83.83.51,2.13-1.41.23-1.66,1.04-.14.44,1.87.87,2.49,1.46-1.56-.09-3.33-.13-3.95,1.66-1.23-2.98-.47-.57-2.08-.83-2.23-.37.81-2.4-3.33,1.66-.48-.42-.82-1-1.46-1.25-2.07-.79-3.71-1.62-6.03-1.25-.61-.42.84-.51,1.04-.83,3.98-.21,1.61-1.74,2.29-2.08l9.77-2.08c-.7,1.32-1.58,2.07-2.29,3.33,2.17-1.04,3.61-3.69,6.03-1.66Z"/>
          <path class="cls-6" d="m266.95,147.74c.54,0,1.14-.07,1.66,0-.41,1.16-1.63.9-2.49.83-3.31-.25-2.26-.88.83-.83Z"/>
          <path class="cls-10" d="m255.93,149.82c.32.03,1.42.5,1.46.62.19.66-2.21.6-1.46-.62Z"/>
        </g>
        <path class="cls-6" d="m245.74,148.58c.44-.08,1.18.26,1.25.62.44,2.62-6.85,6.37-.83.83-2.02,0-.55-1.43-.42-1.46Z"/>
        <path class="cls-43" d="m256.14,152.73l.62,1.25c-6.91-.59-4.16,2.38-4.99,2.49-1.16-1.24-3.13,1.61-3.95-1.66,2.94-3.46,1.5-4.19,8.31-2.08Z"/>
        <path class="cls-53" d="m247.82,157.72c-4.76,3.01-1.49-.3-1.25-.83.43.21.87.54,1.25.83Z"/>
        <path class="cls-28" d="m254.47,205.95s-.29-.16-.42.42c-3.92,1.21-3.38,1.79-7.48,2.08.66-3.62-.36-3.55-.42-3.74-.19-.66.33-.79.42-1.25,1.99,1.51,5.92.92,7.9,2.49Z"/>
        <g>
          <path class="cls-32" d="m60.74,247.1c3.3,5.61,6.25,10.31,10.39,15.38,4.49,5.5,10.5,9.8,12.89,15.8-1.4-.67-2.65-1.85-3.74-2.91-8.57-8.3-17.88-19.95-23.7-30.35-.45-1.22-1.05-2.61-1.66-3.74,2.71,2.53,4.16,8.45,5.82,5.82Z"/>
          <path class="cls-33" d="m263.62,213.85c-5.66,24.47-4.93,24.42-19.12,44.9-2.21,2.49-4.45,4.99-6.65,7.48l-.83-1.66c2.4-2.88,4.49-6.47,6.65-9.56,6.55-9.38,13.13-19.44,16.21-30.56.94-3.37-.53-9.19,3.74-10.6Z"/>
          <path class="cls-30" d="m94,282.86c4.77,3.93,6.48,5.25,11.64,8.73,4.03,2.72,8.41,4.83,12.47,7.48.16.1,1.02,1.67,2.91,2.49l-1.66.42c-12.56-6.28-25.37-13.67-35.34-23.7-2.39-6-8.4-10.3-12.89-15.8.82-.16.95-1.45,1.25-2.49,5.61,8.88,13.54,16.2,21.62,22.87Z"/>
          <path class="cls-31" d="m237.84,266.23c-6.42,7.27-14.03,12.98-19.96,20.37-1.89,2.55-5.14,3.54-5.4,3.74-2.34.25-1.16-.03-2.08-2.08.99-.74,1.18-1.19,1.25-1.25,6.5-4.98,12.9-10.01,18.71-15.8,1.95-1.94,4.94-4.6,6.65-6.65l.83,1.66Z"/>
          <path class="cls-33" d="m212.49,290.34c-3.86,2.9-4.71,3.38-8.73,5.82-1.84.31-2.21.61-2.08-1.66,2.96-2,5.87-4.09,8.73-6.24.92,2.05-.26,2.33,2.08,2.08Z"/>
          <path class="cls-33" d="m201.68,294.5c-.13,2.27.24,1.97,2.08,1.66-2.61,1.58-5.31,3-7.9,4.57.05-.29-.14-.49-.42-.42-1.91-2.46,4.51-4.66,6.24-5.82Z"/>
          <path class="cls-45" d="m152.2,192.23c-3.9,1.55-6.96,4.4-10.39,6.65-.17.11-1.92.4-3.12,1.25-2.31,1.61-4.29,3.63-6.44,5.4-8.71,5.4-18.12,11.45-22.87,20.79-.46.42-1.31.4-1.66,1.04.14,1.77-2.39,6.03-2.49,6.65-1.04,6.39,1.43,5.59,2.7,9.77,3.44-1.13,7.57,5.26,7.69,6.03.38,2.52-4.01,6.2-1.25,6.86-3.45,8.11-7.17,17.91-8.31,26.61-6.69-10.93-12.81-10.07-17.46-27.65,1.61-12.19.02-13.41,5.82-24.94,1.4-2.79,6.12-8.16,3.74-8.94,8.84-8.25,15.44-12.54,25.36-19.12,2.16-1.44,3.72-3.03,5.2-1.66l4.57-3.33c1.46,2.06,2.33-.76,2.49-.83,3.03-1.26,5.46-1.5,5.4-2.91.65.79,1.76.7,2.7.42,3.16-.94,5.08-2.11,8.31-2.08Z"/>
          <path class="cls-18" d="m94,282.86c-8.08-6.67-16-13.99-21.62-22.87,3.87-13.41,3.05-3.01,8.73,6.86,3.34,5.79,9.69,10.59,12.89,16.01Z"/>
          <g>
            <path class="cls-57" d="m150.54,205.95c-11.67,14.65-19.56,42.6-22.87,60.9-1.75,9.66-2.11,19.65-3.74,29.31-6.56-2.09-12.45-5.97-18.29-9.56.06-1.22.26-2.15.42-3.33,1.15-8.7,4.86-18.5,8.31-26.61,3.64-8.56,9.98-20.54,15.38-28.06,1.94-2.7,16.7-20.1,18.71-22.03.51-.49,1.96-1.26,2.08-.62Z"/>
            <path class="cls-42" d="m123.93,296.16c-.04.26.05.57,0,.83-.13.7-1.1,2.36-1.25,2.91l-4.57-.83c-4.06-2.65-8.44-4.76-12.47-7.48.06-1.66-.08-3.33,0-4.99,5.84,3.59,11.73,7.47,18.29,9.56Z"/>
          </g>
          <g>
            <path class="cls-43" d="m98.16,221.74c2.38.78-2.34,6.15-3.74,8.94-5.8,11.54-4.21,12.75-5.82,24.94,4.65,17.57,10.77,16.71,17.46,27.65-.15,1.17-.35,2.1-.42,3.33-.08,1.66.06,3.33,0,4.99-5.16-3.48-6.88-4.8-11.64-8.73-3.2-5.41-9.55-10.21-12.89-16.01-5.68-9.87-4.86-20.27-8.73-6.86-.3,1.04-.43,2.33-1.25,2.49-4.14-5.08-7.09-9.77-10.39-15.38-3.67-6.24-12.64-25.76-13.72-26.81-.91-.9-1.46-.84-2.49-.21-.28-.63-.8-.98-1.25-1.46.64-.56,1.38-.96,2.08-1.46.05-.04.4.1,1.25-.42,4.46.17,6.97,1.76,10.39,5.61,3.71,4.18,14.91,28.83,20.37,24.53,1.29-1.01,4.56-10.02,20.79-25.15Z"/>
            <path class="cls-31" d="m60.74,247.1c-1.66,2.63-3.11-3.29-5.82-5.82-3.68-6.86-7.25-14.08-10.39-21.2,1.03-.63,1.58-.69,2.49.21,1.08,1.05,10.05,20.57,13.72,26.81Z"/>
            <path class="cls-45" d="m123.52,202.62c-9.92,6.59-16.51,10.88-25.36,19.12-16.23,15.13-19.5,24.14-20.79,25.15-5.46,4.3-16.66-20.35-20.37-24.53-3.42-3.85-5.93-5.45-10.39-5.61,3.68-2.23,7.69-4.13,11.64-5.82-3.77,4.13,5.54,2.04,6.03,2.08,2.8.2,4.34,1.24,4.57,1.25,3.89.08,9.41-1.39,13.72-.83,2.37,15.62,2.15,10.56,4.99,9.15,1.39-.69,3.17-.87,4.57-1.66,3.84-4.28,27.28-17.98,29.93-18.71.65-.18.95.2,1.46.42Z"/>
            <path class="cls-38" d="m143.89,194.31c-.94.28-2.05.37-2.7-.42.05,1.41-2.38,1.65-5.4,2.91-.17.07-1.03,2.89-2.49.83l-4.57,3.33c-1.47-1.37-3.03.23-5.2,1.66-.5-.21-.8-.6-1.46-.42-2.65.73-26.09,14.43-29.93,18.71-1.4.79-3.18.97-4.57,1.66-2.84,1.41-2.62,6.47-4.99-9.15-4.31-.55-9.83.92-13.72.83-.24,0-1.78-1.05-4.57-1.25-.49-.03-9.8,2.05-6.03-2.08,5.14-2.19,10.66-3.58,15.59-6.24,5.7.64,15.6-3.32,22.24-4.99,4.7-1.18,9.8-1.76,14.55-2.91,1.23-.3,2.54-.96,3.74-1.25,3.7-.88,7.5-1.65,11.22-2.49,1.38-.31,2.78-.52,4.16-.83,1.66-.37,3.31-.87,4.99-1.25,4.58-1.01,9.13-2.36,13.72-3.33l-1.66,2.29c6.77.49-2.45,2.41-2.91,4.37Z"/>
          </g>
          <path class="cls-45" d="m193.36,160.63c9.63,1.68,1.43,4.61,6.44,2.08.63.54,1.52.63,2.29.83,5.05,1.32,13.08,8.18,13.3,9.77.33,2.27-5.23-1.57-.62,2.7.48.15,1.12-.58,1.46-.83,1.61,1.43,2.28,3.62,3.33,5.4-24.19,6.11-52.08,4.09-69.01,25.36-.12-.63-1.57.14-2.08.62-2.01,1.93-16.77,19.33-18.71,22.03-5.4,7.53-11.74,19.5-15.38,28.06-2.76-.66,1.63-4.34,1.25-6.86-.12-.77-4.26-7.15-7.69-6.03-1.27-4.18-3.74-3.38-2.7-9.77.1-.62,2.64-4.89,2.49-6.65.35-.64,1.2-.62,1.66-1.04.06-.05.3.66,1.46-.42,7.18-6.66,13.85-14.13,21.41-20.37,2.15-1.78,4.14-3.79,6.44-5.4,1.2-.85,2.95-1.14,3.12-1.25l-.21.83c4.17-2.31,8.41-4.84,12.26-7.69-.78-.66-1.32.21-1.66.21-3.23-.03-5.15,1.14-8.31,2.08.46-1.95,9.68-3.87,2.91-4.37l1.66-2.29c6.07-1.28,12.19-2.66,18.29-3.74,1.4-.25,2.77-.6,4.16-.83,2.64-.44,5.25-.86,7.9-1.25,2.41-.35,4.65-.57,7.07-.83.41-.04.84.04,1.25,0,2.79-.27,5.52-.49,8.31-.62.19-3.8-4.49-18.12-2.08-19.75Z"/>
          <g>
            <path class="cls-62" d="m195.44,300.32c.28-.07.47.12.42.42-.55.34-1.77.92-1.66,1.66-.26.12-1.24.22-5.4,2.08-1.15-1.45-3.94,1.31-4.78,1.66-2.73,1.15-20.86,8.2-22.03,8.31-.13.01-.69-.84-.83-.83-11.68.39-13.29-5.38-22.03-3.74-4.45-1.59-13.85-6.93-14.76-5.4-1.68-.79-3.33-1.66-4.99-2.49l1.66-.42c.46.2.72.48,1.04.83l1.04-.62c.24-1.19-.47-1.68-.42-1.87.15-.55,1.12-2.21,1.25-2.91,5.36,2.51,33.16,13.17,36.38,12.89,11.21-4.75,22.74-8.76,33.47-14.55.73,4.47.68,5.25,1.66,4.99Z"/>
            <path class="cls-62" d="m188.79,304.48c-10.33,4.62-20.85,8.77-31.39,12.89-1.74.14-24.74-8.91-28.06-10.39-1.64-.73-3.34-1.72-4.99-2.49.91-1.52,10.31,3.82,14.76,5.4,8.74-1.64,10.36,4.13,22.03,3.74.14,0,.7.84.83.83,1.17-.12,19.3-7.17,22.03-8.31.84-.35,3.63-3.11,4.78-1.66Z"/>
            <path class="cls-2" d="m219.55,180.59c.25.42.28.56.42.83,1.46,3.37-7.8,4.19-14.13,6.24-2.19.71-4.05,1.26-6.24,2.08-5.01,1.87-9.95,3.36-14.13,7.07-19.4,17.17,1.18,60.11,5.82,81.28,1.18,5.4,1.63,10.97,2.49,16.42.04.27-.04.57,0,.83-10.73,5.79-22.25,9.8-33.47,14.55-3.21.28-31.01-10.38-36.38-12.89.05-.26-.04-.57,0-.83,1.63-9.66,2-19.65,3.74-29.31,3.31-18.31,11.2-46.26,22.87-60.9,16.93-21.27,44.82-19.25,69.01-25.36Z"/>
          </g>
          <path class="cls-7" d="m122.69,299.9c-.05.19.66.68.42,1.87l-1.04.62c-.32-.36-.58-.63-1.04-.83-1.89-.83-2.75-2.39-2.91-2.49l4.57.83Z"/>
          <g>
            <path class="cls-42" d="m211.65,284.94c.1.66-.06,1.4,0,2.08-.07.05-.26.51-1.25,1.25-2.86,2.15-5.77,4.24-8.73,6.24-1.72,1.16-8.15,3.36-6.24,5.82-.99.27-.93-.52-1.66-4.99-.04-.26.04-.57,0-.83,6.1-2.37,12.11-8.07,17.88-9.56Z"/>
            <path class="cls-57" d="m208.74,273.3c.71,2.11,2.61,9.58,2.91,11.64-5.77,1.49-11.78,7.19-17.88,9.56-.86-5.45-1.31-11.02-2.49-16.42-4.64-21.17-25.23-64.1-5.82-81.28.87,1.86-1.73,3.51-2.49,5.61-8.67,23.95,18.54,49.38,25.78,70.88Z"/>
          </g>
          <path class="cls-18" d="m243.66,255c-2.16,3.1-4.25,6.68-6.65,9.56-1.71,2.05-4.7,4.71-6.65,6.65,1.51-3.8,4.26-9.02,4.99-13.1.62-3.49,0-8.1.83-11.64,1.49-1.4,5.96,7.7,7.48,8.52Z"/>
          <path class="cls-57" d="m132.25,205.53c-7.56,6.24-14.23,13.71-21.41,20.37-1.16,1.07-1.4.36-1.46.42,4.74-9.34,14.15-15.38,22.87-20.79Z"/>
          <path class="cls-38" d="m141.81,198.88c3.43-2.25,6.49-5.11,10.39-6.65.34,0,.88-.87,1.66-.21-3.86,2.86-8.09,5.38-12.26,7.69l.21-.83Z"/>
          <g>
            <path class="cls-43" d="m258.63,208.03c1.86.81,3.74,1.48,5.82,1.25-.33,1.49-.49,3.1-.83,4.57-4.28,1.41-2.81,7.23-3.74,10.6-3.09,11.12-9.66,21.18-16.21,30.56-1.53-.82-5.99-9.92-7.48-8.52-.83,3.54-.21,8.15-.83,11.64-.73,4.08-3.48,9.3-4.99,13.1-5.81,5.79-12.21,10.82-18.71,15.8-.06-.68.1-1.42,0-2.08-.3-2.06-2.2-9.53-2.91-11.64,18.65-22.56,8.26-38.6,0-61.74-.38-1.06.51-2.23.42-2.49-.52-1.44-3.94-6.03-4.57-8.73,2.18,1.06,4.98,7.84,5.82,8.73.28.3,3.89,1.55,6.65,4.57,6.77,7.41,7.38,20.94,20.58,19.33,5.04-.61,17.33-12.71,19.33-17.67.6-1.49,1.36-5.4,1.66-7.28Z"/>
            <path class="cls-38" d="m207.5,191.4c3.83,4.59,8.88,7.79,14.13,10.39,1.5.74,2.2,1.04,3.74,1.66,1.39.56,2.73,1.19,4.16,1.66,2.26.75,8.36,2.53,10.39,2.91,2.71.51,3.85.61,6.65.42,4.1-.29,3.56-.87,7.48-2.08-.56,2.47-1.06,9.63-8.52,10.81-10.67,1.69-17.62-7.21-25.36-12.47-3.17-2.15-17.55-7.97-15.59-12.47,1.62-1.3,2.57-.63,2.91-.83Z"/>
          </g>
          <path class="cls-43" d="m222.46,188.49c.16,4.39-.42,8.93-.83,13.3-5.26-2.6-10.3-5.8-14.13-10.39.75-.44.2-1.43.83-2.08,5.72,2.53,6.27.99,7.69,1.25.28.05,4.73,2.62,5.4,2.08.79-.64-.69-4.41,1.04-4.16Z"/>
          <path class="cls-45" d="m222.46,188.49c-1.73-.26-.25,3.52-1.04,4.16-.67.54-5.12-2.03-5.4-2.08-1.43-.26-1.97,1.29-7.69-1.25-1.11-.49-2.15-.09-2.49-1.66,6.34-2.04,15.59-2.87,14.13-6.24,1.51,2.94,2.23-.02,2.49,7.07Z"/>
          <path class="cls-45" d="m205.83,187.65c.34,1.57,1.39,1.17,2.49,1.66-.63.65-.08,1.64-.83,2.08-.34.2-1.29-.47-2.91.83-1.92,1.54-1.21,3.82-2.29,3.74q-1.35-3.12-2.7-6.24c2.18-.82,4.05-1.37,6.24-2.08Z"/>
          <g>
            <path class="cls-45" d="m199.6,189.73q1.35,3.12,2.7,6.24c1.08.07.37-2.21,2.29-3.74-1.96,4.51,12.42,10.32,15.59,12.47,7.74,5.26,14.69,14.16,25.36,12.47,7.46-1.18,7.97-8.34,8.52-10.81.13-.57.4-.39.42-.42.03-.04.65-.37.83-.42.94.61,2.54,2.15,3.33,2.49-.3,1.87-1.06,5.79-1.66,7.28-2,4.95-14.29,17.05-19.33,17.67-13.2,1.61-13.81-11.92-20.58-19.33-2.76-3.02-6.37-4.27-6.65-4.57-.84-.89-3.64-7.67-5.82-8.73.64,2.7,4.06,7.29,4.57,8.73.09.26-.79,1.43-.42,2.49,8.26,23.14,18.65,39.18,0,61.74-7.23-21.5-34.44-46.93-25.78-70.88.76-2.1,3.36-3.76,2.49-5.61,4.19-3.7,9.13-5.19,14.13-7.07Z"/>
            <path class="cls-57" d="m196.48,206.78c.67-.15,4.22,1.28,4.37,1.46.62.73,5.36,15.7,6.44,18.08-6.22.74-7.71-12.56-10.81-19.54Z"/>
            <path class="cls-38" d="m198.14,192.23c2.6-.72.72,4.19-3.74,7.48-1.93-1.37,3.31-7.36,3.74-7.48Z"/>
          </g>
        </g>
        <path class="cls-43" d="m241.17,195.97c.32.33,5.04,7.21,5.4,7.48-.08.46-.61.59-.42,1.25-2.1.75-5.38,1.08-6.24,3.33-2.04-.38-8.14-2.16-10.39-2.91.45-6.51-.54-13.05-.42-19.54.7.2.99-.44,1.04-.42.67.39,9.62,9.35,11.02,10.81Z"/>
        <path class="cls-43" d="m239.51,171.44c-.98-.64-.32-.08-1.66.42l-1.66-3.33c1.48-1.74,3.03-3.32,4.57-4.99,2.19-.06-.36,6.59-1.25,7.9Z"/>
        <path class="cls-6" d="m239.51,171.44c-1.73,2.53-6.31,3.83-9.15,4.99.27-.74.44-1.37.83-2.08.03-.05.79-.76.83-.83,1.82.06,4.09-1.03,5.82-1.66,1.34-.49.69-1.05,1.66-.42Z"/>
        <path class="cls-45" d="m249.9,195.14c-3.21-1.58-.39-4.12,1.25-5.82.43,2.32-1.15,1.47-1.25,1.87-.87,3.67.11,3.6,0,3.95Z"/>
        <path class="cls-45" d="m255.31,191.81c-2.68,3.38-2.82.09-1.04-.42.56-.16.73.53,1.04.42Z"/>
        <g>
          <path class="cls-58" d="m80.7,166.04c-.39.82-.91,1.71-1.25,2.49l-11.85.42c-.72.23-4.05,5.55-5.2,6.65-1.74,1.67-15.73,12.87-16.84,12.89-2.04-.97-2.7-3.19-3.53-4.99-1.06-2.27-2.11-4.48-2.08-7.07,2.23,1.56,1.76,3,3.74,4.37l-1.66-10.6c12.55-1.62,9.51-3.06,10.81-3.74,2.09-1.11,8.06,1.04,10.6,1.66,4.94-1.63,11.8-.93,17.25-2.08Z"/>
          <path class="cls-67" d="m65.73,181c-2.99,1.74-5.87,3.67-8.73,5.61,2.93,1.37,6.12,2.07,9.15,3.12.16.06.39,1.51,2.91.83-.36.84-.94,1.64-.83,2.49l-14.76-.42c-.59.21-3.47,4.87-3.95,5.82-1.11.77-5.08-2.42-5.82-3.33-2.52-3.07-.88-2.34-1.25-3.95-.08-.34-.76-.07-.83-.42-.08-.39-.48-8.12.42-7.28.84,1.8,1.5,4.02,3.53,4.99,1.11-.02,15.1-11.22,16.84-12.89-.22,3.45.77,3.94,3.33,5.4Z"/>
          <path class="cls-32" d="m49.52,198.46c-.08.16.08.66,0,.83-.42.92-1.88,1.32-.83,2.49-1.22,1.9-3.75,6.39-4.16,8.31-.17-4.95-1.81-10.08-.83-14.97.74.9,4.71,4.09,5.82,3.33Z"/>
          <path class="cls-32" d="m42.04,170.19l1.66,10.6c-1.98-1.37-1.51-2.81-3.74-4.37-.05-.03-.18-.76-.83-.83.2-1.71-.03-3.44-.83-4.99,1.23-.08,2.52-.26,3.74-.42Z"/>
          <path class="cls-59" d="m80.28,156.89c-1.98.02-15.78,2.55-18.5,3.33-2.25.64-18,6.86-8.94,5.4v.83c-1.3.69,1.74,2.12-10.81,3.74-1.22.16-2.51.33-3.74.42-1.04.07-2.16.14-2.08-.42.11-.21,1.37-3.75,1.66-4.57.29-.81.82-.77.83-.83.24-.83.27-1.28.42-2.08,2.01.37,7.24-5.66,9.15-6.24.04-.01.16.64.83,0q6.13-.42,12.26-.83c6.06-7.09,13.32-8.49,6.03-13.3,1.33-1.7,2.66.45,3.12.42.72-.06,4.9-7.23,5.61-8.31,2.68-4.11,3.53-6.33,3.74-6.65.51-.77.33-1.02.83-1.25.73,10.1.75,20.31-.42,30.35Z"/>
          <g>
            <path class="cls-31" d="m68.23,193.06q3.85,5.2,7.69,10.39c2.72-11.53,13.6-15.13,20.16-3.74-6.64,1.67-16.54,5.62-22.24,4.99-4.93,2.65-10.45,4.04-15.59,6.24-3.95,1.69-7.96,3.59-11.64,5.82-.84.51-1.19.38-1.25.42-1.74-2.11-1.36-4.56-.83-7.07.4-1.92,2.94-6.41,4.16-8.31.92-1.44,3.67-3.02.83-2.49.08-.18-.08-.67,0-.83.48-.95,3.36-5.61,3.95-5.82l14.76.42Z"/>
            <path class="cls-33" d="m63.03,196.39c5.29-1.09-2.03,6.22-3.12,7.28-.95.92.72,2.99-5.82,1.25-.38-.51,8.33-8.4,8.94-8.52Z"/>
            <path class="cls-33" d="m48.69,201.79c-1.05-1.17.41-1.57.83-2.49,2.83-.53.09,1.05-.83,2.49Z"/>
          </g>
          <path class="cls-65" d="m79.45,168.53c-1.06,2.44-1.04,5.35-2.91,7.48-1.52.8-4.55,1.39-5.82,2.08-1.71.93-3.32,1.93-4.99,2.91-2.56-1.47-3.54-1.96-3.33-5.4,1.15-1.1,4.48-6.42,5.2-6.65l11.85-.42Z"/>
          <path class="cls-61" d="m73.22,160.63c2.47,1.98,5.7,2.37,8.73,2.91-.41.79-.87,1.7-1.25,2.49-5.45,1.15-12.31.45-17.25,2.08-2.54-.63-8.51-2.77-10.6-1.66v-.83c3.05-.49,14.64-4.35,19.33-5.4.58-.13.69.49,1.04.42Z"/>
          <path class="cls-32" d="m68.64,183.5c-.86,2.05-2.14,3.99-2.49,6.24-3.03-1.05-6.22-1.75-9.15-3.12,2.86-1.94,5.74-3.87,8.73-5.61,1.67-.98,3.28-1.98,4.99-2.91-.8,1.73-1.35,3.67-2.08,5.4Z"/>
          <path class="cls-58" d="m69.06,190.57c-2.52.68-2.75-.78-2.91-.83.36-2.25,1.63-4.19,2.49-6.24,2.32.22,1.98-.39,2.08-.42,5.47-.88-.02,3.61-1.66,7.48Z"/>
          <path class="cls-60" d="m131,107.42c.17.17,2.67,1.05,2.49,3.74-16.32-1.35-.56,1.56,5.2,2.49,1.85,1.77,10.37,10.47,11.22,10.81.33.13.67-.03.62-.42,1.1.93,2.15,1.85,3.12,2.91,5.48-.98,8.56-.66,12.26,3.33.16.36.03,1.59.62,2.08,2.75-.4,4.67,3.28,6.24,3.74,2.87.86,11.52-.64,1.46,1.46l4.99,6.24c-.18,1.87-2.35-.95-2.49-1.04-1.21-2.32-3.72-2.78-6.03-2.49-6.26-6.85-7.45-11.8-14.13-10.81-.36.15-.17.82-.21.83-2.58-4.27-4.83-.58-8.52-2.91-.99.04-5.99,7.61-7.28,9.15-.42,0-.47.53-1.04.42-1-.2-15.07-9.96-16.84-11.64-1.27-1.21-3.85-3.85-2.49-4.16,2.56.69,5.41,1.23,7.9,2.08,2.57.88,16.31,7.39,15.59,4.99-2.72-1.84-6.1-3.15-8.52-5.4-1.01-.94-8.37-10.77-14.97-17.04,3.53-1.09,7.07,2.21,10.81,1.66Z"/>
          <path class="cls-59" d="m116.45,100.77c1.22,1.17.71-1.64,1.66-1.66-.28,2.3-.99,2.04,0,3.74.05.09-.03.5,0,.83-1.91-1.72-4.04-3.35-6.03-4.99-1.36,2.54-5.86,9.75-6.44,11.22-2.07-1.25-7.96,3.3-10.81,4.99-7.46-12.53-5.5-12.44-5.82-13.1-.14-.28-2.4-.99-2.49-1.25-.2-.54,3.16-3.31-3.74-9.77.09-.45-.06-.99,0-1.46,7.68,8.32,4.57,9.67,4.99,10.81,3.67,1.25,5.07,4.56,7.69,7.28,10.56-13.43,5.02-12.64,5.2-14.34.02-.17.94-.87,2.08-2.7l10.39,1.04c.25-.4-4.96-7.21-5.82-6.44.06-.05-.21-1.17,1.04-1.25.26,1.93,7.66,8.35,7.69,8.94.02.32-3.48,4.4-3.33,5.4.04.29,4.56,4.72,3.74,2.7Z"/>
          <path class="cls-33" d="m164.26,81.64c5.26,6-3.1,2.08-7.07.42-.06-.03-.42-.96-.62-1.25-12.48.02-15.12,5.43-16.01-9.77-.11-.39-1.23-.14-1.25-.21-.51-1.89-.69-10.58-3.12-10.39-.65.05-8.21,6.02-.21,9.35-1.86.03-2.99-1.24-4.99-.62-.59-9.07.34-6.25,6.65-12.26-.05-11.35.22-4.95,3.74.83,4.89,8.02,9.56,8.2,4.57,14.13,9.77,8.04,11.92,5.11,13.1,5.61.5.22.87,3.05,2.08,3.74.29.17,2.59.25,3.12.42Z"/>
          <path class="cls-30" d="m139.32,70.83c.02.07,1.14-.18,1.25.21.89,15.2,3.52,9.79,16.01,9.77.2.28.56,1.22.62,1.25-6.05,3-12.68,4.17-19.33,4.99-1.11,2.17-4.66,6.46-5.2,7.48.55-1.61-3.83-1.02-4.99-.83,1.57,0-.74-3.42-1.66-4.57-.24-3.38,7.27-1.12,11.64-6.03-2.15-3.27-4.81-7.12-9.15-6.03-.95-1.07-4.46-2.05-4.57-2.7-.17-1.04,2.37-1.77,2.49-1.87-1.98,2.71,7.86-1.3,12.89-1.66Z"/>
          <path class="cls-61" d="m69.89,135.69c-1.56,2.04-4.12,5.01-3.33,7.48-4.63,2.99-13.77,9.52-17.46,13.3-.67.64-.79-.01-.83,0-.71-2.1-4.75-3.17-6.65-4.16,8.41-10.36,8.82-7.52,9.35-7.9,4.23-3.03,8.32-6.28,12.68-9.15.16.14,1.24-.86,3.12,2.08,1.67-1.19,2.4-2.43,3.12-1.66Z"/>
          <path class="cls-64" d="m153.87,86.22c-1.61.19-3.29.57-4.78,1.25-2.21,2.2-4.7,4.09-7.28,5.82-7,4.72-12.84,9.83-9.98,2.49.03-.07.2-.05.83-1.25.54-1.02,4.09-5.31,5.2-7.48,6.65-.82,13.28-1.99,19.33-4.99,3.97,1.67,12.32,5.59,7.07-.42,1.26.39,2.69.42,2.91,1.04,1.74,5-10.19,3.16-13.3,3.53Z"/>
          <path class="cls-64" d="m153.04,116.15c1.59,7.93,10.83,2.56,21.2,9.98-3.12.44-6.25.68-9.35,1.25,1.95,2.53.98,2.77,1.04,2.91-3.7-3.99-6.78-4.3-12.26-3.33-.97-1.06-2.02-1.98-3.12-2.91-1.53-1.3-3.8-4.36-5.4-5.82,3.15-.68,6.51-2.39,6.86-2.49.05-.02.35.63,1.04.42Z"/>
          <path class="cls-33" d="m126.01,89.13c-.44-.55-1.07-2.24-1.87-2.49-.8-.25-10.45.82-9.35-2.29.26-.73,12.97-7.09,13.72-7.28,4.34-1.09,7,2.76,9.15,6.03-4.37,4.91-11.88,2.65-11.64,6.03Z"/>
          <path class="cls-60" d="m155.53,108.67v.42c-4.57,2.64-11.01,2.19-14.97,4.99-1.13-.9-2.12-1.87-3.12-2.91h-3.95c.17-2.69-2.33-3.57-2.49-3.74-1.08-1.11-2.15-2.31-3.33-3.33.58-2.24,4.44-.85,4.78,1.25,6.69.74,13.71,1.02,20.37,2.08,1.2.19,2.01,1.13,2.7,1.25Z"/>
          <path class="cls-29" d="m157.19,138.18c5.11,5.13,4.89,2.5,6.24,2.49.44,0,3.2.48,3.74.83-2.92.26-5.82.69-8.73,1.04,4.76,10.98,2.06,6.63.21,7.28-.2.07-1.26,1.65-1.87,2.08-2.35,1.65-4.2,3.88-6.65,5.4-.14-.28-.28-.57-.42-.83,2.66-5.66,4.09-11.84,6.24-17.67.14-.38.78-.75,1.25-.62Z"/>
          <path class="cls-60" d="m176.73,142.76c-4.64-2.81-3.94-1.75-9.56-1.25-.54-.35-3.3-.83-3.74-.83l-6.03-8.31c-1.16-.38-1.12.88-1.25.83-6.49-2.6-2.16-2.37.21-2.91.04,0-.15-.68.21-.83,6.69-.99,7.87,3.96,14.13,10.81,2.31-.28,4.82.18,6.03,2.49Z"/>
          <path class="cls-63" d="m158.44,114.49c-1.68-.78-3.7,1.13-5.4,1.66-.69.22-.99-.43-1.04-.42-.35.11-3.71,1.82-6.86,2.49-1.16-1.06-3.75-3.51-4.57-4.16,3.96-2.8,10.39-2.35,14.97-4.99,1.39,1.48,2.73,5.16,2.91,5.4Z"/>
          <path class="cls-60" d="m158.44,114.49c.59.81,1.35,1.59,1.87,2.49,6.27,1.32,10.93,5.77,16.63,8.31v.83c-.87.08-1.84-.12-2.7,0-10.37-7.41-19.61-2.05-21.2-9.98,1.7-.53,3.72-2.45,5.4-1.66Z"/>
          <path class="cls-60" d="m153.87,86.22c-.47.68.12,1.79.42,2.49,1.43,2.21-.22,6.59-2.7,7.48-3.72,1.34-5.96-3.16-9.77-2.91,2.57-1.73,5.07-3.62,7.28-5.82,1.49-.68,3.17-1.06,4.78-1.25Z"/>
          <path class="cls-29" d="m139.32,70.83c-5.03.37-14.86,4.38-12.89,1.66.99-.79,3.6-3.03,4.57-3.33,2-.62,3.13.66,4.99.62-8-3.33-.44-9.3.21-9.35,2.43-.19,2.61,8.5,3.12,10.39Z"/>
          <path class="cls-59" d="m102.73,90.37c1.06-1.7,3.05-4.06,4.57-5.4.86-.76,6.07,6.05,5.82,6.44l-10.39-1.04Z"/>
          <path class="cls-29" d="m132.66,94.53c-.63,1.2-.8,1.18-.83,1.25-4.42-.1-12.55,3.06-12.89.42,2.71-.54,6.19-2.09,8.73-2.49,1.16-.19,5.54-.78,4.99.83Z"/>
          <path class="cls-59" d="m92.75,134.03c.73,1.1,1.54.69,1.25,2.29-2.22,1.18-4.31,2.63-4.99,5.2-1.33-.25-2.81-.36-4.16-.62,1.12,3.44.33,11.85.42,12.47.37,2.68,1.81-4.05,2.49-3.12-.71,2.72-1.02,4.61-2.08,7.48-.09.24-1.32.95-2.49,4.57-.95-.15-.78.35-.83.42-1.91-.55.2-3.02-4.99-3.33,2.39-.47,6.42.47,6.86-2.08-2.71.3-3.75-.42-3.95-.42,1.17-10.04,1.14-20.25.42-30.35,4.22-1.97,9.93,4.26,12.06,7.48Z"/>
          <path class="cls-59" d="m92.75,134.03c-2.12-3.23-7.83-9.45-12.06-7.48-.5.23-.32.48-.83,1.25.36-2.2-1.68-1.14-3.74-3.12-.24-.24-.75-2.2-.83-2.29l11.43-2.91c6.52,8.31,12.47,9.16,6.03,14.55Z"/>
          <path class="cls-58" d="m49.1,156.48c3.69-3.78,12.83-10.32,17.46-13.3.33-.21.82-.32.83-.83,7.29,4.82.03,6.21-6.03,13.3q-6.13.42-12.26.83Z"/>
          <path class="cls-61" d="m75.29,122.39c.08.09.59,2.05.83,2.29,2.06,1.98,4.1.92,3.74,3.12-.21.32-1.06,2.55-3.74,6.65-.18-1.2-1.5-2.33-2.49-2.91-5.39-3.12-8.43.48-9.15-1.87,2.57-2.02,7.44-11.01,10.81-7.28Z"/>
          <path class="cls-26" d="m77.37,159.39c-3.02.6-3.87,1.18-4.16,1.25-.35.08-.46-.55-1.04-.42-4.69,1.06-16.29,4.92-19.33,5.4-9.07,1.45,6.69-4.76,8.94-5.4,2.72-.77,16.52-3.31,18.5-3.33.2,0,1.24.71,3.95.42-.44,2.55-4.47,1.61-6.86,2.08Z"/>
          <path class="cls-61" d="m76.13,134.44c-.71,1.09-4.89,8.26-5.61,8.31-.46.04-1.78-2.11-3.12-.42-.01.51-.51.62-.83.83-.8-2.48,1.76-5.44,3.33-7.48.92-1.2,2.76-2.79,3.74-4.16.99.58,2.32,1.71,2.49,2.91Z"/>
          <path class="cls-59" d="m128.51,160.63c.73.85,4.72,4.78,4.57,5.2-1.69,1.24-8.94,3.19-9.56,3.95-.36.44-1.32,5.24-1.66,6.24-.07.19-1.49.34-1.25,1.04,1.28.53,2.5,1.26,3.74,1.87-.06,1.82-4.41.13-5.82-.42-2.48-.95-4.35-2.96-6.65-4.16-4.54-2.36-10.7-5.08-11.22-5.4-1.79-1.11-1.03-.81-2.08-2.08,2.71-1.55,11.13-.88,15.38-.42-3.06,7.32,4.08,2.57,9.77.42l.62-.62c-.36-.64-1.39-.73-1.66-1.04-1.38-1.54-2.84-2.98-4.16-4.57.08-.04-.18-1.19.21-1.25,1.77-.27,2.49,1.99,6.86-1.66.66.79,1.96,1.79,2.91,2.91Z"/>
          <g>
            <path class="cls-11" d="m89.43,147.74c1.58,3.88,3.56,7.87,5.4,11.64,1.35,2.75,1.63,4.94,3.74,7.48,1.05,1.27.29.96,2.08,2.08-1.24,6.52,2.56,3.42,2.91,5.61-7.68,10.41-.31,3.06,1.04,7.69.77.14.39-.47,1.04-.83.37,3.61,2.75,7.43,2.91,7.9.8,2.3,1.05,5.18,2.08,7.48-4.76,1.15-9.85,1.73-14.55,2.91-6.56-11.39-17.44-7.79-20.16,3.74q-3.85-5.2-7.69-10.39c-.11-.86.48-1.66.83-2.49,1.64-3.87,7.14-8.37,1.66-7.48.91-.22,1.67-.69,2.7-.42.91-2.37,5.2-4.77,3.12-6.65,1.87-2.14,1.85-5.04,2.91-7.48.34-.78.86-1.67,1.25-2.49.37-.8.84-1.71,1.25-2.49.12-.23.28-.63.42-.83.05-.07-.12-.56.83-.42-2.17,6.67,1.46,3.5,5.61,5.4,3.65,1.67,6.21,5.56,7.69,3.95,3.47-3.76-2.42-8.79-2.91-12.89l-7.9-1.04c1.06-2.87,1.37-4.76,2.08-7.48.38-1.45-.12-2.35,1.66-2.49Z"/>
            <path class="cls-11" d="m83.19,162.3c1.18-3.62,2.4-4.33,2.49-4.57l7.9,1.04c.49,4.1,6.38,9.13,2.91,12.89-1.48,1.61-4.04-2.28-7.69-3.95-4.16-1.9-7.78,1.27-5.61-5.4Z"/>
          </g>
          <path class="cls-60" d="m128.51,190.57c.36.4,1.48.67,1.25,1.66-1.38.31-2.78.52-4.16.83-5.83,1.3-10.22-11.68-11.64-6.44-.57,2.11,2.3,7.01.42,8.94-1.2.29-2.51.95-3.74,1.25-1.03-2.31-1.28-5.18-2.08-7.48,2.7-3.55,6.76-6.19,9.56-9.56,3.51,3.84,10.82,15.69,10.39,10.81Z"/>
          <path class="cls-59" d="m110.63,159.39c2.39,1.12,3.73,1.37,6.24.42.46.68-.47,1.01.42,1.25-.76.83-1.1,1.96-1.66,2.91-.38.64-1.49,2.08-1.66,2.49-4.25-.46-12.67-1.14-15.38.42-2.11-2.54-2.39-4.73-3.74-7.48,4.96.43,11.48,1.56,15.8,0Z"/>
          <path class="cls-58" d="m118.53,178.51c.08.44-.16.94-.42,1.25-2.81,3.37-6.86,6.01-9.56,9.56-.16-.47-2.54-4.29-2.91-7.9,2.01-1.12,4.34-5.21,6.24-7.07,2.3,1.19,4.17,3.21,6.65,4.16Z"/>
          <path class="cls-61" d="m108.14,157.72c.67.7,1.63,1.26,2.49,1.66-4.32,1.56-10.84.43-15.8,0-1.85-3.77-3.83-7.76-5.4-11.64-.22-.53-.39-1.14,0-1.66.36.51,7.96,8.86,8.52,9.15.68.34,7.53,1.39,10.19,2.49Z"/>
          <path class="cls-67" d="m111.88,174.35c-1.9,1.86-4.23,5.95-6.24,7.07-.65.36-.27.97-1.04.83-1.35-4.63-8.72,2.72-1.04-7.69-.35-2.19-4.15.9-2.91-5.61.53.33,6.69,3.05,11.22,5.4Z"/>
          <path class="cls-32" d="m89.01,141.51s-.34.16.83.42c-2.22,2.65-1.52,2.57-.42,4.16-.39.52-.22,1.13,0,1.66-1.78.15-1.28,1.05-1.66,2.49-.68-.94-2.12,5.8-2.49,3.12-.09-.62.7-9.03-.42-12.47,1.35.26,2.83.37,4.16.62Z"/>
          <path class="cls-67" d="m70.72,183.08c-.1.03.24.64-2.08.42.73-1.73,1.28-3.67,2.08-5.4,1.27-.69,4.3-1.27,5.82-2.08,2.08,1.88-2.2,4.28-3.12,6.65-1.03-.27-1.8.19-2.7.42Z"/>
          <path class="cls-26" d="m82.36,162.71c-.14.2-.29.6-.42.83-3.04-.54-6.26-.93-8.73-2.91.29-.06,1.14-.65,4.16-1.25,5.19.3,3.08,2.77,4.99,3.33Z"/>
          <path class="cls-58" d="m149.71,156.48c.14.26.28.56.42.83,1.57,3.11,3.46,6.07,4.99,9.15.38.76,1.64,1.7,1.66,1.87.03.2-1.33,3.52-1.25,3.74.77,2.08,5.58-3.24,11.22,11.85-6.1,1.08-12.23,2.46-18.29,3.74-4.59.97-9.14,2.31-13.72,3.33,0-.29-.13-.65.21-.83.52-.28,6.91-.74-2.7-7.48-3.45-2.42-6.63-3.12-7.9-3.74-1.24-.61-2.46-1.34-3.74-1.87-.24-.7,1.18-.85,1.25-1.04,2.69.69,6.94-5.96,1.66-6.24.62-.76,7.87-2.71,9.56-3.95.15-.42-3.84-4.34-4.57-5.2,1.5-.46.6-3.74.83-6.44,11.47-7.56,15.63-7.73-1.25-6.86v-.42c1.27-.2,4.22-2.65,5.2-2.91,1.58-.43,6.44-.43,9.77-1.66,1.6,4.97,4.25,9.53,6.65,14.13Z"/>
          <path class="cls-58" d="m132.25,182.67c9.61,6.74,3.23,7.2,2.7,7.48-.34.18-.21.54-.21.83-1.68.37-3.32.87-4.99,1.25.23-.99-.89-1.26-1.25-1.66-.77-.87-6.63-8.44-6.24-8.94l9.98,1.04Z"/>
          <path class="cls-33" d="m125.6,193.06c-3.72.85-7.53,1.61-11.22,2.49,1.89-1.93-.99-6.83-.42-8.94,1.42-5.23,5.82,7.74,11.64,6.44Z"/>
          <path class="cls-61" d="m105.64,109.91c-.37.92-1.75,5.55-1.66,6.03q4.16,7.48,8.31,14.97c-.15,1-2.55,1-3.74,1.46-.43.16-.83.27-1.25.42-.8-1.32-2.03-2.51-2.91-3.74-3.08-4.3-6.39-8.8-9.15-13.3-.15-.24-.27-.59-.42-.83,2.85-1.69,8.74-6.24,10.81-4.99Z"/>
          <path class="cls-58" d="m98.99,144.42c.25.06.58-.06.83,0-1.88,3.97,6.69,8.91,8.31,13.3-2.66-1.11-9.51-2.15-10.19-2.49-.56-.28-8.16-8.63-8.52-9.15-1.11-1.58-1.8-1.5.42-4.16,3.06.66,6.08,1.79,9.15,2.49Z"/>
          <path class="cls-59" d="m104.4,129.04c-1.86-.76-3.87-.21-4.37-.42-.68-.28-9.66-10.7-9.15-11.22.16-.17,3.78-1.19,4.37-1.66,2.75,4.51,6.06,9,9.15,13.3Z"/>
          <g>
            <path class="cls-59" d="m94.83,114.9c.14.24.27.59.42.83-.59.47-4.2,1.5-4.37,1.66-.51.52,8.47,10.95,9.15,11.22.5.2,2.51-.34,4.37.42.88,1.23,2.11,2.42,2.91,3.74-2.89,1-5.86,1.66-8.73,2.7l.42,8.94c-3.06-.71-6.08-1.83-9.15-2.49-1.17-.25-.79-.41-.83-.42.68-2.56,2.77-4.01,4.99-5.2.29-1.6-.52-1.18-1.25-2.29,6.44-5.39.49-6.24-6.03-14.55l-11.43,2.91c-3.37-3.74-8.23,5.26-10.81,7.28.71,2.35,3.76-1.25,9.15,1.87-.98,1.37-2.82,2.95-3.74,4.16-.72-.76-1.45.48-3.12,1.66-1.88-2.94-2.96-1.94-3.12-2.08-.39-.34-4.49-6.93-6.24-8.11,8.93,1.74,11.35-7.13,17.04-12.06l-9.98-7.48c10.33-10,5.45-.08,7.69.21,3.19-3,6.53-9.1,10.19-10.19-.04-2.29-.05-4.61.42-6.86,6.91,6.46,3.55,9.23,3.74,9.77.09.26,2.35.96,2.49,1.25.32.65-1.64.56,5.82,13.1Z"/>
            <path class="cls-61" d="m87.97,109.91c1.4.18-1.24,5.58-2.08,8.31l-11.85-4.78,13.93-3.53Z"/>
          </g>
          <path class="cls-59" d="m118.11,103.68c.34.31,1.3,1.34,2.08,2.08,6.6,6.28,13.96,16.11,14.97,17.04-1.92,2.13-5.57-1.95-7.07.42-2.49-.85-5.34-1.39-7.9-2.08-1.25-.34-2.2-2.02-3.74-1.04,2.25,12.01,9.76,12.8,6.24,5.2,1.77,1.69,15.83,11.44,16.84,11.64.57.11.62-.41,1.04-.42.79-.02.81-.28,1.25-.42.54,1.11,1.19.03,1.25,0,.11-.05.31.06.42,0-.4,3.25,1.42,5.78,1.25,6.03-.33.47-1.24.05-1.66.21-3.33,1.24-8.19,1.23-9.77,1.66-.97.26-3.93,2.71-5.2,2.91-1.76.27-5.85-4.46-8.11-5.82-2.37-1.43-8.34-3.93-11.22-4.57-2-1.52,2.01-2.84-.21-4.16,1.19-.46,3.59-.45,3.74-1.46q-4.16-7.48-8.31-14.97c-.09-.48,1.29-5.1,1.66-6.03.59-1.47,5.09-8.68,6.44-11.22,1.98,1.64,4.12,3.27,6.03,4.99Z"/>
          <path class="cls-33" d="m156.36,130.28c-2.37.54-6.7.31-.21,2.91.13.05.09-1.21,1.25-.83l6.03,8.31c-1.34,0-1.12,2.64-6.24-2.49-3.5-3.52-3.48-8.37-9.98-3.95,4.98,8.22-1.41.68-1.87.62-.15-.02-1.6,1.11-1.87,1.25-.11.06-.3-.05-.42,0,.08-.52-.93-.1-1.25,0-.44.14-.46.4-1.25.42,1.28-1.54,6.28-9.1,7.28-9.15,3.69,2.33,5.94-1.36,8.52,2.91Z"/>
          <path class="cls-30" d="m127.68,104.09c1.18,1.01,2.24,2.21,3.33,3.33-3.74.54-7.28-2.76-10.81-1.66-.78-.74-1.73-1.77-2.08-2.08-.03-.33.05-.74,0-.83.37-.49.3-.83.42-1.25.34.04.49.29.83.42.25.09,2.43-.88,2.91-1.25.94-.72-1.89-2.97,5.4,3.33Z"/>
          <path class="cls-30" d="m120.19,121.14c-1.35.3,1.22,2.95,2.49,4.16,3.52,7.6-3.98,6.81-6.24-5.2,1.54-.98,2.49.7,3.74,1.04Z"/>
          <path class="cls-29" d="m133.5,111.16h3.95c.99,1.04,1.98,2.01,3.12,2.91.82.65,3.41,3.1,4.57,4.16,1.6,1.46,3.87,4.52,5.4,5.82.05.39-.3.55-.62.42-.86-.34-9.38-9.04-11.22-10.81-5.76-.93-21.51-3.84-5.2-2.49Z"/>
          <path class="cls-30" d="m135.16,122.8c2.42,2.25,5.8,3.56,8.52,5.4.72,2.4-13.02-4.11-15.59-4.99,1.5-2.37,5.15,1.71,7.07-.42Z"/>
          <path class="cls-41" d="m118.53,101.6c-.11.42-.04.76-.42,1.25-.99-1.7-.28-1.45,0-3.74,1.58-.04.67,1.56.42,2.49Z"/>
          <g>
            <path class="cls-30" d="m155.53,108.67c-.69-.12-1.5-1.06-2.7-1.25-6.66-1.06-13.69-1.34-20.37-2.08-.34-2.09-4.2-3.49-4.78-1.25-7.29-6.29-4.47-4.05-5.4-3.33-1.94-.58-3.04-1.77-2.91,1.25-.34-.13-.5-.37-.83-.42.26-.94,1.17-2.54-.42-2.49-.95.03-.44,2.83-1.66,1.66,1.49-3.34-6.48-.12,2.49-4.57.34,2.65,8.47-.51,12.89-.42-2.86,7.34,2.98,2.22,9.98-2.49,3.81-.25,6.05,4.25,9.77,2.91,2.48-.89,4.13-5.27,2.7-7.48,1.27,3.05,2.69,7.34,2.91,7.69.98,1.59,5.8,3.43,7.69,6.86,4.27-.12,5.59,4.43,8.52,6.86-9.71,1.49-11.5-.35-17.88-1.46Z"/>
            <path class="cls-33" d="m160.73,100.35c4.24,4.51,7.52,3.11,10.6,8.94-8.29,2.11-7.32-2.34-11.22-8.31l.62-.62Z"/>
            <path class="cls-41" d="m122.27,100.77c-.48.37-2.66,1.34-2.91,1.25-.13-3.02.97-1.83,2.91-1.25Z"/>
          </g>
          <path class="cls-30" d="m157.19,138.18c-.47-.12-1.11.24-1.25.62-2.14,5.83-3.57,12.01-6.24,17.67-2.4-4.6-5.05-9.17-6.65-14.13.43-.16,1.33.26,1.66-.21.18-.25-1.65-2.78-1.25-6.03.27-.14,1.72-1.27,1.87-1.25.46.06,6.85,7.59,1.87-.62,6.5-4.42,6.47.43,9.98,3.95Z"/>
          <path class="cls-66" d="m117.7,148.16c2.98,3.06,5.19,6.34,7.9,9.56-4.37,3.65-5.09,1.39-6.86,1.66-.39.06-.13,1.2-.21,1.25-.38.2-.04-.9-1.25.42-.88-.24.05-.57-.42-1.25-2.52-3.7-7.26-10.04-9.15-13.72-5.01-9.79,5.32-2.17,13.51,0-.91,3.12-2.55-1.08-5.4,0,.76,2.76,1.75,1.96,1.87,2.08Z"/>
          <path class="cls-67" d="m128.51,160.63c-.95-1.12-2.25-2.12-2.91-2.91-2.71-3.23-4.92-6.5-7.9-9.56l8.11.42c.88-.99.95-1.18,2.29-1.25,16.88-.87,12.72-.7,1.25,6.86-.23,2.7.67,5.99-.83,6.44Z"/>
          <path class="cls-33" d="m124.35,178.92c1.27.62,4.45,1.32,7.9,3.74l-9.98-1.04c-.39.5,5.46,8.07,6.24,8.94.43,4.88-6.88-6.97-10.39-10.81.26-.31.49-.81.42-1.25,1.41.54,5.76,2.23,5.82.42Z"/>
          <path class="cls-61" d="m122.69,165.21c.27.31,1.3.4,1.66,1.04l-.62.62c-5.69,2.15-12.83,6.91-9.77-.42.17-.42,1.28-1.85,1.66-2.49,1.08.94,5.42,1.58,7.07,1.25Z"/>
          <path class="cls-32" d="m118.53,160.63c1.31,1.59,2.78,3.03,4.16,4.57-1.65.34-5.99-.31-7.07-1.25.56-.95.9-2.08,1.66-2.91,1.21-1.32.87-.21,1.25-.42Z"/>
          <path class="cls-61" d="m121.86,176.01c.34-1,1.3-5.79,1.66-6.24,5.28.28,1.02,6.93-1.66,6.24Z"/>
          <path class="cls-66" d="m107.72,146.08c1.88,3.68,6.62,10.01,9.15,13.72-2.51.95-3.84.71-6.24-.42-.86-.4-1.82-.96-2.49-1.66-1.63-4.39-10.19-9.33-8.31-13.3,2.62.6,5.26,1.15,7.9,1.66Z"/>
          <g>
            <path class="cls-59" d="m128.09,146.91v.42c-1.33.07-1.4.26-2.29,1.25l-8.11-.42c-.12-.12-1.11.68-1.87-2.08,2.86-1.08,4.49,3.12,5.4,0-8.19-2.17-18.52-9.79-13.51,0-2.64-.51-5.28-1.07-7.9-1.66-.25-.06-.58.06-.83,0l-.42-8.94c2.87-1.04,5.84-1.7,8.73-2.7.42-.14.82-.25,1.25-.42,2.21,1.32-1.79,2.64.21,4.16,2.88.64,8.85,3.14,11.22,4.57,2.25,1.36,6.35,6.09,8.11,5.82Z"/>
            <path class="cls-4" d="m106.68,135.69c2.03.31-4.15,5.79-4.99,6.65-.7-.39,1.94-7.12,4.99-6.65Z"/>
          </g>
          <path class="cls-52" d="m143.06,136.1c-.06.03-.7,1.11-1.25,0,.31-.1,1.33-.52,1.25,0Z"/>
        </g>
        <path class="cls-18" d="m246.16,204.7c.06.2,1.07.12.42,3.74-2.8.2-3.94.09-6.65-.42.85-2.24,4.14-2.58,6.24-3.33Z"/>
        <path class="cls-45" d="m237.84,171.86c-1.73.64-4,1.72-5.82,1.66,1.17-1.86,2.76-3.33,4.16-4.99l1.66,3.33Z"/>
      </g>
    </g>
  </g>
</svg>