<?xml version="1.0" encoding="UTF-8"?>
<svg id="Layer_2" data-name="Layer 2" xmlns="http://www.w3.org/2000/svg" xmlns:xlink="http://www.w3.org/1999/xlink" viewBox="0 0 144.81 180.45">
  <defs>
    <style>
      .cls-1 {
        fill: url(#linear-gradient);
      }

      .cls-1, .cls-2, .cls-3, .cls-4, .cls-5, .cls-6, .cls-7, .cls-8, .cls-9, .cls-10, .cls-11, .cls-12, .cls-13, .cls-14, .cls-15, .cls-16, .cls-17, .cls-18, .cls-19, .cls-20, .cls-21, .cls-22, .cls-23, .cls-24, .cls-25, .cls-26, .cls-27, .cls-28, .cls-29, .cls-30, .cls-31, .cls-32, .cls-33, .cls-34, .cls-35, .cls-36, .cls-37, .cls-38, .cls-39, .cls-40, .cls-41, .cls-42, .cls-43, .cls-44, .cls-45, .cls-46, .cls-47, .cls-48, .cls-49, .cls-50, .cls-51, .cls-52, .cls-53, .cls-54, .cls-55, .cls-56, .cls-57 {
        stroke-width: 0px;
      }

      .cls-2 {
        fill: url(#linear-gradient-4);
      }

      .cls-3 {
        fill: url(#linear-gradient-2);
      }

      .cls-4 {
        fill: url(#linear-gradient-3);
      }

      .cls-5 {
        fill: #f9f9fb;
      }

      .cls-6 {
        fill: #534422;
      }

      .cls-7 {
        fill: #473519;
      }

      .cls-8 {
        fill: #4f3b35;
      }

      .cls-9 {
        fill: #51ad8a;
      }

      .cls-10 {
        fill: #7c7172;
      }

      .cls-11 {
        fill: #4e2a12;
      }

      .cls-12 {
        fill: #7b6434;
      }

      .cls-13 {
        fill: #5c3e20;
      }

      .cls-14 {
        fill: #477939;
      }

      .cls-15 {
        fill: #29411c;
      }

      .cls-16 {
        fill: #653516;
      }

      .cls-17 {
        fill: #292421;
      }

      .cls-18 {
        fill: #5a3723;
      }

      .cls-19 {
        fill: #5a7032;
      }

      .cls-20 {
        fill: #635a5a;
      }

      .cls-21 {
        fill: #554b4b;
      }

      .cls-22 {
        fill: #70522e;
      }

      .cls-23 {
        fill: #888c8e;
      }

      .cls-24 {
        fill: #9b6b43;
      }

      .cls-25 {
        fill: #6d472f;
      }

      .cls-26 {
        fill: #719745;
      }

      .cls-27 {
        fill: #948f97;
      }

      .cls-28 {
        fill: #3a3434;
      }

      .cls-29 {
        fill: #3d2f24;
      }

      .cls-30 {
        fill: #3e3e18;
      }

      .cls-31 {
        fill: #06aab1;
      }

      .cls-32 {
        fill: #191f11;
      }

      .cls-33 {
        fill: #3c9163;
      }

      .cls-34 {
        fill: #371f10;
      }

      .cls-35 {
        fill: #068b9e;
      }

      .cls-36 {
        fill: #057683;
      }

      .cls-37 {
        fill: #0a0f0b;
      }

      .cls-38 {
        fill: #1e1b12;
      }

      .cls-39 {
        fill: #151110;
      }

      .cls-40 {
        fill: #c4baba;
      }

      .cls-41 {
        fill: #dfe2e9;
      }

      .cls-42 {
        fill: #c68575;
      }

      .cls-43 {
        fill: #aeabb9;
      }

      .cls-44 {
        fill: #a79da1;
      }

      .cls-45 {
        fill: #a77e69;
      }

      .cls-46 {
        fill: #a56b59;
      }

      .cls-47 {
        fill: #8a7f81;
      }

      .cls-48 {
        fill: #b8bbc0;
      }

      .cls-49 {
        fill: #91786d;
      }

      .cls-50 {
        fill: #7db67e;
      }

      .cls-51 {
        fill: #806556;
      }

      .cls-52 {
        fill: #925c42;
      }

      .cls-53 {
        fill: #665b66;
      }

      .cls-54 {
        fill: #80c29d;
      }

      .cls-55 {
        fill: #655726;
      }

      .cls-56 {
        fill: #674d3f;
      }

      .cls-57 {
        fill: #00938d;
      }
    </style>
    <linearGradient id="linear-gradient" x1="7.72" y1="169.25" x2="15.52" y2="174.38" gradientUnits="userSpaceOnUse">
      <stop offset="0" stop-color="#8f8488"/>
      <stop offset="1" stop-color="#a9a3a5"/>
    </linearGradient>
    <linearGradient id="linear-gradient-2" x1="75.93" y1="142.39" x2="78.53" y2="151.09" gradientUnits="userSpaceOnUse">
      <stop offset="0" stop-color="#515052"/>
      <stop offset="1" stop-color="#1f1f1a"/>
    </linearGradient>
    <linearGradient id="linear-gradient-3" x1="45.72" y1="66.99" x2="52.87" y2="77.19" gradientUnits="userSpaceOnUse">
      <stop offset="0" stop-color="#f4f4f6"/>
      <stop offset="1" stop-color="#acacae"/>
    </linearGradient>
    <linearGradient id="linear-gradient-4" x1="75.99" y1="29.8" x2="79.38" y2="44.46" gradientUnits="userSpaceOnUse">
      <stop offset="0" stop-color="#a89887"/>
      <stop offset="1" stop-color="#7f543b"/>
    </linearGradient>
  </defs>
  <g id="Layer_1-2" data-name="Layer 1">
    <g>
      <g>
        <path class="cls-17" d="m31.42,157.01c.28,2.64-5.9,5.3-7.26,8.04l-.26.26q-8.69,2.46-17.38,4.93c-3.69-3.67,2.53-8.89,4.93-11.93-.13.24,1.12.03,1.17,0,.48-.28,6.06-5.54,8.69-7,.96.58.13,1.08.91,1.82.48.46,7.95,2.46,9.21,3.89Z"/>
        <path class="cls-8" d="m21.05,151.04c-.03.32.22.23.26.26-2.63,1.47-8.21,6.72-8.69,7-.05.03-1.3.24-1.17,0,.69-.88,4.54-5.11,4.67-5.45-.76,1.36,1.79-.28,4.41-1.82.09-.05.44.05.52,0Z"/>
      </g>
      <path class="cls-41" d="m33.76,157.01c-.13.4.23.5.26.78.24,2.16-.23,2.03-.78,2.59-.51.53-4.9,2.49-5.97,3.63-1.06.28-2.15.45-3.11,1.04,1.36-2.74,7.55-5.4,7.26-8.04.52-.73,2.22.01,2.33,0Z"/>
      <path class="cls-28" d="m85.9,151.04l-2.21,4.41c-3.57.05-7.78-.04-11.28.52.98-1.29,1.09-.49,1.17-.52,2.21-.87,4.36-2.09,6.62-2.85,1.84-.63,3.82-1.11,5.71-1.56Z"/>
      <g>
        <path class="cls-23" d="m23.64,148.97c.06.1-.04.57,0,.91,2.29.85,4.95,1.86,6.23-1.17.17.09.33.22.52.26,3.03,5.04,3.11,4.52,7.26,6.49-.55.27-3.68,1.53-3.89,1.56-.12.01-1.82-.73-2.33,0-1.26-1.44-8.73-3.43-9.21-3.89-.78-.74.05-1.24-.91-1.82-.04-.03-.29.06-.26-.26.07-.05.36.24.78-.65.3-2.22-.91-4.8,0-5.58.43,1.34,1.11,2.93,1.82,4.15Z"/>
        <path class="cls-21" d="m21.31,143c.16.6.33,1.22.52,1.82-.91.78.3,3.35,0,5.58-.42.89-.71.6-.78.65-.07.05-.43-.05-.52,0l-.78-5.19c.82-.46,1.06-1.84,1.04-2.72.12-.24.49-.09.52-.13Z"/>
        <path class="cls-21" d="m21.31,143s-.39-.11-.52.13c.02.89-.22,2.26-1.04,2.72-4.05-.63-1.38-.25.78-6.49.31,1.21.46,2.41.78,3.63Z"/>
        <path class="cls-17" d="m38.43,155.71c.34.15,1.22.96,1.43,1.04.76.3,3.11.59,4.28,1.04,2.52.97-1.15.13-1.17,1.56l3.5.52c-.26.02-.52-.02-.78,0-.46.04-1.8.45-2.33.52-.36-1.25-.58-.28-1.69-.52-2.54-.54-5.13-1.4-7.65-2.08-.03-.28-.38-.38-.26-.78.21-.02,3.34-1.29,3.89-1.56.04.02.29.04.78.26Z"/>
        <path class="cls-43" d="m29.87,148.71c-1.27,3.02-3.94,2.02-6.23,1.17-.04-.34.06-.81,0-.91,1.18.13.98-.25,1.04-.26,1.55-.22,4.16-.57,5.19,0Z"/>
      </g>
      <g>
        <path class="cls-21" d="m133.12,166.61c2.21,4.29,8.05,1.3,7.52,5.97-2.08-.06-6.08.3-8.3.52-.14-1.16,2.43.11,1.95-1.04-2.66-.11-5.3.39-7.91.78-2.52-1.23-5.56.42-5.84.26-.24-.69-.42-1.38-.65-2.08-1.66-5.12.82-3.5,1.82-4.93,3.48.51,8.1,1.1,11.41.52Z"/>
        <path class="cls-20" d="m112.88,178.28c-.88,1.99-4.07,1.44-4.28,1.3-.37-.26.11-2.41-.26-2.59-2.54,3.62-2.87,2.68-6.1,2.85-4.67.24-8.05.48-7-1.82.06-.03-.13-.64.13-.78l1.3-.52c3.23-.65,6.56-1.16,9.73-2.08,4.61,2.01,7.64,1.02,6.49,3.63Z"/>
        <path class="cls-47" d="m126.37,172.83c-8.19,1.22-5.03.55-5.19,2.08-.14,1.27-.71,3.01-.78,4.41-1,.01-.74-.26-.78-.26-.48-.74-1.12-4.76-1.95-4.93-.14-.03-2.63.8-2.72.91-.22.27-.41,3.13-.78,4.02-.51-.16-.66-.87-1.3-.78,1.15-2.61-1.87-1.62-6.49-3.63.1-.03.79-.93,1.69-1.3l11.8-2.33c.22.69.41,1.39.65,2.08.27.16,3.32-1.49,5.84-.26Z"/>
        <path class="cls-20" d="m119.63,179.06c-1.88,0-3.5.63-5.45,0,.37-.89.56-3.75.78-4.02.09-.11,2.58-.94,2.72-.91.83.17,1.47,4.19,1.95,4.93Z"/>
        <g>
          <path class="cls-28" d="m144.27,176.99c-.05.24.03.53,0,.78-4.61.04-12.97,1.07-19.2,1.3l-1.56-4.41c2.92-.53,5.87-1.27,8.82-1.56,2.22-.22,6.22-.58,8.3-.52,1.32.04,2.8.4,4.15.39.08,1.38-.24,2.69-.52,4.02Z"/>
          <path class="cls-21" d="m123.52,174.65l1.56,4.41c-1.55.06-3.14.24-4.67.26.07-1.4.64-3.14.78-4.41.77-.01,1.58-.12,2.33-.26Z"/>
        </g>
        <path class="cls-28" d="m101.47,153.12c6.18.2,3.81,3.71,8.17,3.63.6-.01,10.13-1.63,10.64-1.82.15-.06,1.32-1.23,2.72-1.82-1.59,4-9.52,5.67-13.62,7-.12,1.13-.26,2.25-.39,3.37-.04.34.04.7,0,1.04-.45-2.44-6.44.97-10.9-.91-.12-.5.2-.64.26-.91.32.18.39.23.78.26,2.57.22,2.29-.25,2.85-.78.75-.7,1.08-2.23,1.56-3.11,1.97-3.65.85-.24,3.11-.91l-4.02-3.5c-3.03,4.83-4.7,4.71-1.69-.65-3.57-.81-1.62-4.03.52-.91Z"/>
        <path class="cls-21" d="m128.19,151.82c-.67,1.52-3.68,3.1-4.15,4.02-.26.51-.12,1.56-.26,1.95l-14.79,5.71c.13-1.12.27-2.25.39-3.37,4.1-1.34,12.03-3,13.62-7,1.75-.73,3.16-1.14,5.19-1.3Z"/>
        <path class="cls-10" d="m122.48,163.5c-.05.27-.7,2.48-.78,2.59-1,1.42-3.48-.19-1.82,4.93l-11.8,2.33c-.9.37-1.58,1.27-1.69,1.3-3.17.91-6.49,1.43-9.73,2.08l-1.3.52c-.26.14-.07.75-.13.78-.66.36-1.43.68-2.08,1.04-1.07-.2.45-3.81-1.17-4.41-.58-.21-11.3,3.27-11.8,3.63-2.4-3.52-3.91-3.91-7.52-1.82-.41-1.1-.61-2.26-1.04-3.37,1.46-.85,3.58-.85,5.19-1.3,7.73-2.13,11.38-5.82,13.75-7,2.7-1.35,2.55-.51.52,1.56-4.48,4.57-13.73,7.76-11.28,9.34,3.88-1.47,7.95-2.28,11.93-3.37.26-.07,0-.71.26-.78.13.09.47.53.52.52,3.58-.93,6.34-2.72,2.21,1.69,4.29-1.29,8.72-3.52,13.1-5.06,2.4-.84,13.04-3.77,13.75-4.15.63-.34.11-1.21.91-1.04Z"/>
        <path class="cls-21" d="m93.17,179.06c-.48.27-1.42,1.19-1.95,1.3-.81.16-9.66.06-11.8,0-.32-.37.69-2.01.78-2.08.5-.36,11.22-3.85,11.8-3.63,1.62.6.09,4.21,1.17,4.41Z"/>
        <path class="cls-43" d="m80.2,178.28c-.09.06-1.1,1.71-.78,2.08-1.48-.04-3.31.14-4.67,0-1.26-1.2-1.51-2.38-2.08-3.89,3.61-2.1,5.12-1.7,7.52,1.82Z"/>
        <path class="cls-20" d="m123.78,157.79c-1.68,4.56-2.06,3.29-2.08,3.5-.06.98,1.32-.88.78,2.21-.8-.17-.28.7-.91,1.04-.71.38-11.35,3.31-13.75,4.15-4.38,1.54-8.81,3.77-13.1,5.06,4.13-4.41,1.37-2.62-2.21-1.69-.05.01-.39-.43-.52-.52-.26.07,0,.71-.26.78-3.98,1.1-8.06,1.91-11.93,3.37-2.45-1.58,6.8-4.77,11.28-9.34-.13.32.48,1,.65,1.04.81.17,14.38-1.26,16.34-1.82.24-.07-.04-.99.78,0,.25-.2.08-.64.13-1.04.04-.34-.04-.7,0-1.04l14.79-5.71Z"/>
        <g>
          <path class="cls-28" d="m130.27,151.56c2.1.26,4.08,2.72,4.15,2.98,1.04,3.73-3.97,6.88-1.3,12.06-3.32.58-7.94-.01-11.41-.52.08-.11.73-2.33.78-2.59.54-3.09-.84-1.22-.78-2.21.01-.22.4,1.06,2.08-3.5.14-.39,0-1.43.26-1.95.47-.92,3.48-2.5,4.15-4.02.1,0,.65-.44,2.08-.26Z"/>
          <path class="cls-17" d="m126.76,154.42c.72-.34,7.08,2.39,7.13,3.24-5.64.95-9.34-2.19-7.13-3.24Z"/>
        </g>
        <path class="cls-10" d="m132.34,173.09c-2.95.29-5.9,1.03-8.82,1.56-.75.14-1.57.25-2.33.26.16-1.53-3-.86,5.19-2.08,2.61-.39,5.25-.89,7.91-.78.48,1.15-2.09-.12-1.95,1.04Z"/>
        <path class="cls-21" d="m98.36,162.72c-.06.27-.38.41-.26.91,4.46,1.87,10.45-1.53,10.9.91-.05.4.12.83-.13,1.04-.82-.99-.54-.07-.78,0-1.96.56-15.54,1.99-16.34,1.82-.16-.03-.78-.72-.65-1.04,2.03-2.07,2.18-2.91-.52-1.56-.22-1.21-1.21-.5-1.3-.52-7.3-1.59-14.03,2.8-21.53,2.33-.69-.71-1.4-1.31-2.08-2.08,1.1-1.02,1.43-.34,2.46-.52,2.38-.42,4.88-1.29,7.26-1.56,3.25-.36,16.52-.59,18.03-1.04-.02.28.06.44-.26.65.73.84,6.89-4.89,7-2.85.01.2-1.52,2.23-1.82,3.5Z"/>
        <path class="cls-28" d="m93.69,157.79c.65,2.03-.19,2.8-.26,3.63-1.51.45-14.78.68-18.03,1.04-2.39.26-4.89,1.14-7.26,1.56-1.03.18-1.36-.5-2.46.52-1.9-2.15-2.05-2.44-3.63-4.67-.18-.25-.34-.53-.52-.78.34-.02.7.03,1.04,0,3.5-.28,7.13-.61,10.64-.78.86.85,11.48.72,12.06.52.23-.08.11-.56.13-.78.29,0,.54.52.65.52.2,0,.06-.51.26-.52,2.47-.08,4.93.03,7.39-.26Z"/>
        <path class="cls-17" d="m93.43,161.42c.07-.83.91-1.6.26-3.63,2.43-.79,1.28-7.41,4.93-4.8-1.25,3.06-2.98,5.95-5.19,8.43Z"/>
        <path class="cls-17" d="m103.54,159.08c-.47.88-.81,2.41-1.56,3.11l-1.56-1.04c.81-.8,2.08-2.76,3.11-2.08Z"/>
        <path class="cls-17" d="m101.99,162.2c-.57.53-.29,1-2.85.78-.71-.89.73-1.26,1.3-1.82l1.56,1.04Z"/>
        <g>
          <path class="cls-39" d="m100.95,151.56l.52,1.56c-2.14-3.12-4.09.1-.52.91-3.01,5.36-1.35,5.48,1.69.65l4.02,3.5c-2.26.67-1.15-2.74-3.11.91-1.04-.68-2.3,1.27-3.11,2.08-.56.56-2,.92-1.3,1.82-.39-.03-.46-.08-.78-.26.3-1.27,1.83-3.31,1.82-3.5-.11-2.04-6.27,3.69-7,2.85.32-.21.24-.37.26-.65,2.21-2.48,3.93-5.37,5.19-8.43-3.65-2.61-2.5,4.01-4.93,4.8-2.46.29-4.93.18-7.39.26-.2,0-.06.51-.26.52-.11,0-.36-.53-.65-.52-4.05.14-8.14.07-12.19.26-3.5.17-7.13.5-10.64.78-.06-.19,2.54-1.17,2.98-1.3,1.15-.33,6.35-1.73,6.87-1.82,3.51-.56,7.72-.47,11.28-.52l2.21-4.41c2.99-.7,5.93-1.61,9.08-1.3l2.21-.52c.44-.49.91-.89,1.43-1.3l-2.21,2.59c-10.13.35,1.75,1.39,4.54,1.04Z"/>
          <path class="cls-17" d="m85.38,158.05c-.02.22.1.7-.13.78-.58.2-11.2.33-12.06-.52,4.06-.19,8.14-.12,12.19-.26Z"/>
          <path class="cls-17" d="m90.44,153.9c.43-.1,1,.61,1.3.78.26.15.5-.28.52-.26,2.06,1.51-4.27.05-1.82-.52Z"/>
        </g>
        <path class="cls-10" d="m62.3,169.46c.26-.02.23.43.78,0,1.36.21-.56-3.96,1.3-3.11,1.34,1.32.2,2,4.67,2.33.39.03-.03-.59.91-.52,2.32.18,4.65.77,7,.78,2.32-1.5,8-4.36,10.51-3.89-2.75,1.15-4.81,3.32-7.13,4.67-1.99,1.16-3.91,1.1-3.5,2.08-1.61.44-3.73.45-5.19,1.3-2.05-5.37-1.9-2.85-2.46-2.85-.23,0-1.46-2.43-3.89-1.56-.36.13-.42.79-.65,1.04-.66.71-2.49,3.77-3.11,4.93l-.52-.26c-1.97-3.41-3.16-2.27-3.37-2.33-.64-.21-1.23-.5-1.3-.52-1.2-1.79-3.06-3.03-3.63-5.19.36-.1,1.27-1.41,1.56-1.82-.73,1.34,5.21,4.8,5.58,4.93,1.23.45,1.53.08,2.46,0Z"/>
        <g>
          <path class="cls-28" d="m61,174.39c-.31,1.23-1.44,1.72.26,1.3l2.08,4.67c-2.76-.31-2.83-1.67-2.98-1.56-.36.26.26,1.23-.65,1.56-1.95-.44-.31-1.1-.52-2.46-.05-.33-.73-1.38-.78-1.69-.22-1.29-.22-2.68-.78-3.89v-.26c.21.07,1.41-1.07,3.37,2.33Z"/>
          <path class="cls-28" d="m59.7,180.36c-.85.31-2.96-.27-3.11-.26-.45-.73-.44-1.61-.52-1.82,1.1,1.58.1.13,2.33-2.08.05.3.73,1.36.78,1.69.21,1.36-1.43,2.03.52,2.46Z"/>
          <path class="cls-21" d="m58.4,176.21c-2.23,2.21-1.24,3.65-2.33,2.08-.2-.56-1.36-2.58-1.3-2.98.08-.54,2.8-2.09,2.85-2.98.56,1.21.56,2.6.78,3.89Z"/>
        </g>
        <path class="cls-21" d="m43.36,160.38c-2.77.37-6.06,1.17-8.82,1.82l-1.3-1.82c.55-.57,1.02-.43.78-2.59,2.52.68,5.11,1.54,7.65,2.08,1.1.23,1.32-.73,1.69.52Z"/>
        <g>
          <path class="cls-1" d="m23.9,165.31l.52.13c-4.31,4.29-8.91,7.97-7.26,14.66-5.66-.25-11.33-.74-16.99-1.04-.47-1.59.14-3.04.91-4.41,1.36-2.41,3.48-2.77,5.45-4.41q8.69-2.46,17.38-4.93Z"/>
          <path class="cls-44" d="m56.33,171.54c.07.02.65.31,1.3.52v.26c-.06.89-2.78,2.44-2.85,2.98-.06.4,1.1,2.43,1.3,2.98.07.21.06,1.09.52,1.82-2.54.12-4.98.23-7.52.26l1.95-4.15q-3.18,2.08-6.36,4.15c-4.4.03-8.83.06-13.23,0,2.91-3.54,6.63-5.58,6.87-5.97.92-1.45-4.36-.62-5.97.26-1.18.64-3.46,3.9-3.76,5.45-2.83-.06-5.72.1-8.56,0-.52-.99.4-2.22,1.04-3.24,5.58-9.04,16.1-10.46,25.81-8.69.28,1.78,7.08,2.65,9.47,3.37Z"/>
          <path class="cls-47" d="m53.22,160.12c.87.07,1.37-.27,1.82-.13-1.92,2.63-6.28,7.48-2.33,6.36.58,2.16,2.44,3.4,3.63,5.19-2.39-.72-9.19-1.59-9.47-3.37-9.71-1.77-20.23-.34-25.81,8.69-.63,1.03-1.56,2.25-1.04,3.24-.95-.03-1.91.04-2.85,0-1.65-6.69,2.95-10.37,7.26-14.66l-.52-.13.26-.26c.96-.59,2.05-.76,3.11-1.04,2.41-.63,4.84-1.25,7.26-1.82,2.76-.64,6.05-1.45,8.82-1.82.53-.07,1.87-.48,2.33-.52.18,1.51,2.97,3.32,4.28,4.93l3.24-4.67Z"/>
          <path class="cls-44" d="m31.42,180.36c-.96-.01-1.97-.24-2.85-.26.3-1.54,2.58-4.8,3.76-5.45,1.61-.88,6.89-1.71,5.97-.26-.24.39-3.96,2.42-6.87,5.97Z"/>
          <path class="cls-20" d="m49.07,180.36c-1.47.02-2.94-.01-4.41,0q3.18-2.08,6.36-4.15l-1.95,4.15Z"/>
          <path class="cls-21" d="m46.47,159.86c2.27-.16,4.49.07,6.75.26l-3.24,4.67c-1.31-1.61-4.1-3.42-4.28-4.93.26-.02.52.02.78,0Z"/>
          <path class="cls-28" d="m34.54,162.2c-2.42.56-4.86,1.18-7.26,1.82,1.07-1.14,5.45-3.11,5.97-3.63l1.3,1.82Z"/>
        </g>
        <path class="cls-21" d="m90.57,164.79c-2.37,1.18-6.02,4.88-13.75,7-.41-.97,1.51-.92,3.5-2.08,2.32-1.35,4.38-3.52,7.13-4.67.56-.23,1.42-.2,1.82-.78.08.02,1.07-.69,1.3.52Z"/>
        <path class="cls-20" d="m89.28,164.27c-.39.58-1.26.55-1.82.78-2.51-.46-8.18,2.39-10.51,3.89-2.35,0-4.69-.6-7-.78-.93-.07-.52.55-.91.52.1-.61-.26-.49-.26-.52-.03-.21.28-.36.26-.39-.23-.33-.76-.62-1.3-1.17,7.51.46,14.23-3.92,21.53-2.33Z"/>
        <g>
          <path class="cls-27" d="m69.3,180.36c-1.29.09-4.85.13-5.97,0l-2.08-4.67c.47-.12,2.32-.9,2.72-.78.2.06,1.37,2.46,2.08,2.85.45.25,4.07-.82,3.24,2.59Z"/>
          <path class="cls-39" d="m51.66,157.27c2.51,6.18,6.03-2.93,9.08,1.43.39.56.19,1.58.52,2.21,1.82,3.51,3.62,6.47,7.52,7.26,0,.03.36-.09.26.52-4.47-.34-3.33-1.02-4.67-2.33-1.02-1-.12-1.74-5.45-2.21,1.05,2.54,5.32,2.51,4.15,5.32-.55.43-.52-.02-.78,0-1.44-1.75-8.4-4.48-6.49-7.13,1.4-1.93,3.51-.12,3.63-.52-5.06-4.92-2.8-.72-5.19,2.72-.29.41-1.2,1.71-1.56,1.82-3.95,1.12.41-3.73,2.33-6.36-.45-.14-.94.2-1.82.13-2.26-.19-4.48-.42-6.75-.26l-3.5-.52c.01-1.42,3.69-.59,1.17-1.56-.11-1.29,4.32-.19,7.52-.52Z"/>
          <path class="cls-39" d="m66.71,172.06c-.63-1.44-3.34-2.37-.78.78,1.3,1.6,1.7.74,1.69,1.56-.85-.12-2.36-.48-2.85.52l-3.24-.26c.62-1.16,2.45-4.22,3.11-4.93.5,0,2.36-.5,2.59-.39.13.06,1.56,2.19,1.56,2.33,0,.11-1.43-.11-2.08.39Z"/>
          <path class="cls-10" d="m66.71,172.06c.59,1.35.42,2.01-.78.78-2.56-3.14.14-2.22.78-.78Z"/>
          <g>
            <path class="cls-17" d="m71.64,173.09c.42,1.11.63,2.27,1.04,3.37.56,1.52.82,2.69,2.08,3.89-3.03-.31-2.77-1.72-2.98-1.56-.96.74,1.72,1.27-2.46,1.56.83-3.41-2.79-2.34-3.24-2.59-.71-.4-1.87-2.79-2.08-2.85-.41-.12-2.25.66-2.72.78-1.7.42-.57-.07-.26-1.3l.52.26,3.24.26c.49-1,2-.64,2.85-.52,0-.82-.38.04-1.69-1.56,1.2,1.23,1.37.57.78-.78.64-.5,2.07-.28,2.08-.39,0-.14-1.43-2.27-1.56-2.33-.24-.11-2.09.4-2.59.39.23-.25.29-.91.65-1.04,2.44-.87,3.67,1.56,3.89,1.56.56,0,.42-2.52,2.46,2.85Z"/>
            <path class="cls-47" d="m65.54,174.65l.13.13v.26l-.13.13h-.26l-.13-.13.13-.13.13-.13.13-.13Z"/>
          </g>
          <path class="cls-53" d="m53.48,154.93c-.55.92-1.76,1.63-1.82,1.82-1.85-1.15-3.89-2.17-5.71-3.37-1.89-1.25-3.72-3.02-5.84-3.89-.56-.8,3.77.38,4.15.52.97.36,6.94,3.8,9.21,4.93Z"/>
          <path class="cls-53" d="m57.37,156.49c4.31.24,3.92,2.26,4.15,2.59.18.25.34.53.52.78l-.78,1.04c-.33-.63-.13-1.64-.52-2.21-3.05-4.36-6.57,4.75-9.08-1.43.02-.17-.04-.39,0-.52.05-.18,1.27-.89,1.82-1.82.95.47,1.73-.03,2.46,1.82.36.13.68-.3,1.43-.26Z"/>
          <path class="cls-20" d="m62.04,159.86c1.58,2.23,1.73,2.52,3.63,4.67.68.76,1.38,1.36,2.08,2.08.53.55,1.07.83,1.3,1.17.02.02-.29.17-.26.39-3.9-.79-5.7-3.75-7.52-7.26l.78-1.04Z"/>
          <path class="cls-21" d="m62.3,169.46c-.94.08-1.23.45-2.46,0-.36-.13-6.31-3.59-5.58-4.93,2.39-3.44.13-7.65,5.19-2.72-.12.4-2.23-1.41-3.63.52-1.92,2.65,5.05,5.38,6.49,7.13Z"/>
          <path class="cls-20" d="m64.37,166.35c-1.86-.85.07,3.32-1.3,3.11,1.17-2.81-3.1-2.78-4.15-5.32,5.33.46,4.43,1.2,5.45,2.21Z"/>
        </g>
      </g>
      <g>
        <path class="cls-6" d="m26.76,123.8c-.64-.4-2.09,2.82-2.33,3.5-.41,1.12-1.77,7.08-1.82,8.04-.05,1.06.95,12.23,2.08,13.1v.26c-.05,0,.15.39-1.04.26-.71-1.22-1.39-2.81-1.82-4.15-.19-.59-.36-1.21-.52-1.82,1.04-1.33.02.12,1.04-.65-.45-2.06-.46-6.26-1.3-4.54.75-2.59.88-5.3,1.56-7.91,1.74-4.48,3.55-8.94,5.45-13.36.47-1.1.8-2.28,1.3-3.37.12-.27.23-.46.26-.52.36-.35.77-.08.78.13.01.58-3.15,9.34-3.63,11.03Z"/>
        <path class="cls-7" d="m21.31,143c-.32-1.22-.47-2.42-.78-3.63.17-.48.38-1.08.52-1.56.84-1.72.85,2.48,1.3,4.54-1.02.77,0-.68-1.04.65Z"/>
        <path class="cls-30" d="m107.44,135.48c-1.59,2.77-2.98,5.75-4.93,8.3-1.11,1.45-2.44,3.02-3.89,4.15-.52.4-.99.81-1.43,1.3l-2.21.52c-.02-.22.1-.7-.13-.78-2.25-.78-10.98-.41-12.06-2.59,1.64-1.78,3.47-4.47,5.06-5.97,3.25-3.06,7.72-5.13,7.91-5.58.1-.23.03-2.61-.13-2.72-.32-.24-1.83,1.58-4.15,0-2.47,1.55-5.09,2.81-7.52,4.41-3.01,1.98-6.95,6.26-10.64,7-5.74,7.6-9.55,5.73-10.38,5.97-.44.13-6.06,6.02-5.58,7-.74-.04-1.07.39-1.43.26-.73-1.85-1.51-1.34-2.46-1.82-2.27-1.13-8.24-4.56-9.21-4.93-.38-.14-4.71-1.32-4.15-.52,2.12.88,3.95,2.65,5.84,3.89l-7.52,2.33c-.49-.22-.74-.24-.78-.26-4.15-1.97-4.23-1.45-7.26-6.49v-.26c1.45-1.68,3.17-3.03,4.67-4.67,3.45-3.76,11-16.12,11.67-14.66-1.81,3.29-.81,1.22.39.39,1.56-1.09,7.7-4.98,9.08-5.19,14.45-1.68,25.26,2.93,34.24,3.63,1.71.13,1.72-.52,1.82-.52,3.56.13,4.43.78,4.67.78,2.35.03,8.55-2.25,9.47,1.69.16.66.02,6.14,1.04,5.32Z"/>
        <path class="cls-3" d="m82.79,146.37c-1.61,1.75-3.52,3.35-5.19,5.06.1.69,3.43.21,2.59,1.17-2.25.77-4.41,1.98-6.62,2.85-.07.03-.19-.77-1.17.52-.52.08-5.72,1.49-6.87,1.82-.45.13-3.04,1.11-2.98,1.3-.34.03-.69-.02-1.04,0-.24-.33.16-2.35-4.15-2.59-.49-.98,5.13-6.88,5.58-7,.82-.24,4.64,1.63,10.38-5.97,3.69-.74,7.62-5.02,10.64-7,2.43-1.6,5.06-2.86,7.52-4.41,2.32,1.58,3.83-.24,4.15,0,.16.11.23,2.5.13,2.72-.19.45-4.67,2.52-7.91,5.58-1.59,1.5-3.42,4.19-5.06,5.97Z"/>
        <path class="cls-32" d="m94.98,149.75c-3.15-.31-6.09.6-9.08,1.3-1.89.44-3.87.93-5.71,1.56.83-.96-2.5-.48-2.59-1.17,1.67-1.71,3.58-3.3,5.19-5.06,1.08,2.19,9.81,1.82,12.06,2.59.23.08.11.56.13.78Z"/>
        <path class="cls-12" d="m32.72,135.74c-.39,1.25-.97,2.55-.91,3.89l3.5-6.36-.78,2.98c-.31.53-.88.97-1.3,1.43-.11,1.13-1.37,4.55-1.82,5.45-1.49,3.04-4.67,3.88-1.04,5.58v.26c-.19-.04-.35-.17-.52-.26-1.03-.57-3.63-.22-5.19,0v-.26c1.68.57.4-2.46,0-7,3.68-.06,5.63-7.21,7.78-9.86-.89,4.22,1.54-2.49,3.11-3.5-1.07,2.5-2.05,5.06-2.85,7.65Z"/>
        <path class="cls-24" d="m32.46,131.59c-2.15,2.65-4.1,9.79-7.78,9.86-.88-10.05-.42-8.93,2.08-17.64.48-1.68,3.65-10.45,3.63-11.03,0-.21-.42-.48-.78-.13,2.38-5.25,5.74-10.21,7.78-15.57,3.69-3.33,6.37-3.26,6.23-7.78,1.23-.78,2.45-1.7,3.37-2.85.29-.15,2.16-1.01,1.56-1.3.4-.46-.21-.99,0-1.43.3-.61,6.13-3.87,7.13-4.28.15-.06,1.06.35,2.08,0,1.81-.62,4.18-3.03,2.21-.65l.39.13c2.65-2.32,5.26-3.84,8.69-5.06-6.7,3.57-11.14,9.96-16.08,15.57.23,2.53-1.01,2.87-1.04,4.93-4.57,8.34-8.64,17.06-11.93,25.94-1.73,3.13-6.87,8.21-7.52,11.28Z"/>
        <path class="cls-6" d="m26.76,123.8c-2.49,8.71-2.96,7.59-2.08,17.64.4,4.54,1.68,7.57,0,7-1.12-.87-2.13-12.04-2.08-13.1.05-.96,1.41-6.92,1.82-8.04.25-.68,1.7-3.91,2.33-3.5Z"/>
        <path class="cls-13" d="m119.63,82.04c.24,2.98.36,6.35.26,9.34-1.07,1.1-.55,5.76-1.3,8.69-2.02,2.22-11.33,20.56-11.41,21.79-.18,2.75,3.8,5.9,3.89,6.49.13.87-2.25,3.31-1.82,4.54-.87,1.67-1.74,2.46-1.82,2.59-1.02.82-.88-4.65-1.04-5.32-.92-3.94-7.12-1.66-9.47-1.69-.24,0-1.1-.65-4.67-.78-.09,0-.11.65-1.82.52-8.99-.7-19.8-5.31-34.24-3.63-1.38.21-7.52,4.1-9.08,5.19-1.19.83-2.2,2.9-.39-.39-.67-1.47-8.22,10.89-11.67,14.66,2.05-6.13,7.51-10.42,8.82-16.86q3.63-3.44,7.26-6.87c1.33-5.64,6.24-9.18,8.56-14.27.03-.35-.29-.39-.26-.91.85-3.06.68-6.56,2.85-9.08-.9,2.09-.57,2.14-.13,4.41.29-3.25,2.23-4.77,3.89-7.26l-1.82,4.41c2.34-2.76,6.55-8.65,5.84-5.58-.06.26-2.23,2.37-1.43,2.72.32-1.23,11.05-10.45,11.28-9.73-2.66,3.28-.89,4.5-1.04,5.45-.06.42-3.26,1.17,3.76,6.1,4.9-.49,9.44,0,14.27-.78,11.02-5.15,18.81-1.84,19.33-17.25l1.3,5.45c1.41-11.16.62-6,1.56-2.08.05.19.34.13.52.13Z"/>
        <path class="cls-22" d="m119.89,91.38c-.37,10.92-5.55,31.75-10.64,41.51-.43-1.23,1.95-3.67,1.82-4.54-.09-.58-4.07-3.74-3.89-6.49.08-1.23,9.39-19.57,11.41-21.79.75-2.93.22-7.59,1.3-8.69Z"/>
        <path class="cls-55" d="m43.88,127.18c-1.31,6.45-6.77,10.73-8.82,16.86-1.5,1.64-3.22,2.99-4.67,4.67-3.63-1.7-.45-2.54,1.04-5.58.44-.9,1.71-4.32,1.82-5.45.42-.45.99-.9,1.3-1.43,1.37-2.35,3.53-4.94,5.06-7.26l-.78,3.11,5.06-4.93Z"/>
        <path class="cls-32" d="m51.66,156.75c-.04.13.02.35,0,.52-3.21.33-7.63-.77-7.52.52-1.17-.45-3.52-.74-4.28-1.04-.21-.08-1.09-.89-1.43-1.04l7.52-2.33c1.82,1.2,3.85,2.22,5.71,3.37Z"/>
        <path class="cls-22" d="m59.44,105.12c-.03.52.29.55.26.91-2.32,5.09-7.23,8.63-8.56,14.27q-3.63,3.44-7.26,6.87l-5.06,4.93.78-3.11c-1.53,2.32-3.68,4.92-5.06,7.26l.78-2.98-3.5,6.36c-.07-1.34.52-2.64.91-3.89,3.34-7.03,20.52-24.8,21.79-27.37.72-1.45,1.82-5.44,0-5.97,1.36-4.15.95-1.71,1.04-1.56.72,1.3,1.53.06,1.04,6.49-1.48,2.49-.47,1.87.52-.26.25-1.23,1.38-8.4,1.82-8.56.5.05.56,5.86.52,6.62Z"/>
        <path class="cls-42" d="m92.39,51.42c.72.11,1.41.41,2.08.52-.75,1.54-2.08,5.14-2.85,6.1-4.47,5.5-25.42,4.47-27.37,4.8-1.52.26-1.09,1.68-3.63,4.15-1.17,1.14-2.96,1.84-4.02,3.11-1.29-3.24,2.66-6.37,1.56-11.03.57-.55.91-1.26,1.3-1.95l12.06-.52c7-6.58,16.04-2.84,14.66-5.97,2.1.25,4.13.47,6.23.78Z"/>
        <path class="cls-42" d="m67.48,47.53c.11.05,1.15,1.17,1.82,1.56.42.24.48.32.65.78,2.46-.15,4.93-.41,7.39-.26,1.21.07,2.42.16,3.63.26.26.02.52-.02.78,0,.07,0-.31.11,1.3.26,1.03.09,2.1.4,3.11.52,1.38,3.13-7.66-.61-14.66,5.97l-12.06.52c1.17-2.08,1.9-1.47-2.08-1.56.06-.14.36-2.66.26-3.11,2.59-2.23,5.34-4.24,8.56-5.45.39.13.95.34,1.3.52Z"/>
        <g>
          <g>
            <path class="cls-4" d="m59.44,57.13c-.38.68-.72,1.39-1.3,1.95,1.1,4.65-2.84,7.78-1.56,11.03-.07.08-.8,1.43-1.04,1.82-.74,1.18-1.58,3.95-2.33,4.8-1.3,1.46-4.68,2.07-5.06,2.46-.29.29-.6,1.98-.65,2.08-2.04,4.02-2.18,4.14,1.04,3.89.6.29-1.26,1.15-1.56,1.3-2.46,1.27-5.47,2.07-8.04,3.11,0-.64.39-1.24.26-2.33-.24-1.68-.74-1.23-.78-1.3-.89-1.4-2.93-2.85-4.15-4.02-.13-.59,1.63-4.99,2.08-5.84,1.68-3.24,1.11-1.71,1.82-2.33.74-.65,5.08-3.46,5.19-3.76.29-.8-.41-2.11-.26-2.59.16-.5,3.01-.73,3.76-4.8,1.54.08,3.03-.31,4.54-.52.91-.12,1.45.54,2.08.13.37-3.1,3.7-6.19,3.89-6.62,3.98.09,3.24-.52,2.08,1.56Z"/>
            <path class="cls-48" d="m43.62,89.3c.15,4.52-2.54,4.45-6.23,7.78.72-1.88,1.24-3.86,2.08-5.71.52.33,2.52-1.55,3.76-2.33.33-.21.37.27.39.26Z"/>
            <path class="cls-41" d="m46.99,86.45c-.92,1.15-2.14,2.08-3.37,2.85-.02.01-.06-.47-.39-.26-1.25.78-3.24,2.67-3.76,2.33.06-.48-.5-.82-.52-1.82,2.58-1.05,5.59-1.84,8.04-3.11Z"/>
          </g>
          <path class="cls-5" d="m57.37,55.58c-.19.43-3.52,3.52-3.89,6.62-.63.41-1.17-.25-2.08-.13-1.07-4.44,2.81-3.94,3.11-5.06.57-2.1-2.23.07,3.11-4.54.1.45-.2,2.97-.26,3.11Z"/>
        </g>
        <path class="cls-45" d="m47.51,81.26c.05-.1.36-1.78.65-2.08.38-.4,3.76-1.01,5.06-2.46.75-.85,1.6-3.62,2.33-4.8,2.97-1.84-.3,3.64-1.04,4.54-1.87,2.27-4.83,2.82-7,4.8Z"/>
        <g>
          <path class="cls-16" d="m110.29,54.02c.32,1.04,4.94,8.65,5.97,11.03,1.55,5.61,2.91,11.19,3.37,16.99-.17,0-.47.06-.52-.13-.94-3.92-.15-9.08-1.56,2.08l-1.3-5.45c-.52,15.42-8.31,12.11-19.33,17.25-4.82.77-9.36.29-14.27.78-7.02-4.93-3.83-5.67-3.76-6.1.15-.94-1.62-2.16,1.04-5.45-.24-.72-10.97,8.5-11.28,9.73-.8-.35,1.37-2.47,1.43-2.72.71-3.07-3.5,2.82-5.84,5.58l1.82-4.41c-1.67,2.5-3.61,4.02-3.89,7.26-.44-2.27-.77-2.32.13-4.41.79-1.83,4.35-5.54,5.19-9.21,7.29-9.08,18.44-13.32,29.44-15.7,2.65-1.27,5.26-3.88,5.71-4.15.75-.46,3.2-.78,3.63-1.04.64-.39,1.42-2.18,2.08-2.59.37-.24.45.57.52.52,1.35-.99-2.55-8.26-2.72-9.86,1.23.15,2.96.33,4.15,0Z"/>
          <path class="cls-11" d="m108.34,68.29c2.48-.19,6.55,5.2,6.87,7.65.5,3.71-.33,10.57-3.5,13.1-2.09,1.66-12,4.43-15.57,6.49-2.99-.14-12.5.65-14.53-.26-2.65-1.19.56-3.24-.91-7.65,7.14-12.09,9.17-7.76,19.33-13.88.43-.26,6.13-5.28,8.3-5.45Z"/>
        </g>
        <g>
          <path class="cls-52" d="m98.87,52.72c2.4.42,4.86,1.01,7.26,1.3.18,1.59,4.07,8.87,2.72,9.86-.07.05-.15-.75-.52-.52-.66.42-1.44,2.21-2.08,2.59-.43.26-2.89.57-3.63,1.04-.44.28-3.06,2.88-5.71,4.15-11,2.38-22.15,6.62-29.44,15.7-.84,3.67-4.4,7.38-5.19,9.21-2.17,2.52-2,6.02-2.85,9.08.04-.76-.02-6.56-.52-6.62-.44.16-1.57,7.33-1.82,8.56-.99,2.13-2,2.74-.52.26.49-6.42-.32-5.19-1.04-6.49-.09-.16.32-2.59-1.04,1.56,1.82.53.72,4.51,0,5.97-1.27,2.56-18.45,20.33-21.79,27.37.8-2.6,1.78-5.15,2.85-7.65-1.57,1.02-4.01,7.72-3.11,3.5.65-3.08,5.79-8.15,7.52-11.28,3.29-8.89,7.36-17.6,11.93-25.94.03-2.06,1.27-2.4,1.04-4.93,4.95-5.6,9.38-12,16.08-15.57-3.43,1.22-6.04,2.74-8.69,5.06l-.39-.13c1.97-2.38-.4.02-2.21.65-1.02.35-1.93-.06-2.08,0-1.01.41-6.84,3.67-7.13,4.28-.21.44.4.97,0,1.43-3.21.25-3.08.13-1.04-3.89,2.17-1.98,5.14-2.53,7-4.8.74-.9,4.01-6.38,1.04-4.54.24-.38.97-1.74,1.04-1.82,1.07-1.27,2.85-1.98,4.02-3.11,2.54-2.47,2.11-3.89,3.63-4.15,1.95-.33,22.9.7,27.37-4.8.77-.95,2.1-4.55,2.85-6.1,1.49.24,2.93.52,4.41.78Z"/>
          <path class="cls-24" d="m103.67,59.47c.31-.08.9-.15.91.39.02,1.31-3.22.24-.91-.39Z"/>
        </g>
      </g>
      <g>
        <path class="cls-39" d="m28.05,116.54c-1.9,4.42-3.71,8.88-5.45,13.36-.67,2.61-.8,5.32-1.56,7.91-.14.48-.35,1.08-.52,1.56-2.16,6.23-4.83,5.85-.78,6.49l.78,5.19c-2.62,1.54-5.17,3.18-4.41,1.82.04-.1.24-2.37-.13-2.08-7.09,8.97-.75-1.55.52-8.82-.52-.19-1.83,4.36-1.69,1.04.03-.78.2-1.54.26-2.33.9.19,1.19-2.88,1.82-4.54.68-1.8,5.59-13.1,6.23-14.27,1.28-2.35,5.15-8.16,4.93-5.32Z"/>
        <path class="cls-29" d="m29.35,113.17c-.49,1.1-.83,2.27-1.3,3.37.22-2.84-3.65,2.97-4.93,5.32-.64,1.17-5.55,12.47-6.23,14.27-.62,1.66-.92,4.73-1.82,4.54.17-2.15.32-4.37.78-6.49.13-2.66-.94-4.72,0-7.52l3.89-7.39c1.96-1.71,10.59-15.07,11.41-15.57,1.08-.65-1.48,5.12-1.82,5.71-1.61,2.86-6.54,8.12-8.56,11.67.35,1.22,7.8-7.48,8.56-7.91Z"/>
        <path class="cls-56" d="m17.42,114.2c.23-1.52.24-3.15.52-4.67.19-.05.35.28.39.26.6-.26,9.14-8.22,9.86-8.56.39-.19.71-.38.65.13-3.64,3.98-6.85,8.38-10.38,12.45-.47.54-.57.75-1.04.39Z"/>
        <path class="cls-56" d="m30.39,96.05c-3.08,4.21-7.04,6.03-7.52,8.3-1.39,1.09-4.09,4.86-4.41,2.85.22-1.11.4-2.25.52-3.37l11.41-7.78Z"/>
        <path class="cls-51" d="m20.27,102.53c-.83.33-.21.06-.78-.26.22-1.89,1.4-4.15,1.82-5.71,1.07.4,4.73-3.11,5.71-4.67.32,6.38-4.91,6.34-6.75,10.64Z"/>
        <path class="cls-49" d="m40.76,59.73v2.33c-.81,1.11-1.5,2.63-2.08,3.89-.34.21-.31.56-.65.78-.87-.02.87-1.83.78-4.15-.24-.1-2.18,3.38-4.02,3.11,1.46-2.13,3.6-3.7,5.19-5.71.39-.29.74-.24.78-.26Z"/>
        <path class="cls-28" d="m43.62,56.87c-.8.82-1.98,2.3-2.85,2.85-.03.02-.39-.03-.78.26.9-1.14,4.43-5.99,4.67-7,.25-.04.61.06.78,0,.58-.21.55-.81,1.43-.78,2.36.09.53.82-3.24,4.67Z"/>
        <path class="cls-18" d="m27.01,91.89c-.98,1.56-4.64,5.07-5.71,4.67.15-.56.38-1.05.52-1.56-.04,1.44,2.83-2.06,4.93-3.89.88-.03.23.15.26.78Z"/>
        <path class="cls-8" d="m36.35,76.07c-.44.85-2.21,5.25-2.08,5.84,1.22,1.17,3.26,2.62,4.15,4.02-.88.94-2.13.26-2.59.65-.64.54-1.93,8.66-2.85,10.25-.22.11-1.3.85-1.56.39.68-1.52,1.46-3.31,1.82-4.93,1.5-6.88,1.37-10.67-.65-1.43-2.01-2.2-2.75,2.97-1.69-3.63,1.06-2.25,1.43-4.84,2.33-7.13.38-.95,1.74-2.61,1.3-3.5.19-.13,1.5-.69,1.82-.52Z"/>
        <path class="cls-56" d="m34.54,76.59c.44.89-.92,2.55-1.3,3.5-.91,2.29-1.27,4.88-2.33,7.13-.74,1.85-1.48,3.92-2.33,5.71-.1.22-.81-.43-1.82,4.15-.39.71-5.73,5.15-6.49,5.45,1.84-4.29,7.07-4.26,6.75-10.64-.03-.63.62-.81-.26-.78,1.61-2.65,6.25-13.45,7.78-14.53Z"/>
        <path class="cls-29" d="m39.21,87.22c-2.71,2.01-3.49,8.26-6.23,9.6.92-1.59,2.22-9.71,2.85-10.25.46-.39,1.71.29,2.59-.65.04.06.54-.38.78,1.3Z"/>
        <path class="cls-8" d="m22.86,104.35c.48-2.27,4.44-4.1,7.52-8.3.05-.07-.65-.3.65-1.3.71,4.45-5.15,7.23-8.17,9.6Z"/>
        <path class="cls-8" d="m26.76,97.08c1-4.58,1.71-3.94,1.82-4.15.54.9,1.09-1.02,1.69-1.3,3.58-1.7-1.64,5.95-3.5,5.45Z"/>
        <g>
          <path class="cls-39" d="m32.98,96.82c2.74-1.34,3.52-7.59,6.23-9.6.14,1.1-.27,1.69-.26,2.33.01,1,.58,1.34.52,1.82-.84,1.84-1.36,3.82-2.08,5.71-2.04,5.35-5.4,10.31-7.78,15.57-.03.06-.14.25-.26.52-.76.43-8.22,9.13-8.56,7.91,2.02-3.56,6.95-8.82,8.56-11.67.33-.59,2.9-6.36,1.82-5.71-.83.5-9.46,13.85-11.41,15.57l-3.89,7.39c0-1.38.13-2.78.26-4.15,0-.07.1.29.26-1.3-.73,3.14,1.84-1.17,3.11-3.76.05-.09-.31-1.02.26-2.08.99-1.82,6.6-8.57,5.58-8.95-2.42,2.86-4.92,7.03-7.39,9.73-.5.54-.55.75-1.04.39.1-.76.4-1.59.52-2.33.47.36.57.15,1.04-.39,3.53-4.07,6.74-8.47,10.38-12.45.06-.51-.26-.32-.65-.13-.71.34-9.26,8.3-9.86,8.56-.04.02-.2-.31-.39-.26.14-.77.37-1.56.52-2.33.32,2,3.02-1.76,4.41-2.85,3.02-2.37,8.88-5.14,8.17-9.6-1.29.99-.6,1.22-.65,1.3l-11.41,7.78.52-1.56c.56.32-.05.59.78.26.76-.3,6.1-4.73,6.49-5.45,1.86.5,7.08-7.15,3.5-5.45-.59.28-1.14,2.2-1.69,1.3.86-1.79,1.59-3.85,2.33-5.71-1.07,6.6-.32,1.43,1.69,3.63,2.02-9.25,2.15-5.45.65,1.43-.35,1.62-1.14,3.41-1.82,4.93.25.46,1.34-.28,1.56-.39Z"/>
          <path class="cls-56" d="m16.38,121.21c.16-1.55.32-3.13.52-4.67.48.36.54.15,1.04-.39,2.47-2.7,4.97-6.86,7.39-9.73,1.02.38-4.59,7.13-5.58,8.95-.57,1.05-.21,1.98-.26,2.08-1.27,2.59-3.84,6.9-3.11,3.76Z"/>
          <path class="cls-8" d="m31.81,97.86c1.11-.1-1.02,3.18-2.08,3.37l2.08-3.37Z"/>
        </g>
        <path class="cls-17" d="m63.07,44.68c-1.1,2.86,1.37,1.73,3.11,2.33-3.23,1.21-5.97,3.22-8.56,5.45-5.34,4.61-2.55,2.43-3.11,4.54-.3,1.12-4.18.62-3.11,5.06-1.51.2-3,.59-4.54.52-.75,4.06-3.6,4.29-3.76,4.8-.15.48.55,1.79.26,2.59-.11.3-4.45,3.11-5.19,3.76-.48-.64,1.47-2.41.52-4.28,5.26-3.22,5.7-6.55,7.78-8.95,2.02-2.32,7.28-5.13,5.71-5.97.64-.33,1.14-1,1.82-1.3.13-.06.2.37.91,0,.73-.9,2.14-2.1,1.69-3.11.08-.02.18.03.26,0,1.2-.25-.83,1.75-.13,2.08.18.08,2.84-2.19.91-2.59.37-.19,1.38-.18,1.56-.65.12-.31-1.64-3.05,3.89-4.28Z"/>
        <path class="cls-17" d="m50.88,44.42c-.37,2.18-.25,4.42-.52,6.62.15.23.47.1.78.13,1.07,1.38-3.79.49-1.82,2.59-1.55,1.63.02,1.83-1.56,3.63-.36.41-2.3,1.52-2.59,1.82-.04-.93-.36-.68-1.04-.52,2.75-3.31,4.42-5.51-.52-1.82,3.78-3.85,5.6-4.58,3.24-4.67-.87-.03-.85.56-1.43.78.46-1.65,1.7-1.49,1.82-1.56.02-.01-.14.33.52,0,1.84-.74,1.84-7.65,3.11-7Z"/>
        <path class="cls-17" d="m52.7,53.5c-.54.27-1.31,1.02-1.82,1.43.11.34,1.1-.28,1.3-.39,1.57.84-3.69,3.65-5.71,5.97l1.3-3.11c1.58-1.8,0-2,1.56-3.63,1.08-1.13,1.81-.58,3.37-.26Z"/>
        <path class="cls-17" d="m45.17,59.21c-1.96,1.97-4.23,5.33-6.49,6.75.58-1.26,1.26-2.78,2.08-3.89,1.31-1.79,3.14-3.09,3.37-3.37.68-.16,1-.41,1.04.52Z"/>
        <g>
          <path class="cls-51" d="m46.47,60.5c-2.08,2.4-2.52,5.73-7.78,8.95.95,1.87-1,3.64-.52,4.28-.71.63-.13-.9-1.82,2.33-.31-.17-1.63.39-1.82.52-1.53,1.07-6.18,11.88-7.78,14.53-2.1,1.84-4.97,5.33-4.93,3.89,2.85-10.3,4.98-21.52,12.97-29.31,1.84.26,3.78-3.22,4.02-3.11.09,2.32-1.65,4.13-.78,4.15.34-.22.31-.56.65-.78,2.25-1.41,4.52-4.78,6.49-6.75.3-.3,2.24-1.41,2.59-1.82l-1.3,3.11Z"/>
          <path class="cls-51" d="m33.76,72.44c-2.41.21-2.75-2.06,1.04-2.85,1.91-.06-1.12,1.77-1.04,2.85Z"/>
          <path class="cls-56" d="m33.76,72.44c-.08-1.09,2.95-2.92,1.04-2.85-1.29-1.22,2.47-1.55,2.33-.65-.04.25-2.31,3.41-3.37,3.5Z"/>
        </g>
        <path class="cls-51" d="m44.14,58.69c-.23.28-2.06,1.59-3.37,3.37v-2.33c.88-.56,2.05-2.03,2.85-2.85,4.94-3.7,3.26-1.49.52,1.82Z"/>
        <path class="cls-17" d="m56.59,50.13c.45,1.02-.96,2.21-1.69,3.11-.7.37-.78-.06-.91,0-.06.03.29-.54-1.3.26-1.57-.32-2.3-.87-3.37.26-1.98-2.11,2.89-1.22,1.82-2.59.28.02,4.88-.86,5.45-1.04Z"/>
        <path class="cls-8" d="m68.78,45.46c.06.02.74.71,1.04.78l-2.33,1.3c-.35-.18-.91-.38-1.3-.52-1.74-.61-4.21.52-3.11-2.33,3.71-.82,3.76.02,5.71.78Z"/>
        <path class="cls-51" d="m56.85,50.13s-.06-.1.78-.52c1.93.4-.73,2.68-.91,2.59-.7-.33,1.33-2.33.13-2.08Z"/>
        <path class="cls-10" d="m53.99,53.24c-.67.3-1.18.96-1.82,1.3-.2.1-1.18.73-1.3.39.5-.41,1.28-1.16,1.82-1.43,1.59-.79,1.24-.23,1.3-.26Z"/>
      </g>
      <g>
        <g>
          <path class="cls-43" d="m113.4,10.69c0,.49.34.87.52,1.3,2.14,5,1.48,2.11,5.45.52,1.25-.5,1.58-.58,3.11-.78,4.21-.55,8.89-.44,12.97.78,2.01.6,3.95,1.37,5.19,3.11-8.08.65-29.32,1-34.24,5.45-.33-.39-.24-.49-.26-.52,2.36-4.21,9.91-5.98,4.93-6.36,2.6-.04,1.19-.76,1.04-3.5.93-.16.87.02,1.3,0Z"/>
          <path class="cls-17" d="m140.64,15.62s.34.03.52.52c-.52,0,.35.66-.13,1.04-1.25.98-15.84,1.7-18.68,2.08-4.99.65-9.92,1.94-14.92,2.59-.09-.1-.69-.42-.78-.52-.15-.16-.25-.25-.26-.26,4.92-4.45,26.17-4.8,34.24-5.45Z"/>
          <path class="cls-17" d="m134.42,19.26c-3.72,1.03-7.42,1.91-11.16,2.85-2.09.53-4.15,1.3-6.23,1.82-1.96.49-3.86,1.17-5.84,1.56-.98-.7-1.8-1.57-2.72-2.33-.36-.3-.71-.94-1.04-1.3,5-.65,9.92-1.94,14.92-2.59,2.84-.37,17.43-1.1,18.68-2.08.48-.38-.39-1.05.13-1.04.81,2.24-2.11,1.83-6.75,3.11Z"/>
        </g>
        <path class="cls-39" d="m112.11,10.69c.15,2.74,1.56,3.47-1.04,3.5,4.98.38-2.57,2.14-4.93,6.36-.06-.09-.61.59-.52-.13.13-.98,3.07-3.13-5.45,1.17-.61.08-1.24.39-1.82.52-2.35-.97-6.33.86-7.39-1.3-.32,1.22-.92,2.12-1.69,3.11-.7-.02-1.51.65-2.08.78.77-2.32-1.39-.95-2.72-1.3-1.52-.4-3.16-4.15-1.43-4.93.74-.33,1.24.42,2.59-1.04.75-.81,1.46-.89,0-1.56l1.04-1.04c3.27,1.34,3.98,4.21,4.28,4.15.19-.04.04-.91.52-1.04.13-.04,1.58,1.13,2.59,1.04.92-.09,14.59-7.03,16.73-8.04,1.95-.92.85-.18,1.3-.26Z"/>
        <path class="cls-21" d="m115.74,11.99c1.14.05,2.48.35,3.63.52-3.97,1.6-3.31,4.48-5.45-.52,1.57.6,1.73,0,1.82,0Z"/>
        <path class="cls-28" d="m114.96,10.44c.32.46.48,1.08.78,1.56-.09,0-.25.6-1.82,0-.18-.42-.53-.8-.52-1.3.08,0-.17-.41,1.56-.26Z"/>
        <g>
          <path class="cls-56" d="m106.14,20.55s-.07.13.26.52c.01.01.11.1.26.26-2.05.95-4.29-.04-6.49.26,8.52-4.3,5.57-2.15,5.45-1.17-.09.72.46.04.52.13Z"/>
          <path class="cls-51" d="m107.44,21.85c.33.36.68,1,1.04,1.3h-.26c-1.75-.9-2.7-.5-2.85-.52-.03,0,.02-.22-.39-.52h-1.56c-2.78,2.49-6.1,4.23-9.21,6.23-.54-1.92-1.25.03-1.82.52-1.45,1.25-3.91,3.73-5.19,4.67-.04.03.1.42-.13.52l-2.72,1.04c-.88-.2-1.98-.16-1.82-.65,2.04-2.22,4.95-4.74,6.23-7.39l6.62-3.37-.39-.26s-.1-.45.13-.52h2.33c.15-.15.85-.76.91-.78.58-.13,1.21-.44,1.82-.52,2.2-.3,4.44.69,6.49-.26.09.1.68.42.78.52Z"/>
          <path class="cls-18" d="m108.21,23.15h.26c.92.77,1.75,1.63,2.72,2.33,1.98-.39,3.88-1.07,5.84-1.56-.47.85-1.14,1.72-1.56,2.59-2,.47-2.72,2.43-4.15,2.59-.13.01-2-.27-1.95-1.04-.83.52-3.22,4.61-3.63,4.67-1.27.19.36-1.94.39-2.33.05-.64-.53-.8-.52-.91.17-2.61-.01-6.98,2.59-6.36Z"/>
          <path class="cls-11" d="m110.29,54.02c-1.19.33-2.92.15-4.15,0-2.41-.29-4.87-.88-7.26-1.3-.04-1.18-2.89-.2-2.59-1.43,4.18-5.29,7.21-11.42,11.16-16.86,1.19-1.65,3.92-4.12,3.89-5.32,1.43-.16,2.15-2.13,4.15-2.59-2.78,5.84-7.02,21.52-5.19,27.5Z"/>
          <g>
            <path class="cls-21" d="m86.68,14.85l-1.04,1.04c-1.19-.54-2.91-.07-3.89.78-2.59,2.24-1.14,9.55,5.45,8.04.56-.13,1.37-.8,2.08-.78-.64.82-.48,1-.52,1.04-2.24,2.2-6.16,2.47-9.08,1.56-.11-.03-1.68-.84-2.08-1.04-.55-.27-2.67-3.36-6.23-2.59l.26-.78c2.43-1.27,7.92-6.77,9.86-7.52.4-.15,1.4-.44,1.82-.52,1.05.44,2.3.34,3.37.78Z"/>
            <path class="cls-17" d="m81.75,17.18c.16.57.95.89,1.3,1.3-1.73.77-.1,4.53,1.43,4.93,1.33.35,3.5-1.03,2.72,1.3-6.59,1.51-8.04-5.81-5.45-8.04.02.17-.04.39,0,.52Z"/>
            <path class="cls-21" d="m98.36,22.11c-.06.01-.76.63-.91.78h-2.33c-.23.07-.1.51-.13.52-2.04.62-4.13,1.14-6.23,1.56.04-.04-.12-.22.52-1.04.77-.99,1.37-1.89,1.69-3.11,1.07,2.16,5.04.33,7.39,1.3Z"/>
            <path class="cls-48" d="m85.64,15.88c1.46.66.75.74,0,1.56-.57-1.1-2.72-.59-3.89-.26-.04-.13.02-.35,0-.52.98-.85,2.7-1.32,3.89-.78Z"/>
            <path class="cls-5" d="m85.64,17.44c-1.36,1.46-1.86.71-2.59,1.04-.34-.41-1.14-.73-1.3-1.3,1.17-.33,3.32-.84,3.89.26Z"/>
          </g>
          <path class="cls-2" d="m77.6,25.48c-4.23,2.71,4.39,3.55,5.45,2.33,1.92.09,3.85-.37,5.71-.78-1.27,2.66-4.19,5.17-6.23,7.39-.17.49.94.45,1.82.65.44.1,2.33.04,2.59.39l-2.59,7.91c-2.17,1.51-.22.72-.13.78.7.48-3.47,4.48-3.5,5.06-.02.26,1.38-.12.26.65-1.21-.1-2.42-.19-3.63-.26l.91-2.59c-1.45.51-3.03.76-4.54,1.04-2.6-.07-1.14-2.01.26-2.72-.02-1.31-.74-1.11-.78-1.17-3.95-5.77-5.54-4.77-8.56-7.26-.56-.46-.49-.49-.52-.52-.35-4.07,2.2-10.37.52-10.64.41-.41,1.1-.42,1.56-.78l5.19-2.08c3.56-.76,5.68,2.32,6.23,2.59Z"/>
          <path class="cls-25" d="m100.69,32.49c-.86,1.34-3.82,4.13-1.3,2.85-1.05,1.03-1.83,2.32-2.85,3.37-3.44.22-9.05,3.5-1.56,1.04-4.98,2.34-7.58,7.27-11.93,10.38-1.61-.14-1.23-.25-1.3-.26,4.33-4.95,8.74-9.85,13.23-14.66,3.43-3.67,4.18-4.61,3.37-2.46-.71.96-1.96,2.03-1.95,3.37.73-1.1,1.47-2.12,1.95-3.37.16-.22,1.57-1.57,1.56-1.69-.27-2.47-9.27,8-11.03,9.47-.62.52-3.43,2.08-4.54,2.85l2.59-7.91c-.26-.35-2.15-.29-2.59-.39l2.72-1.04c.23-.1.09-.49.13-.52,2.65-1.36,5.66-2.28,8.3-3.63,1.2-.61,1.23-.74,1.3-.78,1.71-.92,1.49-.48,1.56-.52.18,1.47,4.79-3.24,6.49-4.15.39.85-2.92,6.12-4.15,8.04Z"/>
          <path class="cls-56" d="m105.36,22.63c-2.14,1.9-4.61,4.5-7,5.97-.07.04.15-.4-1.56.52l-1.3.78c-2.64,1.35-5.65,2.27-8.3,3.63,1.28-.94,3.74-3.42,5.19-4.67.65,1.08,1.03-.01,1.82-.52,3.11-2,6.43-3.74,9.21-6.23h1.56c.41.3.36.52.39.52Z"/>
          <path class="cls-34" d="m108.21,23.15c-2.61-.62-2.42,3.74-2.59,6.36,0,.1.57.27.52.91-.93-.16-.99.48-1.04.52-2.84,2.32-7.43,10.88-7,7.91.07-.51,7.83-9.93,1.3-3.5-2.52,1.28.44-1.51,1.3-2.85,4.82-2.63,6.41-9.26,4.15-8.04-1.69.91-6.31,5.62-6.49,4.15,2.4-1.46,4.87-4.06,7-5.97.15.02,1.1-.38,2.85.52Z"/>
          <path class="cls-40" d="m94.98,23.41l.39.26-6.62,3.37c-1.86.41-3.78.87-5.71.78-1.37-.06-2.77-.53-3.89-1.17l.52-.13c2.92.91,6.84.64,9.08-1.56,2.1-.42,4.18-.93,6.23-1.56Z"/>
          <path class="cls-56" d="m94.21,28.34c-.79.51-1.16,1.6-1.82.52.56-.49,1.27-2.44,1.82-.52Z"/>
          <path class="cls-11" d="m111.33,29.11c.03,1.2-2.7,3.67-3.89,5.32-3.94,5.44-6.97,11.57-11.16,16.86-.29,1.23,2.55.24,2.59,1.43-1.48-.26-2.92-.54-4.41-.78-.67-.11-1.36-.41-2.08-.52l4.67-5.58c-1.47-2.78.53-7.01,3.76-6.62.49-.22,4.09-7.01,4.28-8.3.04-.04.11-.68,1.04-.52-.03.39-1.66,2.53-.39,2.33.41-.06,2.8-4.14,3.63-4.67-.05.77,1.82,1.05,1.95,1.04Z"/>
          <path class="cls-48" d="m79.68,26.52l-.52.13c1.12.63,2.52,1.11,3.89,1.17-1.06,1.22-9.68.38-5.45-2.33.4.2,1.96,1,2.08,1.04Z"/>
          <path class="cls-18" d="m98.36,32.75c.81-2.14.06-1.21-3.37,2.46-4.49,4.81-8.91,9.7-13.23,14.66-.26-.02-.52.02-.78,0,1.12-.77-.28-.39-.26-.65.04-.58,4.21-4.58,3.5-5.06-.09-.06-2.04.73.13-.78,1.11-.77,3.92-2.34,4.54-2.85,1.76-1.47,10.75-11.94,11.03-9.47.01.12-1.39,1.47-1.56,1.69Z"/>
          <path class="cls-48" d="m64.11,36.38c-1.22-1.11-2.4-2.53-2.85-4.15.91-.36,2.58-5.68,3.37-6.49,1.68.27-.87,6.56-.52,10.64Z"/>
          <path class="cls-48" d="m73.19,44.16c.44.85-2.58,2.25-3.37,2.08-.3-.07-.98-.75-1.04-.78,6.61-2.55-.63-3.58-4.15-8.56,3.03,2.49,4.61,1.5,8.56,7.26Z"/>
          <path class="cls-18" d="m77.34,49.61c-2.47-.15-4.94.11-7.39.26-.16-.46-.23-.54-.65-.78.19-.64,2.67-.72,4.41-1.04,1.51-.27,3.09-.52,4.54-1.04l-.91,2.59Z"/>
          <path class="cls-46" d="m73.71,48.05c-1.74.32-4.22.4-4.41,1.04-.67-.38-1.71-1.5-1.82-1.56l2.33-1.3c.79.17,3.82-1.22,3.37-2.08.04.06.76-.15.78,1.17-1.4.71-2.86,2.65-.26,2.72Z"/>
          <path class="cls-18" d="m92.39,51.42c-2.1-.31-4.13-.52-6.23-.78-1.02-.12-2.08-.43-3.11-.52,4.35-3.1,6.96-8.04,11.93-10.38.31-.1,2.82-.98,1.56-1.04,1.03-1.05,1.81-2.34,2.85-3.37,6.53-6.43-1.22,2.99-1.3,3.5-.43,2.97,4.17-5.59,7-7.91-.19,1.29-3.79,8.08-4.28,8.3-3.23-.39-5.23,3.84-3.76,6.62l-4.67,5.58Z"/>
          <path class="cls-18" d="m100.69,32.49c1.23-1.92,4.54-7.19,4.15-8.04,2.26-1.21.67,5.42-4.15,8.04Z"/>
          <path class="cls-11" d="m96.54,38.71c1.26.06-1.25.94-1.56,1.04-7.49,2.46-1.89-.81,1.56-1.04Z"/>
          <path class="cls-18" d="m98.36,32.75c-.47,1.25-1.22,2.27-1.95,3.37-.01-1.34,1.23-2.42,1.95-3.37Z"/>
          <path class="cls-18" d="m96.8,29.11c-.07.04-.1.17-1.3.78l1.3-.78Z"/>
        </g>
        <g>
          <path class="cls-26" d="m114.96,10.44c-1.73-.15-1.48.26-1.56.26-.43.02-.37-.16-1.3,0-.45.08.66-.66-1.3.26,1.92-2.47-4.05-.82-8.17-2.08-.25.04,0,.73-.26.78-4.81.86-9.71,2.16-14.27,3.63-.62.2-1.16-.41-1.56-.26-.6.23-.25,1.16-.52,1.3-.12.06-1.11-.58-2.72-.26-.41.08-1.42.37-1.82.52.27-.69,3.92-1.34,3.89-2.21,0-.31-2.47.09,1.17-2.46l-10.38,1.3c-2.93.94-5.79,2.09-8.69,3.11-.13.05-.39-.05-.52,0,.14-.84.28-1.1,1.04-1.56,2.43-1.46,8.69-1.86,6.23-2.46,1.08-.69,3.13-.76,2.21-1.43,3.02-1.2,10.12-3.52,6.62-3.76.01-.64,7.18-2.35,8.17-2.46,4.67-.55,8.7.57,11.03-.52,3.77,1.31,10.42,5,12.71,8.3Z"/>
          <path class="cls-36" d="m61.52,9.14c-1.46,1.44-3.24,2.87-3.11,4.93-.91,1.13-2.09,2.89-2.85,4.15-1.36,2.24-3.45,6.08-3.89,8.56-1.96,8.08-4.37,16.31-4.41,24.65-.11.06-1.35-.09-1.82,1.56-.16.06-.53-.04-.78,0,.54-15.79,4.09-33.28,16.86-43.84Z"/>
          <path class="cls-50" d="m102.25,2.13c-2.32,1.09-6.35-.03-11.03.52-.99.12-8.16,1.83-8.17,2.46,3.51.24-3.59,2.56-6.62,3.76.92.66-1.13.74-2.21,1.43,2.47.61-3.79,1-6.23,2.46-2.21-.48,1.64-1.38,1.56-1.69-6.43.57-.11-1.23,2.33-1.82.42-.73-5.79,1.4-1.3-.52-.28-.61-3.87,1.33-1.3-.52.01-.04-.34-.22-.26-.39,2.94-1.31,6.21-1.56,9.21-2.59,2.55-.88,6.28-2.91,9.08-3.89,1.4-.49,3.24-.54,3.76-1.3,3.94.19,7.42.78,11.16,2.08Z"/>
          <path class="cls-54" d="m91.09.06c-.52.76-2.36.81-3.76,1.3-2.8.98-6.53,3.01-9.08,3.89-3,1.03-6.27,1.29-9.21,2.59.06-.12-.48-.8,1.3-.91-1.36-.44-1.95.93-2.08-1.17,2.69-1.45,5.76-2.56,8.69-3.37,3.13-.87,8.79-1.23,8.95-2.33,1.58-.08,3.6-.08,5.19,0Z"/>
          <path class="cls-35" d="m85.9.06c-.16,1.11-5.82,1.47-8.95,2.33-2.93.81-6,1.92-8.69,3.37-3.24,1.75-5.83,4.08-8.3,6.75-.48.52-1.1,1-1.56,1.56-.13-2.06,1.65-3.49,3.11-4.93C67.38,3.35,77.86.47,85.9.06Z"/>
          <path class="cls-14" d="m81.49,14.59c-1.94.75-7.42,6.26-9.86,7.52-1.55.5-4.99.86-6.49,2.33-.82.05-3.14.21-3.63.65-.49,2.23-2.35,3.92-1.82,6.36-3.35-2.39,1.04-5.33.52-6.36-.3-.58-3.7,2.02-1.3-2.46.54-.73,1.47-1.43,1.82-1.95.07-.11.15-1.5.26-1.69.02-.04.49.13.78-.39.01-.02-.36-.26-.26-.39,1.6-2.08,2.54-.72,2.72-.78.23-.07,3.11-2.19,3.24-3.11,2.9-1.02,5.76-2.17,8.69-3.11l10.38-1.3c-3.63,2.56-1.18,2.15-1.17,2.46.03.86-3.62,1.51-3.89,2.21Z"/>
          <path class="cls-19" d="m110.81,10.95c-2.14,1.01-15.81,7.96-16.73,8.04-1.02.09-2.46-1.07-2.59-1.04-.48.13-.33,1-.52,1.04-.3.06-1.01-2.82-4.28-4.15-1.07-.44-2.32-.34-3.37-.78,1.62-.32,2.6.32,2.72.26.27-.14-.08-1.07.52-1.3.4-.15.94.46,1.56.26,4.56-1.47,9.46-2.77,14.27-3.63.25-.04.01-.74.26-.78,4.12,1.26,10.09-.39,8.17,2.08Z"/>
          <path class="cls-9" d="m69.04,7.84c-.08.16.27.35.26.39-2.58,1.85,1.02-.09,1.3.52-4.49,1.92,1.72-.21,1.3.52-2.45.59-8.77,2.39-2.33,1.82.09.31-3.77,1.2-1.56,1.69-.76.45-.89.72-1.04,1.56-.76.27-1.94-.21-3.5,1.82-2.04-1.16-3.91,2.07-1.95,2.08-.1.13.27.37.26.39-.29.52-.76.35-.78.39-.27-.33-1.53-2.45-1.56-2.59-.39-2.07,1.28-2.83.52-3.89,2.47-2.66,5.07-5,8.3-6.75.13,2.09.71.72,2.08,1.17-1.77.11-1.24.79-1.3.91Z"/>
          <path class="cls-33" d="m66.97,14.33c.13-.05.39.05.52,0-.14.92-3.02,3.04-3.24,3.11-.18.06-1.13-1.3-2.72.78-1.96,0-.1-3.23,1.95-2.08,1.56-2.03,2.74-1.54,3.5-1.82Z"/>
          <path class="cls-57" d="m59.44,16.4c.03.15,1.28,2.26,1.56,2.59-.11.19-.19,1.58-.26,1.69-.35.52-1.28,1.21-1.82,1.95-1.76,2.4-4.4,4.7-5.45,7.52-1.29,3.46-.71,6.48-.52,10.12-2.09,1.72-1.63,1.51-2.08,4.15-1.27-.65-1.28,6.27-3.11,7,.53-1.04.83-2.68.26-3.76,1.16-.79.77-1.69.26-2.85.95-.38,1.19-4.56,1.3-6.23,2.06-2.56.64-7.14,2.08-7.52.08-1.36-.04-4.07,0-4.28.44-2.48,2.53-6.32,3.89-8.56,1.29,1.4,2.63-2.45,3.89-1.82Z"/>
          <path class="cls-31" d="m47.77,51.42c-.66.33-.5-.01-.52,0,.04-8.33,2.45-16.57,4.41-24.65-.04.21.08,2.92,0,4.28-1.44.39-.02,4.97-2.08,7.52-.11,1.67-.35,5.85-1.3,6.23.51,1.16.9,2.07-.26,2.85.57,1.08.27,2.72-.26,3.76Z"/>
          <path class="cls-31" d="m59.44,16.4c-1.26-.63-2.6,3.22-3.89,1.82.76-1.26,1.94-3.02,2.85-4.15.45-.56,1.08-1.04,1.56-1.56.76,1.06-.91,1.82-.52,3.89Z"/>
          <path class="cls-15" d="m71.64,22.11l-.26.78-5.19,2.08c-.49-1.34-.66-.54-1.04-.52,1.49-1.47,4.94-1.83,6.49-2.33Z"/>
          <path class="cls-38" d="m56.59,33.26c.39.26.95.18.78.91-2.55,6.5-3.02,4.96-4.41,6.1-.19-3.64-.77-6.65.52-10.12-.1,2.47,1.99,2.36,3.11,3.11Z"/>
          <g>
            <path class="cls-14" d="m59.7,31.45c.74.53,1.62-.06,1.04.78-1.09-.16-2.06.1-3.11.26-.96.15-2.12-.32-1.04.52v.26c-1.12-.75-3.21-.64-3.11-3.11,1.05-2.82,3.69-5.12,5.45-7.52-2.4,4.48,1,1.88,1.3,2.46.52,1.03-3.87,3.96-.52,6.36Z"/>
            <path class="cls-26" d="m66.19,24.96c-.45.36-1.15.36-1.56.78-.8.81-2.46,6.12-3.37,6.49h-.52c.58-.84-.3-.25-1.04-.78-.53-2.43,1.33-4.13,1.82-6.36.49-.44,2.82-.6,3.63-.65.38-.02.55-.82,1.04.52Z"/>
            <path class="cls-37" d="m57.63,32.49c.09,1.18-.24.66-1.04.52-1.09-.84.08-.37,1.04-.52Z"/>
          </g>
        </g>
      </g>
    </g>
  </g>
</svg>